<?xml version="1.0" encoding="UTF-8"?>
<svg xmlns="http://www.w3.org/2000/svg" xmlns:xlink="http://www.w3.org/1999/xlink" width="900" height="600" viewBox="0 0 900 600">
<defs>
<g>
<g id="glyph-0-0-e92a9a05">
<path d="M 10.65625 0 C 10.65625 0 9.421875 0 9.421875 0 C 9.421875 0 9.421875 -8.546875 9.421875 -8.546875 C 9.421875 -8.546875 6.546875 0 6.546875 0 C 6.546875 0 5.1875 0 5.1875 0 C 5.1875 0 2.28125 -8.546875 2.28125 -8.546875 C 2.28125 -8.546875 2.28125 0 2.28125 0 C 2.28125 0 1.046875 0 1.046875 0 C 1.046875 0 1.046875 -10.203125 1.046875 -10.203125 C 1.046875 -10.203125 2.859375 -10.203125 2.859375 -10.203125 C 2.859375 -10.203125 5.875 -1.3125 5.875 -1.3125 C 5.875 -1.3125 8.84375 -10.203125 8.84375 -10.203125 C 8.84375 -10.203125 10.65625 -10.203125 10.65625 -10.203125 C 10.65625 -10.203125 10.65625 0 10.65625 0 Z M 10.65625 0 "/>
</g>
<g id="glyph-0-1-e92a9a05">
<path d="M 7.1875 -3.328125 C 7.1875 -3.328125 1.78125 -3.328125 1.78125 -3.328125 C 1.8125 -1.65625 2.71875 -0.875 3.9375 -0.875 C 4.875 -0.875 5.53125 -1.265625 5.859375 -2.21875 C 5.859375 -2.21875 7.03125 -2.21875 7.03125 -2.21875 C 6.734375 -0.734375 5.578125 0.203125 3.890625 0.203125 C 1.828125 0.203125 0.5625 -1.21875 0.5625 -3.625 C 0.5625 -6.03125 1.875 -7.546875 3.921875 -7.546875 C 5.296875 -7.546875 6.40625 -6.8125 6.890625 -5.609375 C 7.09375 -5.0625 7.1875 -4.390625 7.1875 -3.328125 Z M 5.9375 -4.375 C 5.9375 -5.515625 5.046875 -6.46875 3.90625 -6.46875 C 2.734375 -6.46875 1.90625 -5.59375 1.8125 -4.28125 C 1.8125 -4.28125 5.921875 -4.28125 5.921875 -4.28125 C 5.9375 -4.3125 5.9375 -4.375 5.9375 -4.375 Z M 5.9375 -4.375 "/>
</g>
<g id="glyph-0-2-e92a9a05">
<path d="M 7.484375 -0.03125 C 7.109375 0.0625 6.9375 0.09375 6.6875 0.09375 C 6.125 0.09375 5.609375 -0.3125 5.484375 -0.875 C 4.84375 -0.1875 3.9375 0.203125 3 0.203125 C 1.515625 0.203125 0.59375 -0.578125 0.59375 -1.90625 C 0.59375 -2.796875 1.015625 -3.453125 1.875 -3.8125 C 2.328125 -3.984375 2.578125 -4.046875 4.234375 -4.25 C 5.15625 -4.375 5.453125 -4.578125 5.453125 -5.0625 C 5.453125 -5.0625 5.453125 -5.375 5.453125 -5.375 C 5.453125 -6.078125 4.859375 -6.46875 3.8125 -6.46875 C 2.71875 -6.46875 2.1875 -6.0625 2.09375 -5.171875 C 2.09375 -5.171875 0.90625 -5.171875 0.90625 -5.171875 C 0.984375 -6.859375 2.078125 -7.546875 3.84375 -7.546875 C 5.65625 -7.546875 6.609375 -6.84375 6.609375 -5.546875 C 6.609375 -5.546875 6.609375 -1.453125 6.609375 -1.453125 C 6.609375 -1.09375 6.828125 -0.875 7.234375 -0.875 C 7.3125 -0.875 7.359375 -0.875 7.484375 -0.90625 C 7.484375 -0.90625 7.484375 -0.03125 7.484375 -0.03125 Z M 5.453125 -2.53125 C 5.453125 -2.53125 5.453125 -3.625 5.453125 -3.625 C 5.046875 -3.4375 4.796875 -3.390625 3.5625 -3.21875 C 2.328125 -3.03125 1.8125 -2.703125 1.8125 -1.9375 C 1.8125 -1.140625 2.34375 -0.8125 3.25 -0.8125 C 4.375 -0.8125 5.453125 -1.484375 5.453125 -2.53125 Z M 5.453125 -2.53125 "/>
</g>
<g id="glyph-0-3-e92a9a05">
<path d="M 6.8125 0 C 6.8125 0 5.65625 0 5.65625 0 C 5.65625 0 5.65625 -5.078125 5.65625 -5.078125 C 5.65625 -5.96875 5.0625 -6.53125 4.140625 -6.53125 C 2.953125 -6.53125 2.140625 -5.546875 2.140625 -4.046875 C 2.140625 -4.046875 2.140625 0 2.140625 0 C 2.140625 0 0.984375 0 0.984375 0 C 0.984375 0 0.984375 -7.34375 0.984375 -7.34375 C 0.984375 -7.34375 2.0625 -7.34375 2.0625 -7.34375 C 2.0625 -7.34375 2.0625 -6.109375 2.0625 -6.109375 C 2.703125 -7.125 3.40625 -7.546875 4.5 -7.546875 C 5.90625 -7.546875 6.8125 -6.765625 6.8125 -5.546875 C 6.8125 -5.546875 6.8125 0 6.8125 0 Z M 6.8125 0 "/>
</g>
<g id="glyph-0-4-e92a9a05">
</g>
<g id="glyph-0-5-e92a9a05">
<path d="M 7.140625 -3.609375 C 7.140625 -1.203125 5.875 0.203125 3.828125 0.203125 C 1.734375 0.203125 0.5 -1.203125 0.5 -3.671875 C 0.5 -6.125 1.75 -7.546875 3.8125 -7.546875 C 5.921875 -7.546875 7.140625 -6.140625 7.140625 -3.609375 Z M 5.921875 -3.625 C 5.921875 -5.453125 5.140625 -6.46875 3.828125 -6.46875 C 2.515625 -6.46875 1.71875 -5.4375 1.71875 -3.671875 C 1.71875 -1.890625 2.515625 -0.875 3.828125 -0.875 C 5.109375 -0.875 5.921875 -1.90625 5.921875 -3.625 Z M 5.921875 -3.625 "/>
</g>
<g id="glyph-0-6-e92a9a05">
<path d="M 6.75 0 C 6.75 0 5.703125 0 5.703125 0 C 5.703125 0 5.703125 -1.140625 5.703125 -1.140625 C 5.015625 -0.171875 4.328125 0.203125 3.25 0.203125 C 1.8125 0.203125 0.90625 -0.578125 0.90625 -1.796875 C 0.90625 -1.796875 0.90625 -7.34375 0.90625 -7.34375 C 0.90625 -7.34375 2.078125 -7.34375 2.078125 -7.34375 C 2.078125 -7.34375 2.078125 -2.25 2.078125 -2.25 C 2.078125 -1.375 2.65625 -0.8125 3.578125 -0.8125 C 4.796875 -0.8125 5.59375 -1.796875 5.59375 -3.296875 C 5.59375 -3.296875 5.59375 -7.34375 5.59375 -7.34375 C 5.59375 -7.34375 6.75 -7.34375 6.75 -7.34375 C 6.75 -7.34375 6.75 0 6.75 0 Z M 6.75 0 "/>
</g>
<g id="glyph-0-7-e92a9a05">
<path d="M 3.5625 0 C 3.15625 0.0625 2.890625 0.09375 2.609375 0.09375 C 1.6875 0.09375 1.1875 -0.328125 1.1875 -1.0625 C 1.1875 -1.0625 1.1875 -6.390625 1.1875 -6.390625 C 1.1875 -6.390625 0.203125 -6.390625 0.203125 -6.390625 C 0.203125 -6.390625 0.203125 -7.34375 0.203125 -7.34375 C 0.203125 -7.34375 1.1875 -7.34375 1.1875 -7.34375 C 1.1875 -7.34375 1.1875 -9.359375 1.1875 -9.359375 C 1.1875 -9.359375 2.359375 -9.359375 2.359375 -9.359375 C 2.359375 -9.359375 2.359375 -7.34375 2.359375 -7.34375 C 2.359375 -7.34375 3.5625 -7.34375 3.5625 -7.34375 C 3.5625 -7.34375 3.5625 -6.390625 3.5625 -6.390625 C 3.5625 -6.390625 2.359375 -6.390625 2.359375 -6.390625 C 2.359375 -6.390625 2.359375 -1.578125 2.359375 -1.578125 C 2.359375 -1.0625 2.484375 -0.921875 3 -0.921875 C 3.21875 -0.921875 3.40625 -0.9375 3.5625 -0.984375 C 3.5625 -0.984375 3.5625 0 3.5625 0 Z M 3.5625 0 "/>
</g>
<g id="glyph-0-8-e92a9a05">
<path d="M 4.5 -6.3125 C 2.6875 -6.28125 2.140625 -5.453125 2.140625 -3.8125 C 2.140625 -3.8125 2.140625 0 2.140625 0 C 2.140625 0 0.984375 0 0.984375 0 C 0.984375 0 0.984375 -7.34375 0.984375 -7.34375 C 0.984375 -7.34375 2.046875 -7.34375 2.046875 -7.34375 C 2.046875 -7.34375 2.046875 -6 2.046875 -6 C 2.71875 -7.09375 3.296875 -7.546875 4.046875 -7.546875 C 4.203125 -7.546875 4.296875 -7.53125 4.5 -7.5 C 4.5 -7.5 4.5 -6.3125 4.5 -6.3125 Z M 4.5 -6.3125 "/>
</g>
<g id="glyph-0-9-e92a9a05">
<path d="M 3.96875 -3.359375 C 3.96875 -3.359375 0.640625 -3.359375 0.640625 -3.359375 C 0.640625 -3.359375 0.640625 -4.375 0.640625 -4.375 C 0.640625 -4.375 3.96875 -4.375 3.96875 -4.375 C 3.96875 -4.375 3.96875 -3.359375 3.96875 -3.359375 Z M 3.96875 -3.359375 "/>
</g>
<g id="glyph-0-10-e92a9a05">
<path d="M 3.609375 -6.390625 C 3.609375 -6.390625 2.390625 -6.390625 2.390625 -6.390625 C 2.390625 -6.390625 2.390625 0 2.390625 0 C 2.390625 0 1.234375 0 1.234375 0 C 1.234375 0 1.234375 -6.390625 1.234375 -6.390625 C 1.234375 -6.390625 0.25 -6.390625 0.25 -6.390625 C 0.25 -6.390625 0.25 -7.34375 0.25 -7.34375 C 0.25 -7.34375 1.234375 -7.34375 1.234375 -7.34375 C 1.234375 -7.34375 1.234375 -8.578125 1.234375 -8.578125 C 1.234375 -9.625 1.875 -10.25 2.953125 -10.25 C 3.1875 -10.25 3.34375 -10.234375 3.609375 -10.171875 C 3.609375 -10.171875 3.609375 -9.21875 3.609375 -9.21875 C 3.34375 -9.21875 3.296875 -9.21875 3.203125 -9.21875 C 2.671875 -9.21875 2.390625 -8.96875 2.390625 -8.484375 C 2.390625 -8.484375 2.390625 -7.34375 2.390625 -7.34375 C 2.390625 -7.34375 3.609375 -7.34375 3.609375 -7.34375 C 3.609375 -7.34375 3.609375 -6.390625 3.609375 -6.390625 Z M 3.609375 -6.390625 "/>
</g>
<g id="glyph-0-11-e92a9a05">
<path d="M 2.109375 0 C 2.109375 0 0.953125 0 0.953125 0 C 0.953125 0 0.953125 -10.203125 0.953125 -10.203125 C 0.953125 -10.203125 2.109375 -10.203125 2.109375 -10.203125 C 2.109375 -10.203125 2.109375 0 2.109375 0 Z M 2.109375 0 "/>
</g>
<g id="glyph-0-12-e92a9a05">
<path d="M 6.9375 0 C 6.9375 0 5.890625 0 5.890625 0 C 5.890625 0 5.890625 -1.078125 5.890625 -1.078125 C 5.265625 -0.171875 4.5625 0.203125 3.5625 0.203125 C 1.578125 0.203125 0.359375 -1.265625 0.359375 -3.734375 C 0.359375 -6.078125 1.609375 -7.546875 3.515625 -7.546875 C 4.5 -7.546875 5.28125 -7.15625 5.765625 -6.40625 C 5.765625 -6.40625 5.765625 -10.203125 5.765625 -10.203125 C 5.765625 -10.203125 6.9375 -10.203125 6.9375 -10.203125 C 6.9375 -10.203125 6.9375 0 6.9375 0 Z M 5.765625 -3.640625 C 5.765625 -5.328125 4.96875 -6.453125 3.703125 -6.453125 C 2.4375 -6.453125 1.578125 -5.375 1.578125 -3.671875 C 1.578125 -1.953125 2.4375 -0.875 3.71875 -0.875 C 4.953125 -0.875 5.765625 -1.953125 5.765625 -3.640625 Z M 5.765625 -3.640625 "/>
</g>
<g id="glyph-0-13-e92a9a05">
<path d="M 6.671875 -2.515625 C 6.53125 -0.84375 5.4375 0.203125 3.6875 0.203125 C 1.6875 0.203125 0.4375 -1.234375 0.4375 -3.59375 C 0.4375 -6.03125 1.71875 -7.546875 3.703125 -7.546875 C 5.328125 -7.546875 6.453125 -6.65625 6.59375 -4.875 C 6.59375 -4.875 5.421875 -4.875 5.421875 -4.875 C 5.28125 -5.890625 4.65625 -6.46875 3.6875 -6.46875 C 2.40625 -6.46875 1.65625 -5.4375 1.65625 -3.59375 C 1.65625 -1.859375 2.421875 -0.875 3.703125 -0.875 C 4.703125 -0.875 5.3125 -1.34375 5.5 -2.515625 C 5.5 -2.515625 6.671875 -2.515625 6.671875 -2.515625 Z M 6.671875 -2.515625 "/>
</g>
<g id="glyph-0-14-e92a9a05">
<path d="M 6.6875 -7.34375 C 6.6875 -7.34375 3.4375 1.546875 3.4375 1.546875 C 3.03125 2.59375 2.359375 3.046875 1.546875 3.046875 C 1.234375 3.046875 1 3 0.75 2.875 C 0.75 2.875 0.75 1.8125 0.75 1.8125 C 1.015625 1.875 1.203125 1.90625 1.375 1.90625 C 1.875 1.90625 2.109375 1.703125 2.3125 1.1875 C 2.3125 1.1875 2.765625 0.03125 2.765625 0.03125 C 2.765625 0.03125 0.28125 -7.34375 0.28125 -7.34375 C 0.28125 -7.34375 1.53125 -7.34375 1.53125 -7.34375 C 1.53125 -7.34375 3.40625 -1.625 3.40625 -1.625 C 3.40625 -1.625 5.4375 -7.34375 5.4375 -7.34375 C 5.4375 -7.34375 6.6875 -7.34375 6.6875 -7.34375 Z M 6.6875 -7.34375 "/>
</g>
<g id="glyph-0-15-e92a9a05">
<path d="M 7.09375 -4.78125 C 7.09375 -1.515625 5.953125 0.203125 3.84375 0.203125 C 1.71875 0.203125 0.609375 -1.515625 0.609375 -4.859375 C 0.609375 -8.1875 1.703125 -9.921875 3.84375 -9.921875 C 6 -9.921875 7.09375 -8.21875 7.09375 -4.78125 Z M 5.84375 -4.890625 C 5.84375 -7.546875 5.1875 -8.828125 3.84375 -8.828125 C 2.515625 -8.828125 1.859375 -7.5625 1.859375 -4.84375 C 1.859375 -2.125 2.515625 -0.8125 3.828125 -0.8125 C 5.1875 -0.8125 5.84375 -2.078125 5.84375 -4.890625 Z M 5.84375 -4.890625 "/>
</g>
<g id="glyph-0-16-e92a9a05">
<path d="M 2.671875 0 C 2.671875 0 1.21875 0 1.21875 0 C 1.21875 0 1.21875 -1.453125 1.21875 -1.453125 C 1.21875 -1.453125 2.671875 -1.453125 2.671875 -1.453125 C 2.671875 -1.453125 2.671875 0 2.671875 0 Z M 2.671875 0 "/>
</g>
<g id="glyph-0-17-e92a9a05">
<path d="M 7.078125 -2.890625 C 7.078125 -1.015625 5.765625 0.203125 3.71875 0.203125 C 1.6875 0.203125 0.609375 -0.78125 0.453125 -3 C 0.453125 -3 1.6875 -3 1.6875 -3 C 1.765625 -1.546875 2.421875 -0.875 3.765625 -0.875 C 5.046875 -0.875 5.828125 -1.625 5.828125 -2.875 C 5.828125 -3.96875 5.125 -4.625 3.765625 -4.625 C 3.765625 -4.625 3.09375 -4.625 3.09375 -4.625 C 3.09375 -4.625 3.09375 -5.65625 3.09375 -5.65625 C 5.0625 -5.65625 5.53125 -6.09375 5.53125 -7.15625 C 5.53125 -8.203125 4.875 -8.84375 3.78125 -8.84375 C 2.515625 -8.84375 1.921875 -8.1875 1.890625 -6.71875 C 1.890625 -6.71875 0.65625 -6.71875 0.65625 -6.71875 C 0.703125 -8.828125 1.765625 -9.921875 3.765625 -9.921875 C 5.65625 -9.921875 6.796875 -8.90625 6.796875 -7.203125 C 6.796875 -6.203125 6.328125 -5.5625 5.40625 -5.1875 C 6.59375 -4.78125 7.078125 -4.09375 7.078125 -2.890625 Z M 7.078125 -2.890625 "/>
</g>
<g id="glyph-0-18-e92a9a05">
<path d="M 7.28125 -2.375 C 7.28125 -2.375 5.8125 -2.375 5.8125 -2.375 C 5.8125 -2.375 5.8125 0 5.8125 0 C 5.8125 0 4.578125 0 4.578125 0 C 4.578125 0 4.578125 -2.375 4.578125 -2.375 C 4.578125 -2.375 0.390625 -2.375 0.390625 -2.375 C 0.390625 -2.375 0.390625 -3.6875 0.390625 -3.6875 C 0.390625 -3.6875 4.90625 -9.921875 4.90625 -9.921875 C 4.90625 -9.921875 5.8125 -9.921875 5.8125 -9.921875 C 5.8125 -9.921875 5.8125 -3.484375 5.8125 -3.484375 C 5.8125 -3.484375 7.28125 -3.484375 7.28125 -3.484375 C 7.28125 -3.484375 7.28125 -2.375 7.28125 -2.375 Z M 4.578125 -3.484375 C 4.578125 -3.484375 4.578125 -7.828125 4.578125 -7.828125 C 4.578125 -7.828125 1.46875 -3.484375 1.46875 -3.484375 C 1.46875 -3.484375 4.578125 -3.484375 4.578125 -3.484375 Z M 4.578125 -3.484375 "/>
</g>
<g id="glyph-0-19-e92a9a05">
<path d="M 7.1875 -3.296875 C 7.1875 -1.1875 5.78125 0.203125 3.78125 0.203125 C 2.015625 0.203125 0.890625 -0.578125 0.484375 -2.546875 C 0.484375 -2.546875 1.71875 -2.546875 1.71875 -2.546875 C 2.015625 -1.421875 2.671875 -0.875 3.75 -0.875 C 5.09375 -0.875 5.921875 -1.6875 5.921875 -3.125 C 5.921875 -4.59375 5.078125 -5.453125 3.75 -5.453125 C 2.984375 -5.453125 2.5 -5.203125 1.9375 -4.515625 C 1.9375 -4.515625 0.796875 -4.515625 0.796875 -4.515625 C 0.796875 -4.515625 1.546875 -9.71875 1.546875 -9.71875 C 1.546875 -9.71875 6.65625 -9.71875 6.65625 -9.71875 C 6.65625 -9.71875 6.65625 -8.5 6.65625 -8.5 C 6.65625 -8.5 2.53125 -8.5 2.53125 -8.5 C 2.53125 -8.5 2.140625 -5.9375 2.140625 -5.9375 C 2.71875 -6.359375 3.28125 -6.53125 3.96875 -6.53125 C 5.875 -6.53125 7.1875 -5.25 7.1875 -3.296875 Z M 7.1875 -3.296875 "/>
</g>
<g id="glyph-0-20-e92a9a05">
<path d="M 7.1875 -3.078125 C 7.1875 -1.140625 5.828125 0.203125 3.9375 0.203125 C 1.671875 0.203125 0.609375 -1.421875 0.609375 -4.515625 C 0.609375 -7.984375 1.84375 -9.921875 4.15625 -9.921875 C 5.671875 -9.921875 6.734375 -8.953125 6.96875 -7.34375 C 6.96875 -7.34375 5.734375 -7.34375 5.734375 -7.34375 C 5.546875 -8.28125 4.9375 -8.828125 4.078125 -8.828125 C 2.65625 -8.828125 1.875 -7.484375 1.859375 -5.0625 C 2.390625 -5.796875 3.15625 -6.171875 4.140625 -6.171875 C 5.921875 -6.171875 7.1875 -4.921875 7.1875 -3.078125 Z M 5.921875 -2.984375 C 5.921875 -4.3125 5.1875 -5.078125 3.984375 -5.078125 C 2.765625 -5.078125 1.9375 -4.28125 1.9375 -3.046875 C 1.9375 -1.78125 2.796875 -0.875 3.953125 -0.875 C 5.078125 -0.875 5.921875 -1.734375 5.921875 -2.984375 Z M 5.921875 -2.984375 "/>
</g>
<g id="glyph-0-21-e92a9a05">
<path d="M 7.28125 -8.6875 C 5.1875 -6.203125 3.796875 -3.203125 3.25 0 C 3.25 0 1.9375 0 1.9375 0 C 2.625 -3.109375 4.03125 -6 6 -8.5 C 6 -8.5 0.640625 -8.5 0.640625 -8.5 C 0.640625 -8.5 0.640625 -9.71875 0.640625 -9.71875 C 0.640625 -9.71875 7.28125 -9.71875 7.28125 -9.71875 C 7.28125 -9.71875 7.28125 -8.6875 7.28125 -8.6875 Z M 7.28125 -8.6875 "/>
</g>
<g id="glyph-0-22-e92a9a05">
<path d="M 4.859375 0 C 4.859375 0 3.625 0 3.625 0 C 3.625 0 3.625 -7.0625 3.625 -7.0625 C 3.625 -7.0625 1.421875 -7.0625 1.421875 -7.0625 C 1.421875 -7.0625 1.421875 -7.953125 1.421875 -7.953125 C 3.328125 -8.1875 3.609375 -8.40625 4.046875 -9.921875 C 4.046875 -9.921875 4.859375 -9.921875 4.859375 -9.921875 C 4.859375 -9.921875 4.859375 0 4.859375 0 Z M 4.859375 0 "/>
</g>
<g id="glyph-1-0-e92a9a05">
<path d="M -3.71875 -9.484375 C -1.0625 -9.171875 0.25 -7.765625 0.25 -5.28125 C 0.25 -2.28125 -2 -0.671875 -4.984375 -0.671875 C -7.96875 -0.671875 -10.453125 -2.234375 -10.453125 -5.328125 C -10.453125 -7.578125 -9.28125 -8.859375 -7.046875 -9.265625 C -7.046875 -9.265625 -7.046875 -7.9375 -7.046875 -7.9375 C -8.59375 -7.609375 -9.3125 -6.78125 -9.3125 -5.1875 C -9.3125 -3.203125 -7.609375 -1.96875 -5 -1.96875 C -2.453125 -1.96875 -0.890625 -3.265625 -0.890625 -5.296875 C -0.890625 -7.015625 -1.796875 -7.828125 -3.71875 -8.140625 C -3.71875 -8.140625 -3.71875 -9.484375 -3.71875 -9.484375 Z M -3.71875 -9.484375 "/>
</g>
<g id="glyph-1-1-e92a9a05">
<path d="M 0 -6.8125 C 0 -6.8125 0 -5.65625 0 -5.65625 C 0 -5.65625 -5.078125 -5.65625 -5.078125 -5.65625 C -5.96875 -5.65625 -6.53125 -5.0625 -6.53125 -4.140625 C -6.53125 -2.953125 -5.546875 -2.140625 -4.046875 -2.140625 C -4.046875 -2.140625 0 -2.140625 0 -2.140625 C 0 -2.140625 0 -0.984375 0 -0.984375 C 0 -0.984375 -7.34375 -0.984375 -7.34375 -0.984375 C -7.34375 -0.984375 -7.34375 -2.0625 -7.34375 -2.0625 C -7.34375 -2.0625 -6.109375 -2.0625 -6.109375 -2.0625 C -7.125 -2.703125 -7.546875 -3.40625 -7.546875 -4.5 C -7.546875 -5.90625 -6.765625 -6.8125 -5.546875 -6.8125 C -5.546875 -6.8125 0 -6.8125 0 -6.8125 Z M 0 -6.8125 "/>
</g>
<g id="glyph-1-2-e92a9a05">
<path d="M -2.515625 -6.671875 C -0.84375 -6.53125 0.203125 -5.4375 0.203125 -3.6875 C 0.203125 -1.6875 -1.234375 -0.4375 -3.59375 -0.4375 C -6.03125 -0.4375 -7.546875 -1.71875 -7.546875 -3.703125 C -7.546875 -5.328125 -6.65625 -6.453125 -4.875 -6.59375 C -4.875 -6.59375 -4.875 -5.421875 -4.875 -5.421875 C -5.890625 -5.28125 -6.46875 -4.65625 -6.46875 -3.6875 C -6.46875 -2.40625 -5.4375 -1.65625 -3.59375 -1.65625 C -1.859375 -1.65625 -0.875 -2.421875 -0.875 -3.703125 C -0.875 -4.703125 -1.34375 -5.3125 -2.515625 -5.5 C -2.515625 -5.5 -2.515625 -6.671875 -2.515625 -6.671875 Z M -2.515625 -6.671875 "/>
</g>
<g id="glyph-1-3-e92a9a05">
<path d="M -2.0625 -6.421875 C -0.640625 -6.421875 0.203125 -5.25 0.203125 -3.40625 C 0.203125 -1.484375 -0.546875 -0.53125 -2.234375 -0.46875 C -2.234375 -0.46875 -2.234375 -1.703125 -2.234375 -1.703125 C -1.125 -1.859375 -0.875 -2.453125 -0.875 -3.5 C -0.875 -4.515625 -1.28125 -5.203125 -1.953125 -5.203125 C -2.484375 -5.203125 -2.734375 -4.890625 -2.921875 -4.078125 C -2.921875 -4.078125 -3.1875 -2.984375 -3.1875 -2.984375 C -3.609375 -1.25 -4.15625 -0.65625 -5.3125 -0.65625 C -6.65625 -0.65625 -7.546875 -1.765625 -7.546875 -3.46875 C -7.546875 -5.171875 -6.734375 -6.125 -5.296875 -6.125 C -5.296875 -6.125 -5.296875 -4.90625 -5.296875 -4.90625 C -6.0625 -4.875 -6.46875 -4.375 -6.46875 -3.4375 C -6.46875 -2.484375 -6.03125 -1.875 -5.359375 -1.875 C -4.84375 -1.875 -4.53125 -2.28125 -4.3125 -3.234375 C -4.3125 -3.234375 -4.046875 -4.359375 -4.046875 -4.359375 C -3.703125 -5.8125 -3.15625 -6.421875 -2.0625 -6.421875 Z M -2.0625 -6.421875 "/>
</g>
<g id="glyph-1-4-e92a9a05">
<path d="M -3.59375 -7.328125 C -1.265625 -7.328125 0.203125 -6.078125 0.203125 -4.1875 C 0.203125 -3.234375 -0.125 -2.546875 -0.875 -1.9375 C -0.875 -1.9375 3.046875 -1.9375 3.046875 -1.9375 C 3.046875 -1.9375 3.046875 -0.765625 3.046875 -0.765625 C 3.046875 -0.765625 -7.34375 -0.765625 -7.34375 -0.765625 C -7.34375 -0.765625 -7.34375 -1.828125 -7.34375 -1.828125 C -7.34375 -1.828125 -6.234375 -1.828125 -6.234375 -1.828125 C -7.09375 -2.375 -7.546875 -3.171875 -7.546875 -4.171875 C -7.546875 -6.125 -6.0625 -7.328125 -3.59375 -7.328125 Z M -3.625 -6.109375 C -5.375 -6.109375 -6.453125 -5.265625 -6.453125 -3.96875 C -6.453125 -2.75 -5.328125 -1.9375 -3.609375 -1.9375 C -1.890625 -1.9375 -0.875 -2.75 -0.875 -3.96875 C -0.875 -5.25 -1.953125 -6.109375 -3.625 -6.109375 Z M -3.625 -6.109375 "/>
</g>
<g id="glyph-1-5-e92a9a05">
<path d="M 0 -10.640625 C 0 -10.640625 0 -9.484375 0 -9.484375 C 0 -9.484375 -5.046875 -9.484375 -5.046875 -9.484375 C -5.984375 -9.484375 -6.53125 -8.984375 -6.53125 -8.140625 C -6.53125 -7.1875 -5.671875 -6.390625 -4.609375 -6.390625 C -4.609375 -6.390625 0 -6.390625 0 -6.390625 C 0 -6.390625 0 -5.234375 0 -5.234375 C 0 -5.234375 -5.046875 -5.234375 -5.046875 -5.234375 C -5.984375 -5.234375 -6.53125 -4.75 -6.53125 -3.875 C -6.53125 -2.921875 -5.671875 -2.15625 -4.609375 -2.15625 C -4.609375 -2.15625 0 -2.15625 0 -2.15625 C 0 -2.15625 0 -1 0 -1 C 0 -1 -7.34375 -1 -7.34375 -1 C -7.34375 -1 -7.34375 -2.0625 -7.34375 -2.0625 C -7.34375 -2.0625 -6.296875 -2.0625 -6.296875 -2.0625 C -7.1875 -2.6875 -7.546875 -3.328125 -7.546875 -4.3125 C -7.546875 -5.265625 -7.203125 -5.859375 -6.421875 -6.28125 C -7.25 -6.96875 -7.546875 -7.5625 -7.546875 -8.546875 C -7.546875 -9.90625 -6.8125 -10.640625 -5.5 -10.640625 C -5.5 -10.640625 0 -10.640625 0 -10.640625 Z M 0 -10.640625 "/>
</g>
<g id="glyph-1-6-e92a9a05">
<path d="M 0 -3.5625 C 0.0625 -3.15625 0.09375 -2.890625 0.09375 -2.609375 C 0.09375 -1.6875 -0.328125 -1.1875 -1.0625 -1.1875 C -1.0625 -1.1875 -6.390625 -1.1875 -6.390625 -1.1875 C -6.390625 -1.1875 -6.390625 -0.203125 -6.390625 -0.203125 C -6.390625 -0.203125 -7.34375 -0.203125 -7.34375 -0.203125 C -7.34375 -0.203125 -7.34375 -1.1875 -7.34375 -1.1875 C -7.34375 -1.1875 -9.359375 -1.1875 -9.359375 -1.1875 C -9.359375 -1.1875 -9.359375 -2.359375 -9.359375 -2.359375 C -9.359375 -2.359375 -7.34375 -2.359375 -7.34375 -2.359375 C -7.34375 -2.359375 -7.34375 -3.5625 -7.34375 -3.5625 C -7.34375 -3.5625 -6.390625 -3.5625 -6.390625 -3.5625 C -6.390625 -3.5625 -6.390625 -2.359375 -6.390625 -2.359375 C -6.390625 -2.359375 -1.578125 -2.359375 -1.578125 -2.359375 C -1.0625 -2.359375 -0.921875 -2.484375 -0.921875 -3 C -0.921875 -3.21875 -0.9375 -3.40625 -0.984375 -3.5625 C -0.984375 -3.5625 0 -3.5625 0 -3.5625 Z M 0 -3.5625 "/>
</g>
<g id="glyph-1-7-e92a9a05">
<path d="M -0.03125 -7.484375 C 0.0625 -7.109375 0.09375 -6.9375 0.09375 -6.6875 C 0.09375 -6.125 -0.3125 -5.609375 -0.875 -5.484375 C -0.1875 -4.84375 0.203125 -3.9375 0.203125 -3 C 0.203125 -1.515625 -0.578125 -0.59375 -1.90625 -0.59375 C -2.796875 -0.59375 -3.453125 -1.015625 -3.8125 -1.875 C -3.984375 -2.328125 -4.046875 -2.578125 -4.25 -4.234375 C -4.375 -5.15625 -4.578125 -5.453125 -5.0625 -5.453125 C -5.0625 -5.453125 -5.375 -5.453125 -5.375 -5.453125 C -6.078125 -5.453125 -6.46875 -4.859375 -6.46875 -3.8125 C -6.46875 -2.71875 -6.0625 -2.1875 -5.171875 -2.09375 C -5.171875 -2.09375 -5.171875 -0.90625 -5.171875 -0.90625 C -6.859375 -0.984375 -7.546875 -2.078125 -7.546875 -3.84375 C -7.546875 -5.65625 -6.84375 -6.609375 -5.546875 -6.609375 C -5.546875 -6.609375 -1.453125 -6.609375 -1.453125 -6.609375 C -1.09375 -6.609375 -0.875 -6.828125 -0.875 -7.234375 C -0.875 -7.3125 -0.875 -7.359375 -0.90625 -7.484375 C -0.90625 -7.484375 -0.03125 -7.484375 -0.03125 -7.484375 Z M -2.53125 -5.453125 C -2.53125 -5.453125 -3.625 -5.453125 -3.625 -5.453125 C -3.4375 -5.046875 -3.390625 -4.796875 -3.21875 -3.5625 C -3.03125 -2.328125 -2.703125 -1.8125 -1.9375 -1.8125 C -1.140625 -1.8125 -0.8125 -2.34375 -0.8125 -3.25 C -0.8125 -4.375 -1.484375 -5.453125 -2.53125 -5.453125 Z M -2.53125 -5.453125 "/>
</g>
<g id="glyph-2-0-e92a9a05">
<path d="M -3.609375 -7.140625 C -1.203125 -7.140625 0.203125 -5.875 0.203125 -3.828125 C 0.203125 -1.734375 -1.203125 -0.5 -3.671875 -0.5 C -6.125 -0.5 -7.546875 -1.75 -7.546875 -3.8125 C -7.546875 -5.921875 -6.140625 -7.140625 -3.609375 -7.140625 Z M -3.625 -5.921875 C -5.453125 -5.921875 -6.46875 -5.140625 -6.46875 -3.828125 C -6.46875 -2.515625 -5.4375 -1.71875 -3.671875 -1.71875 C -1.890625 -1.71875 -0.875 -2.515625 -0.875 -3.828125 C -0.875 -5.109375 -1.90625 -5.921875 -3.625 -5.921875 Z M -3.625 -5.921875 "/>
</g>
<g id="glyph-2-1-e92a9a05">
</g>
<g id="glyph-2-2-e92a9a05">
<path d="M -6.3125 -4.5 C -6.28125 -2.6875 -5.453125 -2.140625 -3.8125 -2.140625 C -3.8125 -2.140625 0 -2.140625 0 -2.140625 C 0 -2.140625 0 -0.984375 0 -0.984375 C 0 -0.984375 -7.34375 -0.984375 -7.34375 -0.984375 C -7.34375 -0.984375 -7.34375 -2.046875 -7.34375 -2.046875 C -7.34375 -2.046875 -6 -2.046875 -6 -2.046875 C -7.09375 -2.71875 -7.546875 -3.296875 -7.546875 -4.046875 C -7.546875 -4.203125 -7.53125 -4.296875 -7.5 -4.5 C -7.5 -4.5 -6.3125 -4.5 -6.3125 -4.5 Z M -6.3125 -4.5 "/>
</g>
<g id="glyph-2-3-e92a9a05">
<path d="M -2.0625 -6.421875 C -0.640625 -6.421875 0.203125 -5.25 0.203125 -3.40625 C 0.203125 -1.484375 -0.546875 -0.53125 -2.234375 -0.46875 C -2.234375 -0.46875 -2.234375 -1.703125 -2.234375 -1.703125 C -1.125 -1.859375 -0.875 -2.453125 -0.875 -3.5 C -0.875 -4.515625 -1.28125 -5.203125 -1.953125 -5.203125 C -2.484375 -5.203125 -2.734375 -4.890625 -2.921875 -4.078125 C -2.921875 -4.078125 -3.1875 -2.984375 -3.1875 -2.984375 C -3.609375 -1.25 -4.15625 -0.65625 -5.3125 -0.65625 C -6.65625 -0.65625 -7.546875 -1.765625 -7.546875 -3.46875 C -7.546875 -5.171875 -6.734375 -6.125 -5.296875 -6.125 C -5.296875 -6.125 -5.296875 -4.90625 -5.296875 -4.90625 C -6.0625 -4.875 -6.46875 -4.375 -6.46875 -3.4375 C -6.46875 -2.484375 -6.03125 -1.875 -5.359375 -1.875 C -4.84375 -1.875 -4.53125 -2.28125 -4.3125 -3.234375 C -4.3125 -3.234375 -4.046875 -4.359375 -4.046875 -4.359375 C -3.703125 -5.8125 -3.15625 -6.421875 -2.0625 -6.421875 Z M -2.0625 -6.421875 "/>
</g>
<g id="glyph-2-4-e92a9a05">
<path d="M 0 -6.75 C 0 -6.75 0 -5.703125 0 -5.703125 C 0 -5.703125 -1.140625 -5.703125 -1.140625 -5.703125 C -0.171875 -5.015625 0.203125 -4.328125 0.203125 -3.25 C 0.203125 -1.8125 -0.578125 -0.90625 -1.796875 -0.90625 C -1.796875 -0.90625 -7.34375 -0.90625 -7.34375 -0.90625 C -7.34375 -0.90625 -7.34375 -2.078125 -7.34375 -2.078125 C -7.34375 -2.078125 -2.25 -2.078125 -2.25 -2.078125 C -1.375 -2.078125 -0.8125 -2.65625 -0.8125 -3.578125 C -0.8125 -4.796875 -1.796875 -5.59375 -3.296875 -5.59375 C -3.296875 -5.59375 -7.34375 -5.59375 -7.34375 -5.59375 C -7.34375 -5.59375 -7.34375 -6.75 -7.34375 -6.75 C -7.34375 -6.75 0 -6.75 0 -6.75 Z M 0 -6.75 "/>
</g>
<g id="glyph-2-5-e92a9a05">
<path d="M 0 -3.5625 C 0.0625 -3.15625 0.09375 -2.890625 0.09375 -2.609375 C 0.09375 -1.6875 -0.328125 -1.1875 -1.0625 -1.1875 C -1.0625 -1.1875 -6.390625 -1.1875 -6.390625 -1.1875 C -6.390625 -1.1875 -6.390625 -0.203125 -6.390625 -0.203125 C -6.390625 -0.203125 -7.34375 -0.203125 -7.34375 -0.203125 C -7.34375 -0.203125 -7.34375 -1.1875 -7.34375 -1.1875 C -7.34375 -1.1875 -9.359375 -1.1875 -9.359375 -1.1875 C -9.359375 -1.1875 -9.359375 -2.359375 -9.359375 -2.359375 C -9.359375 -2.359375 -7.34375 -2.359375 -7.34375 -2.359375 C -7.34375 -2.359375 -7.34375 -3.5625 -7.34375 -3.5625 C -7.34375 -3.5625 -6.390625 -3.5625 -6.390625 -3.5625 C -6.390625 -3.5625 -6.390625 -2.359375 -6.390625 -2.359375 C -6.390625 -2.359375 -1.578125 -2.359375 -1.578125 -2.359375 C -1.0625 -2.359375 -0.921875 -2.484375 -0.921875 -3 C -0.921875 -3.21875 -0.9375 -3.40625 -0.984375 -3.5625 C -0.984375 -3.5625 0 -3.5625 0 -3.5625 Z M 0 -3.5625 "/>
</g>
<g id="glyph-2-6-e92a9a05">
<path d="M 0 -2.140625 C 0 -2.140625 0 -0.984375 0 -0.984375 C 0 -0.984375 -7.34375 -0.984375 -7.34375 -0.984375 C -7.34375 -0.984375 -7.34375 -2.140625 -7.34375 -2.140625 C -7.34375 -2.140625 0 -2.140625 0 -2.140625 Z M -8.4375 -2.296875 C -8.4375 -2.296875 -8.4375 -0.84375 -8.4375 -0.84375 C -8.4375 -0.84375 -9.890625 -0.84375 -9.890625 -0.84375 C -9.890625 -0.84375 -9.890625 -2.296875 -9.890625 -2.296875 C -9.890625 -2.296875 -8.4375 -2.296875 -8.4375 -2.296875 Z M -8.4375 -2.296875 "/>
</g>
<g id="glyph-3-0-e92a9a05">
<path d="M 0 -6.75 C 0 -6.75 0 -5.703125 0 -5.703125 C 0 -5.703125 -1.140625 -5.703125 -1.140625 -5.703125 C -0.171875 -5.015625 0.203125 -4.328125 0.203125 -3.25 C 0.203125 -1.8125 -0.578125 -0.90625 -1.796875 -0.90625 C -1.796875 -0.90625 -7.34375 -0.90625 -7.34375 -0.90625 C -7.34375 -0.90625 -7.34375 -2.078125 -7.34375 -2.078125 C -7.34375 -2.078125 -2.25 -2.078125 -2.25 -2.078125 C -1.375 -2.078125 -0.8125 -2.65625 -0.8125 -3.578125 C -0.8125 -4.796875 -1.796875 -5.59375 -3.296875 -5.59375 C -3.296875 -5.59375 -7.34375 -5.59375 -7.34375 -5.59375 C -7.34375 -5.59375 -7.34375 -6.75 -7.34375 -6.75 C -7.34375 -6.75 0 -6.75 0 -6.75 Z M 0 -6.75 "/>
</g>
<g id="glyph-3-1-e92a9a05">
</g>
<g id="glyph-4-0-e92a9a05">
<path d="M 0 -3.5625 C 0.0625 -3.15625 0.09375 -2.890625 0.09375 -2.609375 C 0.09375 -1.6875 -0.328125 -1.1875 -1.0625 -1.1875 C -1.0625 -1.1875 -6.390625 -1.1875 -6.390625 -1.1875 C -6.390625 -1.1875 -6.390625 -0.203125 -6.390625 -0.203125 C -6.390625 -0.203125 -7.34375 -0.203125 -7.34375 -0.203125 C -7.34375 -0.203125 -7.34375 -1.1875 -7.34375 -1.1875 C -7.34375 -1.1875 -9.359375 -1.1875 -9.359375 -1.1875 C -9.359375 -1.1875 -9.359375 -2.359375 -9.359375 -2.359375 C -9.359375 -2.359375 -7.34375 -2.359375 -7.34375 -2.359375 C -7.34375 -2.359375 -7.34375 -3.5625 -7.34375 -3.5625 C -7.34375 -3.5625 -6.390625 -3.5625 -6.390625 -3.5625 C -6.390625 -3.5625 -6.390625 -2.359375 -6.390625 -2.359375 C -6.390625 -2.359375 -1.578125 -2.359375 -1.578125 -2.359375 C -1.0625 -2.359375 -0.921875 -2.484375 -0.921875 -3 C -0.921875 -3.21875 -0.9375 -3.40625 -0.984375 -3.5625 C -0.984375 -3.5625 0 -3.5625 0 -3.5625 Z M 0 -3.5625 "/>
</g>
<g id="glyph-4-1-e92a9a05">
<path d="M -3.328125 -7.1875 C -3.328125 -7.1875 -3.328125 -1.78125 -3.328125 -1.78125 C -1.65625 -1.8125 -0.875 -2.71875 -0.875 -3.9375 C -0.875 -4.875 -1.265625 -5.53125 -2.21875 -5.859375 C -2.21875 -5.859375 -2.21875 -7.03125 -2.21875 -7.03125 C -0.734375 -6.734375 0.203125 -5.578125 0.203125 -3.890625 C 0.203125 -1.828125 -1.21875 -0.5625 -3.625 -0.5625 C -6.03125 -0.5625 -7.546875 -1.875 -7.546875 -3.921875 C -7.546875 -5.296875 -6.8125 -6.40625 -5.609375 -6.890625 C -5.0625 -7.09375 -4.390625 -7.1875 -3.328125 -7.1875 Z M -4.375 -5.9375 C -5.515625 -5.9375 -6.46875 -5.046875 -6.46875 -3.90625 C -6.46875 -2.734375 -5.59375 -1.90625 -4.28125 -1.8125 C -4.28125 -1.8125 -4.28125 -5.921875 -4.28125 -5.921875 C -4.3125 -5.9375 -4.375 -5.9375 -4.375 -5.9375 Z M -4.375 -5.9375 "/>
</g>
<g id="glyph-4-2-e92a9a05">
<path d="M -2.0625 -6.421875 C -0.640625 -6.421875 0.203125 -5.25 0.203125 -3.40625 C 0.203125 -1.484375 -0.546875 -0.53125 -2.234375 -0.46875 C -2.234375 -0.46875 -2.234375 -1.703125 -2.234375 -1.703125 C -1.125 -1.859375 -0.875 -2.453125 -0.875 -3.5 C -0.875 -4.515625 -1.28125 -5.203125 -1.953125 -5.203125 C -2.484375 -5.203125 -2.734375 -4.890625 -2.921875 -4.078125 C -2.921875 -4.078125 -3.1875 -2.984375 -3.1875 -2.984375 C -3.609375 -1.25 -4.15625 -0.65625 -5.3125 -0.65625 C -6.65625 -0.65625 -7.546875 -1.765625 -7.546875 -3.46875 C -7.546875 -5.171875 -6.734375 -6.125 -5.296875 -6.125 C -5.296875 -6.125 -5.296875 -4.90625 -5.296875 -4.90625 C -6.0625 -4.875 -6.46875 -4.375 -6.46875 -3.4375 C -6.46875 -2.484375 -6.03125 -1.875 -5.359375 -1.875 C -4.84375 -1.875 -4.53125 -2.28125 -4.3125 -3.234375 C -4.3125 -3.234375 -4.046875 -4.359375 -4.046875 -4.359375 C -3.703125 -5.8125 -3.15625 -6.421875 -2.0625 -6.421875 Z M -2.0625 -6.421875 "/>
</g>
<g id="glyph-5-0-e92a9a05">
<path d="M -0.03125 -7.484375 C 0.0625 -7.109375 0.09375 -6.9375 0.09375 -6.6875 C 0.09375 -6.125 -0.3125 -5.609375 -0.875 -5.484375 C -0.1875 -4.84375 0.203125 -3.9375 0.203125 -3 C 0.203125 -1.515625 -0.578125 -0.59375 -1.90625 -0.59375 C -2.796875 -0.59375 -3.453125 -1.015625 -3.8125 -1.875 C -3.984375 -2.328125 -4.046875 -2.578125 -4.25 -4.234375 C -4.375 -5.15625 -4.578125 -5.453125 -5.0625 -5.453125 C -5.0625 -5.453125 -5.375 -5.453125 -5.375 -5.453125 C -6.078125 -5.453125 -6.46875 -4.859375 -6.46875 -3.8125 C -6.46875 -2.71875 -6.0625 -2.1875 -5.171875 -2.09375 C -5.171875 -2.09375 -5.171875 -0.90625 -5.171875 -0.90625 C -6.859375 -0.984375 -7.546875 -2.078125 -7.546875 -3.84375 C -7.546875 -5.65625 -6.84375 -6.609375 -5.546875 -6.609375 C -5.546875 -6.609375 -1.453125 -6.609375 -1.453125 -6.609375 C -1.09375 -6.609375 -0.875 -6.828125 -0.875 -7.234375 C -0.875 -7.3125 -0.875 -7.359375 -0.90625 -7.484375 C -0.90625 -7.484375 -0.03125 -7.484375 -0.03125 -7.484375 Z M -2.53125 -5.453125 C -2.53125 -5.453125 -3.625 -5.453125 -3.625 -5.453125 C -3.4375 -5.046875 -3.390625 -4.796875 -3.21875 -3.5625 C -3.03125 -2.328125 -2.703125 -1.8125 -1.9375 -1.8125 C -1.140625 -1.8125 -0.8125 -2.34375 -0.8125 -3.25 C -0.8125 -4.375 -1.484375 -5.453125 -2.53125 -5.453125 Z M -2.53125 -5.453125 "/>
</g>
<g id="glyph-5-1-e92a9a05">
<path d="M -6.3125 -4.5 C -6.28125 -2.6875 -5.453125 -2.140625 -3.8125 -2.140625 C -3.8125 -2.140625 0 -2.140625 0 -2.140625 C 0 -2.140625 0 -0.984375 0 -0.984375 C 0 -0.984375 -7.34375 -0.984375 -7.34375 -0.984375 C -7.34375 -0.984375 -7.34375 -2.046875 -7.34375 -2.046875 C -7.34375 -2.046875 -6 -2.046875 -6 -2.046875 C -7.09375 -2.71875 -7.546875 -3.296875 -7.546875 -4.046875 C -7.546875 -4.203125 -7.53125 -4.296875 -7.5 -4.5 C -7.5 -4.5 -6.3125 -4.5 -6.3125 -4.5 Z M -6.3125 -4.5 "/>
</g>
<g id="glyph-6-0-e92a9a05">
<path d="M 10.859375 0 C 10.859375 0 8.765625 0 8.765625 0 C 8.765625 0 8.765625 -7.953125 8.765625 -7.953125 C 8.765625 -7.953125 6.953125 0 6.953125 0 C 6.953125 0 4.859375 0 4.859375 0 C 4.859375 0 3.03125 -7.953125 3.03125 -7.953125 C 3.03125 -7.953125 3.03125 0 3.03125 0 C 3.03125 0 0.921875 0 0.921875 0 C 0.921875 0 0.921875 -10.203125 0.921875 -10.203125 C 0.921875 -10.203125 4.0625 -10.203125 4.0625 -10.203125 C 4.0625 -10.203125 5.90625 -2.09375 5.90625 -2.09375 C 5.90625 -2.09375 7.703125 -10.203125 7.703125 -10.203125 C 7.703125 -10.203125 10.859375 -10.203125 10.859375 -10.203125 C 10.859375 -10.203125 10.859375 0 10.859375 0 Z M 10.859375 0 "/>
</g>
<g id="glyph-6-1-e92a9a05">
<path d="M 7.96875 -3.71875 C 7.96875 -1.296875 6.53125 0.125 4.234375 0.125 C 1.90625 0.125 0.484375 -1.28125 0.484375 -3.78125 C 0.484375 -6.265625 1.90625 -7.6875 4.21875 -7.6875 C 6.578125 -7.6875 7.96875 -6.28125 7.96875 -3.71875 Z M 6 -3.75 C 6 -5.234375 5.3125 -6.109375 4.234375 -6.109375 C 3.15625 -6.109375 2.453125 -5.21875 2.453125 -3.78125 C 2.453125 -2.34375 3.15625 -1.453125 4.234375 -1.453125 C 5.28125 -1.453125 6 -2.34375 6 -3.75 Z M 6 -3.75 "/>
</g>
<g id="glyph-6-2-e92a9a05">
<path d="M 7.625 0 C 7.625 0 5.671875 0 5.671875 0 C 5.671875 0 5.671875 -0.875 5.671875 -0.875 C 5.1875 -0.21875 4.515625 0.125 3.578125 0.125 C 1.578125 0.125 0.40625 -1.625 0.40625 -3.765625 C 0.40625 -6.046875 1.78125 -7.6875 3.578125 -7.6875 C 4.515625 -7.6875 5.1875 -7.34375 5.671875 -6.578125 C 5.671875 -6.578125 5.671875 -10.203125 5.671875 -10.203125 C 5.671875 -10.203125 7.625 -10.203125 7.625 -10.203125 C 7.625 -10.203125 7.625 0 7.625 0 Z M 5.671875 -3.734375 C 5.671875 -5.1875 5.015625 -6.046875 4.015625 -6.046875 C 3.03125 -6.046875 2.359375 -5.171875 2.359375 -3.765625 C 2.359375 -2.375 3.03125 -1.515625 4.015625 -1.515625 C 5 -1.515625 5.671875 -2.359375 5.671875 -3.734375 Z M 5.671875 -3.734375 "/>
</g>
<g id="glyph-6-3-e92a9a05">
<path d="M 7.34375 -3.5 C 7.34375 -3.5 7.34375 -3.265625 7.34375 -3.265625 C 7.34375 -3.265625 2.265625 -3.265625 2.265625 -3.265625 C 2.328125 -1.796875 2.90625 -1.375 3.84375 -1.375 C 4.546875 -1.375 5.171875 -1.578125 5.328125 -2.125 C 5.328125 -2.125 7.265625 -2.125 7.265625 -2.125 C 6.828125 -0.640625 5.453125 0.125 3.765625 0.125 C 1.625 0.125 0.3125 -1.265625 0.3125 -3.6875 C 0.3125 -6.21875 1.640625 -7.6875 3.8125 -7.6875 C 6.03125 -7.6875 7.34375 -6.109375 7.34375 -3.5 Z M 5.3125 -4.5625 C 5.203125 -5.640625 4.625 -6.1875 3.78125 -6.1875 C 2.90625 -6.1875 2.421875 -5.609375 2.296875 -4.5625 C 2.296875 -4.5625 5.3125 -4.5625 5.3125 -4.5625 Z M 5.3125 -4.5625 "/>
</g>
<g id="glyph-6-4-e92a9a05">
<path d="M 2.890625 0 C 2.890625 0 0.9375 0 0.9375 0 C 0.9375 0 0.9375 -10.203125 0.9375 -10.203125 C 0.9375 -10.203125 2.890625 -10.203125 2.890625 -10.203125 C 2.890625 -10.203125 2.890625 0 2.890625 0 Z M 2.890625 0 "/>
</g>
<g id="glyph-6-5-e92a9a05">
</g>
<g id="glyph-6-6-e92a9a05">
<path d="M 7.34375 0 C 7.34375 0 5.203125 0 5.203125 0 C 5.03125 -0.21875 4.984375 -0.5625 4.984375 -0.953125 C 4.296875 -0.234375 3.53125 0.125 2.6875 0.125 C 1.421875 0.125 0.390625 -0.578125 0.390625 -2.046875 C 0.390625 -3.421875 1.125 -4.0625 2.625 -4.328125 C 2.625 -4.328125 3.40625 -4.46875 3.40625 -4.46875 C 4.375 -4.640625 4.96875 -4.546875 4.96875 -5.34375 C 4.96875 -5.859375 4.59375 -6.109375 3.84375 -6.109375 C 2.875 -6.109375 2.546875 -5.859375 2.453125 -5.0625 C 2.453125 -5.0625 0.5625 -5.0625 0.5625 -5.0625 C 0.6875 -6.8125 1.75 -7.6875 3.796875 -7.6875 C 5.84375 -7.6875 6.890625 -6.90625 6.890625 -5.359375 C 6.890625 -5.359375 6.890625 -1.15625 6.890625 -1.15625 C 6.890625 -0.765625 6.984375 -0.5625 7.34375 -0.234375 C 7.34375 -0.234375 7.34375 0 7.34375 0 Z M 4.96875 -3.234375 C 4.96875 -3.234375 4.96875 -3.5625 4.96875 -3.5625 C 4.75 -3.453125 4.65625 -3.4375 4.140625 -3.328125 C 4.140625 -3.328125 3.46875 -3.203125 3.46875 -3.203125 C 2.65625 -3.046875 2.359375 -2.84375 2.359375 -2.265625 C 2.359375 -1.703125 2.765625 -1.453125 3.421875 -1.453125 C 4.40625 -1.453125 4.96875 -2.09375 4.96875 -3.234375 Z M 4.96875 -3.234375 "/>
</g>
<g id="glyph-6-7-e92a9a05">
<path d="M 7.3125 -2.625 C 7.125 -1.015625 5.859375 0.125 4.015625 0.125 C 1.78125 0.125 0.46875 -1.234375 0.46875 -3.71875 C 0.46875 -6.296875 1.796875 -7.6875 4.046875 -7.6875 C 5.9375 -7.6875 7.171875 -6.578125 7.3125 -4.734375 C 7.3125 -4.734375 5.4375 -4.734375 5.4375 -4.734375 C 5.203125 -5.71875 4.828125 -6.109375 4.03125 -6.109375 C 2.796875 -6.109375 2.4375 -5.109375 2.4375 -3.71875 C 2.4375 -2.25 3.03125 -1.453125 4.03125 -1.453125 C 4.78125 -1.453125 5.1875 -1.828125 5.4375 -2.625 C 5.4375 -2.625 7.3125 -2.625 7.3125 -2.625 Z M 7.3125 -2.625 "/>
</g>
<g id="glyph-6-8-e92a9a05">
<path d="M 7.578125 0 C 7.578125 0 5.609375 0 5.609375 0 C 5.609375 0 5.609375 -1 5.609375 -1 C 5.046875 -0.25 4.375 0.125 3.34375 0.125 C 1.734375 0.125 0.8125 -0.828125 0.8125 -2.484375 C 0.8125 -2.484375 0.8125 -7.5625 0.8125 -7.5625 C 0.8125 -7.5625 2.765625 -7.5625 2.765625 -7.5625 C 2.765625 -7.5625 2.765625 -2.890625 2.765625 -2.890625 C 2.765625 -1.984375 3.1875 -1.546875 4.03125 -1.546875 C 4.984375 -1.546875 5.609375 -2.125 5.609375 -3.03125 C 5.609375 -3.03125 5.609375 -7.5625 5.609375 -7.5625 C 5.609375 -7.5625 7.578125 -7.5625 7.578125 -7.5625 C 7.578125 -7.5625 7.578125 0 7.578125 0 Z M 7.578125 0 "/>
</g>
<g id="glyph-6-9-e92a9a05">
<path d="M 5.1875 -5.6875 C 4.90625 -5.71875 4.78125 -5.734375 4.5625 -5.734375 C 3.421875 -5.734375 2.84375 -5.171875 2.84375 -4.015625 C 2.84375 -4.015625 2.84375 0 2.84375 0 C 2.84375 0 0.875 0 0.875 0 C 0.875 0 0.875 -7.5625 0.875 -7.5625 C 0.875 -7.5625 2.84375 -7.5625 2.84375 -7.5625 C 2.84375 -7.5625 2.84375 -6.078125 2.84375 -6.078125 C 3.265625 -7.09375 4.046875 -7.6875 4.9375 -7.6875 C 5 -7.6875 5.0625 -7.6875 5.1875 -7.671875 C 5.1875 -7.671875 5.1875 -5.6875 5.1875 -5.6875 Z M 5.1875 -5.6875 "/>
</g>
<g id="glyph-6-10-e92a9a05">
<path d="M 7.53125 -7.5625 C 7.53125 -7.5625 4.421875 1.390625 4.421875 1.390625 C 3.90625 2.828125 3.21875 3.0625 1.90625 3.0625 C 1.671875 3.0625 1.5 3.046875 1.203125 3.015625 C 1.203125 3.015625 1.203125 1.546875 1.203125 1.546875 C 1.453125 1.609375 1.5625 1.625 1.71875 1.625 C 2.40625 1.625 2.9375 1.078125 2.9375 0.359375 C 2.9375 0.359375 2.9375 0.328125 2.9375 0.328125 C 2.9375 0.328125 0.125 -7.5625 0.125 -7.5625 C 0.125 -7.5625 2.28125 -7.5625 2.28125 -7.5625 C 2.28125 -7.5625 3.953125 -2.0625 3.953125 -2.0625 C 3.953125 -2.0625 5.515625 -7.5625 5.515625 -7.5625 C 5.515625 -7.5625 7.53125 -7.5625 7.53125 -7.5625 Z M 7.53125 -7.5625 "/>
</g>
<g id="glyph-6-11-e92a9a05">
<path d="M 7.640625 0 C 7.640625 0 5.6875 0 5.6875 0 C 5.6875 0 5.6875 -4.65625 5.6875 -4.65625 C 5.6875 -5.5625 5.265625 -6.015625 4.421875 -6.015625 C 3.46875 -6.015625 2.84375 -5.4375 2.84375 -4.53125 C 2.84375 -4.53125 2.84375 0 2.84375 0 C 2.84375 0 0.875 0 0.875 0 C 0.875 0 0.875 -7.5625 0.875 -7.5625 C 0.875 -7.5625 2.84375 -7.5625 2.84375 -7.5625 C 2.84375 -7.5625 2.84375 -6.46875 2.84375 -6.46875 C 3.40625 -7.3125 4.09375 -7.6875 5.109375 -7.6875 C 6.71875 -7.6875 7.640625 -6.734375 7.640625 -5.0625 C 7.640625 -5.0625 7.640625 0 7.640625 0 Z M 7.640625 0 "/>
</g>
<g id="glyph-6-12-e92a9a05">
<path d="M 7.28125 -2.234375 C 7.28125 -0.71875 6.109375 0.125 3.96875 0.125 C 1.6875 0.125 0.46875 -0.734375 0.40625 -2.390625 C 0.40625 -2.390625 2.328125 -2.390625 2.328125 -2.390625 C 2.484375 -1.578125 2.96875 -1.40625 3.859375 -1.40625 C 4.78125 -1.40625 5.3125 -1.59375 5.3125 -2.0625 C 5.3125 -2.265625 5.15625 -2.421875 4.65625 -2.578125 C 4.65625 -2.578125 2.328125 -3.296875 2.328125 -3.296875 C 0.921875 -3.734375 0.671875 -4.234375 0.671875 -5.171875 C 0.671875 -6.71875 1.859375 -7.6875 3.78125 -7.6875 C 5.8125 -7.6875 7.046875 -6.71875 7.0625 -5.125 C 7.0625 -5.125 5.1875 -5.125 5.1875 -5.125 C 5.171875 -5.8125 4.703125 -6.140625 3.765625 -6.140625 C 3.078125 -6.140625 2.625 -5.859375 2.625 -5.453125 C 2.625 -5.140625 2.765625 -5.015625 3.3125 -4.859375 C 3.3125 -4.859375 5.796875 -4.140625 5.796875 -4.140625 C 6.796875 -3.84375 7.28125 -3.203125 7.28125 -2.34375 C 7.28125 -2.34375 7.28125 -2.234375 7.28125 -2.234375 Z M 7.28125 -2.234375 "/>
</g>
<g id="glyph-6-13-e92a9a05">
<path d="M 4.21875 0 C 3.859375 0.015625 3.515625 0.0625 3.078125 0.0625 C 1.796875 0.0625 1.15625 -0.4375 1.15625 -1.625 C 1.15625 -1.625 1.15625 -6.109375 1.15625 -6.109375 C 1.15625 -6.109375 0.203125 -6.109375 0.203125 -6.109375 C 0.203125 -6.109375 0.203125 -7.40625 0.203125 -7.40625 C 0.203125 -7.40625 1.15625 -7.40625 1.15625 -7.40625 C 1.15625 -7.40625 1.15625 -9.4375 1.15625 -9.4375 C 1.15625 -9.4375 3.125 -9.4375 3.125 -9.4375 C 3.125 -9.4375 3.125 -7.40625 3.125 -7.40625 C 3.125 -7.40625 4.21875 -7.40625 4.21875 -7.40625 C 4.21875 -7.40625 4.21875 -6.109375 4.21875 -6.109375 C 4.21875 -6.109375 3.125 -6.109375 3.125 -6.109375 C 3.125 -6.109375 3.125 -2.15625 3.125 -2.15625 C 3.125 -1.484375 3.25 -1.328125 3.765625 -1.328125 C 3.90625 -1.328125 4.015625 -1.34375 4.21875 -1.375 C 4.21875 -1.375 4.21875 0 4.21875 0 Z M 4.21875 0 "/>
</g>
<g id="glyph-6-14-e92a9a05">
<path d="M 2.890625 0 C 2.890625 0 0.9375 0 0.9375 0 C 0.9375 0 0.9375 -7.5625 0.9375 -7.5625 C 0.9375 -7.5625 2.890625 -7.5625 2.890625 -7.5625 C 2.890625 -7.5625 2.890625 0 2.890625 0 Z M 2.921875 -8.46875 C 2.921875 -8.46875 0.96875 -8.46875 0.96875 -8.46875 C 0.96875 -8.46875 0.96875 -10.4375 0.96875 -10.4375 C 0.96875 -10.4375 2.921875 -10.4375 2.921875 -10.4375 C 2.921875 -10.4375 2.921875 -8.46875 2.921875 -8.46875 Z M 2.921875 -8.46875 "/>
</g>
<g id="glyph-6-15-e92a9a05">
<path d="M 8.046875 -3.6875 C 8.046875 -1.40625 6.671875 0.125 4.875 0.125 C 3.921875 0.125 3.265625 -0.21875 2.78125 -0.875 C 2.78125 -0.875 2.78125 0 2.78125 0 C 2.78125 0 0.828125 0 0.828125 0 C 0.828125 0 0.828125 -10.203125 0.828125 -10.203125 C 0.828125 -10.203125 2.78125 -10.203125 2.78125 -10.203125 C 2.78125 -10.203125 2.78125 -6.578125 2.78125 -6.578125 C 3.265625 -7.34375 3.9375 -7.6875 4.875 -7.6875 C 6.859375 -7.6875 8.046875 -5.828125 8.046875 -3.6875 Z M 6.09375 -3.765625 C 6.09375 -5.171875 5.40625 -6.046875 4.4375 -6.046875 C 3.453125 -6.046875 2.78125 -5.1875 2.78125 -3.8125 C 2.78125 -2.359375 3.4375 -1.515625 4.4375 -1.515625 C 5.40625 -1.515625 6.09375 -2.390625 6.09375 -3.765625 Z M 6.09375 -3.765625 "/>
</g>
<g id="glyph-7-0-e92a9a05">
<path d="M 2.890625 0 C 2.890625 0 0.9375 0 0.9375 0 C 0.9375 0 0.9375 -7.5625 0.9375 -7.5625 C 0.9375 -7.5625 2.890625 -7.5625 2.890625 -7.5625 C 2.890625 -7.5625 2.890625 0 2.890625 0 Z M 2.921875 -8.46875 C 2.921875 -8.46875 0.96875 -8.46875 0.96875 -8.46875 C 0.96875 -8.46875 0.96875 -10.4375 0.96875 -10.4375 C 0.96875 -10.4375 2.921875 -10.4375 2.921875 -10.4375 C 2.921875 -10.4375 2.921875 -8.46875 2.921875 -8.46875 Z M 2.921875 -8.46875 "/>
</g>
</g>
</defs>
<rect x="-90" y="-60" width="1080" height="720" fill="rgb(100%, 100%, 100%)" fill-opacity="1"/>
<path fill-rule="nonzero" fill="rgb(100%, 100%, 100%)" fill-opacity="1" d="M 62 541 L 884 541 L 884 36 L 62 36 Z M 62 541 "/>
<path fill="none" stroke-width="1" stroke-linecap="butt" stroke-linejoin="miter" stroke="rgb(0%, 0%, 0%)" stroke-opacity="0.12" stroke-miterlimit="1.154701" d="M 140.878906 541 L 140.878906 36 "/>
<path fill="none" stroke-width="1" stroke-linecap="butt" stroke-linejoin="miter" stroke="rgb(0%, 0%, 0%)" stroke-opacity="0.12" stroke-miterlimit="1.154701" d="M 290.332031 541 L 290.332031 36 "/>
<path fill="none" stroke-width="1" stroke-linecap="butt" stroke-linejoin="miter" stroke="rgb(0%, 0%, 0%)" stroke-opacity="0.12" stroke-miterlimit="1.154701" d="M 439.789062 541 L 439.789062 36 "/>
<path fill="none" stroke-width="1" stroke-linecap="butt" stroke-linejoin="miter" stroke="rgb(0%, 0%, 0%)" stroke-opacity="0.12" stroke-miterlimit="1.154701" d="M 589.242188 541 L 589.242188 36 "/>
<path fill="none" stroke-width="1" stroke-linecap="butt" stroke-linejoin="miter" stroke="rgb(0%, 0%, 0%)" stroke-opacity="0.12" stroke-miterlimit="1.154701" d="M 738.695312 541 L 738.695312 36 "/>
<path fill="none" stroke-width="1" stroke-linecap="butt" stroke-linejoin="miter" stroke="rgb(0%, 0%, 0%)" stroke-opacity="0.12" stroke-miterlimit="1.154701" d="M 62 518.046875 L 884 518.046875 "/>
<path fill="none" stroke-width="1" stroke-linecap="butt" stroke-linejoin="miter" stroke="rgb(0%, 0%, 0%)" stroke-opacity="0.12" stroke-miterlimit="1.154701" d="M 62 309.367188 L 884 309.367188 "/>
<path fill="none" stroke-width="1" stroke-linecap="butt" stroke-linejoin="miter" stroke="rgb(0%, 0%, 0%)" stroke-opacity="0.12" stroke-miterlimit="1.154701" d="M 62 100.691406 L 884 100.691406 "/>
<g fill="rgb(0%, 0%, 0%)" fill-opacity="1">
<use xlink:href="#glyph-0-0-e92a9a05" x="394.026018" y="581.567999"/>
</g>
<g fill="rgb(0%, 0%, 0%)" fill-opacity="1">
<use xlink:href="#glyph-0-1-e92a9a05" x="405.688021" y="581.567999"/>
</g>
<g fill="rgb(0%, 0%, 0%)" fill-opacity="1">
<use xlink:href="#glyph-0-2-e92a9a05" x="413.472018" y="581.567999"/>
</g>
<g fill="rgb(0%, 0%, 0%)" fill-opacity="1">
<use xlink:href="#glyph-0-3-e92a9a05" x="421.256018" y="581.567999"/>
</g>
<g fill="rgb(0%, 0%, 0%)" fill-opacity="1">
<use xlink:href="#glyph-0-4-e92a9a05" x="429.040019" y="581.567999"/>
</g>
<g fill="rgb(0%, 0%, 0%)" fill-opacity="1">
<use xlink:href="#glyph-0-5-e92a9a05" x="432.932017" y="581.567999"/>
</g>
<g fill="rgb(0%, 0%, 0%)" fill-opacity="1">
<use xlink:href="#glyph-0-6-e92a9a05" x="440.716018" y="581.567999"/>
</g>
<g fill="rgb(0%, 0%, 0%)" fill-opacity="1">
<use xlink:href="#glyph-0-7-e92a9a05" x="448.500018" y="581.567999"/>
</g>
<g fill="rgb(0%, 0%, 0%)" fill-opacity="1">
<use xlink:href="#glyph-0-1-e92a9a05" x="452.392017" y="581.567999"/>
</g>
<g fill="rgb(0%, 0%, 0%)" fill-opacity="1">
<use xlink:href="#glyph-0-8-e92a9a05" x="460.176014" y="581.567999"/>
</g>
<g fill="rgb(0%, 0%, 0%)" fill-opacity="1">
<use xlink:href="#glyph-0-9-e92a9a05" x="464.838016" y="581.567999"/>
</g>
<g fill="rgb(0%, 0%, 0%)" fill-opacity="1">
<use xlink:href="#glyph-0-10-e92a9a05" x="469.500019" y="581.567999"/>
</g>
<g fill="rgb(0%, 0%, 0%)" fill-opacity="1">
<use xlink:href="#glyph-0-5-e92a9a05" x="473.392017" y="581.567999"/>
</g>
<g fill="rgb(0%, 0%, 0%)" fill-opacity="1">
<use xlink:href="#glyph-0-11-e92a9a05" x="481.176014" y="581.567999"/>
</g>
<g fill="rgb(0%, 0%, 0%)" fill-opacity="1">
<use xlink:href="#glyph-0-12-e92a9a05" x="484.284016" y="581.567999"/>
</g>
<g fill="rgb(0%, 0%, 0%)" fill-opacity="1">
<use xlink:href="#glyph-0-4-e92a9a05" x="492.068013" y="581.567999"/>
</g>
<g fill="rgb(0%, 0%, 0%)" fill-opacity="1">
<use xlink:href="#glyph-0-2-e92a9a05" x="495.960011" y="581.567999"/>
</g>
<g fill="rgb(0%, 0%, 0%)" fill-opacity="1">
<use xlink:href="#glyph-0-13-e92a9a05" x="503.744008" y="581.567999"/>
</g>
<g fill="rgb(0%, 0%, 0%)" fill-opacity="1">
<use xlink:href="#glyph-0-13-e92a9a05" x="510.744008" y="581.567999"/>
</g>
<g fill="rgb(0%, 0%, 0%)" fill-opacity="1">
<use xlink:href="#glyph-0-6-e92a9a05" x="517.744008" y="581.567999"/>
</g>
<g fill="rgb(0%, 0%, 0%)" fill-opacity="1">
<use xlink:href="#glyph-0-8-e92a9a05" x="525.528005" y="581.567999"/>
</g>
<g fill="rgb(0%, 0%, 0%)" fill-opacity="1">
<use xlink:href="#glyph-0-2-e92a9a05" x="530.190008" y="581.567999"/>
</g>
<g fill="rgb(0%, 0%, 0%)" fill-opacity="1">
<use xlink:href="#glyph-0-13-e92a9a05" x="537.974004" y="581.567999"/>
</g>
<g fill="rgb(0%, 0%, 0%)" fill-opacity="1">
<use xlink:href="#glyph-0-14-e92a9a05" x="544.974005" y="581.567999"/>
</g>
<g fill="rgb(0%, 0%, 0%)" fill-opacity="1">
<use xlink:href="#glyph-0-15-e92a9a05" x="131.148788" y="562.257999"/>
</g>
<g fill="rgb(0%, 0%, 0%)" fill-opacity="1">
<use xlink:href="#glyph-0-16-e92a9a05" x="138.932788" y="562.257999"/>
</g>
<g fill="rgb(0%, 0%, 0%)" fill-opacity="1">
<use xlink:href="#glyph-0-17-e92a9a05" x="142.824788" y="562.257999"/>
</g>
<g fill="rgb(0%, 0%, 0%)" fill-opacity="1">
<use xlink:href="#glyph-0-15-e92a9a05" x="280.603351" y="562.257999"/>
</g>
<g fill="rgb(0%, 0%, 0%)" fill-opacity="1">
<use xlink:href="#glyph-0-16-e92a9a05" x="288.387351" y="562.257999"/>
</g>
<g fill="rgb(0%, 0%, 0%)" fill-opacity="1">
<use xlink:href="#glyph-0-18-e92a9a05" x="292.279351" y="562.257999"/>
</g>
<g fill="rgb(0%, 0%, 0%)" fill-opacity="1">
<use xlink:href="#glyph-0-15-e92a9a05" x="430.057883" y="562.257999"/>
</g>
<g fill="rgb(0%, 0%, 0%)" fill-opacity="1">
<use xlink:href="#glyph-0-16-e92a9a05" x="437.841883" y="562.257999"/>
</g>
<g fill="rgb(0%, 0%, 0%)" fill-opacity="1">
<use xlink:href="#glyph-0-19-e92a9a05" x="441.733883" y="562.257999"/>
</g>
<g fill="rgb(0%, 0%, 0%)" fill-opacity="1">
<use xlink:href="#glyph-0-15-e92a9a05" x="579.512446" y="562.257999"/>
</g>
<g fill="rgb(0%, 0%, 0%)" fill-opacity="1">
<use xlink:href="#glyph-0-16-e92a9a05" x="587.296446" y="562.257999"/>
</g>
<g fill="rgb(0%, 0%, 0%)" fill-opacity="1">
<use xlink:href="#glyph-0-20-e92a9a05" x="591.188446" y="562.257999"/>
</g>
<g fill="rgb(0%, 0%, 0%)" fill-opacity="1">
<use xlink:href="#glyph-0-15-e92a9a05" x="728.966979" y="562.257999"/>
</g>
<g fill="rgb(0%, 0%, 0%)" fill-opacity="1">
<use xlink:href="#glyph-0-16-e92a9a05" x="736.750979" y="562.257999"/>
</g>
<g fill="rgb(0%, 0%, 0%)" fill-opacity="1">
<use xlink:href="#glyph-0-21-e92a9a05" x="740.642978" y="562.257999"/>
</g>
<g fill="rgb(0%, 0%, 0%)" fill-opacity="1">
<use xlink:href="#glyph-1-0-e92a9a05" x="28.379995" y="372.142977"/>
</g>
<g fill="rgb(0%, 0%, 0%)" fill-opacity="1">
<use xlink:href="#glyph-2-0-e92a9a05" x="28.379996" y="362.034975"/>
</g>
<g fill="rgb(0%, 0%, 0%)" fill-opacity="1">
<use xlink:href="#glyph-3-0-e92a9a05" x="28.379996" y="354.250978"/>
</g>
<g fill="rgb(0%, 0%, 0%)" fill-opacity="1">
<use xlink:href="#glyph-1-1-e92a9a05" x="28.379997" y="346.466978"/>
</g>
<g fill="rgb(0%, 0%, 0%)" fill-opacity="1">
<use xlink:href="#glyph-4-0-e92a9a05" x="28.379997" y="338.682981"/>
</g>
<g fill="rgb(0%, 0%, 0%)" fill-opacity="1">
<use xlink:href="#glyph-2-1-e92a9a05" x="28.379997" y="334.790983"/>
</g>
<g fill="rgb(0%, 0%, 0%)" fill-opacity="1">
<use xlink:href="#glyph-5-0-e92a9a05" x="28.379997" y="330.898984"/>
</g>
<g fill="rgb(0%, 0%, 0%)" fill-opacity="1">
<use xlink:href="#glyph-1-2-e92a9a05" x="28.379998" y="323.114984"/>
</g>
<g fill="rgb(0%, 0%, 0%)" fill-opacity="1">
<use xlink:href="#glyph-2-2-e92a9a05" x="28.379998" y="316.114985"/>
</g>
<g fill="rgb(0%, 0%, 0%)" fill-opacity="1">
<use xlink:href="#glyph-2-0-e92a9a05" x="28.379999" y="311.452986"/>
</g>
<g fill="rgb(0%, 0%, 0%)" fill-opacity="1">
<use xlink:href="#glyph-1-3-e92a9a05" x="28.379999" y="303.668991"/>
</g>
<g fill="rgb(0%, 0%, 0%)" fill-opacity="1">
<use xlink:href="#glyph-2-3-e92a9a05" x="28.38" y="296.66899"/>
</g>
<g fill="rgb(0%, 0%, 0%)" fill-opacity="1">
<use xlink:href="#glyph-3-1-e92a9a05" x="28.38" y="289.668991"/>
</g>
<g fill="rgb(0%, 0%, 0%)" fill-opacity="1">
<use xlink:href="#glyph-1-4-e92a9a05" x="28.38" y="285.776993"/>
</g>
<g fill="rgb(0%, 0%, 0%)" fill-opacity="1">
<use xlink:href="#glyph-4-1-e92a9a05" x="28.380001" y="277.992997"/>
</g>
<g fill="rgb(0%, 0%, 0%)" fill-opacity="1">
<use xlink:href="#glyph-5-1-e92a9a05" x="28.380001" y="270.209001"/>
</g>
<g fill="rgb(0%, 0%, 0%)" fill-opacity="1">
<use xlink:href="#glyph-1-5-e92a9a05" x="28.380002" y="265.546999"/>
</g>
<g fill="rgb(0%, 0%, 0%)" fill-opacity="1">
<use xlink:href="#glyph-2-4-e92a9a05" x="28.380002" y="253.884998"/>
</g>
<g fill="rgb(0%, 0%, 0%)" fill-opacity="1">
<use xlink:href="#glyph-1-6-e92a9a05" x="28.380003" y="246.101001"/>
</g>
<g fill="rgb(0%, 0%, 0%)" fill-opacity="1">
<use xlink:href="#glyph-1-7-e92a9a05" x="28.380003" y="242.208995"/>
</g>
<g fill="rgb(0%, 0%, 0%)" fill-opacity="1">
<use xlink:href="#glyph-2-5-e92a9a05" x="28.380003" y="234.424998"/>
</g>
<g fill="rgb(0%, 0%, 0%)" fill-opacity="1">
<use xlink:href="#glyph-2-6-e92a9a05" x="28.380003" y="230.533"/>
</g>
<g fill="rgb(0%, 0%, 0%)" fill-opacity="1">
<use xlink:href="#glyph-2-0-e92a9a05" x="28.380004" y="227.424998"/>
</g>
<g fill="rgb(0%, 0%, 0%)" fill-opacity="1">
<use xlink:href="#glyph-1-1-e92a9a05" x="28.380004" y="219.641005"/>
</g>
<g fill="rgb(0%, 0%, 0%)" fill-opacity="1">
<use xlink:href="#glyph-4-2-e92a9a05" x="28.380005" y="211.857008"/>
</g>
<g fill="rgb(0%, 0%, 0%)" fill-opacity="1">
<use xlink:href="#glyph-0-15-e92a9a05" x="44.216001" y="523.148454"/>
</g>
<g fill="rgb(0%, 0%, 0%)" fill-opacity="1">
<use xlink:href="#glyph-0-19-e92a9a05" x="44.216001" y="314.470761"/>
</g>
<g fill="rgb(0%, 0%, 0%)" fill-opacity="1">
<use xlink:href="#glyph-0-22-e92a9a05" x="36.432001" y="105.793082"/>
</g>
<g fill="rgb(0%, 0%, 0%)" fill-opacity="1">
<use xlink:href="#glyph-0-15-e92a9a05" x="44.216001" y="105.793082"/>
</g>
<g fill="rgb(0%, 0%, 0%)" fill-opacity="1">
<use xlink:href="#glyph-6-0-e92a9a05" x="365.641015" y="28.947986"/>
</g>
<g fill="rgb(0%, 0%, 0%)" fill-opacity="1">
<use xlink:href="#glyph-6-1-e92a9a05" x="377.303018" y="28.947986"/>
</g>
<g fill="rgb(0%, 0%, 0%)" fill-opacity="1">
<use xlink:href="#glyph-6-2-e92a9a05" x="385.857019" y="28.947986"/>
</g>
<g fill="rgb(0%, 0%, 0%)" fill-opacity="1">
<use xlink:href="#glyph-6-3-e92a9a05" x="394.41102" y="28.947986"/>
</g>
<g fill="rgb(0%, 0%, 0%)" fill-opacity="1">
<use xlink:href="#glyph-6-4-e92a9a05" x="402.195017" y="28.947986"/>
</g>
<g fill="rgb(0%, 0%, 0%)" fill-opacity="1">
<use xlink:href="#glyph-6-5-e92a9a05" x="406.087015" y="28.947986"/>
</g>
<g fill="rgb(0%, 0%, 0%)" fill-opacity="1">
<use xlink:href="#glyph-6-6-e92a9a05" x="409.979014" y="28.947986"/>
</g>
<g fill="rgb(0%, 0%, 0%)" fill-opacity="1">
<use xlink:href="#glyph-6-7-e92a9a05" x="417.763014" y="28.947986"/>
</g>
<g fill="rgb(0%, 0%, 0%)" fill-opacity="1">
<use xlink:href="#glyph-6-7-e92a9a05" x="425.547015" y="28.947986"/>
</g>
<g fill="rgb(0%, 0%, 0%)" fill-opacity="1">
<use xlink:href="#glyph-6-8-e92a9a05" x="433.331012" y="28.947986"/>
</g>
<g fill="rgb(0%, 0%, 0%)" fill-opacity="1">
<use xlink:href="#glyph-6-9-e92a9a05" x="441.885013" y="28.947986"/>
</g>
<g fill="rgb(0%, 0%, 0%)" fill-opacity="1">
<use xlink:href="#glyph-6-6-e92a9a05" x="447.331012" y="28.947986"/>
</g>
<g fill="rgb(0%, 0%, 0%)" fill-opacity="1">
<use xlink:href="#glyph-6-7-e92a9a05" x="455.115009" y="28.947986"/>
</g>
<g fill="rgb(0%, 0%, 0%)" fill-opacity="1">
<use xlink:href="#glyph-6-10-e92a9a05" x="462.899006" y="28.947986"/>
</g>
<g fill="rgb(0%, 0%, 0%)" fill-opacity="1">
<use xlink:href="#glyph-6-5-e92a9a05" x="470.683002" y="28.947986"/>
</g>
<g fill="rgb(0%, 0%, 0%)" fill-opacity="1">
<use xlink:href="#glyph-6-11-e92a9a05" x="474.575001" y="28.947986"/>
</g>
<g fill="rgb(0%, 0%, 0%)" fill-opacity="1">
<use xlink:href="#glyph-6-8-e92a9a05" x="483.129002" y="28.947986"/>
</g>
<g fill="rgb(0%, 0%, 0%)" fill-opacity="1">
<use xlink:href="#glyph-6-4-e92a9a05" x="491.683003" y="28.947986"/>
</g>
<g fill="rgb(0%, 0%, 0%)" fill-opacity="1">
<use xlink:href="#glyph-6-4-e92a9a05" x="495.575009" y="28.947986"/>
</g>
<g fill="rgb(0%, 0%, 0%)" fill-opacity="1">
<use xlink:href="#glyph-6-5-e92a9a05" x="499.467007" y="28.947986"/>
</g>
<g fill="rgb(0%, 0%, 0%)" fill-opacity="1">
<use xlink:href="#glyph-6-2-e92a9a05" x="503.359006" y="28.947986"/>
</g>
<g fill="rgb(0%, 0%, 0%)" fill-opacity="1">
<use xlink:href="#glyph-7-0-e92a9a05" x="511.913007" y="28.947986"/>
</g>
<g fill="rgb(0%, 0%, 0%)" fill-opacity="1">
<use xlink:href="#glyph-6-12-e92a9a05" x="515.805005" y="28.947986"/>
</g>
<g fill="rgb(0%, 0%, 0%)" fill-opacity="1">
<use xlink:href="#glyph-6-13-e92a9a05" x="523.589002" y="28.947986"/>
</g>
<g fill="rgb(0%, 0%, 0%)" fill-opacity="1">
<use xlink:href="#glyph-6-9-e92a9a05" x="528.251005" y="28.947986"/>
</g>
<g fill="rgb(0%, 0%, 0%)" fill-opacity="1">
<use xlink:href="#glyph-6-14-e92a9a05" x="533.697004" y="28.947986"/>
</g>
<g fill="rgb(0%, 0%, 0%)" fill-opacity="1">
<use xlink:href="#glyph-6-15-e92a9a05" x="537.589002" y="28.947986"/>
</g>
<g fill="rgb(0%, 0%, 0%)" fill-opacity="1">
<use xlink:href="#glyph-6-8-e92a9a05" x="546.143003" y="28.947986"/>
</g>
<g fill="rgb(0%, 0%, 0%)" fill-opacity="1">
<use xlink:href="#glyph-6-13-e92a9a05" x="554.697004" y="28.947986"/>
</g>
<g fill="rgb(0%, 0%, 0%)" fill-opacity="1">
<use xlink:href="#glyph-6-14-e92a9a05" x="559.359007" y="28.947986"/>
</g>
<g fill="rgb(0%, 0%, 0%)" fill-opacity="1">
<use xlink:href="#glyph-6-1-e92a9a05" x="563.251005" y="28.947986"/>
</g>
<g fill="rgb(0%, 0%, 0%)" fill-opacity="1">
<use xlink:href="#glyph-6-11-e92a9a05" x="571.805007" y="28.947986"/>
</g>
<path fill-rule="nonzero" fill="rgb(19.999999%, 55.764699%, 75.843138%)" fill-opacity="1" d="M 99.363281 518.046875 L 136.726562 518.046875 L 136.726562 476.3125 L 99.363281 476.3125 Z M 99.363281 518.046875 "/>
<path fill-rule="nonzero" fill="rgb(19.999999%, 55.764699%, 75.843138%)" fill-opacity="1" d="M 136.726562 518.046875 L 174.089844 518.046875 L 174.089844 476.3125 L 136.726562 476.3125 Z M 136.726562 518.046875 "/>
<path fill-rule="nonzero" fill="rgb(19.999999%, 55.764699%, 75.843138%)" fill-opacity="1" d="M 174.089844 518.046875 L 211.453125 518.046875 L 211.453125 392.839844 L 174.089844 392.839844 Z M 174.089844 518.046875 "/>
<path fill-rule="nonzero" fill="rgb(19.999999%, 55.764699%, 75.843138%)" fill-opacity="1" d="M 211.453125 518.046875 L 248.816406 518.046875 L 248.816406 309.371094 L 211.453125 309.371094 Z M 211.453125 518.046875 "/>
<path fill-rule="nonzero" fill="rgb(19.999999%, 55.764699%, 75.843138%)" fill-opacity="1" d="M 248.816406 518.046875 L 286.179688 518.046875 L 286.179688 392.839844 L 248.816406 392.839844 Z M 248.816406 518.046875 "/>
<path fill-rule="nonzero" fill="rgb(19.999999%, 55.764699%, 75.843138%)" fill-opacity="1" d="M 286.183594 518.046875 L 323.546875 518.046875 L 323.546875 58.957031 L 286.183594 58.957031 Z M 286.183594 518.046875 "/>
<path fill-rule="nonzero" fill="rgb(19.999999%, 55.764699%, 75.843138%)" fill-opacity="1" d="M 323.546875 518.046875 L 360.910156 518.046875 L 360.910156 100.691406 L 323.546875 100.691406 Z M 323.546875 518.046875 "/>
<path fill-rule="nonzero" fill="rgb(19.999999%, 55.764699%, 75.843138%)" fill-opacity="1" d="M 360.910156 518.046875 L 398.273438 518.046875 L 398.273438 267.632812 L 360.910156 267.632812 Z M 360.910156 518.046875 "/>
<path fill-rule="nonzero" fill="rgb(19.999999%, 55.764699%, 75.843138%)" fill-opacity="1" d="M 398.273438 518.046875 L 435.636719 518.046875 L 435.636719 184.164062 L 398.273438 184.164062 Z M 398.273438 518.046875 "/>
<path fill-rule="nonzero" fill="rgb(19.999999%, 55.764699%, 75.843138%)" fill-opacity="1" d="M 435.636719 518.046875 L 473 518.046875 L 473 184.164062 L 435.636719 184.164062 Z M 435.636719 518.046875 "/>
<path fill-rule="nonzero" fill="rgb(19.999999%, 55.764699%, 75.843138%)" fill-opacity="1" d="M 473 518.046875 L 510.363281 518.046875 L 510.363281 100.691406 L 473 100.691406 Z M 473 518.046875 "/>
<path fill-rule="nonzero" fill="rgb(19.999999%, 55.764699%, 75.843138%)" fill-opacity="1" d="M 510.363281 518.046875 L 547.726562 518.046875 L 547.726562 100.691406 L 510.363281 100.691406 Z M 510.363281 518.046875 "/>
<path fill-rule="nonzero" fill="rgb(19.999999%, 55.764699%, 75.843138%)" fill-opacity="1" d="M 547.726562 518.046875 L 585.089844 518.046875 L 585.089844 142.425781 L 547.726562 142.425781 Z M 547.726562 518.046875 "/>
<path fill-rule="nonzero" fill="rgb(19.999999%, 55.764699%, 75.843138%)" fill-opacity="1" d="M 585.089844 518.046875 L 622.453125 518.046875 L 622.453125 351.105469 L 585.089844 351.105469 Z M 585.089844 518.046875 "/>
<path fill-rule="nonzero" fill="rgb(19.999999%, 55.764699%, 75.843138%)" fill-opacity="1" d="M 622.453125 518.046875 L 659.816406 518.046875 L 659.816406 392.839844 L 622.453125 392.839844 Z M 622.453125 518.046875 "/>
<path fill-rule="nonzero" fill="rgb(19.999999%, 55.764699%, 75.843138%)" fill-opacity="1" d="M 659.816406 518.046875 L 697.179688 518.046875 L 697.179688 476.3125 L 659.816406 476.3125 Z M 659.816406 518.046875 "/>
<path fill-rule="nonzero" fill="rgb(19.999999%, 55.764699%, 75.843138%)" fill-opacity="1" d="M 697.183594 518.046875 L 734.546875 518.046875 L 734.546875 351.105469 L 697.183594 351.105469 Z M 697.183594 518.046875 "/>
<path fill-rule="nonzero" fill="rgb(19.999999%, 55.764699%, 75.843138%)" fill-opacity="1" d="M 771.910156 518.046875 L 809.273438 518.046875 L 809.273438 476.3125 L 771.910156 476.3125 Z M 771.910156 518.046875 "/>
<path fill-rule="nonzero" fill="rgb(19.999999%, 55.764699%, 75.843138%)" fill-opacity="1" d="M 809.273438 518.046875 L 846.636719 518.046875 L 846.636719 434.574219 L 809.273438 434.574219 Z M 809.273438 518.046875 "/>
<path fill="none" stroke-width="1" stroke-linecap="butt" stroke-linejoin="miter" stroke="rgb(0%, 0%, 0%)" stroke-opacity="1" stroke-miterlimit="1.154701" d="M 140.878906 541.5 L 140.878906 546.5 "/>
<path fill="none" stroke-width="1" stroke-linecap="butt" stroke-linejoin="miter" stroke="rgb(0%, 0%, 0%)" stroke-opacity="1" stroke-miterlimit="1.154701" d="M 290.332031 541.5 L 290.332031 546.5 "/>
<path fill="none" stroke-width="1" stroke-linecap="butt" stroke-linejoin="miter" stroke="rgb(0%, 0%, 0%)" stroke-opacity="1" stroke-miterlimit="1.154701" d="M 439.789062 541.5 L 439.789062 546.5 "/>
<path fill="none" stroke-width="1" stroke-linecap="butt" stroke-linejoin="miter" stroke="rgb(0%, 0%, 0%)" stroke-opacity="1" stroke-miterlimit="1.154701" d="M 589.242188 541.5 L 589.242188 546.5 "/>
<path fill="none" stroke-width="1" stroke-linecap="butt" stroke-linejoin="miter" stroke="rgb(0%, 0%, 0%)" stroke-opacity="1" stroke-miterlimit="1.154701" d="M 738.695312 541.5 L 738.695312 546.5 "/>
<path fill="none" stroke-width="1" stroke-linecap="butt" stroke-linejoin="miter" stroke="rgb(0%, 0%, 0%)" stroke-opacity="1" stroke-miterlimit="1.154701" d="M 61.5 518.046875 L 56.5 518.046875 "/>
<path fill="none" stroke-width="1" stroke-linecap="butt" stroke-linejoin="miter" stroke="rgb(0%, 0%, 0%)" stroke-opacity="1" stroke-miterlimit="1.154701" d="M 61.5 309.367188 L 56.5 309.367188 "/>
<path fill="none" stroke-width="1" stroke-linecap="butt" stroke-linejoin="miter" stroke="rgb(0%, 0%, 0%)" stroke-opacity="1" stroke-miterlimit="1.154701" d="M 61.5 100.691406 L 56.5 100.691406 "/>
<path fill="none" stroke-width="1" stroke-linecap="butt" stroke-linejoin="miter" stroke="rgb(0%, 0%, 0%)" stroke-opacity="1" stroke-miterlimit="1.154701" d="M 61.5 541 L 884.5 541 "/>
<path fill="none" stroke-width="1" stroke-linecap="butt" stroke-linejoin="miter" stroke="rgb(0%, 0%, 0%)" stroke-opacity="1" stroke-miterlimit="1.154701" d="M 62 541.5 L 62 35.5 "/>
<path fill="none" stroke-width="1" stroke-linecap="butt" stroke-linejoin="miter" stroke="rgb(0%, 0%, 0%)" stroke-opacity="1" stroke-miterlimit="1.154701" d="M 61.5 36 L 884.5 36 "/>
<path fill="none" stroke-width="1" stroke-linecap="butt" stroke-linejoin="miter" stroke="rgb(0%, 0%, 0%)" stroke-opacity="1" stroke-miterlimit="1.154701" d="M 884 541.5 L 884 35.5 "/>
</svg>
