<?xml version="1.0" encoding="UTF-8"?>
<svg xmlns="http://www.w3.org/2000/svg" xmlns:xlink="http://www.w3.org/1999/xlink" width="900" height="600" viewBox="0 0 900 600">
<defs>
<g>
<g id="glyph-0-0-14f9d909">
<path d="M 7.46875 0 C 7.46875 0 1.125 0 1.125 0 C 1.125 0 1.125 -10.203125 1.125 -10.203125 C 1.125 -10.203125 2.421875 -10.203125 2.421875 -10.203125 C 2.421875 -10.203125 2.421875 -1.140625 2.421875 -1.140625 C 2.421875 -1.140625 7.46875 -1.140625 7.46875 -1.140625 C 7.46875 -1.140625 7.46875 0 7.46875 0 Z M 7.46875 0 "/>
</g>
<g id="glyph-0-1-14f9d909">
<path d="M 7.484375 -0.03125 C 7.109375 0.0625 6.9375 0.09375 6.6875 0.09375 C 6.125 0.09375 5.609375 -0.3125 5.484375 -0.875 C 4.84375 -0.1875 3.9375 0.203125 3 0.203125 C 1.515625 0.203125 0.59375 -0.578125 0.59375 -1.90625 C 0.59375 -2.796875 1.015625 -3.453125 1.875 -3.8125 C 2.328125 -3.984375 2.578125 -4.046875 4.234375 -4.25 C 5.15625 -4.375 5.453125 -4.578125 5.453125 -5.0625 C 5.453125 -5.0625 5.453125 -5.375 5.453125 -5.375 C 5.453125 -6.078125 4.859375 -6.46875 3.8125 -6.46875 C 2.71875 -6.46875 2.1875 -6.0625 2.09375 -5.171875 C 2.09375 -5.171875 0.90625 -5.171875 0.90625 -5.171875 C 0.984375 -6.859375 2.078125 -7.546875 3.84375 -7.546875 C 5.65625 -7.546875 6.609375 -6.84375 6.609375 -5.546875 C 6.609375 -5.546875 6.609375 -1.453125 6.609375 -1.453125 C 6.609375 -1.09375 6.828125 -0.875 7.234375 -0.875 C 7.3125 -0.875 7.359375 -0.875 7.484375 -0.90625 C 7.484375 -0.90625 7.484375 -0.03125 7.484375 -0.03125 Z M 5.453125 -2.53125 C 5.453125 -2.53125 5.453125 -3.625 5.453125 -3.625 C 5.046875 -3.4375 4.796875 -3.390625 3.5625 -3.21875 C 2.328125 -3.03125 1.8125 -2.703125 1.8125 -1.9375 C 1.8125 -1.140625 2.34375 -0.8125 3.25 -0.8125 C 4.375 -0.8125 5.453125 -1.484375 5.453125 -2.53125 Z M 5.453125 -2.53125 "/>
</g>
<g id="glyph-0-2-14f9d909">
<path d="M 3.5625 0 C 3.15625 0.0625 2.890625 0.09375 2.609375 0.09375 C 1.6875 0.09375 1.1875 -0.328125 1.1875 -1.0625 C 1.1875 -1.0625 1.1875 -6.390625 1.1875 -6.390625 C 1.1875 -6.390625 0.203125 -6.390625 0.203125 -6.390625 C 0.203125 -6.390625 0.203125 -7.34375 0.203125 -7.34375 C 0.203125 -7.34375 1.1875 -7.34375 1.1875 -7.34375 C 1.1875 -7.34375 1.1875 -9.359375 1.1875 -9.359375 C 1.1875 -9.359375 2.359375 -9.359375 2.359375 -9.359375 C 2.359375 -9.359375 2.359375 -7.34375 2.359375 -7.34375 C 2.359375 -7.34375 3.5625 -7.34375 3.5625 -7.34375 C 3.5625 -7.34375 3.5625 -6.390625 3.5625 -6.390625 C 3.5625 -6.390625 2.359375 -6.390625 2.359375 -6.390625 C 2.359375 -6.390625 2.359375 -1.578125 2.359375 -1.578125 C 2.359375 -1.0625 2.484375 -0.921875 3 -0.921875 C 3.21875 -0.921875 3.40625 -0.9375 3.5625 -0.984375 C 3.5625 -0.984375 3.5625 0 3.5625 0 Z M 3.5625 0 "/>
</g>
<g id="glyph-0-3-14f9d909">
<path d="M 7.1875 -3.328125 C 7.1875 -3.328125 1.78125 -3.328125 1.78125 -3.328125 C 1.8125 -1.65625 2.71875 -0.875 3.9375 -0.875 C 4.875 -0.875 5.53125 -1.265625 5.859375 -2.21875 C 5.859375 -2.21875 7.03125 -2.21875 7.03125 -2.21875 C 6.734375 -0.734375 5.578125 0.203125 3.890625 0.203125 C 1.828125 0.203125 0.5625 -1.21875 0.5625 -3.625 C 0.5625 -6.03125 1.875 -7.546875 3.921875 -7.546875 C 5.296875 -7.546875 6.40625 -6.8125 6.890625 -5.609375 C 7.09375 -5.0625 7.1875 -4.390625 7.1875 -3.328125 Z M 5.9375 -4.375 C 5.9375 -5.515625 5.046875 -6.46875 3.90625 -6.46875 C 2.734375 -6.46875 1.90625 -5.59375 1.8125 -4.28125 C 1.8125 -4.28125 5.921875 -4.28125 5.921875 -4.28125 C 5.9375 -4.3125 5.9375 -4.375 5.9375 -4.375 Z M 5.9375 -4.375 "/>
</g>
<g id="glyph-0-4-14f9d909">
<path d="M 6.8125 0 C 6.8125 0 5.65625 0 5.65625 0 C 5.65625 0 5.65625 -5.078125 5.65625 -5.078125 C 5.65625 -5.96875 5.0625 -6.53125 4.140625 -6.53125 C 2.953125 -6.53125 2.140625 -5.546875 2.140625 -4.046875 C 2.140625 -4.046875 2.140625 0 2.140625 0 C 2.140625 0 0.984375 0 0.984375 0 C 0.984375 0 0.984375 -7.34375 0.984375 -7.34375 C 0.984375 -7.34375 2.0625 -7.34375 2.0625 -7.34375 C 2.0625 -7.34375 2.0625 -6.109375 2.0625 -6.109375 C 2.703125 -7.125 3.40625 -7.546875 4.5 -7.546875 C 5.90625 -7.546875 6.8125 -6.765625 6.8125 -5.546875 C 6.8125 -5.546875 6.8125 0 6.8125 0 Z M 6.8125 0 "/>
</g>
<g id="glyph-0-5-14f9d909">
<path d="M 9.03125 -10.203125 C 9.03125 -10.203125 5.484375 0 5.484375 0 C 5.484375 0 4.09375 0 4.09375 0 C 4.09375 0 0.421875 -10.203125 0.421875 -10.203125 C 0.421875 -10.203125 1.8125 -10.203125 1.8125 -10.203125 C 1.8125 -10.203125 4.8125 -1.5625 4.8125 -1.5625 C 4.8125 -1.5625 7.640625 -10.203125 7.640625 -10.203125 C 7.640625 -10.203125 9.03125 -10.203125 9.03125 -10.203125 Z M 9.03125 -10.203125 "/>
</g>
<g id="glyph-0-6-14f9d909">
<path d="M 4.5 -6.3125 C 2.6875 -6.28125 2.140625 -5.453125 2.140625 -3.8125 C 2.140625 -3.8125 2.140625 0 2.140625 0 C 2.140625 0 0.984375 0 0.984375 0 C 0.984375 0 0.984375 -7.34375 0.984375 -7.34375 C 0.984375 -7.34375 2.046875 -7.34375 2.046875 -7.34375 C 2.046875 -7.34375 2.046875 -6 2.046875 -6 C 2.71875 -7.09375 3.296875 -7.546875 4.046875 -7.546875 C 4.203125 -7.546875 4.296875 -7.53125 4.5 -7.5 C 4.5 -7.5 4.5 -6.3125 4.5 -6.3125 Z M 4.5 -6.3125 "/>
</g>
<g id="glyph-0-7-14f9d909">
<path d="M 2.140625 0 C 2.140625 0 0.984375 0 0.984375 0 C 0.984375 0 0.984375 -7.34375 0.984375 -7.34375 C 0.984375 -7.34375 2.140625 -7.34375 2.140625 -7.34375 C 2.140625 -7.34375 2.140625 0 2.140625 0 Z M 2.296875 -8.4375 C 2.296875 -8.4375 0.84375 -8.4375 0.84375 -8.4375 C 0.84375 -8.4375 0.84375 -9.890625 0.84375 -9.890625 C 0.84375 -9.890625 2.296875 -9.890625 2.296875 -9.890625 C 2.296875 -9.890625 2.296875 -8.4375 2.296875 -8.4375 Z M 2.296875 -8.4375 "/>
</g>
<g id="glyph-0-8-14f9d909">
<path d="M 7.328125 -3.75 C 7.328125 -1.375 6.0625 0.203125 4.125 0.203125 C 3.109375 0.203125 2.359375 -0.203125 1.8125 -1.046875 C 1.8125 -1.046875 1.8125 0 1.8125 0 C 1.8125 0 0.75 0 0.75 0 C 0.75 0 0.75 -10.203125 0.75 -10.203125 C 0.75 -10.203125 1.921875 -10.203125 1.921875 -10.203125 C 1.921875 -10.203125 1.921875 -6.34375 1.921875 -6.34375 C 2.46875 -7.171875 3.171875 -7.546875 4.1875 -7.546875 C 6.125 -7.546875 7.328125 -6.125 7.328125 -3.75 Z M 6.109375 -3.6875 C 6.109375 -5.3125 5.265625 -6.453125 3.96875 -6.453125 C 2.734375 -6.515625 1.921875 -5.390625 1.921875 -3.671875 C 1.921875 -2 2.734375 -0.875 3.96875 -0.875 C 5.234375 -0.875 6.109375 -2.015625 6.109375 -3.6875 Z M 6.109375 -3.6875 "/>
</g>
<g id="glyph-0-9-14f9d909">
</g>
<g id="glyph-0-10-14f9d909">
<path d="M 4.859375 0 C 4.859375 0 3.625 0 3.625 0 C 3.625 0 3.625 -7.0625 3.625 -7.0625 C 3.625 -7.0625 1.421875 -7.0625 1.421875 -7.0625 C 1.421875 -7.0625 1.421875 -7.953125 1.421875 -7.953125 C 3.328125 -8.1875 3.609375 -8.40625 4.046875 -9.921875 C 4.046875 -9.921875 4.859375 -9.921875 4.859375 -9.921875 C 4.859375 -9.921875 4.859375 0 4.859375 0 Z M 4.859375 0 "/>
</g>
<g id="glyph-0-11-14f9d909">
<path d="M 7.28125 -2.375 C 7.28125 -2.375 5.8125 -2.375 5.8125 -2.375 C 5.8125 -2.375 5.8125 0 5.8125 0 C 5.8125 0 4.578125 0 4.578125 0 C 4.578125 0 4.578125 -2.375 4.578125 -2.375 C 4.578125 -2.375 0.390625 -2.375 0.390625 -2.375 C 0.390625 -2.375 0.390625 -3.6875 0.390625 -3.6875 C 0.390625 -3.6875 4.90625 -9.921875 4.90625 -9.921875 C 4.90625 -9.921875 5.8125 -9.921875 5.8125 -9.921875 C 5.8125 -9.921875 5.8125 -3.484375 5.8125 -3.484375 C 5.8125 -3.484375 7.28125 -3.484375 7.28125 -3.484375 C 7.28125 -3.484375 7.28125 -2.375 7.28125 -2.375 Z M 4.578125 -3.484375 C 4.578125 -3.484375 4.578125 -7.828125 4.578125 -7.828125 C 4.578125 -7.828125 1.46875 -3.484375 1.46875 -3.484375 C 1.46875 -3.484375 4.578125 -3.484375 4.578125 -3.484375 Z M 4.578125 -3.484375 "/>
</g>
<g id="glyph-0-12-14f9d909">
<path d="M 7.21875 -3.03125 C 7.21875 -3.03125 0.953125 -3.03125 0.953125 -3.03125 C 0.953125 -3.03125 0.953125 -3.96875 0.953125 -3.96875 C 0.953125 -3.96875 7.21875 -3.96875 7.21875 -3.96875 C 7.21875 -3.96875 7.21875 -3.03125 7.21875 -3.03125 Z M 7.21875 -3.03125 "/>
</g>
<g id="glyph-0-13-14f9d909">
<path d="M 7.078125 -2.890625 C 7.078125 -1.015625 5.765625 0.203125 3.71875 0.203125 C 1.6875 0.203125 0.609375 -0.78125 0.453125 -3 C 0.453125 -3 1.6875 -3 1.6875 -3 C 1.765625 -1.546875 2.421875 -0.875 3.765625 -0.875 C 5.046875 -0.875 5.828125 -1.625 5.828125 -2.875 C 5.828125 -3.96875 5.125 -4.625 3.765625 -4.625 C 3.765625 -4.625 3.09375 -4.625 3.09375 -4.625 C 3.09375 -4.625 3.09375 -5.65625 3.09375 -5.65625 C 5.0625 -5.65625 5.53125 -6.09375 5.53125 -7.15625 C 5.53125 -8.203125 4.875 -8.84375 3.78125 -8.84375 C 2.515625 -8.84375 1.921875 -8.1875 1.890625 -6.71875 C 1.890625 -6.71875 0.65625 -6.71875 0.65625 -6.71875 C 0.703125 -8.828125 1.765625 -9.921875 3.765625 -9.921875 C 5.65625 -9.921875 6.796875 -8.90625 6.796875 -7.203125 C 6.796875 -6.203125 6.328125 -5.5625 5.40625 -5.1875 C 6.59375 -4.78125 7.078125 -4.09375 7.078125 -2.890625 Z M 7.078125 -2.890625 "/>
</g>
<g id="glyph-0-14-14f9d909">
<path d="M 7.15625 -7.015625 C 7.15625 -5.796875 6.4375 -4.765625 5.046875 -4.015625 C 5.046875 -4.015625 3.65625 -3.265625 3.65625 -3.265625 C 2.4375 -2.546875 1.984375 -2.03125 1.859375 -1.21875 C 1.859375 -1.21875 7.078125 -1.21875 7.078125 -1.21875 C 7.078125 -1.21875 7.078125 0 7.078125 0 C 7.078125 0 0.46875 0 0.46875 0 C 0.59375 -2.1875 1.1875 -3.125 3.265625 -4.296875 C 3.265625 -4.296875 4.546875 -5.03125 4.546875 -5.03125 C 5.4375 -5.53125 5.890625 -6.203125 5.890625 -6.984375 C 5.890625 -8.046875 5.046875 -8.84375 3.9375 -8.84375 C 2.71875 -8.84375 2.03125 -8.140625 1.9375 -6.484375 C 1.9375 -6.484375 0.703125 -6.484375 0.703125 -6.484375 C 0.765625 -8.890625 1.953125 -9.921875 3.96875 -9.921875 C 5.859375 -9.921875 7.15625 -8.6875 7.15625 -7.015625 Z M 7.15625 -7.015625 "/>
</g>
<g id="glyph-0-15-14f9d909">
<path d="M 7.09375 -4.78125 C 7.09375 -1.515625 5.953125 0.203125 3.84375 0.203125 C 1.71875 0.203125 0.609375 -1.515625 0.609375 -4.859375 C 0.609375 -8.1875 1.703125 -9.921875 3.84375 -9.921875 C 6 -9.921875 7.09375 -8.21875 7.09375 -4.78125 Z M 5.84375 -4.890625 C 5.84375 -7.546875 5.1875 -8.828125 3.84375 -8.828125 C 2.515625 -8.828125 1.859375 -7.5625 1.859375 -4.84375 C 1.859375 -2.125 2.515625 -0.8125 3.828125 -0.8125 C 5.1875 -0.8125 5.84375 -2.078125 5.84375 -4.890625 Z M 5.84375 -4.890625 "/>
</g>
<g id="glyph-1-0-14f9d909">
<path d="M 2.109375 0 C 2.109375 0 0.953125 0 0.953125 0 C 0.953125 0 0.953125 -10.203125 0.953125 -10.203125 C 0.953125 -10.203125 2.109375 -10.203125 2.109375 -10.203125 C 2.109375 -10.203125 2.109375 0 2.109375 0 Z M 2.109375 0 "/>
</g>
<g id="glyph-2-0-14f9d909">
<path d="M 7.21875 -3.03125 C 7.21875 -3.03125 0.953125 -3.03125 0.953125 -3.03125 C 0.953125 -3.03125 0.953125 -3.96875 0.953125 -3.96875 C 0.953125 -3.96875 7.21875 -3.96875 7.21875 -3.96875 C 7.21875 -3.96875 7.21875 -3.03125 7.21875 -3.03125 Z M 7.21875 -3.03125 "/>
</g>
<g id="glyph-3-0-14f9d909">
<path d="M 0 -7.46875 C 0 -7.46875 0 -1.125 0 -1.125 C 0 -1.125 -10.203125 -1.125 -10.203125 -1.125 C -10.203125 -1.125 -10.203125 -2.421875 -10.203125 -2.421875 C -10.203125 -2.421875 -1.140625 -2.421875 -1.140625 -2.421875 C -1.140625 -2.421875 -1.140625 -7.46875 -1.140625 -7.46875 C -1.140625 -7.46875 0 -7.46875 0 -7.46875 Z M 0 -7.46875 "/>
</g>
<g id="glyph-3-1-14f9d909">
<path d="M -3.328125 -7.1875 C -3.328125 -7.1875 -3.328125 -1.78125 -3.328125 -1.78125 C -1.65625 -1.8125 -0.875 -2.71875 -0.875 -3.9375 C -0.875 -4.875 -1.265625 -5.53125 -2.21875 -5.859375 C -2.21875 -5.859375 -2.21875 -7.03125 -2.21875 -7.03125 C -0.734375 -6.734375 0.203125 -5.578125 0.203125 -3.890625 C 0.203125 -1.828125 -1.21875 -0.5625 -3.625 -0.5625 C -6.03125 -0.5625 -7.546875 -1.875 -7.546875 -3.921875 C -7.546875 -5.296875 -6.8125 -6.40625 -5.609375 -6.890625 C -5.0625 -7.09375 -4.390625 -7.1875 -3.328125 -7.1875 Z M -4.375 -5.9375 C -5.515625 -5.9375 -6.46875 -5.046875 -6.46875 -3.90625 C -6.46875 -2.734375 -5.59375 -1.90625 -4.28125 -1.8125 C -4.28125 -1.8125 -4.28125 -5.921875 -4.28125 -5.921875 C -4.3125 -5.9375 -4.375 -5.9375 -4.375 -5.9375 Z M -4.375 -5.9375 "/>
</g>
<g id="glyph-3-2-14f9d909">
</g>
<g id="glyph-3-3-14f9d909">
<path d="M -10.203125 -9.03125 C -10.203125 -9.03125 0 -5.484375 0 -5.484375 C 0 -5.484375 0 -4.09375 0 -4.09375 C 0 -4.09375 -10.203125 -0.421875 -10.203125 -0.421875 C -10.203125 -0.421875 -10.203125 -1.8125 -10.203125 -1.8125 C -10.203125 -1.8125 -1.5625 -4.8125 -1.5625 -4.8125 C -1.5625 -4.8125 -10.203125 -7.640625 -10.203125 -7.640625 C -10.203125 -7.640625 -10.203125 -9.03125 -10.203125 -9.03125 Z M -10.203125 -9.03125 "/>
</g>
<g id="glyph-3-4-14f9d909">
<path d="M 0 -2.140625 C 0 -2.140625 0 -0.984375 0 -0.984375 C 0 -0.984375 -7.34375 -0.984375 -7.34375 -0.984375 C -7.34375 -0.984375 -7.34375 -2.140625 -7.34375 -2.140625 C -7.34375 -2.140625 0 -2.140625 0 -2.140625 Z M -8.4375 -2.296875 C -8.4375 -2.296875 -8.4375 -0.84375 -8.4375 -0.84375 C -8.4375 -0.84375 -9.890625 -0.84375 -9.890625 -0.84375 C -9.890625 -0.84375 -9.890625 -2.296875 -9.890625 -2.296875 C -9.890625 -2.296875 -8.4375 -2.296875 -8.4375 -2.296875 Z M -8.4375 -2.296875 "/>
</g>
<g id="glyph-3-5-14f9d909">
<path d="M 0 -2.109375 C 0 -2.109375 0 -0.953125 0 -0.953125 C 0 -0.953125 -10.203125 -0.953125 -10.203125 -0.953125 C -10.203125 -0.953125 -10.203125 -2.109375 -10.203125 -2.109375 C -10.203125 -2.109375 0 -2.109375 0 -2.109375 Z M 0 -2.109375 "/>
</g>
<g id="glyph-4-0-14f9d909">
<path d="M -0.03125 -7.484375 C 0.0625 -7.109375 0.09375 -6.9375 0.09375 -6.6875 C 0.09375 -6.125 -0.3125 -5.609375 -0.875 -5.484375 C -0.1875 -4.84375 0.203125 -3.9375 0.203125 -3 C 0.203125 -1.515625 -0.578125 -0.59375 -1.90625 -0.59375 C -2.796875 -0.59375 -3.453125 -1.015625 -3.8125 -1.875 C -3.984375 -2.328125 -4.046875 -2.578125 -4.25 -4.234375 C -4.375 -5.15625 -4.578125 -5.453125 -5.0625 -5.453125 C -5.0625 -5.453125 -5.375 -5.453125 -5.375 -5.453125 C -6.078125 -5.453125 -6.46875 -4.859375 -6.46875 -3.8125 C -6.46875 -2.71875 -6.0625 -2.1875 -5.171875 -2.09375 C -5.171875 -2.09375 -5.171875 -0.90625 -5.171875 -0.90625 C -6.859375 -0.984375 -7.546875 -2.078125 -7.546875 -3.84375 C -7.546875 -5.65625 -6.84375 -6.609375 -5.546875 -6.609375 C -5.546875 -6.609375 -1.453125 -6.609375 -1.453125 -6.609375 C -1.09375 -6.609375 -0.875 -6.828125 -0.875 -7.234375 C -0.875 -7.3125 -0.875 -7.359375 -0.90625 -7.484375 C -0.90625 -7.484375 -0.03125 -7.484375 -0.03125 -7.484375 Z M -2.53125 -5.453125 C -2.53125 -5.453125 -3.625 -5.453125 -3.625 -5.453125 C -3.4375 -5.046875 -3.390625 -4.796875 -3.21875 -3.5625 C -3.03125 -2.328125 -2.703125 -1.8125 -1.9375 -1.8125 C -1.140625 -1.8125 -0.8125 -2.34375 -0.8125 -3.25 C -0.8125 -4.375 -1.484375 -5.453125 -2.53125 -5.453125 Z M -2.53125 -5.453125 "/>
</g>
<g id="glyph-5-0-14f9d909">
<path d="M 0 -3.5625 C 0.0625 -3.15625 0.09375 -2.890625 0.09375 -2.609375 C 0.09375 -1.6875 -0.328125 -1.1875 -1.0625 -1.1875 C -1.0625 -1.1875 -6.390625 -1.1875 -6.390625 -1.1875 C -6.390625 -1.1875 -6.390625 -0.203125 -6.390625 -0.203125 C -6.390625 -0.203125 -7.34375 -0.203125 -7.34375 -0.203125 C -7.34375 -0.203125 -7.34375 -1.1875 -7.34375 -1.1875 C -7.34375 -1.1875 -9.359375 -1.1875 -9.359375 -1.1875 C -9.359375 -1.1875 -9.359375 -2.359375 -9.359375 -2.359375 C -9.359375 -2.359375 -7.34375 -2.359375 -7.34375 -2.359375 C -7.34375 -2.359375 -7.34375 -3.5625 -7.34375 -3.5625 C -7.34375 -3.5625 -6.390625 -3.5625 -6.390625 -3.5625 C -6.390625 -3.5625 -6.390625 -2.359375 -6.390625 -2.359375 C -6.390625 -2.359375 -1.578125 -2.359375 -1.578125 -2.359375 C -1.0625 -2.359375 -0.921875 -2.484375 -0.921875 -3 C -0.921875 -3.21875 -0.9375 -3.40625 -0.984375 -3.5625 C -0.984375 -3.5625 0 -3.5625 0 -3.5625 Z M 0 -3.5625 "/>
</g>
<g id="glyph-5-1-14f9d909">
<path d="M -6.3125 -4.5 C -6.28125 -2.6875 -5.453125 -2.140625 -3.8125 -2.140625 C -3.8125 -2.140625 0 -2.140625 0 -2.140625 C 0 -2.140625 0 -0.984375 0 -0.984375 C 0 -0.984375 -7.34375 -0.984375 -7.34375 -0.984375 C -7.34375 -0.984375 -7.34375 -2.046875 -7.34375 -2.046875 C -7.34375 -2.046875 -6 -2.046875 -6 -2.046875 C -7.09375 -2.71875 -7.546875 -3.296875 -7.546875 -4.046875 C -7.546875 -4.203125 -7.53125 -4.296875 -7.5 -4.5 C -7.5 -4.5 -6.3125 -4.5 -6.3125 -4.5 Z M -6.3125 -4.5 "/>
</g>
<g id="glyph-5-2-14f9d909">
<path d="M -3.75 -7.328125 C -1.375 -7.328125 0.203125 -6.0625 0.203125 -4.125 C 0.203125 -3.109375 -0.203125 -2.359375 -1.046875 -1.8125 C -1.046875 -1.8125 0 -1.8125 0 -1.8125 C 0 -1.8125 0 -0.75 0 -0.75 C 0 -0.75 -10.203125 -0.75 -10.203125 -0.75 C -10.203125 -0.75 -10.203125 -1.921875 -10.203125 -1.921875 C -10.203125 -1.921875 -6.34375 -1.921875 -6.34375 -1.921875 C -7.171875 -2.46875 -7.546875 -3.171875 -7.546875 -4.1875 C -7.546875 -6.125 -6.125 -7.328125 -3.75 -7.328125 Z M -3.6875 -6.109375 C -5.3125 -6.109375 -6.453125 -5.265625 -6.453125 -3.96875 C -6.515625 -2.734375 -5.390625 -1.921875 -3.671875 -1.921875 C -2 -1.921875 -0.875 -2.734375 -0.875 -3.96875 C -0.875 -5.234375 -2.015625 -6.109375 -3.6875 -6.109375 Z M -3.6875 -6.109375 "/>
</g>
<g id="glyph-5-3-14f9d909">
<path d="M -7.015625 -7.15625 C -5.796875 -7.15625 -4.765625 -6.4375 -4.015625 -5.046875 C -4.015625 -5.046875 -3.265625 -3.65625 -3.265625 -3.65625 C -2.546875 -2.4375 -2.03125 -1.984375 -1.21875 -1.859375 C -1.21875 -1.859375 -1.21875 -7.078125 -1.21875 -7.078125 C -1.21875 -7.078125 0 -7.078125 0 -7.078125 C 0 -7.078125 0 -0.46875 0 -0.46875 C -2.1875 -0.59375 -3.125 -1.1875 -4.296875 -3.265625 C -4.296875 -3.265625 -5.03125 -4.546875 -5.03125 -4.546875 C -5.53125 -5.4375 -6.203125 -5.890625 -6.984375 -5.890625 C -8.046875 -5.890625 -8.84375 -5.046875 -8.84375 -3.9375 C -8.84375 -2.71875 -8.140625 -2.03125 -6.484375 -1.9375 C -6.484375 -1.9375 -6.484375 -0.703125 -6.484375 -0.703125 C -8.890625 -0.765625 -9.921875 -1.953125 -9.921875 -3.96875 C -9.921875 -5.859375 -8.6875 -7.15625 -7.015625 -7.15625 Z M -7.015625 -7.15625 "/>
</g>
<g id="glyph-6-0-14f9d909">
<path d="M 0 -6.8125 C 0 -6.8125 0 -5.65625 0 -5.65625 C 0 -5.65625 -5.078125 -5.65625 -5.078125 -5.65625 C -5.96875 -5.65625 -6.53125 -5.0625 -6.53125 -4.140625 C -6.53125 -2.953125 -5.546875 -2.140625 -4.046875 -2.140625 C -4.046875 -2.140625 0 -2.140625 0 -2.140625 C 0 -2.140625 0 -0.984375 0 -0.984375 C 0 -0.984375 -7.34375 -0.984375 -7.34375 -0.984375 C -7.34375 -0.984375 -7.34375 -2.0625 -7.34375 -2.0625 C -7.34375 -2.0625 -6.109375 -2.0625 -6.109375 -2.0625 C -7.125 -2.703125 -7.546875 -3.40625 -7.546875 -4.5 C -7.546875 -5.90625 -6.765625 -6.8125 -5.546875 -6.8125 C -5.546875 -6.8125 0 -6.8125 0 -6.8125 Z M 0 -6.8125 "/>
</g>
<g id="glyph-6-1-14f9d909">
<path d="M -0.03125 -7.484375 C 0.0625 -7.109375 0.09375 -6.9375 0.09375 -6.6875 C 0.09375 -6.125 -0.3125 -5.609375 -0.875 -5.484375 C -0.1875 -4.84375 0.203125 -3.9375 0.203125 -3 C 0.203125 -1.515625 -0.578125 -0.59375 -1.90625 -0.59375 C -2.796875 -0.59375 -3.453125 -1.015625 -3.8125 -1.875 C -3.984375 -2.328125 -4.046875 -2.578125 -4.25 -4.234375 C -4.375 -5.15625 -4.578125 -5.453125 -5.0625 -5.453125 C -5.0625 -5.453125 -5.375 -5.453125 -5.375 -5.453125 C -6.078125 -5.453125 -6.46875 -4.859375 -6.46875 -3.8125 C -6.46875 -2.71875 -6.0625 -2.1875 -5.171875 -2.09375 C -5.171875 -2.09375 -5.171875 -0.90625 -5.171875 -0.90625 C -6.859375 -0.984375 -7.546875 -2.078125 -7.546875 -3.84375 C -7.546875 -5.65625 -6.84375 -6.609375 -5.546875 -6.609375 C -5.546875 -6.609375 -1.453125 -6.609375 -1.453125 -6.609375 C -1.09375 -6.609375 -0.875 -6.828125 -0.875 -7.234375 C -0.875 -7.3125 -0.875 -7.359375 -0.90625 -7.484375 C -0.90625 -7.484375 -0.03125 -7.484375 -0.03125 -7.484375 Z M -2.53125 -5.453125 C -2.53125 -5.453125 -3.625 -5.453125 -3.625 -5.453125 C -3.4375 -5.046875 -3.390625 -4.796875 -3.21875 -3.5625 C -3.03125 -2.328125 -2.703125 -1.8125 -1.9375 -1.8125 C -1.140625 -1.8125 -0.8125 -2.34375 -0.8125 -3.25 C -0.8125 -4.375 -1.484375 -5.453125 -2.53125 -5.453125 Z M -2.53125 -5.453125 "/>
</g>
<g id="glyph-6-2-14f9d909">
</g>
<g id="glyph-7-0-14f9d909">
<path d="M -0.03125 -7.484375 C 0.0625 -7.109375 0.09375 -6.9375 0.09375 -6.6875 C 0.09375 -6.125 -0.3125 -5.609375 -0.875 -5.484375 C -0.1875 -4.84375 0.203125 -3.9375 0.203125 -3 C 0.203125 -1.515625 -0.578125 -0.59375 -1.90625 -0.59375 C -2.796875 -0.59375 -3.453125 -1.015625 -3.8125 -1.875 C -3.984375 -2.328125 -4.046875 -2.578125 -4.25 -4.234375 C -4.375 -5.15625 -4.578125 -5.453125 -5.0625 -5.453125 C -5.0625 -5.453125 -5.375 -5.453125 -5.375 -5.453125 C -6.078125 -5.453125 -6.46875 -4.859375 -6.46875 -3.8125 C -6.46875 -2.71875 -6.0625 -2.1875 -5.171875 -2.09375 C -5.171875 -2.09375 -5.171875 -0.90625 -5.171875 -0.90625 C -6.859375 -0.984375 -7.546875 -2.078125 -7.546875 -3.84375 C -7.546875 -5.65625 -6.84375 -6.609375 -5.546875 -6.609375 C -5.546875 -6.609375 -1.453125 -6.609375 -1.453125 -6.609375 C -1.09375 -6.609375 -0.875 -6.828125 -0.875 -7.234375 C -0.875 -7.3125 -0.875 -7.359375 -0.90625 -7.484375 C -0.90625 -7.484375 -0.03125 -7.484375 -0.03125 -7.484375 Z M -2.53125 -5.453125 C -2.53125 -5.453125 -3.625 -5.453125 -3.625 -5.453125 C -3.4375 -5.046875 -3.390625 -4.796875 -3.21875 -3.5625 C -3.03125 -2.328125 -2.703125 -1.8125 -1.9375 -1.8125 C -1.140625 -1.8125 -0.8125 -2.34375 -0.8125 -3.25 C -0.8125 -4.375 -1.484375 -5.453125 -2.53125 -5.453125 Z M -2.53125 -5.453125 "/>
</g>
<g id="glyph-8-0-14f9d909">
<path d="M 9.59375 -3.484375 C 9.46875 -1.140625 7.765625 0.171875 5.234375 0.171875 C 2.390625 0.171875 0.609375 -1.8125 0.609375 -5.09375 C 0.609375 -8.40625 2.40625 -10.375 5.296875 -10.375 C 7.59375 -10.375 9.359375 -9.09375 9.546875 -6.75 C 9.546875 -6.75 7.546875 -6.75 7.546875 -6.75 C 7.234375 -8.0625 6.5 -8.578125 5.359375 -8.578125 C 3.703125 -8.578125 2.71875 -7.328125 2.71875 -5.0625 C 2.71875 -2.84375 3.671875 -1.59375 5.296875 -1.59375 C 6.59375 -1.59375 7.421875 -2.1875 7.546875 -3.484375 C 7.546875 -3.484375 9.59375 -3.484375 9.59375 -3.484375 Z M 9.59375 -3.484375 "/>
</g>
<g id="glyph-8-1-14f9d909">
<path d="M 8.859375 -7.046875 C 8.859375 -4.96875 7.65625 -3.640625 5.78125 -3.640625 C 5.78125 -3.640625 3.15625 -3.640625 3.15625 -3.640625 C 3.15625 -3.640625 3.15625 0 3.15625 0 C 3.15625 0 1.0625 0 1.0625 0 C 1.0625 0 1.0625 -10.203125 1.0625 -10.203125 C 1.0625 -10.203125 5.578125 -10.203125 5.578125 -10.203125 C 7.703125 -10.203125 8.859375 -9.09375 8.859375 -7.046875 Z M 6.765625 -6.921875 C 6.765625 -7.96875 6.25 -8.453125 5.125 -8.453125 C 5.125 -8.453125 3.15625 -8.453125 3.15625 -8.453125 C 3.15625 -8.453125 3.15625 -5.390625 3.15625 -5.390625 C 3.15625 -5.390625 5.125 -5.390625 5.125 -5.390625 C 6.25 -5.390625 6.765625 -5.875 6.765625 -6.921875 Z M 6.765625 -6.921875 "/>
</g>
<g id="glyph-8-2-14f9d909">
<path d="M 8.109375 0 C 8.109375 0 1.125 0 1.125 0 C 1.125 0 1.125 -10.203125 1.125 -10.203125 C 1.125 -10.203125 3.21875 -10.203125 3.21875 -10.203125 C 3.21875 -10.203125 3.21875 -1.75 3.21875 -1.75 C 3.21875 -1.75 8.109375 -1.75 8.109375 -1.75 C 8.109375 -1.75 8.109375 0 8.109375 0 Z M 8.109375 0 "/>
</g>
<g id="glyph-8-3-14f9d909">
<path d="M 8.859375 -3.0625 C 8.859375 -1 7.3125 0.171875 4.671875 0.171875 C 2.078125 0.171875 0.453125 -1.015625 0.453125 -3.203125 C 0.453125 -3.203125 2.484375 -3.203125 2.484375 -3.203125 C 2.484375 -2.109375 3.359375 -1.515625 4.78125 -1.515625 C 6.0625 -1.515625 6.84375 -1.953125 6.84375 -2.8125 C 6.84375 -3.640625 6.328125 -3.9375 4.921875 -4.21875 C 4.921875 -4.21875 3.5 -4.5 3.5 -4.5 C 1.421875 -4.90625 0.625 -5.640625 0.625 -7.234375 C 0.625 -9.21875 2.046875 -10.375 4.5 -10.375 C 6.984375 -10.375 8.5 -9.25 8.5 -7.09375 C 8.5 -7.09375 6.53125 -7.09375 6.53125 -7.09375 C 6.53125 -8.140625 5.71875 -8.6875 4.390625 -8.6875 C 3.3125 -8.6875 2.625 -8.203125 2.625 -7.4375 C 2.625 -6.6875 3.0625 -6.390625 4.5625 -6.109375 C 4.5625 -6.109375 6.15625 -5.796875 6.15625 -5.796875 C 8.046875 -5.4375 8.859375 -4.671875 8.859375 -3.0625 Z M 8.859375 -3.0625 "/>
</g>
<g id="glyph-8-4-14f9d909">
<path d="M 4.171875 -2.890625 C 4.171875 -2.890625 0.359375 -2.890625 0.359375 -2.890625 C 0.359375 -2.890625 0.359375 -4.78125 0.359375 -4.78125 C 0.359375 -4.78125 4.171875 -4.78125 4.171875 -4.78125 C 4.171875 -4.78125 4.171875 -2.890625 4.171875 -2.890625 Z M 4.171875 -2.890625 "/>
</g>
<g id="glyph-8-5-14f9d909">
<path d="M 9.53125 -5.109375 C 9.53125 -3.53125 9.09375 -2.140625 8.28125 -1.1875 C 7.59375 -0.359375 6.625 0 5.0625 0 C 5.0625 0 1.078125 0 1.078125 0 C 1.078125 0 1.078125 -10.203125 1.078125 -10.203125 C 1.078125 -10.203125 5.0625 -10.203125 5.0625 -10.203125 C 6.640625 -10.203125 7.609375 -9.859375 8.28125 -9.03125 C 9.09375 -8.0625 9.53125 -6.671875 9.53125 -5.109375 Z M 7.4375 -5.09375 C 7.4375 -7.34375 6.65625 -8.453125 5.0625 -8.453125 C 5.0625 -8.453125 3.171875 -8.453125 3.171875 -8.453125 C 3.171875 -8.453125 3.171875 -1.75 3.171875 -1.75 C 3.171875 -1.75 5.0625 -1.75 5.0625 -1.75 C 6.65625 -1.75 7.4375 -2.859375 7.4375 -5.09375 Z M 7.4375 -5.09375 "/>
</g>
<g id="glyph-8-6-14f9d909">
<path d="M 9.84375 0 C 9.84375 0 7.6875 0 7.6875 0 C 7.6875 0 7.015625 -2.0625 7.015625 -2.0625 C 7.015625 -2.0625 3.1875 -2.0625 3.1875 -2.0625 C 3.1875 -2.0625 2.5 0 2.5 0 C 2.5 0 0.359375 0 0.359375 0 C 0.359375 0 3.984375 -10.203125 3.984375 -10.203125 C 3.984375 -10.203125 6.3125 -10.203125 6.3125 -10.203125 C 6.3125 -10.203125 9.84375 0 9.84375 0 Z M 6.4375 -3.8125 C 6.4375 -3.8125 5.109375 -7.796875 5.109375 -7.796875 C 5.109375 -7.796875 3.78125 -3.8125 3.78125 -3.8125 C 3.78125 -3.8125 6.4375 -3.8125 6.4375 -3.8125 Z M 6.4375 -3.8125 "/>
</g>
<g id="glyph-8-7-14f9d909">
<path d="M 7.3125 -2.625 C 7.125 -1.015625 5.859375 0.125 4.015625 0.125 C 1.78125 0.125 0.46875 -1.234375 0.46875 -3.71875 C 0.46875 -6.296875 1.796875 -7.6875 4.046875 -7.6875 C 5.9375 -7.6875 7.171875 -6.578125 7.3125 -4.734375 C 7.3125 -4.734375 5.4375 -4.734375 5.4375 -4.734375 C 5.203125 -5.71875 4.828125 -6.109375 4.03125 -6.109375 C 2.796875 -6.109375 2.4375 -5.109375 2.4375 -3.71875 C 2.4375 -2.25 3.03125 -1.453125 4.03125 -1.453125 C 4.78125 -1.453125 5.1875 -1.828125 5.4375 -2.625 C 5.4375 -2.625 7.3125 -2.625 7.3125 -2.625 Z M 7.3125 -2.625 "/>
</g>
<g id="glyph-8-8-14f9d909">
<path d="M 7.96875 -3.71875 C 7.96875 -1.296875 6.53125 0.125 4.234375 0.125 C 1.90625 0.125 0.484375 -1.28125 0.484375 -3.78125 C 0.484375 -6.265625 1.90625 -7.6875 4.21875 -7.6875 C 6.578125 -7.6875 7.96875 -6.28125 7.96875 -3.71875 Z M 6 -3.75 C 6 -5.234375 5.3125 -6.109375 4.234375 -6.109375 C 3.15625 -6.109375 2.453125 -5.21875 2.453125 -3.78125 C 2.453125 -2.34375 3.15625 -1.453125 4.234375 -1.453125 C 5.28125 -1.453125 6 -2.34375 6 -3.75 Z M 6 -3.75 "/>
</g>
<g id="glyph-8-9-14f9d909">
<path d="M 5.1875 -5.6875 C 4.90625 -5.71875 4.78125 -5.734375 4.5625 -5.734375 C 3.421875 -5.734375 2.84375 -5.171875 2.84375 -4.015625 C 2.84375 -4.015625 2.84375 0 2.84375 0 C 2.84375 0 0.875 0 0.875 0 C 0.875 0 0.875 -7.5625 0.875 -7.5625 C 0.875 -7.5625 2.84375 -7.5625 2.84375 -7.5625 C 2.84375 -7.5625 2.84375 -6.078125 2.84375 -6.078125 C 3.265625 -7.09375 4.046875 -7.6875 4.9375 -7.6875 C 5 -7.6875 5.0625 -7.6875 5.1875 -7.671875 C 5.1875 -7.671875 5.1875 -5.6875 5.1875 -5.6875 Z M 5.1875 -5.6875 "/>
</g>
<g id="glyph-8-10-14f9d909">
<path d="M 7.34375 -3.5 C 7.34375 -3.5 7.34375 -3.265625 7.34375 -3.265625 C 7.34375 -3.265625 2.265625 -3.265625 2.265625 -3.265625 C 2.328125 -1.796875 2.90625 -1.375 3.84375 -1.375 C 4.546875 -1.375 5.171875 -1.578125 5.328125 -2.125 C 5.328125 -2.125 7.265625 -2.125 7.265625 -2.125 C 6.828125 -0.640625 5.453125 0.125 3.765625 0.125 C 1.625 0.125 0.3125 -1.265625 0.3125 -3.6875 C 0.3125 -6.21875 1.640625 -7.6875 3.8125 -7.6875 C 6.03125 -7.6875 7.34375 -6.109375 7.34375 -3.5 Z M 5.3125 -4.5625 C 5.203125 -5.640625 4.625 -6.1875 3.78125 -6.1875 C 2.90625 -6.1875 2.421875 -5.609375 2.296875 -4.5625 C 2.296875 -4.5625 5.3125 -4.5625 5.3125 -4.5625 Z M 5.3125 -4.5625 "/>
</g>
<g id="glyph-8-11-14f9d909">
<path d="M 7.28125 -2.234375 C 7.28125 -0.71875 6.109375 0.125 3.96875 0.125 C 1.6875 0.125 0.46875 -0.734375 0.40625 -2.390625 C 0.40625 -2.390625 2.328125 -2.390625 2.328125 -2.390625 C 2.484375 -1.578125 2.96875 -1.40625 3.859375 -1.40625 C 4.78125 -1.40625 5.3125 -1.59375 5.3125 -2.0625 C 5.3125 -2.265625 5.15625 -2.421875 4.65625 -2.578125 C 4.65625 -2.578125 2.328125 -3.296875 2.328125 -3.296875 C 0.921875 -3.734375 0.671875 -4.234375 0.671875 -5.171875 C 0.671875 -6.71875 1.859375 -7.6875 3.78125 -7.6875 C 5.8125 -7.6875 7.046875 -6.71875 7.0625 -5.125 C 7.0625 -5.125 5.1875 -5.125 5.1875 -5.125 C 5.171875 -5.8125 4.703125 -6.140625 3.765625 -6.140625 C 3.078125 -6.140625 2.625 -5.859375 2.625 -5.453125 C 2.625 -5.140625 2.765625 -5.015625 3.3125 -4.859375 C 3.3125 -4.859375 5.796875 -4.140625 5.796875 -4.140625 C 6.796875 -3.84375 7.28125 -3.203125 7.28125 -2.34375 C 7.28125 -2.34375 7.28125 -2.234375 7.28125 -2.234375 Z M 7.28125 -2.234375 "/>
</g>
<g id="glyph-8-12-14f9d909">
</g>
<g id="glyph-8-13-14f9d909">
<path d="M 4.375 -6.109375 C 4.375 -6.109375 3.21875 -6.109375 3.21875 -6.109375 C 3.21875 -6.109375 3.21875 0 3.21875 0 C 3.21875 0 1.265625 0 1.265625 0 C 1.265625 0 1.265625 -6.109375 1.265625 -6.109375 C 1.265625 -6.109375 0.203125 -6.109375 0.203125 -6.109375 C 0.203125 -6.109375 0.203125 -7.40625 0.203125 -7.40625 C 0.203125 -7.40625 1.265625 -7.40625 1.265625 -7.40625 C 1.265625 -7.40625 1.265625 -8.3125 1.265625 -8.3125 C 1.265625 -9.59375 1.890625 -10.203125 3.1875 -10.203125 C 3.453125 -10.203125 3.953125 -10.1875 4.3125 -10.15625 C 4.3125 -10.15625 4.3125 -8.6875 4.3125 -8.6875 C 4.140625 -8.71875 3.921875 -8.734375 3.75 -8.734375 C 3.390625 -8.734375 3.21875 -8.546875 3.21875 -8.140625 C 3.21875 -8.140625 3.21875 -7.40625 3.21875 -7.40625 C 3.21875 -7.40625 4.375 -7.40625 4.375 -7.40625 C 4.375 -7.40625 4.375 -6.109375 4.375 -6.109375 Z M 4.375 -6.109375 "/>
</g>
<g id="glyph-8-14-14f9d909">
<path d="M 11.53125 0 C 11.53125 0 9.578125 0 9.578125 0 C 9.578125 0 9.578125 -5.046875 9.578125 -5.046875 C 9.578125 -5.640625 9.171875 -6.015625 8.515625 -6.015625 C 7.671875 -6.015625 7.171875 -5.453125 7.171875 -4.53125 C 7.171875 -4.53125 7.171875 0 7.171875 0 C 7.171875 0 5.203125 0 5.203125 0 C 5.203125 0 5.203125 -5.046875 5.203125 -5.046875 C 5.203125 -5.640625 4.796875 -6.015625 4.140625 -6.015625 C 3.296875 -6.015625 2.796875 -5.453125 2.796875 -4.53125 C 2.796875 -4.53125 2.796875 0 2.796875 0 C 2.796875 0 0.84375 0 0.84375 0 C 0.84375 0 0.84375 -7.5625 0.84375 -7.5625 C 0.84375 -7.5625 2.78125 -7.5625 2.78125 -7.5625 C 2.78125 -7.5625 2.78125 -6.625 2.78125 -6.625 C 3.4375 -7.390625 3.984375 -7.6875 4.859375 -7.6875 C 5.796875 -7.6875 6.546875 -7.28125 6.921875 -6.5625 C 7.5 -7.34375 8.171875 -7.6875 9.125 -7.6875 C 10.640625 -7.6875 11.53125 -6.8125 11.53125 -5.34375 C 11.53125 -5.34375 11.53125 0 11.53125 0 Z M 11.53125 0 "/>
</g>
<g id="glyph-8-15-14f9d909">
<path d="M 7.34375 0 C 7.34375 0 5.203125 0 5.203125 0 C 5.03125 -0.21875 4.984375 -0.5625 4.984375 -0.953125 C 4.296875 -0.234375 3.53125 0.125 2.6875 0.125 C 1.421875 0.125 0.390625 -0.578125 0.390625 -2.046875 C 0.390625 -3.421875 1.125 -4.0625 2.625 -4.328125 C 2.625 -4.328125 3.40625 -4.46875 3.40625 -4.46875 C 4.375 -4.640625 4.96875 -4.546875 4.96875 -5.34375 C 4.96875 -5.859375 4.59375 -6.109375 3.84375 -6.109375 C 2.875 -6.109375 2.546875 -5.859375 2.453125 -5.0625 C 2.453125 -5.0625 0.5625 -5.0625 0.5625 -5.0625 C 0.6875 -6.8125 1.75 -7.6875 3.796875 -7.6875 C 5.84375 -7.6875 6.890625 -6.90625 6.890625 -5.359375 C 6.890625 -5.359375 6.890625 -1.15625 6.890625 -1.15625 C 6.890625 -0.765625 6.984375 -0.5625 7.34375 -0.234375 C 7.34375 -0.234375 7.34375 0 7.34375 0 Z M 4.96875 -3.234375 C 4.96875 -3.234375 4.96875 -3.5625 4.96875 -3.5625 C 4.75 -3.453125 4.65625 -3.4375 4.140625 -3.328125 C 4.140625 -3.328125 3.46875 -3.203125 3.46875 -3.203125 C 2.65625 -3.046875 2.359375 -2.84375 2.359375 -2.265625 C 2.359375 -1.703125 2.765625 -1.453125 3.421875 -1.453125 C 4.40625 -1.453125 4.96875 -2.09375 4.96875 -3.234375 Z M 4.96875 -3.234375 "/>
</g>
<g id="glyph-8-16-14f9d909">
<path d="M 7.640625 0 C 7.640625 0 5.6875 0 5.6875 0 C 5.6875 0 5.6875 -4.65625 5.6875 -4.65625 C 5.6875 -5.5625 5.265625 -6.015625 4.421875 -6.015625 C 3.46875 -6.015625 2.84375 -5.4375 2.84375 -4.53125 C 2.84375 -4.53125 2.84375 0 2.84375 0 C 2.84375 0 0.875 0 0.875 0 C 0.875 0 0.875 -7.5625 0.875 -7.5625 C 0.875 -7.5625 2.84375 -7.5625 2.84375 -7.5625 C 2.84375 -7.5625 2.84375 -6.46875 2.84375 -6.46875 C 3.40625 -7.3125 4.09375 -7.6875 5.109375 -7.6875 C 6.71875 -7.6875 7.640625 -6.734375 7.640625 -5.0625 C 7.640625 -5.0625 7.640625 0 7.640625 0 Z M 7.640625 0 "/>
</g>
<g id="glyph-8-17-14f9d909">
<path d="M 2.890625 0 C 2.890625 0 0.9375 0 0.9375 0 C 0.9375 0 0.9375 -7.5625 0.9375 -7.5625 C 0.9375 -7.5625 2.890625 -7.5625 2.890625 -7.5625 C 2.890625 -7.5625 2.890625 0 2.890625 0 Z M 2.921875 -8.46875 C 2.921875 -8.46875 0.96875 -8.46875 0.96875 -8.46875 C 0.96875 -8.46875 0.96875 -10.4375 0.96875 -10.4375 C 0.96875 -10.4375 2.921875 -10.4375 2.921875 -10.4375 C 2.921875 -10.4375 2.921875 -8.46875 2.921875 -8.46875 Z M 2.921875 -8.46875 "/>
</g>
<g id="glyph-8-18-14f9d909">
<path d="M 7.5 -7.5625 C 7.5 -7.5625 4.90625 0 4.90625 0 C 4.90625 0 2.84375 0 2.84375 0 C 2.84375 0 0.203125 -7.5625 0.203125 -7.5625 C 0.203125 -7.5625 2.265625 -7.5625 2.265625 -7.5625 C 2.265625 -7.5625 3.90625 -2.03125 3.90625 -2.03125 C 3.90625 -2.03125 5.4375 -7.5625 5.4375 -7.5625 C 5.4375 -7.5625 7.5 -7.5625 7.5 -7.5625 Z M 7.5 -7.5625 "/>
</g>
<g id="glyph-8-19-14f9d909">
<path d="M 7.609375 3.046875 C 7.609375 3.046875 5.65625 3.046875 5.65625 3.046875 C 5.65625 3.046875 5.65625 -1.015625 5.65625 -1.015625 C 5.1875 -0.1875 4.5 0.125 3.546875 0.125 C 1.609375 0.125 0.390625 -1.515625 0.390625 -3.78125 C 0.390625 -6.09375 1.734375 -7.6875 3.5625 -7.6875 C 4.5 -7.6875 5.1875 -7.265625 5.65625 -6.4375 C 5.65625 -6.4375 5.65625 -7.5625 5.65625 -7.5625 C 5.65625 -7.5625 7.609375 -7.5625 7.609375 -7.5625 C 7.609375 -7.5625 7.609375 3.046875 7.609375 3.046875 Z M 5.65625 -3.734375 C 5.65625 -5.203125 5 -6.046875 4 -6.046875 C 3.03125 -6.046875 2.359375 -5.1875 2.359375 -3.78125 C 2.359375 -2.359375 3.03125 -1.515625 4 -1.515625 C 4.984375 -1.515625 5.65625 -2.359375 5.65625 -3.734375 Z M 5.65625 -3.734375 "/>
</g>
<g id="glyph-8-20-14f9d909">
<path d="M 7.578125 0 C 7.578125 0 5.609375 0 5.609375 0 C 5.609375 0 5.609375 -1 5.609375 -1 C 5.046875 -0.25 4.375 0.125 3.34375 0.125 C 1.734375 0.125 0.8125 -0.828125 0.8125 -2.484375 C 0.8125 -2.484375 0.8125 -7.5625 0.8125 -7.5625 C 0.8125 -7.5625 2.765625 -7.5625 2.765625 -7.5625 C 2.765625 -7.5625 2.765625 -2.890625 2.765625 -2.890625 C 2.765625 -1.984375 3.1875 -1.546875 4.03125 -1.546875 C 4.984375 -1.546875 5.609375 -2.125 5.609375 -3.03125 C 5.609375 -3.03125 5.609375 -7.5625 5.609375 -7.5625 C 5.609375 -7.5625 7.578125 -7.5625 7.578125 -7.5625 C 7.578125 -7.5625 7.578125 0 7.578125 0 Z M 7.578125 0 "/>
</g>
<g id="glyph-8-21-14f9d909">
<path d="M 7.53125 -7.5625 C 7.53125 -7.5625 4.421875 1.390625 4.421875 1.390625 C 3.90625 2.828125 3.21875 3.0625 1.90625 3.0625 C 1.671875 3.0625 1.5 3.046875 1.203125 3.015625 C 1.203125 3.015625 1.203125 1.546875 1.203125 1.546875 C 1.453125 1.609375 1.5625 1.625 1.71875 1.625 C 2.40625 1.625 2.9375 1.078125 2.9375 0.359375 C 2.9375 0.359375 2.9375 0.328125 2.9375 0.328125 C 2.9375 0.328125 0.125 -7.5625 0.125 -7.5625 C 0.125 -7.5625 2.28125 -7.5625 2.28125 -7.5625 C 2.28125 -7.5625 3.953125 -2.0625 3.953125 -2.0625 C 3.953125 -2.0625 5.515625 -7.5625 5.515625 -7.5625 C 5.515625 -7.5625 7.53125 -7.5625 7.53125 -7.5625 Z M 7.53125 -7.5625 "/>
</g>
<g id="glyph-8-22-14f9d909">
<path d="M 10.71875 -7.5625 C 10.71875 -7.5625 8.578125 0 8.578125 0 C 8.578125 0 6.546875 0 6.546875 0 C 6.546875 0 5.421875 -5.328125 5.421875 -5.328125 C 5.421875 -5.328125 4.21875 0 4.21875 0 C 4.21875 0 2.203125 0 2.203125 0 C 2.203125 0 0.0625 -7.5625 0.0625 -7.5625 C 0.0625 -7.5625 2.09375 -7.5625 2.09375 -7.5625 C 2.09375 -7.5625 3.296875 -2.265625 3.296875 -2.265625 C 3.296875 -2.265625 4.453125 -7.5625 4.453125 -7.5625 C 4.453125 -7.5625 6.40625 -7.5625 6.40625 -7.5625 C 6.40625 -7.5625 7.546875 -2.265625 7.546875 -2.265625 C 7.546875 -2.265625 8.6875 -7.5625 8.6875 -7.5625 C 8.6875 -7.5625 10.71875 -7.5625 10.71875 -7.5625 Z M 10.71875 -7.5625 "/>
</g>
<g id="glyph-8-23-14f9d909">
<path d="M 7.578125 0.25 C 7.578125 2.03125 6.265625 3.046875 3.96875 3.046875 C 1.90625 3.046875 0.65625 2.140625 0.625 0.90625 C 0.625 0.90625 2.65625 0.90625 2.65625 0.90625 C 2.8125 1.484375 3.296875 1.796875 4.046875 1.796875 C 5.03125 1.796875 5.71875 1.15625 5.71875 0.25 C 5.71875 0.25 5.71875 -0.875 5.71875 -0.875 C 4.984375 -0.140625 4.453125 0.125 3.5625 0.125 C 1.703125 0.125 0.46875 -1.34375 0.46875 -3.703125 C 0.46875 -6.03125 1.8125 -7.6875 3.609375 -7.6875 C 4.484375 -7.6875 5.125 -7.296875 5.71875 -6.390625 C 5.71875 -6.390625 5.71875 -7.5625 5.71875 -7.5625 C 5.71875 -7.5625 7.578125 -7.5625 7.578125 -7.5625 C 7.578125 -7.5625 7.578125 0.25 7.578125 0.25 Z M 5.734375 -3.71875 C 5.734375 -5.125 5.015625 -6.046875 4.03125 -6.046875 C 3.078125 -6.046875 2.4375 -5.15625 2.4375 -3.71875 C 2.4375 -2.359375 3.078125 -1.515625 4 -1.515625 C 5.03125 -1.515625 5.734375 -2.359375 5.734375 -3.71875 Z M 5.734375 -3.71875 "/>
</g>
<g id="glyph-8-24-14f9d909">
<path d="M 7.578125 0 C 7.578125 0 5.609375 0 5.609375 0 C 5.609375 0 5.609375 -4.625 5.609375 -4.625 C 5.609375 -5.640625 5.109375 -6.015625 4.40625 -6.015625 C 3.53125 -6.015625 2.890625 -5.40625 2.890625 -4.53125 C 2.890625 -4.53125 2.890625 0 2.890625 0 C 2.890625 0 0.9375 0 0.9375 0 C 0.9375 0 0.9375 -10.203125 0.9375 -10.203125 C 0.9375 -10.203125 2.890625 -10.203125 2.890625 -10.203125 C 2.890625 -10.203125 2.890625 -6.46875 2.890625 -6.46875 C 3.4375 -7.296875 4.140625 -7.6875 5.109375 -7.6875 C 6.53125 -7.6875 7.578125 -6.828125 7.578125 -5.0625 C 7.578125 -5.0625 7.578125 0 7.578125 0 Z M 7.578125 0 "/>
</g>
<g id="glyph-8-25-14f9d909">
<path d="M 4.21875 0 C 3.859375 0.015625 3.515625 0.0625 3.078125 0.0625 C 1.796875 0.0625 1.15625 -0.4375 1.15625 -1.625 C 1.15625 -1.625 1.15625 -6.109375 1.15625 -6.109375 C 1.15625 -6.109375 0.203125 -6.109375 0.203125 -6.109375 C 0.203125 -6.109375 0.203125 -7.40625 0.203125 -7.40625 C 0.203125 -7.40625 1.15625 -7.40625 1.15625 -7.40625 C 1.15625 -7.40625 1.15625 -9.4375 1.15625 -9.4375 C 1.15625 -9.4375 3.125 -9.4375 3.125 -9.4375 C 3.125 -9.4375 3.125 -7.40625 3.125 -7.40625 C 3.125 -7.40625 4.21875 -7.40625 4.21875 -7.40625 C 4.21875 -7.40625 4.21875 -6.109375 4.21875 -6.109375 C 4.21875 -6.109375 3.125 -6.109375 3.125 -6.109375 C 3.125 -6.109375 3.125 -2.15625 3.125 -2.15625 C 3.125 -1.484375 3.25 -1.328125 3.765625 -1.328125 C 3.90625 -1.328125 4.015625 -1.34375 4.21875 -1.375 C 4.21875 -1.375 4.21875 0 4.21875 0 Z M 4.21875 0 "/>
</g>
<g id="glyph-8-26-14f9d909">
<path d="M 7.625 0 C 7.625 0 5.671875 0 5.671875 0 C 5.671875 0 5.671875 -0.875 5.671875 -0.875 C 5.1875 -0.21875 4.515625 0.125 3.578125 0.125 C 1.578125 0.125 0.40625 -1.625 0.40625 -3.765625 C 0.40625 -6.046875 1.78125 -7.6875 3.578125 -7.6875 C 4.515625 -7.6875 5.1875 -7.34375 5.671875 -6.578125 C 5.671875 -6.578125 5.671875 -10.203125 5.671875 -10.203125 C 5.671875 -10.203125 7.625 -10.203125 7.625 -10.203125 C 7.625 -10.203125 7.625 0 7.625 0 Z M 5.671875 -3.734375 C 5.671875 -5.1875 5.015625 -6.046875 4.015625 -6.046875 C 3.03125 -6.046875 2.359375 -5.171875 2.359375 -3.765625 C 2.359375 -2.375 3.03125 -1.515625 4.015625 -1.515625 C 5 -1.515625 5.671875 -2.359375 5.671875 -3.734375 Z M 5.671875 -3.734375 "/>
</g>
<g id="glyph-8-27-14f9d909">
<path d="M 2.890625 0 C 2.890625 0 0.9375 0 0.9375 0 C 0.9375 0 0.9375 -10.203125 0.9375 -10.203125 C 0.9375 -10.203125 2.890625 -10.203125 2.890625 -10.203125 C 2.890625 -10.203125 2.890625 0 2.890625 0 Z M 2.890625 0 "/>
</g>
<g id="glyph-8-28-14f9d909">
<path d="M 8.046875 -3.6875 C 8.046875 -1.40625 6.671875 0.125 4.875 0.125 C 3.921875 0.125 3.265625 -0.21875 2.78125 -0.875 C 2.78125 -0.875 2.78125 0 2.78125 0 C 2.78125 0 0.828125 0 0.828125 0 C 0.828125 0 0.828125 -10.203125 0.828125 -10.203125 C 0.828125 -10.203125 2.78125 -10.203125 2.78125 -10.203125 C 2.78125 -10.203125 2.78125 -6.578125 2.78125 -6.578125 C 3.265625 -7.34375 3.9375 -7.6875 4.875 -7.6875 C 6.859375 -7.6875 8.046875 -5.828125 8.046875 -3.6875 Z M 6.09375 -3.765625 C 6.09375 -5.171875 5.40625 -6.046875 4.4375 -6.046875 C 3.453125 -6.046875 2.78125 -5.1875 2.78125 -3.8125 C 2.78125 -2.359375 3.4375 -1.515625 4.4375 -1.515625 C 5.40625 -1.515625 6.09375 -2.390625 6.09375 -3.765625 Z M 6.09375 -3.765625 "/>
</g>
<g id="glyph-8-29-14f9d909">
<path d="M 7.484375 0 C 7.484375 0 5.140625 0 5.140625 0 C 5.140625 0 3.859375 -2.359375 3.859375 -2.359375 C 3.859375 -2.359375 2.578125 0 2.578125 0 C 2.578125 0 0.21875 0 0.21875 0 C 0.21875 0 2.75 -3.8125 2.75 -3.8125 C 2.75 -3.8125 0.28125 -7.5625 0.28125 -7.5625 C 0.28125 -7.5625 2.625 -7.5625 2.625 -7.5625 C 2.625 -7.5625 3.859375 -5.28125 3.859375 -5.28125 C 3.859375 -5.28125 5.078125 -7.5625 5.078125 -7.5625 C 5.078125 -7.5625 7.4375 -7.5625 7.4375 -7.5625 C 7.4375 -7.5625 4.96875 -3.8125 4.96875 -3.8125 C 4.96875 -3.8125 7.484375 0 7.484375 0 Z M 7.484375 0 "/>
</g>
<g id="glyph-9-0-14f9d909">
</g>
<g id="glyph-10-0-14f9d909">
<path d="M 7.28125 -2.234375 C 7.28125 -0.71875 6.109375 0.125 3.96875 0.125 C 1.6875 0.125 0.46875 -0.734375 0.40625 -2.390625 C 0.40625 -2.390625 2.328125 -2.390625 2.328125 -2.390625 C 2.484375 -1.578125 2.96875 -1.40625 3.859375 -1.40625 C 4.78125 -1.40625 5.3125 -1.59375 5.3125 -2.0625 C 5.3125 -2.265625 5.15625 -2.421875 4.65625 -2.578125 C 4.65625 -2.578125 2.328125 -3.296875 2.328125 -3.296875 C 0.921875 -3.734375 0.671875 -4.234375 0.671875 -5.171875 C 0.671875 -6.71875 1.859375 -7.6875 3.78125 -7.6875 C 5.8125 -7.6875 7.046875 -6.71875 7.0625 -5.125 C 7.0625 -5.125 5.1875 -5.125 5.1875 -5.125 C 5.171875 -5.8125 4.703125 -6.140625 3.765625 -6.140625 C 3.078125 -6.140625 2.625 -5.859375 2.625 -5.453125 C 2.625 -5.140625 2.765625 -5.015625 3.3125 -4.859375 C 3.3125 -4.859375 5.796875 -4.140625 5.796875 -4.140625 C 6.796875 -3.84375 7.28125 -3.203125 7.28125 -2.34375 C 7.28125 -2.34375 7.28125 -2.234375 7.28125 -2.234375 Z M 7.28125 -2.234375 "/>
</g>
<g id="glyph-11-0-14f9d909">
<path d="M 2.890625 0 C 2.890625 0 0.9375 0 0.9375 0 C 0.9375 0 0.9375 -7.5625 0.9375 -7.5625 C 0.9375 -7.5625 2.890625 -7.5625 2.890625 -7.5625 C 2.890625 -7.5625 2.890625 0 2.890625 0 Z M 2.921875 -8.46875 C 2.921875 -8.46875 0.96875 -8.46875 0.96875 -8.46875 C 0.96875 -8.46875 0.96875 -10.4375 0.96875 -10.4375 C 0.96875 -10.4375 2.921875 -10.4375 2.921875 -10.4375 C 2.921875 -10.4375 2.921875 -8.46875 2.921875 -8.46875 Z M 2.921875 -8.46875 "/>
</g>
</g>
</defs>
<rect x="-90" y="-60" width="1080" height="720" fill="rgb(100%, 100%, 100%)" fill-opacity="1"/>
<path fill-rule="nonzero" fill="rgb(100%, 100%, 100%)" fill-opacity="1" d="M 62 541 L 884 541 L 884 36 L 62 36 Z M 62 541 "/>
<path fill="none" stroke-width="1" stroke-linecap="butt" stroke-linejoin="miter" stroke="rgb(0%, 0%, 0%)" stroke-opacity="0.12" stroke-miterlimit="1.154701" d="M 64.015625 541 L 64.015625 36 "/>
<path fill="none" stroke-width="1" stroke-linecap="butt" stroke-linejoin="miter" stroke="rgb(0%, 0%, 0%)" stroke-opacity="0.12" stroke-miterlimit="1.154701" d="M 191.6875 541 L 191.6875 36 "/>
<path fill="none" stroke-width="1" stroke-linecap="butt" stroke-linejoin="miter" stroke="rgb(0%, 0%, 0%)" stroke-opacity="0.12" stroke-miterlimit="1.154701" d="M 319.363281 541 L 319.363281 36 "/>
<path fill="none" stroke-width="1" stroke-linecap="butt" stroke-linejoin="miter" stroke="rgb(0%, 0%, 0%)" stroke-opacity="0.12" stroke-miterlimit="1.154701" d="M 447.039062 541 L 447.039062 36 "/>
<path fill="none" stroke-width="1" stroke-linecap="butt" stroke-linejoin="miter" stroke="rgb(0%, 0%, 0%)" stroke-opacity="0.12" stroke-miterlimit="1.154701" d="M 574.710938 541 L 574.710938 36 "/>
<path fill="none" stroke-width="1" stroke-linecap="butt" stroke-linejoin="miter" stroke="rgb(0%, 0%, 0%)" stroke-opacity="0.12" stroke-miterlimit="1.154701" d="M 702.386719 541 L 702.386719 36 "/>
<path fill="none" stroke-width="1" stroke-linecap="butt" stroke-linejoin="miter" stroke="rgb(0%, 0%, 0%)" stroke-opacity="0.12" stroke-miterlimit="1.154701" d="M 830.0625 541 L 830.0625 36 "/>
<path fill="none" stroke-width="1" stroke-linecap="butt" stroke-linejoin="miter" stroke="rgb(0%, 0%, 0%)" stroke-opacity="0.12" stroke-miterlimit="1.154701" d="M 62 435.699219 L 884 435.699219 "/>
<path fill="none" stroke-width="1" stroke-linecap="butt" stroke-linejoin="miter" stroke="rgb(0%, 0%, 0%)" stroke-opacity="0.12" stroke-miterlimit="1.154701" d="M 62 268.050781 L 884 268.050781 "/>
<path fill="none" stroke-width="1" stroke-linecap="butt" stroke-linejoin="miter" stroke="rgb(0%, 0%, 0%)" stroke-opacity="0.12" stroke-miterlimit="1.154701" d="M 62 100.40625 L 884 100.40625 "/>
<g fill="rgb(0%, 0%, 0%)" fill-opacity="1">
<use xlink:href="#glyph-0-0-14f9d909" x="420.080016" y="581.567999"/>
</g>
<g fill="rgb(0%, 0%, 0%)" fill-opacity="1">
<use xlink:href="#glyph-0-1-14f9d909" x="427.864016" y="581.567999"/>
</g>
<g fill="rgb(0%, 0%, 0%)" fill-opacity="1">
<use xlink:href="#glyph-0-2-14f9d909" x="435.648017" y="581.567999"/>
</g>
<g fill="rgb(0%, 0%, 0%)" fill-opacity="1">
<use xlink:href="#glyph-0-3-14f9d909" x="439.540015" y="581.567999"/>
</g>
<g fill="rgb(0%, 0%, 0%)" fill-opacity="1">
<use xlink:href="#glyph-0-4-14f9d909" x="447.324016" y="581.567999"/>
</g>
<g fill="rgb(0%, 0%, 0%)" fill-opacity="1">
<use xlink:href="#glyph-0-2-14f9d909" x="455.108017" y="581.567999"/>
</g>
<g fill="rgb(0%, 0%, 0%)" fill-opacity="1">
<use xlink:href="#glyph-0-5-14f9d909" x="462.892013" y="581.567999"/>
</g>
<g fill="rgb(0%, 0%, 0%)" fill-opacity="1">
<use xlink:href="#glyph-0-1-14f9d909" x="472.230015" y="581.567999"/>
</g>
<g fill="rgb(0%, 0%, 0%)" fill-opacity="1">
<use xlink:href="#glyph-0-6-14f9d909" x="480.014015" y="581.567999"/>
</g>
<g fill="rgb(0%, 0%, 0%)" fill-opacity="1">
<use xlink:href="#glyph-0-7-14f9d909" x="484.676018" y="581.567999"/>
</g>
<g fill="rgb(0%, 0%, 0%)" fill-opacity="1">
<use xlink:href="#glyph-0-1-14f9d909" x="487.78402" y="581.567999"/>
</g>
<g fill="rgb(0%, 0%, 0%)" fill-opacity="1">
<use xlink:href="#glyph-0-8-14f9d909" x="495.568017" y="581.567999"/>
</g>
<g fill="rgb(0%, 0%, 0%)" fill-opacity="1">
<use xlink:href="#glyph-1-0-14f9d909" x="503.352013" y="581.567999"/>
</g>
<g fill="rgb(0%, 0%, 0%)" fill-opacity="1">
<use xlink:href="#glyph-0-3-14f9d909" x="506.460015" y="581.567999"/>
</g>
<g fill="rgb(0%, 0%, 0%)" fill-opacity="1">
<use xlink:href="#glyph-0-9-14f9d909" x="514.244012" y="581.567999"/>
</g>
<g fill="rgb(0%, 0%, 0%)" fill-opacity="1">
<use xlink:href="#glyph-0-10-14f9d909" x="518.13601" y="581.567999"/>
</g>
<g fill="rgb(0%, 0%, 0%)" fill-opacity="1">
<use xlink:href="#glyph-2-0-14f9d909" x="56.034566" y="562.257999"/>
</g>
<g fill="rgb(0%, 0%, 0%)" fill-opacity="1">
<use xlink:href="#glyph-0-11-14f9d909" x="64.210566" y="562.257999"/>
</g>
<g fill="rgb(0%, 0%, 0%)" fill-opacity="1">
<use xlink:href="#glyph-0-12-14f9d909" x="183.708954" y="562.257999"/>
</g>
<g fill="rgb(0%, 0%, 0%)" fill-opacity="1">
<use xlink:href="#glyph-0-13-14f9d909" x="191.884954" y="562.257999"/>
</g>
<g fill="rgb(0%, 0%, 0%)" fill-opacity="1">
<use xlink:href="#glyph-0-12-14f9d909" x="311.38335" y="562.257999"/>
</g>
<g fill="rgb(0%, 0%, 0%)" fill-opacity="1">
<use xlink:href="#glyph-0-14-14f9d909" x="319.55935" y="562.257999"/>
</g>
<g fill="rgb(0%, 0%, 0%)" fill-opacity="1">
<use xlink:href="#glyph-0-12-14f9d909" x="439.057731" y="562.257999"/>
</g>
<g fill="rgb(0%, 0%, 0%)" fill-opacity="1">
<use xlink:href="#glyph-0-10-14f9d909" x="447.233731" y="562.257999"/>
</g>
<g fill="rgb(0%, 0%, 0%)" fill-opacity="1">
<use xlink:href="#glyph-0-15-14f9d909" x="570.820111" y="562.257999"/>
</g>
<g fill="rgb(0%, 0%, 0%)" fill-opacity="1">
<use xlink:href="#glyph-0-10-14f9d909" x="698.494492" y="562.257999"/>
</g>
<g fill="rgb(0%, 0%, 0%)" fill-opacity="1">
<use xlink:href="#glyph-0-14-14f9d909" x="826.168872" y="562.257999"/>
</g>
<g fill="rgb(0%, 0%, 0%)" fill-opacity="1">
<use xlink:href="#glyph-3-0-14f9d909" x="27.987999" y="341.419984"/>
</g>
<g fill="rgb(0%, 0%, 0%)" fill-opacity="1">
<use xlink:href="#glyph-4-0-14f9d909" x="27.987999" y="333.635984"/>
</g>
<g fill="rgb(0%, 0%, 0%)" fill-opacity="1">
<use xlink:href="#glyph-5-0-14f9d909" x="27.988" y="325.851983"/>
</g>
<g fill="rgb(0%, 0%, 0%)" fill-opacity="1">
<use xlink:href="#glyph-3-1-14f9d909" x="27.988" y="321.959985"/>
</g>
<g fill="rgb(0%, 0%, 0%)" fill-opacity="1">
<use xlink:href="#glyph-6-0-14f9d909" x="27.988" y="314.175986"/>
</g>
<g fill="rgb(0%, 0%, 0%)" fill-opacity="1">
<use xlink:href="#glyph-5-0-14f9d909" x="27.988001" y="306.391985"/>
</g>
<g fill="rgb(0%, 0%, 0%)" fill-opacity="1">
<use xlink:href="#glyph-3-2-14f9d909" x="27.988001" y="302.499988"/>
</g>
<g fill="rgb(0%, 0%, 0%)" fill-opacity="1">
<use xlink:href="#glyph-3-3-14f9d909" x="27.988001" y="298.60799"/>
</g>
<g fill="rgb(0%, 0%, 0%)" fill-opacity="1">
<use xlink:href="#glyph-7-0-14f9d909" x="27.988002" y="289.269989"/>
</g>
<g fill="rgb(0%, 0%, 0%)" fill-opacity="1">
<use xlink:href="#glyph-5-1-14f9d909" x="27.988002" y="281.485989"/>
</g>
<g fill="rgb(0%, 0%, 0%)" fill-opacity="1">
<use xlink:href="#glyph-3-4-14f9d909" x="27.988003" y="276.823987"/>
</g>
<g fill="rgb(0%, 0%, 0%)" fill-opacity="1">
<use xlink:href="#glyph-6-1-14f9d909" x="27.988003" y="273.715985"/>
</g>
<g fill="rgb(0%, 0%, 0%)" fill-opacity="1">
<use xlink:href="#glyph-5-2-14f9d909" x="27.988003" y="265.931989"/>
</g>
<g fill="rgb(0%, 0%, 0%)" fill-opacity="1">
<use xlink:href="#glyph-3-5-14f9d909" x="27.988004" y="258.147992"/>
</g>
<g fill="rgb(0%, 0%, 0%)" fill-opacity="1">
<use xlink:href="#glyph-3-1-14f9d909" x="27.988004" y="255.039993"/>
</g>
<g fill="rgb(0%, 0%, 0%)" fill-opacity="1">
<use xlink:href="#glyph-6-2-14f9d909" x="27.988004" y="247.255996"/>
</g>
<g fill="rgb(0%, 0%, 0%)" fill-opacity="1">
<use xlink:href="#glyph-5-3-14f9d909" x="27.988004" y="243.363997"/>
</g>
<g fill="rgb(0%, 0%, 0%)" fill-opacity="1">
<use xlink:href="#glyph-0-12-14f9d909" x="36.040002" y="440.800872"/>
</g>
<g fill="rgb(0%, 0%, 0%)" fill-opacity="1">
<use xlink:href="#glyph-0-14-14f9d909" x="44.216002" y="440.800872"/>
</g>
<g fill="rgb(0%, 0%, 0%)" fill-opacity="1">
<use xlink:href="#glyph-0-15-14f9d909" x="44.216001" y="273.154445"/>
</g>
<g fill="rgb(0%, 0%, 0%)" fill-opacity="1">
<use xlink:href="#glyph-0-14-14f9d909" x="44.216001" y="105.508048"/>
</g>
<g fill="rgb(0%, 0%, 0%)" fill-opacity="1">
<use xlink:href="#glyph-8-0-14f9d909" x="176.963078" y="28.947986"/>
</g>
<g fill="rgb(0%, 0%, 0%)" fill-opacity="1">
<use xlink:href="#glyph-8-1-14f9d909" x="187.07108" y="28.947986"/>
</g>
<g fill="rgb(0%, 0%, 0%)" fill-opacity="1">
<use xlink:href="#glyph-8-1-14f9d909" x="196.409062" y="28.947986"/>
</g>
<g fill="rgb(0%, 0%, 0%)" fill-opacity="1">
<use xlink:href="#glyph-8-2-14f9d909" x="205.747075" y="28.947986"/>
</g>
<g fill="rgb(0%, 0%, 0%)" fill-opacity="1">
<use xlink:href="#glyph-8-3-14f9d909" x="214.301092" y="28.947986"/>
</g>
<g fill="rgb(0%, 0%, 0%)" fill-opacity="1">
<use xlink:href="#glyph-8-4-14f9d909" x="223.639074" y="28.947986"/>
</g>
<g fill="rgb(0%, 0%, 0%)" fill-opacity="1">
<use xlink:href="#glyph-8-5-14f9d909" x="228.301077" y="28.947986"/>
</g>
<g fill="rgb(0%, 0%, 0%)" fill-opacity="1">
<use xlink:href="#glyph-8-6-14f9d909" x="238.409079" y="28.947986"/>
</g>
<g fill="rgb(0%, 0%, 0%)" fill-opacity="1">
<use xlink:href="#glyph-9-0-14f9d909" x="248.517081" y="28.947986"/>
</g>
<g fill="rgb(0%, 0%, 0%)" fill-opacity="1">
<use xlink:href="#glyph-10-0-14f9d909" x="252.409079" y="28.947986"/>
</g>
<g fill="rgb(0%, 0%, 0%)" fill-opacity="1">
<use xlink:href="#glyph-8-7-14f9d909" x="260.193076" y="28.947986"/>
</g>
<g fill="rgb(0%, 0%, 0%)" fill-opacity="1">
<use xlink:href="#glyph-8-8-14f9d909" x="267.977073" y="28.947986"/>
</g>
<g fill="rgb(0%, 0%, 0%)" fill-opacity="1">
<use xlink:href="#glyph-8-9-14f9d909" x="276.531074" y="28.947986"/>
</g>
<g fill="rgb(0%, 0%, 0%)" fill-opacity="1">
<use xlink:href="#glyph-8-10-14f9d909" x="281.977073" y="28.947986"/>
</g>
<g fill="rgb(0%, 0%, 0%)" fill-opacity="1">
<use xlink:href="#glyph-8-11-14f9d909" x="289.76107" y="28.947986"/>
</g>
<g fill="rgb(0%, 0%, 0%)" fill-opacity="1">
<use xlink:href="#glyph-8-12-14f9d909" x="297.545066" y="28.947986"/>
</g>
<g fill="rgb(0%, 0%, 0%)" fill-opacity="1">
<use xlink:href="#glyph-8-13-14f9d909" x="301.437065" y="28.947986"/>
</g>
<g fill="rgb(0%, 0%, 0%)" fill-opacity="1">
<use xlink:href="#glyph-8-9-14f9d909" x="306.099067" y="28.947986"/>
</g>
<g fill="rgb(0%, 0%, 0%)" fill-opacity="1">
<use xlink:href="#glyph-8-8-14f9d909" x="311.545067" y="28.947986"/>
</g>
<g fill="rgb(0%, 0%, 0%)" fill-opacity="1">
<use xlink:href="#glyph-8-14-14f9d909" x="320.099068" y="28.947986"/>
</g>
<g fill="rgb(0%, 0%, 0%)" fill-opacity="1">
<use xlink:href="#glyph-8-12-14f9d909" x="332.545067" y="28.947986"/>
</g>
<g fill="rgb(0%, 0%, 0%)" fill-opacity="1">
<use xlink:href="#glyph-8-15-14f9d909" x="336.437066" y="28.947986"/>
</g>
<g fill="rgb(0%, 0%, 0%)" fill-opacity="1">
<use xlink:href="#glyph-8-16-14f9d909" x="344.221062" y="28.947986"/>
</g>
<g fill="rgb(0%, 0%, 0%)" fill-opacity="1">
<use xlink:href="#glyph-8-12-14f9d909" x="352.775063" y="28.947986"/>
</g>
<g fill="rgb(0%, 0%, 0%)" fill-opacity="1">
<use xlink:href="#glyph-8-17-14f9d909" x="356.667062" y="28.947986"/>
</g>
<g fill="rgb(0%, 0%, 0%)" fill-opacity="1">
<use xlink:href="#glyph-8-16-14f9d909" x="360.55906" y="28.947986"/>
</g>
<g fill="rgb(0%, 0%, 0%)" fill-opacity="1">
<use xlink:href="#glyph-8-18-14f9d909" x="369.113061" y="28.947986"/>
</g>
<g fill="rgb(0%, 0%, 0%)" fill-opacity="1">
<use xlink:href="#glyph-8-10-14f9d909" x="376.897058" y="28.947986"/>
</g>
<g fill="rgb(0%, 0%, 0%)" fill-opacity="1">
<use xlink:href="#glyph-8-9-14f9d909" x="384.681055" y="28.947986"/>
</g>
<g fill="rgb(0%, 0%, 0%)" fill-opacity="1">
<use xlink:href="#glyph-8-11-14f9d909" x="390.127054" y="28.947986"/>
</g>
<g fill="rgb(0%, 0%, 0%)" fill-opacity="1">
<use xlink:href="#glyph-8-10-14f9d909" x="397.911051" y="28.947986"/>
</g>
<g fill="rgb(0%, 0%, 0%)" fill-opacity="1">
<use xlink:href="#glyph-8-4-14f9d909" x="405.695048" y="28.947986"/>
</g>
<g fill="rgb(0%, 0%, 0%)" fill-opacity="1">
<use xlink:href="#glyph-8-13-14f9d909" x="410.35705" y="28.947986"/>
</g>
<g fill="rgb(0%, 0%, 0%)" fill-opacity="1">
<use xlink:href="#glyph-8-9-14f9d909" x="415.019053" y="28.947986"/>
</g>
<g fill="rgb(0%, 0%, 0%)" fill-opacity="1">
<use xlink:href="#glyph-8-10-14f9d909" x="420.465052" y="28.947986"/>
</g>
<g fill="rgb(0%, 0%, 0%)" fill-opacity="1">
<use xlink:href="#glyph-8-19-14f9d909" x="428.249049" y="28.947986"/>
</g>
<g fill="rgb(0%, 0%, 0%)" fill-opacity="1">
<use xlink:href="#glyph-8-20-14f9d909" x="436.80305" y="28.947986"/>
</g>
<g fill="rgb(0%, 0%, 0%)" fill-opacity="1">
<use xlink:href="#glyph-8-10-14f9d909" x="445.357036" y="28.947986"/>
</g>
<g fill="rgb(0%, 0%, 0%)" fill-opacity="1">
<use xlink:href="#glyph-8-16-14f9d909" x="453.141033" y="28.947986"/>
</g>
<g fill="rgb(0%, 0%, 0%)" fill-opacity="1">
<use xlink:href="#glyph-8-7-14f9d909" x="461.695019" y="28.947986"/>
</g>
<g fill="rgb(0%, 0%, 0%)" fill-opacity="1">
<use xlink:href="#glyph-8-21-14f9d909" x="469.479015" y="28.947986"/>
</g>
<g fill="rgb(0%, 0%, 0%)" fill-opacity="1">
<use xlink:href="#glyph-8-4-14f9d909" x="477.263012" y="28.947986"/>
</g>
<g fill="rgb(0%, 0%, 0%)" fill-opacity="1">
<use xlink:href="#glyph-8-22-14f9d909" x="481.924999" y="28.947986"/>
</g>
<g fill="rgb(0%, 0%, 0%)" fill-opacity="1">
<use xlink:href="#glyph-8-10-14f9d909" x="492.816998" y="28.947986"/>
</g>
<g fill="rgb(0%, 0%, 0%)" fill-opacity="1">
<use xlink:href="#glyph-11-0-14f9d909" x="500.600995" y="28.947986"/>
</g>
<g fill="rgb(0%, 0%, 0%)" fill-opacity="1">
<use xlink:href="#glyph-8-23-14f9d909" x="504.492993" y="28.947986"/>
</g>
<g fill="rgb(0%, 0%, 0%)" fill-opacity="1">
<use xlink:href="#glyph-8-24-14f9d909" x="513.046979" y="28.947986"/>
</g>
<g fill="rgb(0%, 0%, 0%)" fill-opacity="1">
<use xlink:href="#glyph-8-25-14f9d909" x="521.600965" y="28.947986"/>
</g>
<g fill="rgb(0%, 0%, 0%)" fill-opacity="1">
<use xlink:href="#glyph-8-10-14f9d909" x="526.262952" y="28.947986"/>
</g>
<g fill="rgb(0%, 0%, 0%)" fill-opacity="1">
<use xlink:href="#glyph-8-26-14f9d909" x="534.046949" y="28.947986"/>
</g>
<g fill="rgb(0%, 0%, 0%)" fill-opacity="1">
<use xlink:href="#glyph-8-12-14f9d909" x="542.600935" y="28.947986"/>
</g>
<g fill="rgb(0%, 0%, 0%)" fill-opacity="1">
<use xlink:href="#glyph-8-14-14f9d909" x="546.492933" y="28.947986"/>
</g>
<g fill="rgb(0%, 0%, 0%)" fill-opacity="1">
<use xlink:href="#glyph-8-8-14f9d909" x="558.938948" y="28.947986"/>
</g>
<g fill="rgb(0%, 0%, 0%)" fill-opacity="1">
<use xlink:href="#glyph-8-26-14f9d909" x="567.492934" y="28.947986"/>
</g>
<g fill="rgb(0%, 0%, 0%)" fill-opacity="1">
<use xlink:href="#glyph-8-10-14f9d909" x="576.046919" y="28.947986"/>
</g>
<g fill="rgb(0%, 0%, 0%)" fill-opacity="1">
<use xlink:href="#glyph-8-27-14f9d909" x="583.830916" y="28.947986"/>
</g>
<g fill="rgb(0%, 0%, 0%)" fill-opacity="1">
<use xlink:href="#glyph-8-12-14f9d909" x="587.722915" y="28.947986"/>
</g>
<g fill="rgb(0%, 0%, 0%)" fill-opacity="1">
<use xlink:href="#glyph-8-11-14f9d909" x="591.614913" y="28.947986"/>
</g>
<g fill="rgb(0%, 0%, 0%)" fill-opacity="1">
<use xlink:href="#glyph-8-24-14f9d909" x="599.39891" y="28.947986"/>
</g>
<g fill="rgb(0%, 0%, 0%)" fill-opacity="1">
<use xlink:href="#glyph-8-15-14f9d909" x="607.952896" y="28.947986"/>
</g>
<g fill="rgb(0%, 0%, 0%)" fill-opacity="1">
<use xlink:href="#glyph-8-26-14f9d909" x="615.736892" y="28.947986"/>
</g>
<g fill="rgb(0%, 0%, 0%)" fill-opacity="1">
<use xlink:href="#glyph-8-10-14f9d909" x="624.290878" y="28.947986"/>
</g>
<g fill="rgb(0%, 0%, 0%)" fill-opacity="1">
<use xlink:href="#glyph-8-26-14f9d909" x="632.074875" y="28.947986"/>
</g>
<g fill="rgb(0%, 0%, 0%)" fill-opacity="1">
<use xlink:href="#glyph-8-12-14f9d909" x="640.628861" y="28.947986"/>
</g>
<g fill="rgb(0%, 0%, 0%)" fill-opacity="1">
<use xlink:href="#glyph-8-28-14f9d909" x="644.520859" y="28.947986"/>
</g>
<g fill="rgb(0%, 0%, 0%)" fill-opacity="1">
<use xlink:href="#glyph-8-21-14f9d909" x="653.074845" y="28.947986"/>
</g>
<g fill="rgb(0%, 0%, 0%)" fill-opacity="1">
<use xlink:href="#glyph-8-12-14f9d909" x="660.858842" y="28.947986"/>
</g>
<g fill="rgb(0%, 0%, 0%)" fill-opacity="1">
<use xlink:href="#glyph-8-15-14f9d909" x="664.75084" y="28.947986"/>
</g>
<g fill="rgb(0%, 0%, 0%)" fill-opacity="1">
<use xlink:href="#glyph-8-20-14f9d909" x="672.534837" y="28.947986"/>
</g>
<g fill="rgb(0%, 0%, 0%)" fill-opacity="1">
<use xlink:href="#glyph-8-29-14f9d909" x="681.088823" y="28.947986"/>
</g>
<g fill="rgb(0%, 0%, 0%)" fill-opacity="1">
<use xlink:href="#glyph-8-17-14f9d909" x="688.872819" y="28.947986"/>
</g>
<g fill="rgb(0%, 0%, 0%)" fill-opacity="1">
<use xlink:href="#glyph-8-27-14f9d909" x="692.764848" y="28.947986"/>
</g>
<g fill="rgb(0%, 0%, 0%)" fill-opacity="1">
<use xlink:href="#glyph-8-17-14f9d909" x="696.656877" y="28.947986"/>
</g>
<g fill="rgb(0%, 0%, 0%)" fill-opacity="1">
<use xlink:href="#glyph-8-15-14f9d909" x="700.548906" y="28.947986"/>
</g>
<g fill="rgb(0%, 0%, 0%)" fill-opacity="1">
<use xlink:href="#glyph-8-9-14f9d909" x="708.332903" y="28.947986"/>
</g>
<g fill="rgb(0%, 0%, 0%)" fill-opacity="1">
<use xlink:href="#glyph-8-21-14f9d909" x="713.778887" y="28.947986"/>
</g>
<g fill="rgb(0%, 0%, 0%)" fill-opacity="1">
<use xlink:href="#glyph-8-12-14f9d909" x="721.562884" y="28.947986"/>
</g>
<g fill="rgb(0%, 0%, 0%)" fill-opacity="1">
<use xlink:href="#glyph-8-18-14f9d909" x="725.454913" y="28.947986"/>
</g>
<g fill="rgb(0%, 0%, 0%)" fill-opacity="1">
<use xlink:href="#glyph-8-15-14f9d909" x="733.238909" y="28.947986"/>
</g>
<g fill="rgb(0%, 0%, 0%)" fill-opacity="1">
<use xlink:href="#glyph-8-27-14f9d909" x="741.022906" y="28.947986"/>
</g>
<g fill="rgb(0%, 0%, 0%)" fill-opacity="1">
<use xlink:href="#glyph-8-20-14f9d909" x="744.914935" y="28.947986"/>
</g>
<g fill="rgb(0%, 0%, 0%)" fill-opacity="1">
<use xlink:href="#glyph-8-10-14f9d909" x="753.468951" y="28.947986"/>
</g>
<g fill="rgb(0%, 0%, 0%)" fill-opacity="1">
<use xlink:href="#glyph-8-11-14f9d909" x="761.252948" y="28.947986"/>
</g>
<path fill-rule="nonzero" fill="rgb(77.810669%, 77.810669%, 77.810669%)" fill-opacity="1" d="M 253.878906 222.386719 C 253.878906 215.808594 244.007812 215.808594 244.007812 222.386719 C 244.007812 228.96875 253.878906 228.96875 253.878906 222.386719 Z M 253.878906 222.386719 "/>
<path fill-rule="nonzero" fill="rgb(72.566396%, 72.566396%, 72.566396%)" fill-opacity="1" d="M 369.882812 235.757812 C 369.882812 229.175781 360.011719 229.175781 360.011719 235.757812 C 360.011719 242.335938 369.882812 242.335938 369.882812 235.757812 Z M 369.882812 235.757812 "/>
<path fill-rule="nonzero" fill="rgb(35.328254%, 35.328254%, 35.328254%)" fill-opacity="1" d="M 436.644531 391.90625 C 436.644531 385.324219 426.773438 385.324219 426.773438 391.90625 C 426.773438 398.484375 436.644531 398.484375 436.644531 391.90625 Z M 436.644531 391.90625 "/>
<path fill-rule="nonzero" fill="rgb(70.57392%, 70.57392%, 70.57392%)" fill-opacity="1" d="M 404.796875 174.910156 C 404.796875 168.328125 394.925781 168.328125 394.925781 174.910156 C 394.925781 181.488281 404.796875 181.488281 404.796875 174.910156 Z M 404.796875 174.910156 "/>
<path fill-rule="nonzero" fill="rgb(42.140582%, 42.140582%, 42.140582%)" fill-opacity="1" d="M 387.582031 319.992188 C 387.582031 313.410156 377.714844 313.410156 377.714844 319.992188 C 377.714844 326.570312 387.582031 326.570312 387.582031 319.992188 Z M 387.582031 319.992188 "/>
<path fill-rule="nonzero" fill="rgb(31.86889%, 31.86889%, 31.86889%)" fill-opacity="1" d="M 474.042969 373.433594 C 474.042969 366.851562 464.171875 366.851562 464.171875 373.433594 C 464.171875 380.011719 474.042969 380.011719 474.042969 373.433594 Z M 474.042969 373.433594 "/>
<path fill-rule="nonzero" fill="rgb(54.423761%, 54.423761%, 54.423761%)" fill-opacity="1" d="M 223.265625 340.019531 C 223.265625 333.441406 213.394531 333.441406 213.394531 340.019531 C 213.394531 346.601562 223.265625 346.601562 223.265625 340.019531 Z M 223.265625 340.019531 "/>
<path fill-rule="nonzero" fill="rgb(53.751355%, 53.751355%, 53.751355%)" fill-opacity="1" d="M 378.527344 299.699219 C 378.527344 293.117188 368.65625 293.117188 368.65625 299.699219 C 368.65625 306.277344 378.527344 306.277344 378.527344 299.699219 Z M 378.527344 299.699219 "/>
<path fill-rule="nonzero" fill="rgb(70.637029%, 70.637029%, 70.637029%)" fill-opacity="1" d="M 333.832031 188.992188 C 333.832031 182.410156 323.964844 182.410156 323.964844 188.992188 C 323.964844 195.570312 333.832031 195.570312 333.832031 188.992188 Z M 333.832031 188.992188 "/>
<path fill-rule="nonzero" fill="rgb(25.552598%, 25.552598%, 25.552598%)" fill-opacity="1" d="M 597.835938 326.90625 C 597.835938 320.328125 587.964844 320.328125 587.964844 326.90625 C 587.964844 333.488281 597.835938 333.488281 597.835938 326.90625 Z M 597.835938 326.90625 "/>
<path fill-rule="nonzero" fill="rgb(66.936141%, 66.936141%, 66.936141%)" fill-opacity="1" d="M 294.402344 243.101562 C 294.402344 236.523438 284.53125 236.523438 284.53125 243.101562 C 284.53125 249.683594 294.402344 249.683594 294.402344 243.101562 Z M 294.402344 243.101562 "/>
<path fill-rule="nonzero" fill="rgb(54.213309%, 54.213309%, 54.213309%)" fill-opacity="1" d="M 472.539062 375.464844 C 472.539062 368.882812 462.667969 368.882812 462.667969 375.464844 C 462.667969 382.042969 472.539062 382.042969 472.539062 375.464844 Z M 472.539062 375.464844 "/>
<path fill-rule="nonzero" fill="rgb(27.200282%, 27.200282%, 27.200282%)" fill-opacity="1" d="M 632.453125 400.085938 C 632.453125 393.503906 622.582031 393.503906 622.582031 400.085938 C 622.582031 406.664062 632.453125 406.664062 632.453125 400.085938 Z M 632.453125 400.085938 "/>
<path fill-rule="nonzero" fill="rgb(47.345567%, 47.345567%, 47.345567%)" fill-opacity="1" d="M 118.746094 409.339844 C 118.746094 402.761719 108.878906 402.761719 108.878906 409.339844 C 108.878906 415.921875 118.746094 415.921875 118.746094 409.339844 Z M 118.746094 409.339844 "/>
<path fill-rule="nonzero" fill="rgb(17.216083%, 17.216083%, 17.216083%)" fill-opacity="1" d="M 667.972656 456.824219 C 667.972656 450.242188 658.101562 450.242188 658.101562 456.824219 C 658.101562 463.402344 667.972656 463.402344 667.972656 456.824219 Z M 667.972656 456.824219 "/>
<path fill-rule="nonzero" fill="rgb(66.546345%, 66.546345%, 66.546345%)" fill-opacity="1" d="M 290.46875 223.769531 C 290.46875 217.191406 280.597656 217.191406 280.597656 223.769531 C 280.597656 230.351562 290.46875 230.351562 290.46875 223.769531 Z M 290.46875 223.769531 "/>
<path fill-rule="nonzero" fill="rgb(58.994102%, 58.994102%, 58.994102%)" fill-opacity="1" d="M 299.96875 204.449219 C 299.96875 197.867188 290.097656 197.867188 290.097656 204.449219 C 290.097656 211.027344 299.96875 211.027344 299.96875 204.449219 Z M 299.96875 204.449219 "/>
<path fill-rule="nonzero" fill="rgb(39.842549%, 39.842549%, 39.842549%)" fill-opacity="1" d="M 638.476562 274.738281 C 638.476562 268.15625 628.605469 268.15625 628.605469 274.738281 C 628.605469 281.316406 638.476562 281.316406 638.476562 274.738281 Z M 638.476562 274.738281 "/>
<path fill-rule="nonzero" fill="rgb(54.867071%, 54.867071%, 54.867071%)" fill-opacity="1" d="M 225.378906 382.480469 C 225.378906 375.902344 215.507812 375.902344 215.507812 382.480469 C 215.507812 389.0625 225.378906 389.0625 225.378906 382.480469 Z M 225.378906 382.480469 "/>
<path fill-rule="nonzero" fill="rgb(62.483382%, 62.483382%, 62.483382%)" fill-opacity="1" d="M 251.421875 306.550781 C 251.421875 299.96875 241.550781 299.96875 241.550781 306.550781 C 241.550781 313.128906 251.421875 313.128906 251.421875 306.550781 Z M 251.421875 306.550781 "/>
<path fill-rule="nonzero" fill="rgb(49.511528%, 49.511528%, 49.511528%)" fill-opacity="1" d="M 423.558594 335.390625 C 423.558594 328.808594 413.6875 328.808594 413.6875 335.390625 C 413.6875 341.96875 423.558594 341.96875 423.558594 335.390625 Z M 423.558594 335.390625 "/>
<path fill-rule="nonzero" fill="rgb(78.323144%, 78.323144%, 78.323144%)" fill-opacity="1" d="M 254.558594 214.039062 C 254.558594 207.457031 244.691406 207.457031 244.691406 214.039062 C 244.691406 220.617188 254.558594 220.617188 254.558594 214.039062 Z M 254.558594 214.039062 "/>
<path fill-rule="nonzero" fill="rgb(70.005685%, 70.005685%, 70.005685%)" fill-opacity="1" d="M 214.457031 315.316406 C 214.457031 308.734375 204.585938 308.734375 204.585938 315.316406 C 204.585938 321.894531 214.457031 321.894531 214.457031 315.316406 Z M 214.457031 315.316406 "/>
<path fill-rule="nonzero" fill="rgb(24.384421%, 24.384421%, 24.384421%)" fill-opacity="1" d="M 368.773438 518.046875 C 368.773438 511.464844 358.902344 511.464844 358.902344 518.046875 C 358.902344 524.625 368.773438 524.625 368.773438 518.046875 Z M 368.773438 518.046875 "/>
<path fill-rule="nonzero" fill="rgb(43.677196%, 43.677196%, 43.677196%)" fill-opacity="1" d="M 484.109375 272.078125 C 484.109375 265.5 474.238281 265.5 474.238281 272.078125 C 474.238281 278.660156 484.109375 278.660156 484.109375 272.078125 Z M 484.109375 272.078125 "/>
<path fill-rule="nonzero" fill="rgb(68.605745%, 68.605745%, 68.605745%)" fill-opacity="1" d="M 332.945312 242.523438 C 332.945312 235.941406 323.074219 235.941406 323.074219 242.523438 C 323.074219 249.101562 332.945312 249.101562 332.945312 242.523438 Z M 332.945312 242.523438 "/>
<path fill-rule="nonzero" fill="rgb(48.819262%, 48.819262%, 48.819262%)" fill-opacity="1" d="M 234.898438 349.695312 C 234.898438 343.117188 225.027344 343.117188 225.027344 349.695312 C 225.027344 356.277344 234.898438 356.277344 234.898438 349.695312 Z M 234.898438 349.695312 "/>
<path fill-rule="nonzero" fill="rgb(54.897147%, 54.897147%, 54.897147%)" fill-opacity="1" d="M 377.429688 303.902344 C 377.429688 297.320312 367.558594 297.320312 367.558594 303.902344 C 367.558594 310.480469 377.429688 310.480469 377.429688 303.902344 Z M 377.429688 303.902344 "/>
<path fill-rule="nonzero" fill="rgb(32.120574%, 32.120574%, 32.120574%)" fill-opacity="1" d="M 508.398438 370.320312 C 508.398438 363.742188 498.53125 363.742188 498.53125 370.320312 C 498.53125 376.902344 508.398438 376.902344 508.398438 370.320312 Z M 508.398438 370.320312 "/>
<path fill-rule="nonzero" fill="rgb(89.999998%, 89.999998%, 89.999998%)" fill-opacity="1" d="M 116.085938 99.820312 C 116.085938 93.242188 106.214844 93.242188 106.214844 99.820312 C 106.214844 106.402344 116.085938 106.402344 116.085938 99.820312 Z M 116.085938 99.820312 "/>
<path fill-rule="nonzero" fill="rgb(63.307238%, 63.307238%, 63.307238%)" fill-opacity="1" d="M 434.195312 225.609375 C 434.195312 219.03125 424.328125 219.03125 424.328125 225.609375 C 424.328125 232.191406 434.195312 232.191406 434.195312 225.609375 Z M 434.195312 225.609375 "/>
<path fill-rule="nonzero" fill="rgb(45.316333%, 45.316333%, 45.316333%)" fill-opacity="1" d="M 458.746094 275.59375 C 458.746094 269.011719 448.878906 269.011719 448.878906 275.59375 C 448.878906 282.171875 458.746094 282.171875 458.746094 275.59375 Z M 458.746094 275.59375 "/>
<path fill-rule="nonzero" fill="rgb(55.364096%, 55.364096%, 55.364096%)" fill-opacity="1" d="M 279.222656 278.972656 C 279.222656 272.390625 269.351562 272.390625 269.351562 278.972656 C 269.351562 285.550781 279.222656 285.550781 279.222656 278.972656 Z M 279.222656 278.972656 "/>
<path fill-rule="nonzero" fill="rgb(45.715871%, 45.715871%, 45.715871%)" fill-opacity="1" d="M 340.203125 354.203125 C 340.203125 347.625 330.332031 347.625 330.332031 354.203125 C 330.332031 360.785156 340.203125 360.785156 340.203125 354.203125 Z M 340.203125 354.203125 "/>
<path fill-rule="nonzero" fill="rgb(74.228621%, 74.228621%, 74.228621%)" fill-opacity="1" d="M 144.46875 192.246094 C 144.46875 185.667969 134.601562 185.667969 134.601562 192.246094 C 134.601562 198.828125 144.46875 198.828125 144.46875 192.246094 Z M 144.46875 192.246094 "/>
<path fill-rule="nonzero" fill="rgb(42.145461%, 42.145461%, 42.145461%)" fill-opacity="1" d="M 620.28125 336.664062 C 620.28125 330.085938 610.410156 330.085938 610.410156 336.664062 C 610.410156 343.242188 620.28125 343.242188 620.28125 336.664062 Z M 620.28125 336.664062 "/>
<path fill-rule="nonzero" fill="rgb(29.890397%, 29.890397%, 29.890397%)" fill-opacity="1" d="M 464.617188 388.964844 C 464.617188 382.382812 454.746094 382.382812 454.746094 388.964844 C 454.746094 395.542969 464.617188 395.542969 464.617188 388.964844 Z M 464.617188 388.964844 "/>
<path fill-rule="nonzero" fill="rgb(74.578905%, 74.578905%, 74.578905%)" fill-opacity="1" d="M 289.601562 113.714844 C 289.601562 107.136719 279.730469 107.136719 279.730469 113.714844 C 279.730469 120.296875 289.601562 120.296875 289.601562 113.714844 Z M 289.601562 113.714844 "/>
<path fill-rule="nonzero" fill="rgb(41.626355%, 41.626355%, 41.626355%)" fill-opacity="1" d="M 478.300781 339.425781 C 478.300781 332.84375 468.429688 332.84375 468.429688 339.425781 C 468.429688 346.003906 478.300781 346.003906 478.300781 339.425781 Z M 478.300781 339.425781 "/>
<path fill-rule="nonzero" fill="rgb(54.881662%, 54.881662%, 54.881662%)" fill-opacity="1" d="M 423.597656 365.71875 C 423.597656 359.140625 413.726562 359.140625 413.726562 365.71875 C 413.726562 372.300781 423.597656 372.300781 423.597656 365.71875 Z M 423.597656 365.71875 "/>
<path fill-rule="nonzero" fill="rgb(51.176929%, 51.176929%, 51.176929%)" fill-opacity="1" d="M 630.460938 275.804688 C 630.460938 269.226562 620.589844 269.226562 620.589844 275.804688 C 620.589844 282.386719 630.460938 282.386719 630.460938 275.804688 Z M 630.460938 275.804688 "/>
<path fill-rule="nonzero" fill="rgb(63.106155%, 63.106155%, 63.106155%)" fill-opacity="1" d="M 315.3125 280.972656 C 315.3125 274.394531 305.445312 274.394531 305.445312 280.972656 C 305.445312 287.554688 315.3125 287.554688 315.3125 280.972656 Z M 315.3125 280.972656 "/>
<path fill-rule="nonzero" fill="rgb(61.308384%, 61.308384%, 61.308384%)" fill-opacity="1" d="M 328.21875 201.375 C 328.21875 194.796875 318.347656 194.796875 318.347656 201.375 C 318.347656 207.957031 328.21875 207.957031 328.21875 201.375 Z M 328.21875 201.375 "/>
<path fill-rule="nonzero" fill="rgb(63.909012%, 63.909012%, 63.909012%)" fill-opacity="1" d="M 313.828125 194.9375 C 313.828125 188.359375 303.957031 188.359375 303.957031 194.9375 C 303.957031 201.519531 313.828125 201.519531 313.828125 194.9375 Z M 313.828125 194.9375 "/>
<path fill-rule="nonzero" fill="rgb(61.589658%, 61.589658%, 61.589658%)" fill-opacity="1" d="M 474.28125 201.289062 C 474.28125 194.707031 464.410156 194.707031 464.410156 201.289062 C 464.410156 207.867188 474.28125 207.867188 474.28125 201.289062 Z M 474.28125 201.289062 "/>
<path fill-rule="nonzero" fill="rgb(22.018073%, 22.018073%, 22.018073%)" fill-opacity="1" d="M 523.621094 498.496094 C 523.621094 491.914062 513.75 491.914062 513.75 498.496094 C 513.75 505.074219 523.621094 505.074219 523.621094 498.496094 Z M 523.621094 498.496094 "/>
<path fill-rule="nonzero" fill="rgb(26.788414%, 26.788414%, 26.788414%)" fill-opacity="1" d="M 563.535156 426.089844 C 563.535156 419.507812 553.664062 419.507812 553.664062 426.089844 C 553.664062 432.667969 563.535156 432.667969 563.535156 426.089844 Z M 563.535156 426.089844 "/>
<path fill-rule="nonzero" fill="rgb(57.930422%, 57.930422%, 57.930422%)" fill-opacity="1" d="M 501.140625 240.601562 C 501.140625 234.019531 491.273438 234.019531 491.273438 240.601562 C 491.273438 247.179688 501.140625 247.179688 501.140625 240.601562 Z M 501.140625 240.601562 "/>
<path fill-rule="nonzero" fill="rgb(71.989638%, 71.989638%, 71.989638%)" fill-opacity="1" d="M 409.839844 187.214844 C 409.839844 180.632812 399.96875 180.632812 399.96875 187.214844 C 399.96875 193.792969 409.839844 193.792969 409.839844 187.214844 Z M 409.839844 187.214844 "/>
<path fill-rule="nonzero" fill="rgb(65.90547%, 65.90547%, 65.90547%)" fill-opacity="1" d="M 148.667969 256.828125 C 148.667969 250.246094 138.800781 250.246094 138.800781 256.828125 C 138.800781 263.40625 148.667969 263.40625 148.667969 256.828125 Z M 148.667969 256.828125 "/>
<path fill-rule="nonzero" fill="rgb(71.630669%, 71.630669%, 71.630669%)" fill-opacity="1" d="M 245.578125 219.601562 C 245.578125 213.023438 235.707031 213.023438 235.707031 219.601562 C 235.707031 226.183594 245.578125 226.183594 245.578125 219.601562 Z M 245.578125 219.601562 "/>
<path fill-rule="nonzero" fill="rgb(23.906279%, 23.906279%, 23.906279%)" fill-opacity="1" d="M 642.457031 393.429688 C 642.457031 386.851562 632.585938 386.851562 632.585938 393.429688 C 632.585938 400.011719 642.457031 400.011719 642.457031 393.429688 Z M 642.457031 393.429688 "/>
<path fill-rule="nonzero" fill="rgb(36.843103%, 36.843103%, 36.843103%)" fill-opacity="1" d="M 389.007812 440.007812 C 389.007812 433.429688 379.136719 433.429688 379.136719 440.007812 C 379.136719 446.589844 389.007812 446.589844 389.007812 440.007812 Z M 389.007812 440.007812 "/>
<path fill-rule="nonzero" fill="rgb(10%, 10%, 10%)" fill-opacity="1" d="M 589.375 500.21875 C 589.375 493.640625 579.503906 493.640625 579.503906 500.21875 C 579.503906 506.800781 589.375 506.800781 589.375 500.21875 Z M 589.375 500.21875 "/>
<path fill-rule="nonzero" fill="rgb(51.514369%, 51.514369%, 51.514369%)" fill-opacity="1" d="M 480.5 169.308594 C 480.5 162.730469 470.632812 162.730469 470.632812 169.308594 C 470.632812 175.890625 480.5 175.890625 480.5 169.308594 Z M 480.5 169.308594 "/>
<path fill-rule="nonzero" fill="rgb(32.170972%, 32.170972%, 32.170972%)" fill-opacity="1" d="M 565.347656 349.394531 C 565.347656 342.8125 555.476562 342.8125 555.476562 349.394531 C 555.476562 355.972656 565.347656 355.972656 565.347656 349.394531 Z M 565.347656 349.394531 "/>
<path fill-rule="nonzero" fill="rgb(19.09342%, 19.09342%, 19.09342%)" fill-opacity="1" d="M 566.824219 366.703125 C 566.824219 360.121094 556.957031 360.121094 556.957031 366.703125 C 556.957031 373.28125 566.824219 373.28125 566.824219 366.703125 Z M 566.824219 366.703125 "/>
<path fill-rule="nonzero" fill="rgb(71.79243%, 71.79243%, 71.79243%)" fill-opacity="1" d="M 394.78125 108.238281 C 394.78125 101.660156 384.910156 101.660156 384.910156 108.238281 C 384.910156 114.820312 394.78125 114.820312 394.78125 108.238281 Z M 394.78125 108.238281 "/>
<path fill-rule="nonzero" fill="rgb(32.452291%, 32.452291%, 32.452291%)" fill-opacity="1" d="M 489.605469 386.472656 C 489.605469 379.894531 479.734375 379.894531 479.734375 386.472656 C 479.734375 393.054688 489.605469 393.054688 489.605469 386.472656 Z M 489.605469 386.472656 "/>
<path fill-rule="nonzero" fill="rgb(60.740441%, 60.740441%, 60.740441%)" fill-opacity="1" d="M 327.367188 262.765625 C 327.367188 256.1875 317.496094 256.1875 317.496094 262.765625 C 317.496094 269.347656 327.367188 269.347656 327.367188 262.765625 Z M 327.367188 262.765625 "/>
<path fill-rule="nonzero" fill="rgb(58.794004%, 58.794004%, 58.794004%)" fill-opacity="1" d="M 214.488281 271.785156 C 214.488281 265.207031 204.621094 265.207031 204.621094 271.785156 C 204.621094 278.367188 214.488281 278.367188 214.488281 271.785156 Z M 214.488281 271.785156 "/>
<path fill-rule="nonzero" fill="rgb(64.274389%, 64.274389%, 64.274389%)" fill-opacity="1" d="M 104.296875 302.933594 C 104.296875 296.355469 94.429688 296.355469 94.429688 302.933594 C 94.429688 309.515625 104.296875 309.515625 104.296875 302.933594 Z M 104.296875 302.933594 "/>
<path fill-rule="nonzero" fill="rgb(24.007984%, 24.007984%, 24.007984%)" fill-opacity="1" d="M 452.109375 371.90625 C 452.109375 365.324219 442.238281 365.324219 442.238281 371.90625 C 442.238281 378.484375 452.109375 378.484375 452.109375 371.90625 Z M 452.109375 371.90625 "/>
<path fill-rule="nonzero" fill="rgb(41.87201%, 41.87201%, 41.87201%)" fill-opacity="1" d="M 508.324219 265.246094 C 508.324219 258.664062 498.453125 258.664062 498.453125 265.246094 C 498.453125 271.824219 508.324219 271.824219 508.324219 265.246094 Z M 508.324219 265.246094 "/>
<path fill-rule="nonzero" fill="rgb(52.866018%, 52.866018%, 52.866018%)" fill-opacity="1" d="M 364.546875 263.730469 C 364.546875 257.148438 354.675781 257.148438 354.675781 263.730469 C 354.675781 270.308594 364.546875 270.308594 364.546875 263.730469 Z M 364.546875 263.730469 "/>
<path fill-rule="nonzero" fill="rgb(66.862375%, 66.862375%, 66.862375%)" fill-opacity="1" d="M 364.386719 150.199219 C 364.386719 143.617188 354.519531 143.617188 354.519531 150.199219 C 354.519531 156.777344 364.386719 156.777344 364.386719 150.199219 Z M 364.386719 150.199219 "/>
<path fill-rule="nonzero" fill="rgb(60.030937%, 60.030937%, 60.030937%)" fill-opacity="1" d="M 297.320312 289.1875 C 297.320312 282.609375 287.449219 282.609375 287.449219 289.1875 C 287.449219 295.769531 297.320312 295.769531 297.320312 289.1875 Z M 297.320312 289.1875 "/>
<path fill-rule="nonzero" fill="rgb(26.42895%, 26.42895%, 26.42895%)" fill-opacity="1" d="M 567.394531 376.226562 C 567.394531 369.648438 557.523438 369.648438 557.523438 376.226562 C 557.523438 382.808594 567.394531 382.808594 567.394531 376.226562 Z M 567.394531 376.226562 "/>
<path fill-rule="nonzero" fill="rgb(37.781653%, 37.781653%, 37.781653%)" fill-opacity="1" d="M 569.671875 380.699219 C 569.671875 374.121094 559.800781 374.121094 559.800781 380.699219 C 559.800781 387.28125 569.671875 387.28125 569.671875 380.699219 Z M 569.671875 380.699219 "/>
<path fill-rule="nonzero" fill="rgb(53.30379%, 53.30379%, 53.30379%)" fill-opacity="1" d="M 440.675781 225.972656 C 440.675781 219.390625 430.808594 219.390625 430.808594 225.972656 C 430.808594 232.550781 440.675781 232.550781 440.675781 225.972656 Z M 440.675781 225.972656 "/>
<path fill-rule="nonzero" fill="rgb(69.945192%, 69.945192%, 69.945192%)" fill-opacity="1" d="M 184.246094 241.554688 C 184.246094 234.976562 174.375 234.976562 174.375 241.554688 C 174.375 248.136719 184.246094 248.136719 184.246094 241.554688 Z M 184.246094 241.554688 "/>
<path fill-rule="nonzero" fill="rgb(51.115227%, 51.115227%, 51.115227%)" fill-opacity="1" d="M 459.171875 252.105469 C 459.171875 245.527344 449.304688 245.527344 449.304688 252.105469 C 449.304688 258.6875 459.171875 258.6875 459.171875 252.105469 Z M 459.171875 252.105469 "/>
<path fill-rule="nonzero" fill="rgb(41.89657%, 41.89657%, 41.89657%)" fill-opacity="1" d="M 556.203125 285.199219 C 556.203125 278.617188 546.332031 278.617188 546.332031 285.199219 C 546.332031 291.777344 556.203125 291.777344 556.203125 285.199219 Z M 556.203125 285.199219 "/>
<path fill-rule="nonzero" fill="rgb(56.325483%, 56.325483%, 56.325483%)" fill-opacity="1" d="M 549.128906 201.386719 C 549.128906 194.804688 539.261719 194.804688 539.261719 201.386719 C 539.261719 207.964844 549.128906 207.964844 549.128906 201.386719 Z M 549.128906 201.386719 "/>
<path fill-rule="nonzero" fill="rgb(30.727893%, 30.727893%, 30.727893%)" fill-opacity="1" d="M 482.273438 437.441406 C 482.273438 430.859375 472.402344 430.859375 472.402344 437.441406 C 472.402344 444.019531 482.273438 444.019531 482.273438 437.441406 Z M 482.273438 437.441406 "/>
<path fill-rule="nonzero" fill="rgb(51.759547%, 51.759547%, 51.759547%)" fill-opacity="1" d="M 538.28125 184.535156 C 538.28125 177.953125 528.410156 177.953125 528.410156 184.535156 C 528.410156 191.113281 538.28125 191.113281 538.28125 184.535156 Z M 538.28125 184.535156 "/>
<path fill-rule="nonzero" fill="rgb(39.811063%, 39.811063%, 39.811063%)" fill-opacity="1" d="M 432.148438 392.859375 C 432.148438 386.28125 422.28125 386.28125 422.28125 392.859375 C 422.28125 399.441406 432.148438 399.441406 432.148438 392.859375 Z M 432.148438 392.859375 "/>
<path fill-rule="nonzero" fill="rgb(46.610275%, 46.610275%, 46.610275%)" fill-opacity="1" d="M 406.691406 355.113281 C 406.691406 348.535156 396.820312 348.535156 396.820312 355.113281 C 396.820312 361.695312 406.691406 361.695312 406.691406 355.113281 Z M 406.691406 355.113281 "/>
<path fill-rule="nonzero" fill="rgb(56.92265%, 56.92265%, 56.92265%)" fill-opacity="1" d="M 423.09375 332.671875 C 423.09375 326.09375 413.222656 326.09375 413.222656 332.671875 C 413.222656 339.253906 423.09375 339.253906 423.09375 332.671875 Z M 423.09375 332.671875 "/>
<path fill-rule="nonzero" fill="rgb(32.679403%, 32.679403%, 32.679403%)" fill-opacity="1" d="M 468.070312 444.859375 C 468.070312 438.28125 458.203125 438.28125 458.203125 444.859375 C 458.203125 451.441406 468.070312 451.441406 468.070312 444.859375 Z M 468.070312 444.859375 "/>
<path fill-rule="nonzero" fill="rgb(33.360752%, 33.360752%, 33.360752%)" fill-opacity="1" d="M 598.910156 336.8125 C 598.910156 330.230469 589.039062 330.230469 589.039062 336.8125 C 589.039062 343.390625 598.910156 343.390625 598.910156 336.8125 Z M 598.910156 336.8125 "/>
<path fill-rule="nonzero" fill="rgb(46.460602%, 46.460602%, 46.460602%)" fill-opacity="1" d="M 591.019531 252.605469 C 591.019531 246.023438 581.148438 246.023438 581.148438 252.605469 C 581.148438 259.183594 591.019531 259.183594 591.019531 252.605469 Z M 591.019531 252.605469 "/>
<path fill-rule="nonzero" fill="rgb(60.929358%, 60.929358%, 60.929358%)" fill-opacity="1" d="M 391.804688 195.363281 C 391.804688 188.78125 381.933594 188.78125 381.933594 195.363281 C 381.933594 201.941406 391.804688 201.941406 391.804688 195.363281 Z M 391.804688 195.363281 "/>
<path fill-rule="nonzero" fill="rgb(16.232599%, 16.232599%, 16.232599%)" fill-opacity="1" d="M 704.570312 416.394531 C 704.570312 409.8125 694.699219 409.8125 694.699219 416.394531 C 694.699219 422.972656 704.570312 422.972656 704.570312 416.394531 Z M 704.570312 416.394531 "/>
<path fill-rule="nonzero" fill="rgb(15.749386%, 15.749386%, 15.749386%)" fill-opacity="1" d="M 670.214844 428.871094 C 670.214844 422.292969 660.347656 422.292969 660.347656 428.871094 C 660.347656 435.453125 670.214844 435.453125 670.214844 428.871094 Z M 670.214844 428.871094 "/>
<path fill-rule="nonzero" fill="rgb(30.233067%, 30.233067%, 30.233067%)" fill-opacity="1" d="M 635.535156 381.167969 C 635.535156 374.585938 625.667969 374.585938 625.667969 381.167969 C 625.667969 387.746094 635.535156 387.746094 635.535156 381.167969 Z M 635.535156 381.167969 "/>
<path fill-rule="nonzero" fill="rgb(58.20235%, 58.20235%, 58.20235%)" fill-opacity="1" d="M 341.316406 216.820312 C 341.316406 210.238281 331.445312 210.238281 331.445312 216.820312 C 331.445312 223.398438 341.316406 223.398438 341.316406 216.820312 Z M 341.316406 216.820312 "/>
<path fill-rule="nonzero" fill="rgb(50.573593%, 50.573593%, 50.573593%)" fill-opacity="1" d="M 327.101562 273.667969 C 327.101562 267.085938 317.230469 267.085938 317.230469 273.667969 C 317.230469 280.246094 327.101562 280.246094 327.101562 273.667969 Z M 327.101562 273.667969 "/>
<path fill-rule="nonzero" fill="rgb(53.323013%, 53.323013%, 53.323013%)" fill-opacity="1" d="M 526.496094 277.746094 C 526.496094 271.167969 516.628906 271.167969 516.628906 277.746094 C 516.628906 284.328125 526.496094 284.328125 526.496094 277.746094 Z M 526.496094 277.746094 "/>
<path fill-rule="nonzero" fill="rgb(80.795836%, 80.795836%, 80.795836%)" fill-opacity="1" d="M 228.179688 234.363281 C 228.179688 227.78125 218.308594 227.78125 218.308594 234.363281 C 218.308594 240.941406 228.179688 240.941406 228.179688 234.363281 Z M 228.179688 234.363281 "/>
<path fill-rule="nonzero" fill="rgb(13.776366%, 13.776366%, 13.776366%)" fill-opacity="1" d="M 768.0625 510.296875 C 768.0625 503.714844 758.191406 503.714844 758.191406 510.296875 C 758.191406 516.875 768.0625 516.875 768.0625 510.296875 Z M 768.0625 510.296875 "/>
<path fill-rule="nonzero" fill="rgb(52.991807%, 52.991807%, 52.991807%)" fill-opacity="1" d="M 651.953125 81.027344 C 651.953125 74.445312 642.082031 74.445312 642.082031 81.027344 C 642.082031 87.605469 651.953125 87.605469 651.953125 81.027344 Z M 651.953125 81.027344 "/>
<path fill-rule="nonzero" fill="rgb(31.44424%, 31.44424%, 31.44424%)" fill-opacity="1" d="M 728.730469 259.617188 C 728.730469 253.039062 718.863281 253.039062 718.863281 259.617188 C 718.863281 266.199219 728.730469 266.199219 728.730469 259.617188 Z M 728.730469 259.617188 "/>
<path fill-rule="nonzero" fill="rgb(46.310371%, 46.310371%, 46.310371%)" fill-opacity="1" d="M 778.710938 111.738281 C 778.710938 105.15625 768.839844 105.15625 768.839844 111.738281 C 768.839844 118.316406 778.710938 118.316406 778.710938 111.738281 Z M 778.710938 111.738281 "/>
<path fill-rule="nonzero" fill="rgb(13.197429%, 13.197429%, 13.197429%)" fill-opacity="1" d="M 851.570312 363.3125 C 851.570312 356.734375 841.703125 356.734375 841.703125 363.3125 C 841.703125 369.890625 851.570312 369.890625 851.570312 363.3125 Z M 851.570312 363.3125 "/>
<path fill-rule="nonzero" fill="rgb(38.032523%, 38.032523%, 38.032523%)" fill-opacity="1" d="M 713.09375 217.726562 C 713.09375 211.148438 703.226562 211.148438 703.226562 217.726562 C 703.226562 224.308594 713.09375 224.308594 713.09375 217.726562 Z M 713.09375 217.726562 "/>
<path fill-rule="nonzero" fill="rgb(31.163567%, 31.163567%, 31.163567%)" fill-opacity="1" d="M 800.851562 235.800781 C 800.851562 229.21875 790.984375 229.21875 790.984375 235.800781 C 790.984375 242.378906 800.851562 242.378906 800.851562 235.800781 Z M 800.851562 235.800781 "/>
<path fill-rule="nonzero" fill="rgb(59.002733%, 59.002733%, 59.002733%)" fill-opacity="1" d="M 650.386719 165.390625 C 650.386719 158.8125 640.519531 158.8125 640.519531 165.390625 C 640.519531 171.972656 650.386719 171.972656 650.386719 165.390625 Z M 650.386719 165.390625 "/>
<path fill-rule="nonzero" fill="rgb(11.356803%, 11.356803%, 11.356803%)" fill-opacity="1" d="M 821.96875 352.472656 C 821.96875 345.890625 812.097656 345.890625 812.097656 352.472656 C 812.097656 359.050781 821.96875 359.050781 821.96875 352.472656 Z M 821.96875 352.472656 "/>
<path fill-rule="nonzero" fill="rgb(61.900657%, 61.900657%, 61.900657%)" fill-opacity="1" d="M 683.390625 58.953125 C 683.390625 52.375 673.519531 52.375 673.519531 58.953125 C 673.519531 65.535156 683.390625 65.535156 683.390625 58.953125 Z M 683.390625 58.953125 "/>
<path fill="none" stroke-width="1" stroke-linecap="butt" stroke-linejoin="miter" stroke="rgb(0%, 0%, 0%)" stroke-opacity="1" stroke-miterlimit="1.154701" d="M 64.015625 541.5 L 64.015625 546.5 "/>
<path fill="none" stroke-width="1" stroke-linecap="butt" stroke-linejoin="miter" stroke="rgb(0%, 0%, 0%)" stroke-opacity="1" stroke-miterlimit="1.154701" d="M 191.6875 541.5 L 191.6875 546.5 "/>
<path fill="none" stroke-width="1" stroke-linecap="butt" stroke-linejoin="miter" stroke="rgb(0%, 0%, 0%)" stroke-opacity="1" stroke-miterlimit="1.154701" d="M 319.363281 541.5 L 319.363281 546.5 "/>
<path fill="none" stroke-width="1" stroke-linecap="butt" stroke-linejoin="miter" stroke="rgb(0%, 0%, 0%)" stroke-opacity="1" stroke-miterlimit="1.154701" d="M 447.039062 541.5 L 447.039062 546.5 "/>
<path fill="none" stroke-width="1" stroke-linecap="butt" stroke-linejoin="miter" stroke="rgb(0%, 0%, 0%)" stroke-opacity="1" stroke-miterlimit="1.154701" d="M 574.710938 541.5 L 574.710938 546.5 "/>
<path fill="none" stroke-width="1" stroke-linecap="butt" stroke-linejoin="miter" stroke="rgb(0%, 0%, 0%)" stroke-opacity="1" stroke-miterlimit="1.154701" d="M 702.386719 541.5 L 702.386719 546.5 "/>
<path fill="none" stroke-width="1" stroke-linecap="butt" stroke-linejoin="miter" stroke="rgb(0%, 0%, 0%)" stroke-opacity="1" stroke-miterlimit="1.154701" d="M 830.0625 541.5 L 830.0625 546.5 "/>
<path fill="none" stroke-width="1" stroke-linecap="butt" stroke-linejoin="miter" stroke="rgb(0%, 0%, 0%)" stroke-opacity="1" stroke-miterlimit="1.154701" d="M 61.5 435.699219 L 56.5 435.699219 "/>
<path fill="none" stroke-width="1" stroke-linecap="butt" stroke-linejoin="miter" stroke="rgb(0%, 0%, 0%)" stroke-opacity="1" stroke-miterlimit="1.154701" d="M 61.5 268.050781 L 56.5 268.050781 "/>
<path fill="none" stroke-width="1" stroke-linecap="butt" stroke-linejoin="miter" stroke="rgb(0%, 0%, 0%)" stroke-opacity="1" stroke-miterlimit="1.154701" d="M 61.5 100.40625 L 56.5 100.40625 "/>
<path fill="none" stroke-width="1" stroke-linecap="butt" stroke-linejoin="miter" stroke="rgb(0%, 0%, 0%)" stroke-opacity="1" stroke-miterlimit="1.154701" d="M 61.5 541 L 884.5 541 "/>
<path fill="none" stroke-width="1" stroke-linecap="butt" stroke-linejoin="miter" stroke="rgb(0%, 0%, 0%)" stroke-opacity="1" stroke-miterlimit="1.154701" d="M 62 541.5 L 62 35.5 "/>
<path fill="none" stroke-width="1" stroke-linecap="butt" stroke-linejoin="miter" stroke="rgb(0%, 0%, 0%)" stroke-opacity="1" stroke-miterlimit="1.154701" d="M 61.5 36 L 884.5 36 "/>
<path fill="none" stroke-width="1" stroke-linecap="butt" stroke-linejoin="miter" stroke="rgb(0%, 0%, 0%)" stroke-opacity="1" stroke-miterlimit="1.154701" d="M 884 541.5 L 884 35.5 "/>
</svg>
