<?xml version="1.0" encoding="UTF-8"?>
<svg xmlns="http://www.w3.org/2000/svg" xmlns:xlink="http://www.w3.org/1999/xlink" width="900" height="600" viewBox="0 0 900 600">
<defs>
<g>
<g id="glyph-0-0-8ab9bb74">
<path d="M 7.46875 0 C 7.46875 0 1.125 0 1.125 0 C 1.125 0 1.125 -10.203125 1.125 -10.203125 C 1.125 -10.203125 2.421875 -10.203125 2.421875 -10.203125 C 2.421875 -10.203125 2.421875 -1.140625 2.421875 -1.140625 C 2.421875 -1.140625 7.46875 -1.140625 7.46875 -1.140625 C 7.46875 -1.140625 7.46875 0 7.46875 0 Z M 7.46875 0 "/>
</g>
<g id="glyph-0-1-8ab9bb74">
<path d="M 7.484375 -0.03125 C 7.109375 0.0625 6.9375 0.09375 6.6875 0.09375 C 6.125 0.09375 5.609375 -0.3125 5.484375 -0.875 C 4.84375 -0.1875 3.9375 0.203125 3 0.203125 C 1.515625 0.203125 0.59375 -0.578125 0.59375 -1.90625 C 0.59375 -2.796875 1.015625 -3.453125 1.875 -3.8125 C 2.328125 -3.984375 2.578125 -4.046875 4.234375 -4.25 C 5.15625 -4.375 5.453125 -4.578125 5.453125 -5.0625 C 5.453125 -5.0625 5.453125 -5.375 5.453125 -5.375 C 5.453125 -6.078125 4.859375 -6.46875 3.8125 -6.46875 C 2.71875 -6.46875 2.1875 -6.0625 2.09375 -5.171875 C 2.09375 -5.171875 0.90625 -5.171875 0.90625 -5.171875 C 0.984375 -6.859375 2.078125 -7.546875 3.84375 -7.546875 C 5.65625 -7.546875 6.609375 -6.84375 6.609375 -5.546875 C 6.609375 -5.546875 6.609375 -1.453125 6.609375 -1.453125 C 6.609375 -1.09375 6.828125 -0.875 7.234375 -0.875 C 7.3125 -0.875 7.359375 -0.875 7.484375 -0.90625 C 7.484375 -0.90625 7.484375 -0.03125 7.484375 -0.03125 Z M 5.453125 -2.53125 C 5.453125 -2.53125 5.453125 -3.625 5.453125 -3.625 C 5.046875 -3.4375 4.796875 -3.390625 3.5625 -3.21875 C 2.328125 -3.03125 1.8125 -2.703125 1.8125 -1.9375 C 1.8125 -1.140625 2.34375 -0.8125 3.25 -0.8125 C 4.375 -0.8125 5.453125 -1.484375 5.453125 -2.53125 Z M 5.453125 -2.53125 "/>
</g>
<g id="glyph-0-2-8ab9bb74">
<path d="M 3.5625 0 C 3.15625 0.0625 2.890625 0.09375 2.609375 0.09375 C 1.6875 0.09375 1.1875 -0.328125 1.1875 -1.0625 C 1.1875 -1.0625 1.1875 -6.390625 1.1875 -6.390625 C 1.1875 -6.390625 0.203125 -6.390625 0.203125 -6.390625 C 0.203125 -6.390625 0.203125 -7.34375 0.203125 -7.34375 C 0.203125 -7.34375 1.1875 -7.34375 1.1875 -7.34375 C 1.1875 -7.34375 1.1875 -9.359375 1.1875 -9.359375 C 1.1875 -9.359375 2.359375 -9.359375 2.359375 -9.359375 C 2.359375 -9.359375 2.359375 -7.34375 2.359375 -7.34375 C 2.359375 -7.34375 3.5625 -7.34375 3.5625 -7.34375 C 3.5625 -7.34375 3.5625 -6.390625 3.5625 -6.390625 C 3.5625 -6.390625 2.359375 -6.390625 2.359375 -6.390625 C 2.359375 -6.390625 2.359375 -1.578125 2.359375 -1.578125 C 2.359375 -1.0625 2.484375 -0.921875 3 -0.921875 C 3.21875 -0.921875 3.40625 -0.9375 3.5625 -0.984375 C 3.5625 -0.984375 3.5625 0 3.5625 0 Z M 3.5625 0 "/>
</g>
<g id="glyph-0-3-8ab9bb74">
<path d="M 7.1875 -3.328125 C 7.1875 -3.328125 1.78125 -3.328125 1.78125 -3.328125 C 1.8125 -1.65625 2.71875 -0.875 3.9375 -0.875 C 4.875 -0.875 5.53125 -1.265625 5.859375 -2.21875 C 5.859375 -2.21875 7.03125 -2.21875 7.03125 -2.21875 C 6.734375 -0.734375 5.578125 0.203125 3.890625 0.203125 C 1.828125 0.203125 0.5625 -1.21875 0.5625 -3.625 C 0.5625 -6.03125 1.875 -7.546875 3.921875 -7.546875 C 5.296875 -7.546875 6.40625 -6.8125 6.890625 -5.609375 C 7.09375 -5.0625 7.1875 -4.390625 7.1875 -3.328125 Z M 5.9375 -4.375 C 5.9375 -5.515625 5.046875 -6.46875 3.90625 -6.46875 C 2.734375 -6.46875 1.90625 -5.59375 1.8125 -4.28125 C 1.8125 -4.28125 5.921875 -4.28125 5.921875 -4.28125 C 5.9375 -4.3125 5.9375 -4.375 5.9375 -4.375 Z M 5.9375 -4.375 "/>
</g>
<g id="glyph-0-4-8ab9bb74">
<path d="M 6.8125 0 C 6.8125 0 5.65625 0 5.65625 0 C 5.65625 0 5.65625 -5.078125 5.65625 -5.078125 C 5.65625 -5.96875 5.0625 -6.53125 4.140625 -6.53125 C 2.953125 -6.53125 2.140625 -5.546875 2.140625 -4.046875 C 2.140625 -4.046875 2.140625 0 2.140625 0 C 2.140625 0 0.984375 0 0.984375 0 C 0.984375 0 0.984375 -7.34375 0.984375 -7.34375 C 0.984375 -7.34375 2.0625 -7.34375 2.0625 -7.34375 C 2.0625 -7.34375 2.0625 -6.109375 2.0625 -6.109375 C 2.703125 -7.125 3.40625 -7.546875 4.5 -7.546875 C 5.90625 -7.546875 6.8125 -6.765625 6.8125 -5.546875 C 6.8125 -5.546875 6.8125 0 6.8125 0 Z M 6.8125 0 "/>
</g>
<g id="glyph-0-5-8ab9bb74">
<path d="M 9.03125 -10.203125 C 9.03125 -10.203125 5.484375 0 5.484375 0 C 5.484375 0 4.09375 0 4.09375 0 C 4.09375 0 0.421875 -10.203125 0.421875 -10.203125 C 0.421875 -10.203125 1.8125 -10.203125 1.8125 -10.203125 C 1.8125 -10.203125 4.8125 -1.5625 4.8125 -1.5625 C 4.8125 -1.5625 7.640625 -10.203125 7.640625 -10.203125 C 7.640625 -10.203125 9.03125 -10.203125 9.03125 -10.203125 Z M 9.03125 -10.203125 "/>
</g>
<g id="glyph-0-6-8ab9bb74">
<path d="M 4.5 -6.3125 C 2.6875 -6.28125 2.140625 -5.453125 2.140625 -3.8125 C 2.140625 -3.8125 2.140625 0 2.140625 0 C 2.140625 0 0.984375 0 0.984375 0 C 0.984375 0 0.984375 -7.34375 0.984375 -7.34375 C 0.984375 -7.34375 2.046875 -7.34375 2.046875 -7.34375 C 2.046875 -7.34375 2.046875 -6 2.046875 -6 C 2.71875 -7.09375 3.296875 -7.546875 4.046875 -7.546875 C 4.203125 -7.546875 4.296875 -7.53125 4.5 -7.5 C 4.5 -7.5 4.5 -6.3125 4.5 -6.3125 Z M 4.5 -6.3125 "/>
</g>
<g id="glyph-0-7-8ab9bb74">
<path d="M 2.140625 0 C 2.140625 0 0.984375 0 0.984375 0 C 0.984375 0 0.984375 -7.34375 0.984375 -7.34375 C 0.984375 -7.34375 2.140625 -7.34375 2.140625 -7.34375 C 2.140625 -7.34375 2.140625 0 2.140625 0 Z M 2.296875 -8.4375 C 2.296875 -8.4375 0.84375 -8.4375 0.84375 -8.4375 C 0.84375 -8.4375 0.84375 -9.890625 0.84375 -9.890625 C 0.84375 -9.890625 2.296875 -9.890625 2.296875 -9.890625 C 2.296875 -9.890625 2.296875 -8.4375 2.296875 -8.4375 Z M 2.296875 -8.4375 "/>
</g>
<g id="glyph-0-8-8ab9bb74">
<path d="M 7.328125 -3.75 C 7.328125 -1.375 6.0625 0.203125 4.125 0.203125 C 3.109375 0.203125 2.359375 -0.203125 1.8125 -1.046875 C 1.8125 -1.046875 1.8125 0 1.8125 0 C 1.8125 0 0.75 0 0.75 0 C 0.75 0 0.75 -10.203125 0.75 -10.203125 C 0.75 -10.203125 1.921875 -10.203125 1.921875 -10.203125 C 1.921875 -10.203125 1.921875 -6.34375 1.921875 -6.34375 C 2.46875 -7.171875 3.171875 -7.546875 4.1875 -7.546875 C 6.125 -7.546875 7.328125 -6.125 7.328125 -3.75 Z M 6.109375 -3.6875 C 6.109375 -5.3125 5.265625 -6.453125 3.96875 -6.453125 C 2.734375 -6.515625 1.921875 -5.390625 1.921875 -3.671875 C 1.921875 -2 2.734375 -0.875 3.96875 -0.875 C 5.234375 -0.875 6.109375 -2.015625 6.109375 -3.6875 Z M 6.109375 -3.6875 "/>
</g>
<g id="glyph-0-9-8ab9bb74">
</g>
<g id="glyph-0-10-8ab9bb74">
<path d="M 4.859375 0 C 4.859375 0 3.625 0 3.625 0 C 3.625 0 3.625 -7.0625 3.625 -7.0625 C 3.625 -7.0625 1.421875 -7.0625 1.421875 -7.0625 C 1.421875 -7.0625 1.421875 -7.953125 1.421875 -7.953125 C 3.328125 -8.1875 3.609375 -8.40625 4.046875 -9.921875 C 4.046875 -9.921875 4.859375 -9.921875 4.859375 -9.921875 C 4.859375 -9.921875 4.859375 0 4.859375 0 Z M 4.859375 0 "/>
</g>
<g id="glyph-0-11-8ab9bb74">
<path d="M 7.21875 -3.03125 C 7.21875 -3.03125 0.953125 -3.03125 0.953125 -3.03125 C 0.953125 -3.03125 0.953125 -3.96875 0.953125 -3.96875 C 0.953125 -3.96875 7.21875 -3.96875 7.21875 -3.96875 C 7.21875 -3.96875 7.21875 -3.03125 7.21875 -3.03125 Z M 7.21875 -3.03125 "/>
</g>
<g id="glyph-0-12-8ab9bb74">
<path d="M 7.15625 -7.015625 C 7.15625 -5.796875 6.4375 -4.765625 5.046875 -4.015625 C 5.046875 -4.015625 3.65625 -3.265625 3.65625 -3.265625 C 2.4375 -2.546875 1.984375 -2.03125 1.859375 -1.21875 C 1.859375 -1.21875 7.078125 -1.21875 7.078125 -1.21875 C 7.078125 -1.21875 7.078125 0 7.078125 0 C 7.078125 0 0.46875 0 0.46875 0 C 0.59375 -2.1875 1.1875 -3.125 3.265625 -4.296875 C 3.265625 -4.296875 4.546875 -5.03125 4.546875 -5.03125 C 5.4375 -5.53125 5.890625 -6.203125 5.890625 -6.984375 C 5.890625 -8.046875 5.046875 -8.84375 3.9375 -8.84375 C 2.71875 -8.84375 2.03125 -8.140625 1.9375 -6.484375 C 1.9375 -6.484375 0.703125 -6.484375 0.703125 -6.484375 C 0.765625 -8.890625 1.953125 -9.921875 3.96875 -9.921875 C 5.859375 -9.921875 7.15625 -8.6875 7.15625 -7.015625 Z M 7.15625 -7.015625 "/>
</g>
<g id="glyph-0-13-8ab9bb74">
<path d="M 7.09375 -4.78125 C 7.09375 -1.515625 5.953125 0.203125 3.84375 0.203125 C 1.71875 0.203125 0.609375 -1.515625 0.609375 -4.859375 C 0.609375 -8.1875 1.703125 -9.921875 3.84375 -9.921875 C 6 -9.921875 7.09375 -8.21875 7.09375 -4.78125 Z M 5.84375 -4.890625 C 5.84375 -7.546875 5.1875 -8.828125 3.84375 -8.828125 C 2.515625 -8.828125 1.859375 -7.5625 1.859375 -4.84375 C 1.859375 -2.125 2.515625 -0.8125 3.828125 -0.8125 C 5.1875 -0.8125 5.84375 -2.078125 5.84375 -4.890625 Z M 5.84375 -4.890625 "/>
</g>
<g id="glyph-0-14-8ab9bb74">
<path d="M 7.078125 -2.890625 C 7.078125 -1.015625 5.765625 0.203125 3.71875 0.203125 C 1.6875 0.203125 0.609375 -0.78125 0.453125 -3 C 0.453125 -3 1.6875 -3 1.6875 -3 C 1.765625 -1.546875 2.421875 -0.875 3.765625 -0.875 C 5.046875 -0.875 5.828125 -1.625 5.828125 -2.875 C 5.828125 -3.96875 5.125 -4.625 3.765625 -4.625 C 3.765625 -4.625 3.09375 -4.625 3.09375 -4.625 C 3.09375 -4.625 3.09375 -5.65625 3.09375 -5.65625 C 5.0625 -5.65625 5.53125 -6.09375 5.53125 -7.15625 C 5.53125 -8.203125 4.875 -8.84375 3.78125 -8.84375 C 2.515625 -8.84375 1.921875 -8.1875 1.890625 -6.71875 C 1.890625 -6.71875 0.65625 -6.71875 0.65625 -6.71875 C 0.703125 -8.828125 1.765625 -9.921875 3.765625 -9.921875 C 5.65625 -9.921875 6.796875 -8.90625 6.796875 -7.203125 C 6.796875 -6.203125 6.328125 -5.5625 5.40625 -5.1875 C 6.59375 -4.78125 7.078125 -4.09375 7.078125 -2.890625 Z M 7.078125 -2.890625 "/>
</g>
<g id="glyph-0-15-8ab9bb74">
<path d="M 7.28125 -2.375 C 7.28125 -2.375 5.8125 -2.375 5.8125 -2.375 C 5.8125 -2.375 5.8125 0 5.8125 0 C 5.8125 0 4.578125 0 4.578125 0 C 4.578125 0 4.578125 -2.375 4.578125 -2.375 C 4.578125 -2.375 0.390625 -2.375 0.390625 -2.375 C 0.390625 -2.375 0.390625 -3.6875 0.390625 -3.6875 C 0.390625 -3.6875 4.90625 -9.921875 4.90625 -9.921875 C 4.90625 -9.921875 5.8125 -9.921875 5.8125 -9.921875 C 5.8125 -9.921875 5.8125 -3.484375 5.8125 -3.484375 C 5.8125 -3.484375 7.28125 -3.484375 7.28125 -3.484375 C 7.28125 -3.484375 7.28125 -2.375 7.28125 -2.375 Z M 4.578125 -3.484375 C 4.578125 -3.484375 4.578125 -7.828125 4.578125 -7.828125 C 4.578125 -7.828125 1.46875 -3.484375 1.46875 -3.484375 C 1.46875 -3.484375 4.578125 -3.484375 4.578125 -3.484375 Z M 4.578125 -3.484375 "/>
</g>
<g id="glyph-1-0-8ab9bb74">
<path d="M 2.109375 0 C 2.109375 0 0.953125 0 0.953125 0 C 0.953125 0 0.953125 -10.203125 0.953125 -10.203125 C 0.953125 -10.203125 2.109375 -10.203125 2.109375 -10.203125 C 2.109375 -10.203125 2.109375 0 2.109375 0 Z M 2.109375 0 "/>
</g>
<g id="glyph-2-0-8ab9bb74">
<path d="M 4.859375 0 C 4.859375 0 3.625 0 3.625 0 C 3.625 0 3.625 -7.0625 3.625 -7.0625 C 3.625 -7.0625 1.421875 -7.0625 1.421875 -7.0625 C 1.421875 -7.0625 1.421875 -7.953125 1.421875 -7.953125 C 3.328125 -8.1875 3.609375 -8.40625 4.046875 -9.921875 C 4.046875 -9.921875 4.859375 -9.921875 4.859375 -9.921875 C 4.859375 -9.921875 4.859375 0 4.859375 0 Z M 4.859375 0 "/>
</g>
<g id="glyph-3-0-8ab9bb74">
<path d="M 0 -7.46875 C 0 -7.46875 0 -1.125 0 -1.125 C 0 -1.125 -10.203125 -1.125 -10.203125 -1.125 C -10.203125 -1.125 -10.203125 -2.421875 -10.203125 -2.421875 C -10.203125 -2.421875 -1.140625 -2.421875 -1.140625 -2.421875 C -1.140625 -2.421875 -1.140625 -7.46875 -1.140625 -7.46875 C -1.140625 -7.46875 0 -7.46875 0 -7.46875 Z M 0 -7.46875 "/>
</g>
<g id="glyph-3-1-8ab9bb74">
<path d="M -3.328125 -7.1875 C -3.328125 -7.1875 -3.328125 -1.78125 -3.328125 -1.78125 C -1.65625 -1.8125 -0.875 -2.71875 -0.875 -3.9375 C -0.875 -4.875 -1.265625 -5.53125 -2.21875 -5.859375 C -2.21875 -5.859375 -2.21875 -7.03125 -2.21875 -7.03125 C -0.734375 -6.734375 0.203125 -5.578125 0.203125 -3.890625 C 0.203125 -1.828125 -1.21875 -0.5625 -3.625 -0.5625 C -6.03125 -0.5625 -7.546875 -1.875 -7.546875 -3.921875 C -7.546875 -5.296875 -6.8125 -6.40625 -5.609375 -6.890625 C -5.0625 -7.09375 -4.390625 -7.1875 -3.328125 -7.1875 Z M -4.375 -5.9375 C -5.515625 -5.9375 -6.46875 -5.046875 -6.46875 -3.90625 C -6.46875 -2.734375 -5.59375 -1.90625 -4.28125 -1.8125 C -4.28125 -1.8125 -4.28125 -5.921875 -4.28125 -5.921875 C -4.3125 -5.9375 -4.375 -5.9375 -4.375 -5.9375 Z M -4.375 -5.9375 "/>
</g>
<g id="glyph-3-2-8ab9bb74">
</g>
<g id="glyph-3-3-8ab9bb74">
<path d="M -10.203125 -9.03125 C -10.203125 -9.03125 0 -5.484375 0 -5.484375 C 0 -5.484375 0 -4.09375 0 -4.09375 C 0 -4.09375 -10.203125 -0.421875 -10.203125 -0.421875 C -10.203125 -0.421875 -10.203125 -1.8125 -10.203125 -1.8125 C -10.203125 -1.8125 -1.5625 -4.8125 -1.5625 -4.8125 C -1.5625 -4.8125 -10.203125 -7.640625 -10.203125 -7.640625 C -10.203125 -7.640625 -10.203125 -9.03125 -10.203125 -9.03125 Z M -10.203125 -9.03125 "/>
</g>
<g id="glyph-3-4-8ab9bb74">
<path d="M 0 -2.140625 C 0 -2.140625 0 -0.984375 0 -0.984375 C 0 -0.984375 -7.34375 -0.984375 -7.34375 -0.984375 C -7.34375 -0.984375 -7.34375 -2.140625 -7.34375 -2.140625 C -7.34375 -2.140625 0 -2.140625 0 -2.140625 Z M -8.4375 -2.296875 C -8.4375 -2.296875 -8.4375 -0.84375 -8.4375 -0.84375 C -8.4375 -0.84375 -9.890625 -0.84375 -9.890625 -0.84375 C -9.890625 -0.84375 -9.890625 -2.296875 -9.890625 -2.296875 C -9.890625 -2.296875 -8.4375 -2.296875 -8.4375 -2.296875 Z M -8.4375 -2.296875 "/>
</g>
<g id="glyph-3-5-8ab9bb74">
<path d="M 0 -2.109375 C 0 -2.109375 0 -0.953125 0 -0.953125 C 0 -0.953125 -10.203125 -0.953125 -10.203125 -0.953125 C -10.203125 -0.953125 -10.203125 -2.109375 -10.203125 -2.109375 C -10.203125 -2.109375 0 -2.109375 0 -2.109375 Z M 0 -2.109375 "/>
</g>
<g id="glyph-4-0-8ab9bb74">
<path d="M -0.03125 -7.484375 C 0.0625 -7.109375 0.09375 -6.9375 0.09375 -6.6875 C 0.09375 -6.125 -0.3125 -5.609375 -0.875 -5.484375 C -0.1875 -4.84375 0.203125 -3.9375 0.203125 -3 C 0.203125 -1.515625 -0.578125 -0.59375 -1.90625 -0.59375 C -2.796875 -0.59375 -3.453125 -1.015625 -3.8125 -1.875 C -3.984375 -2.328125 -4.046875 -2.578125 -4.25 -4.234375 C -4.375 -5.15625 -4.578125 -5.453125 -5.0625 -5.453125 C -5.0625 -5.453125 -5.375 -5.453125 -5.375 -5.453125 C -6.078125 -5.453125 -6.46875 -4.859375 -6.46875 -3.8125 C -6.46875 -2.71875 -6.0625 -2.1875 -5.171875 -2.09375 C -5.171875 -2.09375 -5.171875 -0.90625 -5.171875 -0.90625 C -6.859375 -0.984375 -7.546875 -2.078125 -7.546875 -3.84375 C -7.546875 -5.65625 -6.84375 -6.609375 -5.546875 -6.609375 C -5.546875 -6.609375 -1.453125 -6.609375 -1.453125 -6.609375 C -1.09375 -6.609375 -0.875 -6.828125 -0.875 -7.234375 C -0.875 -7.3125 -0.875 -7.359375 -0.90625 -7.484375 C -0.90625 -7.484375 -0.03125 -7.484375 -0.03125 -7.484375 Z M -2.53125 -5.453125 C -2.53125 -5.453125 -3.625 -5.453125 -3.625 -5.453125 C -3.4375 -5.046875 -3.390625 -4.796875 -3.21875 -3.5625 C -3.03125 -2.328125 -2.703125 -1.8125 -1.9375 -1.8125 C -1.140625 -1.8125 -0.8125 -2.34375 -0.8125 -3.25 C -0.8125 -4.375 -1.484375 -5.453125 -2.53125 -5.453125 Z M -2.53125 -5.453125 "/>
</g>
<g id="glyph-5-0-8ab9bb74">
<path d="M 0 -3.5625 C 0.0625 -3.15625 0.09375 -2.890625 0.09375 -2.609375 C 0.09375 -1.6875 -0.328125 -1.1875 -1.0625 -1.1875 C -1.0625 -1.1875 -6.390625 -1.1875 -6.390625 -1.1875 C -6.390625 -1.1875 -6.390625 -0.203125 -6.390625 -0.203125 C -6.390625 -0.203125 -7.34375 -0.203125 -7.34375 -0.203125 C -7.34375 -0.203125 -7.34375 -1.1875 -7.34375 -1.1875 C -7.34375 -1.1875 -9.359375 -1.1875 -9.359375 -1.1875 C -9.359375 -1.1875 -9.359375 -2.359375 -9.359375 -2.359375 C -9.359375 -2.359375 -7.34375 -2.359375 -7.34375 -2.359375 C -7.34375 -2.359375 -7.34375 -3.5625 -7.34375 -3.5625 C -7.34375 -3.5625 -6.390625 -3.5625 -6.390625 -3.5625 C -6.390625 -3.5625 -6.390625 -2.359375 -6.390625 -2.359375 C -6.390625 -2.359375 -1.578125 -2.359375 -1.578125 -2.359375 C -1.0625 -2.359375 -0.921875 -2.484375 -0.921875 -3 C -0.921875 -3.21875 -0.9375 -3.40625 -0.984375 -3.5625 C -0.984375 -3.5625 0 -3.5625 0 -3.5625 Z M 0 -3.5625 "/>
</g>
<g id="glyph-5-1-8ab9bb74">
<path d="M -6.3125 -4.5 C -6.28125 -2.6875 -5.453125 -2.140625 -3.8125 -2.140625 C -3.8125 -2.140625 0 -2.140625 0 -2.140625 C 0 -2.140625 0 -0.984375 0 -0.984375 C 0 -0.984375 -7.34375 -0.984375 -7.34375 -0.984375 C -7.34375 -0.984375 -7.34375 -2.046875 -7.34375 -2.046875 C -7.34375 -2.046875 -6 -2.046875 -6 -2.046875 C -7.09375 -2.71875 -7.546875 -3.296875 -7.546875 -4.046875 C -7.546875 -4.203125 -7.53125 -4.296875 -7.5 -4.5 C -7.5 -4.5 -6.3125 -4.5 -6.3125 -4.5 Z M -6.3125 -4.5 "/>
</g>
<g id="glyph-5-2-8ab9bb74">
<path d="M -3.75 -7.328125 C -1.375 -7.328125 0.203125 -6.0625 0.203125 -4.125 C 0.203125 -3.109375 -0.203125 -2.359375 -1.046875 -1.8125 C -1.046875 -1.8125 0 -1.8125 0 -1.8125 C 0 -1.8125 0 -0.75 0 -0.75 C 0 -0.75 -10.203125 -0.75 -10.203125 -0.75 C -10.203125 -0.75 -10.203125 -1.921875 -10.203125 -1.921875 C -10.203125 -1.921875 -6.34375 -1.921875 -6.34375 -1.921875 C -7.171875 -2.46875 -7.546875 -3.171875 -7.546875 -4.1875 C -7.546875 -6.125 -6.125 -7.328125 -3.75 -7.328125 Z M -3.6875 -6.109375 C -5.3125 -6.109375 -6.453125 -5.265625 -6.453125 -3.96875 C -6.515625 -2.734375 -5.390625 -1.921875 -3.671875 -1.921875 C -2 -1.921875 -0.875 -2.734375 -0.875 -3.96875 C -0.875 -5.234375 -2.015625 -6.109375 -3.6875 -6.109375 Z M -3.6875 -6.109375 "/>
</g>
<g id="glyph-5-3-8ab9bb74">
<path d="M -7.015625 -7.15625 C -5.796875 -7.15625 -4.765625 -6.4375 -4.015625 -5.046875 C -4.015625 -5.046875 -3.265625 -3.65625 -3.265625 -3.65625 C -2.546875 -2.4375 -2.03125 -1.984375 -1.21875 -1.859375 C -1.21875 -1.859375 -1.21875 -7.078125 -1.21875 -7.078125 C -1.21875 -7.078125 0 -7.078125 0 -7.078125 C 0 -7.078125 0 -0.46875 0 -0.46875 C -2.1875 -0.59375 -3.125 -1.1875 -4.296875 -3.265625 C -4.296875 -3.265625 -5.03125 -4.546875 -5.03125 -4.546875 C -5.53125 -5.4375 -6.203125 -5.890625 -6.984375 -5.890625 C -8.046875 -5.890625 -8.84375 -5.046875 -8.84375 -3.9375 C -8.84375 -2.71875 -8.140625 -2.03125 -6.484375 -1.9375 C -6.484375 -1.9375 -6.484375 -0.703125 -6.484375 -0.703125 C -8.890625 -0.765625 -9.921875 -1.953125 -9.921875 -3.96875 C -9.921875 -5.859375 -8.6875 -7.15625 -7.015625 -7.15625 Z M -7.015625 -7.15625 "/>
</g>
<g id="glyph-6-0-8ab9bb74">
<path d="M 0 -6.8125 C 0 -6.8125 0 -5.65625 0 -5.65625 C 0 -5.65625 -5.078125 -5.65625 -5.078125 -5.65625 C -5.96875 -5.65625 -6.53125 -5.0625 -6.53125 -4.140625 C -6.53125 -2.953125 -5.546875 -2.140625 -4.046875 -2.140625 C -4.046875 -2.140625 0 -2.140625 0 -2.140625 C 0 -2.140625 0 -0.984375 0 -0.984375 C 0 -0.984375 -7.34375 -0.984375 -7.34375 -0.984375 C -7.34375 -0.984375 -7.34375 -2.0625 -7.34375 -2.0625 C -7.34375 -2.0625 -6.109375 -2.0625 -6.109375 -2.0625 C -7.125 -2.703125 -7.546875 -3.40625 -7.546875 -4.5 C -7.546875 -5.90625 -6.765625 -6.8125 -5.546875 -6.8125 C -5.546875 -6.8125 0 -6.8125 0 -6.8125 Z M 0 -6.8125 "/>
</g>
<g id="glyph-6-1-8ab9bb74">
<path d="M -0.03125 -7.484375 C 0.0625 -7.109375 0.09375 -6.9375 0.09375 -6.6875 C 0.09375 -6.125 -0.3125 -5.609375 -0.875 -5.484375 C -0.1875 -4.84375 0.203125 -3.9375 0.203125 -3 C 0.203125 -1.515625 -0.578125 -0.59375 -1.90625 -0.59375 C -2.796875 -0.59375 -3.453125 -1.015625 -3.8125 -1.875 C -3.984375 -2.328125 -4.046875 -2.578125 -4.25 -4.234375 C -4.375 -5.15625 -4.578125 -5.453125 -5.0625 -5.453125 C -5.0625 -5.453125 -5.375 -5.453125 -5.375 -5.453125 C -6.078125 -5.453125 -6.46875 -4.859375 -6.46875 -3.8125 C -6.46875 -2.71875 -6.0625 -2.1875 -5.171875 -2.09375 C -5.171875 -2.09375 -5.171875 -0.90625 -5.171875 -0.90625 C -6.859375 -0.984375 -7.546875 -2.078125 -7.546875 -3.84375 C -7.546875 -5.65625 -6.84375 -6.609375 -5.546875 -6.609375 C -5.546875 -6.609375 -1.453125 -6.609375 -1.453125 -6.609375 C -1.09375 -6.609375 -0.875 -6.828125 -0.875 -7.234375 C -0.875 -7.3125 -0.875 -7.359375 -0.90625 -7.484375 C -0.90625 -7.484375 -0.03125 -7.484375 -0.03125 -7.484375 Z M -2.53125 -5.453125 C -2.53125 -5.453125 -3.625 -5.453125 -3.625 -5.453125 C -3.4375 -5.046875 -3.390625 -4.796875 -3.21875 -3.5625 C -3.03125 -2.328125 -2.703125 -1.8125 -1.9375 -1.8125 C -1.140625 -1.8125 -0.8125 -2.34375 -0.8125 -3.25 C -0.8125 -4.375 -1.484375 -5.453125 -2.53125 -5.453125 Z M -2.53125 -5.453125 "/>
</g>
<g id="glyph-6-2-8ab9bb74">
</g>
<g id="glyph-7-0-8ab9bb74">
<path d="M -0.03125 -7.484375 C 0.0625 -7.109375 0.09375 -6.9375 0.09375 -6.6875 C 0.09375 -6.125 -0.3125 -5.609375 -0.875 -5.484375 C -0.1875 -4.84375 0.203125 -3.9375 0.203125 -3 C 0.203125 -1.515625 -0.578125 -0.59375 -1.90625 -0.59375 C -2.796875 -0.59375 -3.453125 -1.015625 -3.8125 -1.875 C -3.984375 -2.328125 -4.046875 -2.578125 -4.25 -4.234375 C -4.375 -5.15625 -4.578125 -5.453125 -5.0625 -5.453125 C -5.0625 -5.453125 -5.375 -5.453125 -5.375 -5.453125 C -6.078125 -5.453125 -6.46875 -4.859375 -6.46875 -3.8125 C -6.46875 -2.71875 -6.0625 -2.1875 -5.171875 -2.09375 C -5.171875 -2.09375 -5.171875 -0.90625 -5.171875 -0.90625 C -6.859375 -0.984375 -7.546875 -2.078125 -7.546875 -3.84375 C -7.546875 -5.65625 -6.84375 -6.609375 -5.546875 -6.609375 C -5.546875 -6.609375 -1.453125 -6.609375 -1.453125 -6.609375 C -1.09375 -6.609375 -0.875 -6.828125 -0.875 -7.234375 C -0.875 -7.3125 -0.875 -7.359375 -0.90625 -7.484375 C -0.90625 -7.484375 -0.03125 -7.484375 -0.03125 -7.484375 Z M -2.53125 -5.453125 C -2.53125 -5.453125 -3.625 -5.453125 -3.625 -5.453125 C -3.4375 -5.046875 -3.390625 -4.796875 -3.21875 -3.5625 C -3.03125 -2.328125 -2.703125 -1.8125 -1.9375 -1.8125 C -1.140625 -1.8125 -0.8125 -2.34375 -0.8125 -3.25 C -0.8125 -4.375 -1.484375 -5.453125 -2.53125 -5.453125 Z M -2.53125 -5.453125 "/>
</g>
<g id="glyph-8-0-8ab9bb74">
<path d="M 9.59375 -3.484375 C 9.46875 -1.140625 7.765625 0.171875 5.234375 0.171875 C 2.390625 0.171875 0.609375 -1.8125 0.609375 -5.09375 C 0.609375 -8.40625 2.40625 -10.375 5.296875 -10.375 C 7.59375 -10.375 9.359375 -9.09375 9.546875 -6.75 C 9.546875 -6.75 7.546875 -6.75 7.546875 -6.75 C 7.234375 -8.0625 6.5 -8.578125 5.359375 -8.578125 C 3.703125 -8.578125 2.71875 -7.328125 2.71875 -5.0625 C 2.71875 -2.84375 3.671875 -1.59375 5.296875 -1.59375 C 6.59375 -1.59375 7.421875 -2.1875 7.546875 -3.484375 C 7.546875 -3.484375 9.59375 -3.484375 9.59375 -3.484375 Z M 9.59375 -3.484375 "/>
</g>
<g id="glyph-8-1-8ab9bb74">
<path d="M 8.859375 -7.046875 C 8.859375 -4.96875 7.65625 -3.640625 5.78125 -3.640625 C 5.78125 -3.640625 3.15625 -3.640625 3.15625 -3.640625 C 3.15625 -3.640625 3.15625 0 3.15625 0 C 3.15625 0 1.0625 0 1.0625 0 C 1.0625 0 1.0625 -10.203125 1.0625 -10.203125 C 1.0625 -10.203125 5.578125 -10.203125 5.578125 -10.203125 C 7.703125 -10.203125 8.859375 -9.09375 8.859375 -7.046875 Z M 6.765625 -6.921875 C 6.765625 -7.96875 6.25 -8.453125 5.125 -8.453125 C 5.125 -8.453125 3.15625 -8.453125 3.15625 -8.453125 C 3.15625 -8.453125 3.15625 -5.390625 3.15625 -5.390625 C 3.15625 -5.390625 5.125 -5.390625 5.125 -5.390625 C 6.25 -5.390625 6.765625 -5.875 6.765625 -6.921875 Z M 6.765625 -6.921875 "/>
</g>
<g id="glyph-8-2-8ab9bb74">
<path d="M 8.109375 0 C 8.109375 0 1.125 0 1.125 0 C 1.125 0 1.125 -10.203125 1.125 -10.203125 C 1.125 -10.203125 3.21875 -10.203125 3.21875 -10.203125 C 3.21875 -10.203125 3.21875 -1.75 3.21875 -1.75 C 3.21875 -1.75 8.109375 -1.75 8.109375 -1.75 C 8.109375 -1.75 8.109375 0 8.109375 0 Z M 8.109375 0 "/>
</g>
<g id="glyph-8-3-8ab9bb74">
<path d="M 8.859375 -3.0625 C 8.859375 -1 7.3125 0.171875 4.671875 0.171875 C 2.078125 0.171875 0.453125 -1.015625 0.453125 -3.203125 C 0.453125 -3.203125 2.484375 -3.203125 2.484375 -3.203125 C 2.484375 -2.109375 3.359375 -1.515625 4.78125 -1.515625 C 6.0625 -1.515625 6.84375 -1.953125 6.84375 -2.8125 C 6.84375 -3.640625 6.328125 -3.9375 4.921875 -4.21875 C 4.921875 -4.21875 3.5 -4.5 3.5 -4.5 C 1.421875 -4.90625 0.625 -5.640625 0.625 -7.234375 C 0.625 -9.21875 2.046875 -10.375 4.5 -10.375 C 6.984375 -10.375 8.5 -9.25 8.5 -7.09375 C 8.5 -7.09375 6.53125 -7.09375 6.53125 -7.09375 C 6.53125 -8.140625 5.71875 -8.6875 4.390625 -8.6875 C 3.3125 -8.6875 2.625 -8.203125 2.625 -7.4375 C 2.625 -6.6875 3.0625 -6.390625 4.5625 -6.109375 C 4.5625 -6.109375 6.15625 -5.796875 6.15625 -5.796875 C 8.046875 -5.4375 8.859375 -4.671875 8.859375 -3.0625 Z M 8.859375 -3.0625 "/>
</g>
<g id="glyph-8-4-8ab9bb74">
<path d="M 4.171875 -2.890625 C 4.171875 -2.890625 0.359375 -2.890625 0.359375 -2.890625 C 0.359375 -2.890625 0.359375 -4.78125 0.359375 -4.78125 C 0.359375 -4.78125 4.171875 -4.78125 4.171875 -4.78125 C 4.171875 -4.78125 4.171875 -2.890625 4.171875 -2.890625 Z M 4.171875 -2.890625 "/>
</g>
<g id="glyph-8-5-8ab9bb74">
<path d="M 9.53125 -5.109375 C 9.53125 -3.53125 9.09375 -2.140625 8.28125 -1.1875 C 7.59375 -0.359375 6.625 0 5.0625 0 C 5.0625 0 1.078125 0 1.078125 0 C 1.078125 0 1.078125 -10.203125 1.078125 -10.203125 C 1.078125 -10.203125 5.0625 -10.203125 5.0625 -10.203125 C 6.640625 -10.203125 7.609375 -9.859375 8.28125 -9.03125 C 9.09375 -8.0625 9.53125 -6.671875 9.53125 -5.109375 Z M 7.4375 -5.09375 C 7.4375 -7.34375 6.65625 -8.453125 5.0625 -8.453125 C 5.0625 -8.453125 3.171875 -8.453125 3.171875 -8.453125 C 3.171875 -8.453125 3.171875 -1.75 3.171875 -1.75 C 3.171875 -1.75 5.0625 -1.75 5.0625 -1.75 C 6.65625 -1.75 7.4375 -2.859375 7.4375 -5.09375 Z M 7.4375 -5.09375 "/>
</g>
<g id="glyph-8-6-8ab9bb74">
<path d="M 9.84375 0 C 9.84375 0 7.6875 0 7.6875 0 C 7.6875 0 7.015625 -2.0625 7.015625 -2.0625 C 7.015625 -2.0625 3.1875 -2.0625 3.1875 -2.0625 C 3.1875 -2.0625 2.5 0 2.5 0 C 2.5 0 0.359375 0 0.359375 0 C 0.359375 0 3.984375 -10.203125 3.984375 -10.203125 C 3.984375 -10.203125 6.3125 -10.203125 6.3125 -10.203125 C 6.3125 -10.203125 9.84375 0 9.84375 0 Z M 6.4375 -3.8125 C 6.4375 -3.8125 5.109375 -7.796875 5.109375 -7.796875 C 5.109375 -7.796875 3.78125 -3.8125 3.78125 -3.8125 C 3.78125 -3.8125 6.4375 -3.8125 6.4375 -3.8125 Z M 6.4375 -3.8125 "/>
</g>
<g id="glyph-8-7-8ab9bb74">
<path d="M 7.3125 -2.625 C 7.125 -1.015625 5.859375 0.125 4.015625 0.125 C 1.78125 0.125 0.46875 -1.234375 0.46875 -3.71875 C 0.46875 -6.296875 1.796875 -7.6875 4.046875 -7.6875 C 5.9375 -7.6875 7.171875 -6.578125 7.3125 -4.734375 C 7.3125 -4.734375 5.4375 -4.734375 5.4375 -4.734375 C 5.203125 -5.71875 4.828125 -6.109375 4.03125 -6.109375 C 2.796875 -6.109375 2.4375 -5.109375 2.4375 -3.71875 C 2.4375 -2.25 3.03125 -1.453125 4.03125 -1.453125 C 4.78125 -1.453125 5.1875 -1.828125 5.4375 -2.625 C 5.4375 -2.625 7.3125 -2.625 7.3125 -2.625 Z M 7.3125 -2.625 "/>
</g>
<g id="glyph-8-8-8ab9bb74">
<path d="M 7.96875 -3.71875 C 7.96875 -1.296875 6.53125 0.125 4.234375 0.125 C 1.90625 0.125 0.484375 -1.28125 0.484375 -3.78125 C 0.484375 -6.265625 1.90625 -7.6875 4.21875 -7.6875 C 6.578125 -7.6875 7.96875 -6.28125 7.96875 -3.71875 Z M 6 -3.75 C 6 -5.234375 5.3125 -6.109375 4.234375 -6.109375 C 3.15625 -6.109375 2.453125 -5.21875 2.453125 -3.78125 C 2.453125 -2.34375 3.15625 -1.453125 4.234375 -1.453125 C 5.28125 -1.453125 6 -2.34375 6 -3.75 Z M 6 -3.75 "/>
</g>
<g id="glyph-8-9-8ab9bb74">
<path d="M 5.1875 -5.6875 C 4.90625 -5.71875 4.78125 -5.734375 4.5625 -5.734375 C 3.421875 -5.734375 2.84375 -5.171875 2.84375 -4.015625 C 2.84375 -4.015625 2.84375 0 2.84375 0 C 2.84375 0 0.875 0 0.875 0 C 0.875 0 0.875 -7.5625 0.875 -7.5625 C 0.875 -7.5625 2.84375 -7.5625 2.84375 -7.5625 C 2.84375 -7.5625 2.84375 -6.078125 2.84375 -6.078125 C 3.265625 -7.09375 4.046875 -7.6875 4.9375 -7.6875 C 5 -7.6875 5.0625 -7.6875 5.1875 -7.671875 C 5.1875 -7.671875 5.1875 -5.6875 5.1875 -5.6875 Z M 5.1875 -5.6875 "/>
</g>
<g id="glyph-8-10-8ab9bb74">
<path d="M 7.34375 -3.5 C 7.34375 -3.5 7.34375 -3.265625 7.34375 -3.265625 C 7.34375 -3.265625 2.265625 -3.265625 2.265625 -3.265625 C 2.328125 -1.796875 2.90625 -1.375 3.84375 -1.375 C 4.546875 -1.375 5.171875 -1.578125 5.328125 -2.125 C 5.328125 -2.125 7.265625 -2.125 7.265625 -2.125 C 6.828125 -0.640625 5.453125 0.125 3.765625 0.125 C 1.625 0.125 0.3125 -1.265625 0.3125 -3.6875 C 0.3125 -6.21875 1.640625 -7.6875 3.8125 -7.6875 C 6.03125 -7.6875 7.34375 -6.109375 7.34375 -3.5 Z M 5.3125 -4.5625 C 5.203125 -5.640625 4.625 -6.1875 3.78125 -6.1875 C 2.90625 -6.1875 2.421875 -5.609375 2.296875 -4.5625 C 2.296875 -4.5625 5.3125 -4.5625 5.3125 -4.5625 Z M 5.3125 -4.5625 "/>
</g>
<g id="glyph-8-11-8ab9bb74">
<path d="M 7.28125 -2.234375 C 7.28125 -0.71875 6.109375 0.125 3.96875 0.125 C 1.6875 0.125 0.46875 -0.734375 0.40625 -2.390625 C 0.40625 -2.390625 2.328125 -2.390625 2.328125 -2.390625 C 2.484375 -1.578125 2.96875 -1.40625 3.859375 -1.40625 C 4.78125 -1.40625 5.3125 -1.59375 5.3125 -2.0625 C 5.3125 -2.265625 5.15625 -2.421875 4.65625 -2.578125 C 4.65625 -2.578125 2.328125 -3.296875 2.328125 -3.296875 C 0.921875 -3.734375 0.671875 -4.234375 0.671875 -5.171875 C 0.671875 -6.71875 1.859375 -7.6875 3.78125 -7.6875 C 5.8125 -7.6875 7.046875 -6.71875 7.0625 -5.125 C 7.0625 -5.125 5.1875 -5.125 5.1875 -5.125 C 5.171875 -5.8125 4.703125 -6.140625 3.765625 -6.140625 C 3.078125 -6.140625 2.625 -5.859375 2.625 -5.453125 C 2.625 -5.140625 2.765625 -5.015625 3.3125 -4.859375 C 3.3125 -4.859375 5.796875 -4.140625 5.796875 -4.140625 C 6.796875 -3.84375 7.28125 -3.203125 7.28125 -2.34375 C 7.28125 -2.34375 7.28125 -2.234375 7.28125 -2.234375 Z M 7.28125 -2.234375 "/>
</g>
<g id="glyph-8-12-8ab9bb74">
</g>
<g id="glyph-8-13-8ab9bb74">
<path d="M 4.375 -6.109375 C 4.375 -6.109375 3.21875 -6.109375 3.21875 -6.109375 C 3.21875 -6.109375 3.21875 0 3.21875 0 C 3.21875 0 1.265625 0 1.265625 0 C 1.265625 0 1.265625 -6.109375 1.265625 -6.109375 C 1.265625 -6.109375 0.203125 -6.109375 0.203125 -6.109375 C 0.203125 -6.109375 0.203125 -7.40625 0.203125 -7.40625 C 0.203125 -7.40625 1.265625 -7.40625 1.265625 -7.40625 C 1.265625 -7.40625 1.265625 -8.3125 1.265625 -8.3125 C 1.265625 -9.59375 1.890625 -10.203125 3.1875 -10.203125 C 3.453125 -10.203125 3.953125 -10.1875 4.3125 -10.15625 C 4.3125 -10.15625 4.3125 -8.6875 4.3125 -8.6875 C 4.140625 -8.71875 3.921875 -8.734375 3.75 -8.734375 C 3.390625 -8.734375 3.21875 -8.546875 3.21875 -8.140625 C 3.21875 -8.140625 3.21875 -7.40625 3.21875 -7.40625 C 3.21875 -7.40625 4.375 -7.40625 4.375 -7.40625 C 4.375 -7.40625 4.375 -6.109375 4.375 -6.109375 Z M 4.375 -6.109375 "/>
</g>
<g id="glyph-8-14-8ab9bb74">
<path d="M 11.53125 0 C 11.53125 0 9.578125 0 9.578125 0 C 9.578125 0 9.578125 -5.046875 9.578125 -5.046875 C 9.578125 -5.640625 9.171875 -6.015625 8.515625 -6.015625 C 7.671875 -6.015625 7.171875 -5.453125 7.171875 -4.53125 C 7.171875 -4.53125 7.171875 0 7.171875 0 C 7.171875 0 5.203125 0 5.203125 0 C 5.203125 0 5.203125 -5.046875 5.203125 -5.046875 C 5.203125 -5.640625 4.796875 -6.015625 4.140625 -6.015625 C 3.296875 -6.015625 2.796875 -5.453125 2.796875 -4.53125 C 2.796875 -4.53125 2.796875 0 2.796875 0 C 2.796875 0 0.84375 0 0.84375 0 C 0.84375 0 0.84375 -7.5625 0.84375 -7.5625 C 0.84375 -7.5625 2.78125 -7.5625 2.78125 -7.5625 C 2.78125 -7.5625 2.78125 -6.625 2.78125 -6.625 C 3.4375 -7.390625 3.984375 -7.6875 4.859375 -7.6875 C 5.796875 -7.6875 6.546875 -7.28125 6.921875 -6.5625 C 7.5 -7.34375 8.171875 -7.6875 9.125 -7.6875 C 10.640625 -7.6875 11.53125 -6.8125 11.53125 -5.34375 C 11.53125 -5.34375 11.53125 0 11.53125 0 Z M 11.53125 0 "/>
</g>
<g id="glyph-8-15-8ab9bb74">
<path d="M 7.34375 0 C 7.34375 0 5.203125 0 5.203125 0 C 5.03125 -0.21875 4.984375 -0.5625 4.984375 -0.953125 C 4.296875 -0.234375 3.53125 0.125 2.6875 0.125 C 1.421875 0.125 0.390625 -0.578125 0.390625 -2.046875 C 0.390625 -3.421875 1.125 -4.0625 2.625 -4.328125 C 2.625 -4.328125 3.40625 -4.46875 3.40625 -4.46875 C 4.375 -4.640625 4.96875 -4.546875 4.96875 -5.34375 C 4.96875 -5.859375 4.59375 -6.109375 3.84375 -6.109375 C 2.875 -6.109375 2.546875 -5.859375 2.453125 -5.0625 C 2.453125 -5.0625 0.5625 -5.0625 0.5625 -5.0625 C 0.6875 -6.8125 1.75 -7.6875 3.796875 -7.6875 C 5.84375 -7.6875 6.890625 -6.90625 6.890625 -5.359375 C 6.890625 -5.359375 6.890625 -1.15625 6.890625 -1.15625 C 6.890625 -0.765625 6.984375 -0.5625 7.34375 -0.234375 C 7.34375 -0.234375 7.34375 0 7.34375 0 Z M 4.96875 -3.234375 C 4.96875 -3.234375 4.96875 -3.5625 4.96875 -3.5625 C 4.75 -3.453125 4.65625 -3.4375 4.140625 -3.328125 C 4.140625 -3.328125 3.46875 -3.203125 3.46875 -3.203125 C 2.65625 -3.046875 2.359375 -2.84375 2.359375 -2.265625 C 2.359375 -1.703125 2.765625 -1.453125 3.421875 -1.453125 C 4.40625 -1.453125 4.96875 -2.09375 4.96875 -3.234375 Z M 4.96875 -3.234375 "/>
</g>
<g id="glyph-8-16-8ab9bb74">
<path d="M 7.640625 0 C 7.640625 0 5.6875 0 5.6875 0 C 5.6875 0 5.6875 -4.65625 5.6875 -4.65625 C 5.6875 -5.5625 5.265625 -6.015625 4.421875 -6.015625 C 3.46875 -6.015625 2.84375 -5.4375 2.84375 -4.53125 C 2.84375 -4.53125 2.84375 0 2.84375 0 C 2.84375 0 0.875 0 0.875 0 C 0.875 0 0.875 -7.5625 0.875 -7.5625 C 0.875 -7.5625 2.84375 -7.5625 2.84375 -7.5625 C 2.84375 -7.5625 2.84375 -6.46875 2.84375 -6.46875 C 3.40625 -7.3125 4.09375 -7.6875 5.109375 -7.6875 C 6.71875 -7.6875 7.640625 -6.734375 7.640625 -5.0625 C 7.640625 -5.0625 7.640625 0 7.640625 0 Z M 7.640625 0 "/>
</g>
<g id="glyph-8-17-8ab9bb74">
<path d="M 2.890625 0 C 2.890625 0 0.9375 0 0.9375 0 C 0.9375 0 0.9375 -7.5625 0.9375 -7.5625 C 0.9375 -7.5625 2.890625 -7.5625 2.890625 -7.5625 C 2.890625 -7.5625 2.890625 0 2.890625 0 Z M 2.921875 -8.46875 C 2.921875 -8.46875 0.96875 -8.46875 0.96875 -8.46875 C 0.96875 -8.46875 0.96875 -10.4375 0.96875 -10.4375 C 0.96875 -10.4375 2.921875 -10.4375 2.921875 -10.4375 C 2.921875 -10.4375 2.921875 -8.46875 2.921875 -8.46875 Z M 2.921875 -8.46875 "/>
</g>
<g id="glyph-8-18-8ab9bb74">
<path d="M 7.5 -7.5625 C 7.5 -7.5625 4.90625 0 4.90625 0 C 4.90625 0 2.84375 0 2.84375 0 C 2.84375 0 0.203125 -7.5625 0.203125 -7.5625 C 0.203125 -7.5625 2.265625 -7.5625 2.265625 -7.5625 C 2.265625 -7.5625 3.90625 -2.03125 3.90625 -2.03125 C 3.90625 -2.03125 5.4375 -7.5625 5.4375 -7.5625 C 5.4375 -7.5625 7.5 -7.5625 7.5 -7.5625 Z M 7.5 -7.5625 "/>
</g>
<g id="glyph-8-19-8ab9bb74">
<path d="M 7.609375 3.046875 C 7.609375 3.046875 5.65625 3.046875 5.65625 3.046875 C 5.65625 3.046875 5.65625 -1.015625 5.65625 -1.015625 C 5.1875 -0.1875 4.5 0.125 3.546875 0.125 C 1.609375 0.125 0.390625 -1.515625 0.390625 -3.78125 C 0.390625 -6.09375 1.734375 -7.6875 3.5625 -7.6875 C 4.5 -7.6875 5.1875 -7.265625 5.65625 -6.4375 C 5.65625 -6.4375 5.65625 -7.5625 5.65625 -7.5625 C 5.65625 -7.5625 7.609375 -7.5625 7.609375 -7.5625 C 7.609375 -7.5625 7.609375 3.046875 7.609375 3.046875 Z M 5.65625 -3.734375 C 5.65625 -5.203125 5 -6.046875 4 -6.046875 C 3.03125 -6.046875 2.359375 -5.1875 2.359375 -3.78125 C 2.359375 -2.359375 3.03125 -1.515625 4 -1.515625 C 4.984375 -1.515625 5.65625 -2.359375 5.65625 -3.734375 Z M 5.65625 -3.734375 "/>
</g>
<g id="glyph-8-20-8ab9bb74">
<path d="M 7.578125 0 C 7.578125 0 5.609375 0 5.609375 0 C 5.609375 0 5.609375 -1 5.609375 -1 C 5.046875 -0.25 4.375 0.125 3.34375 0.125 C 1.734375 0.125 0.8125 -0.828125 0.8125 -2.484375 C 0.8125 -2.484375 0.8125 -7.5625 0.8125 -7.5625 C 0.8125 -7.5625 2.765625 -7.5625 2.765625 -7.5625 C 2.765625 -7.5625 2.765625 -2.890625 2.765625 -2.890625 C 2.765625 -1.984375 3.1875 -1.546875 4.03125 -1.546875 C 4.984375 -1.546875 5.609375 -2.125 5.609375 -3.03125 C 5.609375 -3.03125 5.609375 -7.5625 5.609375 -7.5625 C 5.609375 -7.5625 7.578125 -7.5625 7.578125 -7.5625 C 7.578125 -7.5625 7.578125 0 7.578125 0 Z M 7.578125 0 "/>
</g>
<g id="glyph-8-21-8ab9bb74">
<path d="M 7.53125 -7.5625 C 7.53125 -7.5625 4.421875 1.390625 4.421875 1.390625 C 3.90625 2.828125 3.21875 3.0625 1.90625 3.0625 C 1.671875 3.0625 1.5 3.046875 1.203125 3.015625 C 1.203125 3.015625 1.203125 1.546875 1.203125 1.546875 C 1.453125 1.609375 1.5625 1.625 1.71875 1.625 C 2.40625 1.625 2.9375 1.078125 2.9375 0.359375 C 2.9375 0.359375 2.9375 0.328125 2.9375 0.328125 C 2.9375 0.328125 0.125 -7.5625 0.125 -7.5625 C 0.125 -7.5625 2.28125 -7.5625 2.28125 -7.5625 C 2.28125 -7.5625 3.953125 -2.0625 3.953125 -2.0625 C 3.953125 -2.0625 5.515625 -7.5625 5.515625 -7.5625 C 5.515625 -7.5625 7.53125 -7.5625 7.53125 -7.5625 Z M 7.53125 -7.5625 "/>
</g>
<g id="glyph-8-22-8ab9bb74">
<path d="M 10.71875 -7.5625 C 10.71875 -7.5625 8.578125 0 8.578125 0 C 8.578125 0 6.546875 0 6.546875 0 C 6.546875 0 5.421875 -5.328125 5.421875 -5.328125 C 5.421875 -5.328125 4.21875 0 4.21875 0 C 4.21875 0 2.203125 0 2.203125 0 C 2.203125 0 0.0625 -7.5625 0.0625 -7.5625 C 0.0625 -7.5625 2.09375 -7.5625 2.09375 -7.5625 C 2.09375 -7.5625 3.296875 -2.265625 3.296875 -2.265625 C 3.296875 -2.265625 4.453125 -7.5625 4.453125 -7.5625 C 4.453125 -7.5625 6.40625 -7.5625 6.40625 -7.5625 C 6.40625 -7.5625 7.546875 -2.265625 7.546875 -2.265625 C 7.546875 -2.265625 8.6875 -7.5625 8.6875 -7.5625 C 8.6875 -7.5625 10.71875 -7.5625 10.71875 -7.5625 Z M 10.71875 -7.5625 "/>
</g>
<g id="glyph-8-23-8ab9bb74">
<path d="M 7.578125 0.25 C 7.578125 2.03125 6.265625 3.046875 3.96875 3.046875 C 1.90625 3.046875 0.65625 2.140625 0.625 0.90625 C 0.625 0.90625 2.65625 0.90625 2.65625 0.90625 C 2.8125 1.484375 3.296875 1.796875 4.046875 1.796875 C 5.03125 1.796875 5.71875 1.15625 5.71875 0.25 C 5.71875 0.25 5.71875 -0.875 5.71875 -0.875 C 4.984375 -0.140625 4.453125 0.125 3.5625 0.125 C 1.703125 0.125 0.46875 -1.34375 0.46875 -3.703125 C 0.46875 -6.03125 1.8125 -7.6875 3.609375 -7.6875 C 4.484375 -7.6875 5.125 -7.296875 5.71875 -6.390625 C 5.71875 -6.390625 5.71875 -7.5625 5.71875 -7.5625 C 5.71875 -7.5625 7.578125 -7.5625 7.578125 -7.5625 C 7.578125 -7.5625 7.578125 0.25 7.578125 0.25 Z M 5.734375 -3.71875 C 5.734375 -5.125 5.015625 -6.046875 4.03125 -6.046875 C 3.078125 -6.046875 2.4375 -5.15625 2.4375 -3.71875 C 2.4375 -2.359375 3.078125 -1.515625 4 -1.515625 C 5.03125 -1.515625 5.734375 -2.359375 5.734375 -3.71875 Z M 5.734375 -3.71875 "/>
</g>
<g id="glyph-8-24-8ab9bb74">
<path d="M 7.578125 0 C 7.578125 0 5.609375 0 5.609375 0 C 5.609375 0 5.609375 -4.625 5.609375 -4.625 C 5.609375 -5.640625 5.109375 -6.015625 4.40625 -6.015625 C 3.53125 -6.015625 2.890625 -5.40625 2.890625 -4.53125 C 2.890625 -4.53125 2.890625 0 2.890625 0 C 2.890625 0 0.9375 0 0.9375 0 C 0.9375 0 0.9375 -10.203125 0.9375 -10.203125 C 0.9375 -10.203125 2.890625 -10.203125 2.890625 -10.203125 C 2.890625 -10.203125 2.890625 -6.46875 2.890625 -6.46875 C 3.4375 -7.296875 4.140625 -7.6875 5.109375 -7.6875 C 6.53125 -7.6875 7.578125 -6.828125 7.578125 -5.0625 C 7.578125 -5.0625 7.578125 0 7.578125 0 Z M 7.578125 0 "/>
</g>
<g id="glyph-8-25-8ab9bb74">
<path d="M 4.21875 0 C 3.859375 0.015625 3.515625 0.0625 3.078125 0.0625 C 1.796875 0.0625 1.15625 -0.4375 1.15625 -1.625 C 1.15625 -1.625 1.15625 -6.109375 1.15625 -6.109375 C 1.15625 -6.109375 0.203125 -6.109375 0.203125 -6.109375 C 0.203125 -6.109375 0.203125 -7.40625 0.203125 -7.40625 C 0.203125 -7.40625 1.15625 -7.40625 1.15625 -7.40625 C 1.15625 -7.40625 1.15625 -9.4375 1.15625 -9.4375 C 1.15625 -9.4375 3.125 -9.4375 3.125 -9.4375 C 3.125 -9.4375 3.125 -7.40625 3.125 -7.40625 C 3.125 -7.40625 4.21875 -7.40625 4.21875 -7.40625 C 4.21875 -7.40625 4.21875 -6.109375 4.21875 -6.109375 C 4.21875 -6.109375 3.125 -6.109375 3.125 -6.109375 C 3.125 -6.109375 3.125 -2.15625 3.125 -2.15625 C 3.125 -1.484375 3.25 -1.328125 3.765625 -1.328125 C 3.90625 -1.328125 4.015625 -1.34375 4.21875 -1.375 C 4.21875 -1.375 4.21875 0 4.21875 0 Z M 4.21875 0 "/>
</g>
<g id="glyph-8-26-8ab9bb74">
<path d="M 7.625 0 C 7.625 0 5.671875 0 5.671875 0 C 5.671875 0 5.671875 -0.875 5.671875 -0.875 C 5.1875 -0.21875 4.515625 0.125 3.578125 0.125 C 1.578125 0.125 0.40625 -1.625 0.40625 -3.765625 C 0.40625 -6.046875 1.78125 -7.6875 3.578125 -7.6875 C 4.515625 -7.6875 5.1875 -7.34375 5.671875 -6.578125 C 5.671875 -6.578125 5.671875 -10.203125 5.671875 -10.203125 C 5.671875 -10.203125 7.625 -10.203125 7.625 -10.203125 C 7.625 -10.203125 7.625 0 7.625 0 Z M 5.671875 -3.734375 C 5.671875 -5.1875 5.015625 -6.046875 4.015625 -6.046875 C 3.03125 -6.046875 2.359375 -5.171875 2.359375 -3.765625 C 2.359375 -2.375 3.03125 -1.515625 4.015625 -1.515625 C 5 -1.515625 5.671875 -2.359375 5.671875 -3.734375 Z M 5.671875 -3.734375 "/>
</g>
<g id="glyph-8-27-8ab9bb74">
<path d="M 2.890625 0 C 2.890625 0 0.9375 0 0.9375 0 C 0.9375 0 0.9375 -10.203125 0.9375 -10.203125 C 0.9375 -10.203125 2.890625 -10.203125 2.890625 -10.203125 C 2.890625 -10.203125 2.890625 0 2.890625 0 Z M 2.890625 0 "/>
</g>
<g id="glyph-8-28-8ab9bb74">
<path d="M 8.046875 -3.6875 C 8.046875 -1.40625 6.671875 0.125 4.875 0.125 C 3.921875 0.125 3.265625 -0.21875 2.78125 -0.875 C 2.78125 -0.875 2.78125 0 2.78125 0 C 2.78125 0 0.828125 0 0.828125 0 C 0.828125 0 0.828125 -10.203125 0.828125 -10.203125 C 0.828125 -10.203125 2.78125 -10.203125 2.78125 -10.203125 C 2.78125 -10.203125 2.78125 -6.578125 2.78125 -6.578125 C 3.265625 -7.34375 3.9375 -7.6875 4.875 -7.6875 C 6.859375 -7.6875 8.046875 -5.828125 8.046875 -3.6875 Z M 6.09375 -3.765625 C 6.09375 -5.171875 5.40625 -6.046875 4.4375 -6.046875 C 3.453125 -6.046875 2.78125 -5.1875 2.78125 -3.8125 C 2.78125 -2.359375 3.4375 -1.515625 4.4375 -1.515625 C 5.40625 -1.515625 6.09375 -2.390625 6.09375 -3.765625 Z M 6.09375 -3.765625 "/>
</g>
<g id="glyph-8-29-8ab9bb74">
<path d="M 7.484375 0 C 7.484375 0 5.140625 0 5.140625 0 C 5.140625 0 3.859375 -2.359375 3.859375 -2.359375 C 3.859375 -2.359375 2.578125 0 2.578125 0 C 2.578125 0 0.21875 0 0.21875 0 C 0.21875 0 2.75 -3.8125 2.75 -3.8125 C 2.75 -3.8125 0.28125 -7.5625 0.28125 -7.5625 C 0.28125 -7.5625 2.625 -7.5625 2.625 -7.5625 C 2.625 -7.5625 3.859375 -5.28125 3.859375 -5.28125 C 3.859375 -5.28125 5.078125 -7.5625 5.078125 -7.5625 C 5.078125 -7.5625 7.4375 -7.5625 7.4375 -7.5625 C 7.4375 -7.5625 4.96875 -3.8125 4.96875 -3.8125 C 4.96875 -3.8125 7.484375 0 7.484375 0 Z M 7.484375 0 "/>
</g>
<g id="glyph-9-0-8ab9bb74">
</g>
<g id="glyph-10-0-8ab9bb74">
<path d="M 7.28125 -2.234375 C 7.28125 -0.71875 6.109375 0.125 3.96875 0.125 C 1.6875 0.125 0.46875 -0.734375 0.40625 -2.390625 C 0.40625 -2.390625 2.328125 -2.390625 2.328125 -2.390625 C 2.484375 -1.578125 2.96875 -1.40625 3.859375 -1.40625 C 4.78125 -1.40625 5.3125 -1.59375 5.3125 -2.0625 C 5.3125 -2.265625 5.15625 -2.421875 4.65625 -2.578125 C 4.65625 -2.578125 2.328125 -3.296875 2.328125 -3.296875 C 0.921875 -3.734375 0.671875 -4.234375 0.671875 -5.171875 C 0.671875 -6.71875 1.859375 -7.6875 3.78125 -7.6875 C 5.8125 -7.6875 7.046875 -6.71875 7.0625 -5.125 C 7.0625 -5.125 5.1875 -5.125 5.1875 -5.125 C 5.171875 -5.8125 4.703125 -6.140625 3.765625 -6.140625 C 3.078125 -6.140625 2.625 -5.859375 2.625 -5.453125 C 2.625 -5.140625 2.765625 -5.015625 3.3125 -4.859375 C 3.3125 -4.859375 5.796875 -4.140625 5.796875 -4.140625 C 6.796875 -3.84375 7.28125 -3.203125 7.28125 -2.34375 C 7.28125 -2.34375 7.28125 -2.234375 7.28125 -2.234375 Z M 7.28125 -2.234375 "/>
</g>
<g id="glyph-11-0-8ab9bb74">
<path d="M 2.890625 0 C 2.890625 0 0.9375 0 0.9375 0 C 0.9375 0 0.9375 -7.5625 0.9375 -7.5625 C 0.9375 -7.5625 2.890625 -7.5625 2.890625 -7.5625 C 2.890625 -7.5625 2.890625 0 2.890625 0 Z M 2.921875 -8.46875 C 2.921875 -8.46875 0.96875 -8.46875 0.96875 -8.46875 C 0.96875 -8.46875 0.96875 -10.4375 0.96875 -10.4375 C 0.96875 -10.4375 2.921875 -10.4375 2.921875 -10.4375 C 2.921875 -10.4375 2.921875 -8.46875 2.921875 -8.46875 Z M 2.921875 -8.46875 "/>
</g>
</g>
</defs>
<rect x="-90" y="-60" width="1080" height="720" fill="rgb(100%, 100%, 100%)" fill-opacity="1"/>
<path fill-rule="nonzero" fill="rgb(100%, 100%, 100%)" fill-opacity="1" d="M 62 541 L 884 541 L 884 36 L 62 36 Z M 62 541 "/>
<path fill="none" stroke-width="1" stroke-linecap="butt" stroke-linejoin="miter" stroke="rgb(0%, 0%, 0%)" stroke-opacity="0.12" stroke-miterlimit="1.154701" d="M 115.9375 541 L 115.9375 36 "/>
<path fill="none" stroke-width="1" stroke-linecap="butt" stroke-linejoin="miter" stroke="rgb(0%, 0%, 0%)" stroke-opacity="0.12" stroke-miterlimit="1.154701" d="M 243.613281 541 L 243.613281 36 "/>
<path fill="none" stroke-width="1" stroke-linecap="butt" stroke-linejoin="miter" stroke="rgb(0%, 0%, 0%)" stroke-opacity="0.12" stroke-miterlimit="1.154701" d="M 371.289062 541 L 371.289062 36 "/>
<path fill="none" stroke-width="1" stroke-linecap="butt" stroke-linejoin="miter" stroke="rgb(0%, 0%, 0%)" stroke-opacity="0.12" stroke-miterlimit="1.154701" d="M 498.960938 541 L 498.960938 36 "/>
<path fill="none" stroke-width="1" stroke-linecap="butt" stroke-linejoin="miter" stroke="rgb(0%, 0%, 0%)" stroke-opacity="0.12" stroke-miterlimit="1.154701" d="M 626.636719 541 L 626.636719 36 "/>
<path fill="none" stroke-width="1" stroke-linecap="butt" stroke-linejoin="miter" stroke="rgb(0%, 0%, 0%)" stroke-opacity="0.12" stroke-miterlimit="1.154701" d="M 754.3125 541 L 754.3125 36 "/>
<path fill="none" stroke-width="1" stroke-linecap="butt" stroke-linejoin="miter" stroke="rgb(0%, 0%, 0%)" stroke-opacity="0.12" stroke-miterlimit="1.154701" d="M 881.984375 541 L 881.984375 36 "/>
<path fill="none" stroke-width="1" stroke-linecap="butt" stroke-linejoin="miter" stroke="rgb(0%, 0%, 0%)" stroke-opacity="0.12" stroke-miterlimit="1.154701" d="M 62 476.59375 L 884 476.59375 "/>
<path fill="none" stroke-width="1" stroke-linecap="butt" stroke-linejoin="miter" stroke="rgb(0%, 0%, 0%)" stroke-opacity="0.12" stroke-miterlimit="1.154701" d="M 62 308.949219 L 884 308.949219 "/>
<path fill="none" stroke-width="1" stroke-linecap="butt" stroke-linejoin="miter" stroke="rgb(0%, 0%, 0%)" stroke-opacity="0.12" stroke-miterlimit="1.154701" d="M 62 141.300781 L 884 141.300781 "/>
<g fill="rgb(0%, 0%, 0%)" fill-opacity="1">
<use xlink:href="#glyph-0-0-8ab9bb74" x="420.080016" y="581.567999"/>
</g>
<g fill="rgb(0%, 0%, 0%)" fill-opacity="1">
<use xlink:href="#glyph-0-1-8ab9bb74" x="427.864016" y="581.567999"/>
</g>
<g fill="rgb(0%, 0%, 0%)" fill-opacity="1">
<use xlink:href="#glyph-0-2-8ab9bb74" x="435.648017" y="581.567999"/>
</g>
<g fill="rgb(0%, 0%, 0%)" fill-opacity="1">
<use xlink:href="#glyph-0-3-8ab9bb74" x="439.540015" y="581.567999"/>
</g>
<g fill="rgb(0%, 0%, 0%)" fill-opacity="1">
<use xlink:href="#glyph-0-4-8ab9bb74" x="447.324016" y="581.567999"/>
</g>
<g fill="rgb(0%, 0%, 0%)" fill-opacity="1">
<use xlink:href="#glyph-0-2-8ab9bb74" x="455.108017" y="581.567999"/>
</g>
<g fill="rgb(0%, 0%, 0%)" fill-opacity="1">
<use xlink:href="#glyph-0-5-8ab9bb74" x="462.892013" y="581.567999"/>
</g>
<g fill="rgb(0%, 0%, 0%)" fill-opacity="1">
<use xlink:href="#glyph-0-1-8ab9bb74" x="472.230015" y="581.567999"/>
</g>
<g fill="rgb(0%, 0%, 0%)" fill-opacity="1">
<use xlink:href="#glyph-0-6-8ab9bb74" x="480.014015" y="581.567999"/>
</g>
<g fill="rgb(0%, 0%, 0%)" fill-opacity="1">
<use xlink:href="#glyph-0-7-8ab9bb74" x="484.676018" y="581.567999"/>
</g>
<g fill="rgb(0%, 0%, 0%)" fill-opacity="1">
<use xlink:href="#glyph-0-1-8ab9bb74" x="487.78402" y="581.567999"/>
</g>
<g fill="rgb(0%, 0%, 0%)" fill-opacity="1">
<use xlink:href="#glyph-0-8-8ab9bb74" x="495.568017" y="581.567999"/>
</g>
<g fill="rgb(0%, 0%, 0%)" fill-opacity="1">
<use xlink:href="#glyph-1-0-8ab9bb74" x="503.352013" y="581.567999"/>
</g>
<g fill="rgb(0%, 0%, 0%)" fill-opacity="1">
<use xlink:href="#glyph-0-3-8ab9bb74" x="506.460015" y="581.567999"/>
</g>
<g fill="rgb(0%, 0%, 0%)" fill-opacity="1">
<use xlink:href="#glyph-0-9-8ab9bb74" x="514.244012" y="581.567999"/>
</g>
<g fill="rgb(0%, 0%, 0%)" fill-opacity="1">
<use xlink:href="#glyph-0-10-8ab9bb74" x="518.13601" y="581.567999"/>
</g>
<g fill="rgb(0%, 0%, 0%)" fill-opacity="1">
<use xlink:href="#glyph-0-11-8ab9bb74" x="107.959136" y="562.257999"/>
</g>
<g fill="rgb(0%, 0%, 0%)" fill-opacity="1">
<use xlink:href="#glyph-0-12-8ab9bb74" x="116.135136" y="562.257999"/>
</g>
<g fill="rgb(0%, 0%, 0%)" fill-opacity="1">
<use xlink:href="#glyph-0-11-8ab9bb74" x="235.633516" y="562.257999"/>
</g>
<g fill="rgb(0%, 0%, 0%)" fill-opacity="1">
<use xlink:href="#glyph-2-0-8ab9bb74" x="243.809516" y="562.257999"/>
</g>
<g fill="rgb(0%, 0%, 0%)" fill-opacity="1">
<use xlink:href="#glyph-0-13-8ab9bb74" x="367.395912" y="562.257999"/>
</g>
<g fill="rgb(0%, 0%, 0%)" fill-opacity="1">
<use xlink:href="#glyph-0-10-8ab9bb74" x="495.070292" y="562.257999"/>
</g>
<g fill="rgb(0%, 0%, 0%)" fill-opacity="1">
<use xlink:href="#glyph-0-12-8ab9bb74" x="622.744673" y="562.257999"/>
</g>
<g fill="rgb(0%, 0%, 0%)" fill-opacity="1">
<use xlink:href="#glyph-0-14-8ab9bb74" x="750.419053" y="562.257999"/>
</g>
<g fill="rgb(0%, 0%, 0%)" fill-opacity="1">
<use xlink:href="#glyph-0-15-8ab9bb74" x="878.093434" y="562.257999"/>
</g>
<g fill="rgb(0%, 0%, 0%)" fill-opacity="1">
<use xlink:href="#glyph-3-0-8ab9bb74" x="27.987999" y="341.419984"/>
</g>
<g fill="rgb(0%, 0%, 0%)" fill-opacity="1">
<use xlink:href="#glyph-4-0-8ab9bb74" x="27.987999" y="333.635984"/>
</g>
<g fill="rgb(0%, 0%, 0%)" fill-opacity="1">
<use xlink:href="#glyph-5-0-8ab9bb74" x="27.988" y="325.851983"/>
</g>
<g fill="rgb(0%, 0%, 0%)" fill-opacity="1">
<use xlink:href="#glyph-3-1-8ab9bb74" x="27.988" y="321.959985"/>
</g>
<g fill="rgb(0%, 0%, 0%)" fill-opacity="1">
<use xlink:href="#glyph-6-0-8ab9bb74" x="27.988" y="314.175986"/>
</g>
<g fill="rgb(0%, 0%, 0%)" fill-opacity="1">
<use xlink:href="#glyph-5-0-8ab9bb74" x="27.988001" y="306.391985"/>
</g>
<g fill="rgb(0%, 0%, 0%)" fill-opacity="1">
<use xlink:href="#glyph-3-2-8ab9bb74" x="27.988001" y="302.499988"/>
</g>
<g fill="rgb(0%, 0%, 0%)" fill-opacity="1">
<use xlink:href="#glyph-3-3-8ab9bb74" x="27.988001" y="298.60799"/>
</g>
<g fill="rgb(0%, 0%, 0%)" fill-opacity="1">
<use xlink:href="#glyph-7-0-8ab9bb74" x="27.988002" y="289.269989"/>
</g>
<g fill="rgb(0%, 0%, 0%)" fill-opacity="1">
<use xlink:href="#glyph-5-1-8ab9bb74" x="27.988002" y="281.485989"/>
</g>
<g fill="rgb(0%, 0%, 0%)" fill-opacity="1">
<use xlink:href="#glyph-3-4-8ab9bb74" x="27.988003" y="276.823987"/>
</g>
<g fill="rgb(0%, 0%, 0%)" fill-opacity="1">
<use xlink:href="#glyph-6-1-8ab9bb74" x="27.988003" y="273.715985"/>
</g>
<g fill="rgb(0%, 0%, 0%)" fill-opacity="1">
<use xlink:href="#glyph-5-2-8ab9bb74" x="27.988003" y="265.931989"/>
</g>
<g fill="rgb(0%, 0%, 0%)" fill-opacity="1">
<use xlink:href="#glyph-3-5-8ab9bb74" x="27.988004" y="258.147992"/>
</g>
<g fill="rgb(0%, 0%, 0%)" fill-opacity="1">
<use xlink:href="#glyph-3-1-8ab9bb74" x="27.988004" y="255.039993"/>
</g>
<g fill="rgb(0%, 0%, 0%)" fill-opacity="1">
<use xlink:href="#glyph-6-2-8ab9bb74" x="27.988004" y="247.255996"/>
</g>
<g fill="rgb(0%, 0%, 0%)" fill-opacity="1">
<use xlink:href="#glyph-5-3-8ab9bb74" x="27.988004" y="243.363997"/>
</g>
<g fill="rgb(0%, 0%, 0%)" fill-opacity="1">
<use xlink:href="#glyph-0-11-8ab9bb74" x="36.040002" y="481.697945"/>
</g>
<g fill="rgb(0%, 0%, 0%)" fill-opacity="1">
<use xlink:href="#glyph-0-12-8ab9bb74" x="44.216002" y="481.697945"/>
</g>
<g fill="rgb(0%, 0%, 0%)" fill-opacity="1">
<use xlink:href="#glyph-0-13-8ab9bb74" x="44.216001" y="314.051541"/>
</g>
<g fill="rgb(0%, 0%, 0%)" fill-opacity="1">
<use xlink:href="#glyph-0-12-8ab9bb74" x="44.216001" y="146.405113"/>
</g>
<g fill="rgb(0%, 0%, 0%)" fill-opacity="1">
<use xlink:href="#glyph-8-0-8ab9bb74" x="176.963078" y="28.947986"/>
</g>
<g fill="rgb(0%, 0%, 0%)" fill-opacity="1">
<use xlink:href="#glyph-8-1-8ab9bb74" x="187.07108" y="28.947986"/>
</g>
<g fill="rgb(0%, 0%, 0%)" fill-opacity="1">
<use xlink:href="#glyph-8-1-8ab9bb74" x="196.409062" y="28.947986"/>
</g>
<g fill="rgb(0%, 0%, 0%)" fill-opacity="1">
<use xlink:href="#glyph-8-2-8ab9bb74" x="205.747075" y="28.947986"/>
</g>
<g fill="rgb(0%, 0%, 0%)" fill-opacity="1">
<use xlink:href="#glyph-8-3-8ab9bb74" x="214.301092" y="28.947986"/>
</g>
<g fill="rgb(0%, 0%, 0%)" fill-opacity="1">
<use xlink:href="#glyph-8-4-8ab9bb74" x="223.639074" y="28.947986"/>
</g>
<g fill="rgb(0%, 0%, 0%)" fill-opacity="1">
<use xlink:href="#glyph-8-5-8ab9bb74" x="228.301077" y="28.947986"/>
</g>
<g fill="rgb(0%, 0%, 0%)" fill-opacity="1">
<use xlink:href="#glyph-8-6-8ab9bb74" x="238.409079" y="28.947986"/>
</g>
<g fill="rgb(0%, 0%, 0%)" fill-opacity="1">
<use xlink:href="#glyph-9-0-8ab9bb74" x="248.517081" y="28.947986"/>
</g>
<g fill="rgb(0%, 0%, 0%)" fill-opacity="1">
<use xlink:href="#glyph-10-0-8ab9bb74" x="252.409079" y="28.947986"/>
</g>
<g fill="rgb(0%, 0%, 0%)" fill-opacity="1">
<use xlink:href="#glyph-8-7-8ab9bb74" x="260.193076" y="28.947986"/>
</g>
<g fill="rgb(0%, 0%, 0%)" fill-opacity="1">
<use xlink:href="#glyph-8-8-8ab9bb74" x="267.977073" y="28.947986"/>
</g>
<g fill="rgb(0%, 0%, 0%)" fill-opacity="1">
<use xlink:href="#glyph-8-9-8ab9bb74" x="276.531074" y="28.947986"/>
</g>
<g fill="rgb(0%, 0%, 0%)" fill-opacity="1">
<use xlink:href="#glyph-8-10-8ab9bb74" x="281.977073" y="28.947986"/>
</g>
<g fill="rgb(0%, 0%, 0%)" fill-opacity="1">
<use xlink:href="#glyph-8-11-8ab9bb74" x="289.76107" y="28.947986"/>
</g>
<g fill="rgb(0%, 0%, 0%)" fill-opacity="1">
<use xlink:href="#glyph-8-12-8ab9bb74" x="297.545066" y="28.947986"/>
</g>
<g fill="rgb(0%, 0%, 0%)" fill-opacity="1">
<use xlink:href="#glyph-8-13-8ab9bb74" x="301.437065" y="28.947986"/>
</g>
<g fill="rgb(0%, 0%, 0%)" fill-opacity="1">
<use xlink:href="#glyph-8-9-8ab9bb74" x="306.099067" y="28.947986"/>
</g>
<g fill="rgb(0%, 0%, 0%)" fill-opacity="1">
<use xlink:href="#glyph-8-8-8ab9bb74" x="311.545067" y="28.947986"/>
</g>
<g fill="rgb(0%, 0%, 0%)" fill-opacity="1">
<use xlink:href="#glyph-8-14-8ab9bb74" x="320.099068" y="28.947986"/>
</g>
<g fill="rgb(0%, 0%, 0%)" fill-opacity="1">
<use xlink:href="#glyph-8-12-8ab9bb74" x="332.545067" y="28.947986"/>
</g>
<g fill="rgb(0%, 0%, 0%)" fill-opacity="1">
<use xlink:href="#glyph-8-15-8ab9bb74" x="336.437066" y="28.947986"/>
</g>
<g fill="rgb(0%, 0%, 0%)" fill-opacity="1">
<use xlink:href="#glyph-8-16-8ab9bb74" x="344.221062" y="28.947986"/>
</g>
<g fill="rgb(0%, 0%, 0%)" fill-opacity="1">
<use xlink:href="#glyph-8-12-8ab9bb74" x="352.775063" y="28.947986"/>
</g>
<g fill="rgb(0%, 0%, 0%)" fill-opacity="1">
<use xlink:href="#glyph-8-17-8ab9bb74" x="356.667062" y="28.947986"/>
</g>
<g fill="rgb(0%, 0%, 0%)" fill-opacity="1">
<use xlink:href="#glyph-8-16-8ab9bb74" x="360.55906" y="28.947986"/>
</g>
<g fill="rgb(0%, 0%, 0%)" fill-opacity="1">
<use xlink:href="#glyph-8-18-8ab9bb74" x="369.113061" y="28.947986"/>
</g>
<g fill="rgb(0%, 0%, 0%)" fill-opacity="1">
<use xlink:href="#glyph-8-10-8ab9bb74" x="376.897058" y="28.947986"/>
</g>
<g fill="rgb(0%, 0%, 0%)" fill-opacity="1">
<use xlink:href="#glyph-8-9-8ab9bb74" x="384.681055" y="28.947986"/>
</g>
<g fill="rgb(0%, 0%, 0%)" fill-opacity="1">
<use xlink:href="#glyph-8-11-8ab9bb74" x="390.127054" y="28.947986"/>
</g>
<g fill="rgb(0%, 0%, 0%)" fill-opacity="1">
<use xlink:href="#glyph-8-10-8ab9bb74" x="397.911051" y="28.947986"/>
</g>
<g fill="rgb(0%, 0%, 0%)" fill-opacity="1">
<use xlink:href="#glyph-8-4-8ab9bb74" x="405.695048" y="28.947986"/>
</g>
<g fill="rgb(0%, 0%, 0%)" fill-opacity="1">
<use xlink:href="#glyph-8-13-8ab9bb74" x="410.35705" y="28.947986"/>
</g>
<g fill="rgb(0%, 0%, 0%)" fill-opacity="1">
<use xlink:href="#glyph-8-9-8ab9bb74" x="415.019053" y="28.947986"/>
</g>
<g fill="rgb(0%, 0%, 0%)" fill-opacity="1">
<use xlink:href="#glyph-8-10-8ab9bb74" x="420.465052" y="28.947986"/>
</g>
<g fill="rgb(0%, 0%, 0%)" fill-opacity="1">
<use xlink:href="#glyph-8-19-8ab9bb74" x="428.249049" y="28.947986"/>
</g>
<g fill="rgb(0%, 0%, 0%)" fill-opacity="1">
<use xlink:href="#glyph-8-20-8ab9bb74" x="436.80305" y="28.947986"/>
</g>
<g fill="rgb(0%, 0%, 0%)" fill-opacity="1">
<use xlink:href="#glyph-8-10-8ab9bb74" x="445.357036" y="28.947986"/>
</g>
<g fill="rgb(0%, 0%, 0%)" fill-opacity="1">
<use xlink:href="#glyph-8-16-8ab9bb74" x="453.141033" y="28.947986"/>
</g>
<g fill="rgb(0%, 0%, 0%)" fill-opacity="1">
<use xlink:href="#glyph-8-7-8ab9bb74" x="461.695019" y="28.947986"/>
</g>
<g fill="rgb(0%, 0%, 0%)" fill-opacity="1">
<use xlink:href="#glyph-8-21-8ab9bb74" x="469.479015" y="28.947986"/>
</g>
<g fill="rgb(0%, 0%, 0%)" fill-opacity="1">
<use xlink:href="#glyph-8-4-8ab9bb74" x="477.263012" y="28.947986"/>
</g>
<g fill="rgb(0%, 0%, 0%)" fill-opacity="1">
<use xlink:href="#glyph-8-22-8ab9bb74" x="481.924999" y="28.947986"/>
</g>
<g fill="rgb(0%, 0%, 0%)" fill-opacity="1">
<use xlink:href="#glyph-8-10-8ab9bb74" x="492.816998" y="28.947986"/>
</g>
<g fill="rgb(0%, 0%, 0%)" fill-opacity="1">
<use xlink:href="#glyph-11-0-8ab9bb74" x="500.600995" y="28.947986"/>
</g>
<g fill="rgb(0%, 0%, 0%)" fill-opacity="1">
<use xlink:href="#glyph-8-23-8ab9bb74" x="504.492993" y="28.947986"/>
</g>
<g fill="rgb(0%, 0%, 0%)" fill-opacity="1">
<use xlink:href="#glyph-8-24-8ab9bb74" x="513.046979" y="28.947986"/>
</g>
<g fill="rgb(0%, 0%, 0%)" fill-opacity="1">
<use xlink:href="#glyph-8-25-8ab9bb74" x="521.600965" y="28.947986"/>
</g>
<g fill="rgb(0%, 0%, 0%)" fill-opacity="1">
<use xlink:href="#glyph-8-10-8ab9bb74" x="526.262952" y="28.947986"/>
</g>
<g fill="rgb(0%, 0%, 0%)" fill-opacity="1">
<use xlink:href="#glyph-8-26-8ab9bb74" x="534.046949" y="28.947986"/>
</g>
<g fill="rgb(0%, 0%, 0%)" fill-opacity="1">
<use xlink:href="#glyph-8-12-8ab9bb74" x="542.600935" y="28.947986"/>
</g>
<g fill="rgb(0%, 0%, 0%)" fill-opacity="1">
<use xlink:href="#glyph-8-14-8ab9bb74" x="546.492933" y="28.947986"/>
</g>
<g fill="rgb(0%, 0%, 0%)" fill-opacity="1">
<use xlink:href="#glyph-8-8-8ab9bb74" x="558.938948" y="28.947986"/>
</g>
<g fill="rgb(0%, 0%, 0%)" fill-opacity="1">
<use xlink:href="#glyph-8-26-8ab9bb74" x="567.492934" y="28.947986"/>
</g>
<g fill="rgb(0%, 0%, 0%)" fill-opacity="1">
<use xlink:href="#glyph-8-10-8ab9bb74" x="576.046919" y="28.947986"/>
</g>
<g fill="rgb(0%, 0%, 0%)" fill-opacity="1">
<use xlink:href="#glyph-8-27-8ab9bb74" x="583.830916" y="28.947986"/>
</g>
<g fill="rgb(0%, 0%, 0%)" fill-opacity="1">
<use xlink:href="#glyph-8-12-8ab9bb74" x="587.722915" y="28.947986"/>
</g>
<g fill="rgb(0%, 0%, 0%)" fill-opacity="1">
<use xlink:href="#glyph-8-11-8ab9bb74" x="591.614913" y="28.947986"/>
</g>
<g fill="rgb(0%, 0%, 0%)" fill-opacity="1">
<use xlink:href="#glyph-8-24-8ab9bb74" x="599.39891" y="28.947986"/>
</g>
<g fill="rgb(0%, 0%, 0%)" fill-opacity="1">
<use xlink:href="#glyph-8-15-8ab9bb74" x="607.952896" y="28.947986"/>
</g>
<g fill="rgb(0%, 0%, 0%)" fill-opacity="1">
<use xlink:href="#glyph-8-26-8ab9bb74" x="615.736892" y="28.947986"/>
</g>
<g fill="rgb(0%, 0%, 0%)" fill-opacity="1">
<use xlink:href="#glyph-8-10-8ab9bb74" x="624.290878" y="28.947986"/>
</g>
<g fill="rgb(0%, 0%, 0%)" fill-opacity="1">
<use xlink:href="#glyph-8-26-8ab9bb74" x="632.074875" y="28.947986"/>
</g>
<g fill="rgb(0%, 0%, 0%)" fill-opacity="1">
<use xlink:href="#glyph-8-12-8ab9bb74" x="640.628861" y="28.947986"/>
</g>
<g fill="rgb(0%, 0%, 0%)" fill-opacity="1">
<use xlink:href="#glyph-8-28-8ab9bb74" x="644.520859" y="28.947986"/>
</g>
<g fill="rgb(0%, 0%, 0%)" fill-opacity="1">
<use xlink:href="#glyph-8-21-8ab9bb74" x="653.074845" y="28.947986"/>
</g>
<g fill="rgb(0%, 0%, 0%)" fill-opacity="1">
<use xlink:href="#glyph-8-12-8ab9bb74" x="660.858842" y="28.947986"/>
</g>
<g fill="rgb(0%, 0%, 0%)" fill-opacity="1">
<use xlink:href="#glyph-8-15-8ab9bb74" x="664.75084" y="28.947986"/>
</g>
<g fill="rgb(0%, 0%, 0%)" fill-opacity="1">
<use xlink:href="#glyph-8-20-8ab9bb74" x="672.534837" y="28.947986"/>
</g>
<g fill="rgb(0%, 0%, 0%)" fill-opacity="1">
<use xlink:href="#glyph-8-29-8ab9bb74" x="681.088823" y="28.947986"/>
</g>
<g fill="rgb(0%, 0%, 0%)" fill-opacity="1">
<use xlink:href="#glyph-8-17-8ab9bb74" x="688.872819" y="28.947986"/>
</g>
<g fill="rgb(0%, 0%, 0%)" fill-opacity="1">
<use xlink:href="#glyph-8-27-8ab9bb74" x="692.764848" y="28.947986"/>
</g>
<g fill="rgb(0%, 0%, 0%)" fill-opacity="1">
<use xlink:href="#glyph-8-17-8ab9bb74" x="696.656877" y="28.947986"/>
</g>
<g fill="rgb(0%, 0%, 0%)" fill-opacity="1">
<use xlink:href="#glyph-8-15-8ab9bb74" x="700.548906" y="28.947986"/>
</g>
<g fill="rgb(0%, 0%, 0%)" fill-opacity="1">
<use xlink:href="#glyph-8-9-8ab9bb74" x="708.332903" y="28.947986"/>
</g>
<g fill="rgb(0%, 0%, 0%)" fill-opacity="1">
<use xlink:href="#glyph-8-21-8ab9bb74" x="713.778887" y="28.947986"/>
</g>
<g fill="rgb(0%, 0%, 0%)" fill-opacity="1">
<use xlink:href="#glyph-8-12-8ab9bb74" x="721.562884" y="28.947986"/>
</g>
<g fill="rgb(0%, 0%, 0%)" fill-opacity="1">
<use xlink:href="#glyph-8-18-8ab9bb74" x="725.454913" y="28.947986"/>
</g>
<g fill="rgb(0%, 0%, 0%)" fill-opacity="1">
<use xlink:href="#glyph-8-15-8ab9bb74" x="733.238909" y="28.947986"/>
</g>
<g fill="rgb(0%, 0%, 0%)" fill-opacity="1">
<use xlink:href="#glyph-8-27-8ab9bb74" x="741.022906" y="28.947986"/>
</g>
<g fill="rgb(0%, 0%, 0%)" fill-opacity="1">
<use xlink:href="#glyph-8-20-8ab9bb74" x="744.914935" y="28.947986"/>
</g>
<g fill="rgb(0%, 0%, 0%)" fill-opacity="1">
<use xlink:href="#glyph-8-10-8ab9bb74" x="753.468951" y="28.947986"/>
</g>
<g fill="rgb(0%, 0%, 0%)" fill-opacity="1">
<use xlink:href="#glyph-8-11-8ab9bb74" x="761.252948" y="28.947986"/>
</g>
<path fill-rule="nonzero" fill="rgb(77.810669%, 77.810669%, 77.810669%)" fill-opacity="1" d="M 701.992188 354.613281 C 701.992188 348.03125 692.121094 348.03125 692.121094 354.613281 C 692.121094 361.191406 701.992188 361.191406 701.992188 354.613281 Z M 701.992188 354.613281 "/>
<path fill-rule="nonzero" fill="rgb(72.566396%, 72.566396%, 72.566396%)" fill-opacity="1" d="M 585.988281 341.242188 C 585.988281 334.664062 576.117188 334.664062 576.117188 341.242188 C 576.117188 347.824219 585.988281 347.824219 585.988281 341.242188 Z M 585.988281 341.242188 "/>
<path fill-rule="nonzero" fill="rgb(35.328254%, 35.328254%, 35.328254%)" fill-opacity="1" d="M 519.226562 185.09375 C 519.226562 178.515625 509.355469 178.515625 509.355469 185.09375 C 509.355469 191.675781 519.226562 191.675781 519.226562 185.09375 Z M 519.226562 185.09375 "/>
<path fill-rule="nonzero" fill="rgb(70.57392%, 70.57392%, 70.57392%)" fill-opacity="1" d="M 551.074219 402.089844 C 551.074219 395.511719 541.203125 395.511719 541.203125 402.089844 C 541.203125 408.671875 551.074219 408.671875 551.074219 402.089844 Z M 551.074219 402.089844 "/>
<path fill-rule="nonzero" fill="rgb(42.140582%, 42.140582%, 42.140582%)" fill-opacity="1" d="M 568.285156 257.007812 C 568.285156 250.429688 558.417969 250.429688 558.417969 257.007812 C 558.417969 263.589844 568.285156 263.589844 568.285156 257.007812 Z M 568.285156 257.007812 "/>
<path fill-rule="nonzero" fill="rgb(31.86889%, 31.86889%, 31.86889%)" fill-opacity="1" d="M 481.828125 203.566406 C 481.828125 196.988281 471.957031 196.988281 471.957031 203.566406 C 471.957031 210.148438 481.828125 210.148438 481.828125 203.566406 Z M 481.828125 203.566406 "/>
<path fill-rule="nonzero" fill="rgb(54.423761%, 54.423761%, 54.423761%)" fill-opacity="1" d="M 732.605469 236.980469 C 732.605469 230.398438 722.734375 230.398438 722.734375 236.980469 C 722.734375 243.558594 732.605469 243.558594 732.605469 236.980469 Z M 732.605469 236.980469 "/>
<path fill-rule="nonzero" fill="rgb(53.751355%, 53.751355%, 53.751355%)" fill-opacity="1" d="M 577.34375 277.300781 C 577.34375 270.722656 567.472656 270.722656 567.472656 277.300781 C 567.472656 283.882812 577.34375 283.882812 577.34375 277.300781 Z M 577.34375 277.300781 "/>
<path fill-rule="nonzero" fill="rgb(70.637029%, 70.637029%, 70.637029%)" fill-opacity="1" d="M 622.035156 388.007812 C 622.035156 381.429688 612.167969 381.429688 612.167969 388.007812 C 612.167969 394.589844 622.035156 394.589844 622.035156 388.007812 Z M 622.035156 388.007812 "/>
<path fill-rule="nonzero" fill="rgb(25.552598%, 25.552598%, 25.552598%)" fill-opacity="1" d="M 358.035156 250.09375 C 358.035156 243.511719 348.164062 243.511719 348.164062 250.09375 C 348.164062 256.671875 358.035156 256.671875 358.035156 250.09375 Z M 358.035156 250.09375 "/>
<path fill-rule="nonzero" fill="rgb(66.936141%, 66.936141%, 66.936141%)" fill-opacity="1" d="M 661.46875 333.898438 C 661.46875 327.316406 651.597656 327.316406 651.597656 333.898438 C 651.597656 340.476562 661.46875 340.476562 661.46875 333.898438 Z M 661.46875 333.898438 "/>
<path fill-rule="nonzero" fill="rgb(54.213309%, 54.213309%, 54.213309%)" fill-opacity="1" d="M 483.332031 201.535156 C 483.332031 194.957031 473.460938 194.957031 473.460938 201.535156 C 473.460938 208.117188 483.332031 208.117188 483.332031 201.535156 Z M 483.332031 201.535156 "/>
<path fill-rule="nonzero" fill="rgb(27.200282%, 27.200282%, 27.200282%)" fill-opacity="1" d="M 323.417969 176.914062 C 323.417969 170.335938 313.546875 170.335938 313.546875 176.914062 C 313.546875 183.496094 323.417969 183.496094 323.417969 176.914062 Z M 323.417969 176.914062 "/>
<path fill-rule="nonzero" fill="rgb(47.345567%, 47.345567%, 47.345567%)" fill-opacity="1" d="M 837.121094 167.660156 C 837.121094 161.078125 827.253906 161.078125 827.253906 167.660156 C 827.253906 174.238281 837.121094 174.238281 837.121094 167.660156 Z M 837.121094 167.660156 "/>
<path fill-rule="nonzero" fill="rgb(17.216083%, 17.216083%, 17.216083%)" fill-opacity="1" d="M 287.898438 120.175781 C 287.898438 113.597656 278.027344 113.597656 278.027344 120.175781 C 278.027344 126.757812 287.898438 126.757812 287.898438 120.175781 Z M 287.898438 120.175781 "/>
<path fill-rule="nonzero" fill="rgb(66.546345%, 66.546345%, 66.546345%)" fill-opacity="1" d="M 665.402344 353.230469 C 665.402344 346.648438 655.53125 346.648438 655.53125 353.230469 C 655.53125 359.808594 665.402344 359.808594 665.402344 353.230469 Z M 665.402344 353.230469 "/>
<path fill-rule="nonzero" fill="rgb(58.994102%, 58.994102%, 58.994102%)" fill-opacity="1" d="M 655.902344 372.550781 C 655.902344 365.972656 646.03125 365.972656 646.03125 372.550781 C 646.03125 379.132812 655.902344 379.132812 655.902344 372.550781 Z M 655.902344 372.550781 "/>
<path fill-rule="nonzero" fill="rgb(39.842549%, 39.842549%, 39.842549%)" fill-opacity="1" d="M 317.394531 302.261719 C 317.394531 295.683594 307.523438 295.683594 307.523438 302.261719 C 307.523438 308.84375 317.394531 308.84375 317.394531 302.261719 Z M 317.394531 302.261719 "/>
<path fill-rule="nonzero" fill="rgb(54.867071%, 54.867071%, 54.867071%)" fill-opacity="1" d="M 730.492188 194.519531 C 730.492188 187.9375 720.621094 187.9375 720.621094 194.519531 C 720.621094 201.097656 730.492188 201.097656 730.492188 194.519531 Z M 730.492188 194.519531 "/>
<path fill-rule="nonzero" fill="rgb(62.483382%, 62.483382%, 62.483382%)" fill-opacity="1" d="M 704.449219 270.449219 C 704.449219 263.871094 694.578125 263.871094 694.578125 270.449219 C 694.578125 277.03125 704.449219 277.03125 704.449219 270.449219 Z M 704.449219 270.449219 "/>
<path fill-rule="nonzero" fill="rgb(49.511528%, 49.511528%, 49.511528%)" fill-opacity="1" d="M 532.3125 241.609375 C 532.3125 235.03125 522.441406 235.03125 522.441406 241.609375 C 522.441406 248.191406 532.3125 248.191406 532.3125 241.609375 Z M 532.3125 241.609375 "/>
<path fill-rule="nonzero" fill="rgb(78.323144%, 78.323144%, 78.323144%)" fill-opacity="1" d="M 701.308594 362.960938 C 701.308594 356.382812 691.441406 356.382812 691.441406 362.960938 C 691.441406 369.542969 701.308594 369.542969 701.308594 362.960938 Z M 701.308594 362.960938 "/>
<path fill-rule="nonzero" fill="rgb(70.005685%, 70.005685%, 70.005685%)" fill-opacity="1" d="M 741.414062 261.683594 C 741.414062 255.105469 731.542969 255.105469 731.542969 261.683594 C 731.542969 268.265625 741.414062 268.265625 741.414062 261.683594 Z M 741.414062 261.683594 "/>
<path fill-rule="nonzero" fill="rgb(24.384421%, 24.384421%, 24.384421%)" fill-opacity="1" d="M 587.097656 58.953125 C 587.097656 52.375 577.226562 52.375 577.226562 58.953125 C 577.226562 65.535156 587.097656 65.535156 587.097656 58.953125 Z M 587.097656 58.953125 "/>
<path fill-rule="nonzero" fill="rgb(43.677196%, 43.677196%, 43.677196%)" fill-opacity="1" d="M 471.761719 304.921875 C 471.761719 298.339844 461.890625 298.339844 461.890625 304.921875 C 461.890625 311.5 471.761719 311.5 471.761719 304.921875 Z M 471.761719 304.921875 "/>
<path fill-rule="nonzero" fill="rgb(68.605745%, 68.605745%, 68.605745%)" fill-opacity="1" d="M 622.925781 334.476562 C 622.925781 327.898438 613.054688 327.898438 613.054688 334.476562 C 613.054688 341.058594 622.925781 341.058594 622.925781 334.476562 Z M 622.925781 334.476562 "/>
<path fill-rule="nonzero" fill="rgb(48.819262%, 48.819262%, 48.819262%)" fill-opacity="1" d="M 720.972656 227.304688 C 720.972656 220.722656 711.101562 220.722656 711.101562 227.304688 C 711.101562 233.882812 720.972656 233.882812 720.972656 227.304688 Z M 720.972656 227.304688 "/>
<path fill-rule="nonzero" fill="rgb(54.897147%, 54.897147%, 54.897147%)" fill-opacity="1" d="M 578.441406 273.097656 C 578.441406 266.519531 568.570312 266.519531 568.570312 273.097656 C 568.570312 279.679688 578.441406 279.679688 578.441406 273.097656 Z M 578.441406 273.097656 "/>
<path fill-rule="nonzero" fill="rgb(32.120574%, 32.120574%, 32.120574%)" fill-opacity="1" d="M 447.46875 206.679688 C 447.46875 200.097656 437.601562 200.097656 437.601562 206.679688 C 437.601562 213.257812 447.46875 213.257812 447.46875 206.679688 Z M 447.46875 206.679688 "/>
<path fill-rule="nonzero" fill="rgb(89.999998%, 89.999998%, 89.999998%)" fill-opacity="1" d="M 839.785156 477.179688 C 839.785156 470.597656 829.914062 470.597656 829.914062 477.179688 C 829.914062 483.757812 839.785156 483.757812 839.785156 477.179688 Z M 839.785156 477.179688 "/>
<path fill-rule="nonzero" fill="rgb(63.307238%, 63.307238%, 63.307238%)" fill-opacity="1" d="M 521.671875 351.390625 C 521.671875 344.808594 511.804688 344.808594 511.804688 351.390625 C 511.804688 357.96875 521.671875 357.96875 521.671875 351.390625 Z M 521.671875 351.390625 "/>
<path fill-rule="nonzero" fill="rgb(45.316333%, 45.316333%, 45.316333%)" fill-opacity="1" d="M 497.121094 301.40625 C 497.121094 294.828125 487.253906 294.828125 487.253906 301.40625 C 487.253906 307.988281 497.121094 307.988281 497.121094 301.40625 Z M 497.121094 301.40625 "/>
<path fill-rule="nonzero" fill="rgb(55.364096%, 55.364096%, 55.364096%)" fill-opacity="1" d="M 676.648438 298.027344 C 676.648438 291.449219 666.777344 291.449219 666.777344 298.027344 C 666.777344 304.609375 676.648438 304.609375 676.648438 298.027344 Z M 676.648438 298.027344 "/>
<path fill-rule="nonzero" fill="rgb(45.715871%, 45.715871%, 45.715871%)" fill-opacity="1" d="M 615.667969 222.796875 C 615.667969 216.214844 605.796875 216.214844 605.796875 222.796875 C 605.796875 229.375 615.667969 229.375 615.667969 222.796875 Z M 615.667969 222.796875 "/>
<path fill-rule="nonzero" fill="rgb(74.228621%, 74.228621%, 74.228621%)" fill-opacity="1" d="M 811.398438 384.753906 C 811.398438 378.171875 801.53125 378.171875 801.53125 384.753906 C 801.53125 391.332031 811.398438 391.332031 811.398438 384.753906 Z M 811.398438 384.753906 "/>
<path fill-rule="nonzero" fill="rgb(42.145461%, 42.145461%, 42.145461%)" fill-opacity="1" d="M 335.589844 240.335938 C 335.589844 233.757812 325.71875 233.757812 325.71875 240.335938 C 325.71875 246.914062 335.589844 246.914062 335.589844 240.335938 Z M 335.589844 240.335938 "/>
<path fill-rule="nonzero" fill="rgb(29.890397%, 29.890397%, 29.890397%)" fill-opacity="1" d="M 491.253906 188.035156 C 491.253906 181.457031 481.382812 181.457031 481.382812 188.035156 C 481.382812 194.617188 491.253906 194.617188 491.253906 188.035156 Z M 491.253906 188.035156 "/>
<path fill-rule="nonzero" fill="rgb(74.578905%, 74.578905%, 74.578905%)" fill-opacity="1" d="M 666.269531 463.285156 C 666.269531 456.703125 656.398438 456.703125 656.398438 463.285156 C 656.398438 469.863281 666.269531 469.863281 666.269531 463.285156 Z M 666.269531 463.285156 "/>
<path fill-rule="nonzero" fill="rgb(41.626355%, 41.626355%, 41.626355%)" fill-opacity="1" d="M 477.570312 237.574219 C 477.570312 230.996094 467.699219 230.996094 467.699219 237.574219 C 467.699219 244.15625 477.570312 244.15625 477.570312 237.574219 Z M 477.570312 237.574219 "/>
<path fill-rule="nonzero" fill="rgb(54.881662%, 54.881662%, 54.881662%)" fill-opacity="1" d="M 532.273438 211.28125 C 532.273438 204.699219 522.402344 204.699219 522.402344 211.28125 C 522.402344 217.859375 532.273438 217.859375 532.273438 211.28125 Z M 532.273438 211.28125 "/>
<path fill-rule="nonzero" fill="rgb(51.176929%, 51.176929%, 51.176929%)" fill-opacity="1" d="M 325.410156 301.195312 C 325.410156 294.613281 315.539062 294.613281 315.539062 301.195312 C 315.539062 307.773438 325.410156 307.773438 325.410156 301.195312 Z M 325.410156 301.195312 "/>
<path fill-rule="nonzero" fill="rgb(63.106155%, 63.106155%, 63.106155%)" fill-opacity="1" d="M 640.554688 296.027344 C 640.554688 289.445312 630.6875 289.445312 630.6875 296.027344 C 630.6875 302.605469 640.554688 302.605469 640.554688 296.027344 Z M 640.554688 296.027344 "/>
<path fill-rule="nonzero" fill="rgb(61.308384%, 61.308384%, 61.308384%)" fill-opacity="1" d="M 627.652344 375.625 C 627.652344 369.042969 617.78125 369.042969 617.78125 375.625 C 617.78125 382.203125 627.652344 382.203125 627.652344 375.625 Z M 627.652344 375.625 "/>
<path fill-rule="nonzero" fill="rgb(63.909012%, 63.909012%, 63.909012%)" fill-opacity="1" d="M 642.042969 382.0625 C 642.042969 375.480469 632.171875 375.480469 632.171875 382.0625 C 632.171875 388.640625 642.042969 388.640625 642.042969 382.0625 Z M 642.042969 382.0625 "/>
<path fill-rule="nonzero" fill="rgb(61.589658%, 61.589658%, 61.589658%)" fill-opacity="1" d="M 481.589844 375.710938 C 481.589844 369.132812 471.71875 369.132812 471.71875 375.710938 C 471.71875 382.292969 481.589844 382.292969 481.589844 375.710938 Z M 481.589844 375.710938 "/>
<path fill-rule="nonzero" fill="rgb(22.018073%, 22.018073%, 22.018073%)" fill-opacity="1" d="M 432.25 78.503906 C 432.25 71.925781 422.378906 71.925781 422.378906 78.503906 C 422.378906 85.085938 432.25 85.085938 432.25 78.503906 Z M 432.25 78.503906 "/>
<path fill-rule="nonzero" fill="rgb(26.788414%, 26.788414%, 26.788414%)" fill-opacity="1" d="M 392.335938 150.910156 C 392.335938 144.332031 382.464844 144.332031 382.464844 150.910156 C 382.464844 157.492188 392.335938 157.492188 392.335938 150.910156 Z M 392.335938 150.910156 "/>
<path fill-rule="nonzero" fill="rgb(57.930422%, 57.930422%, 57.930422%)" fill-opacity="1" d="M 454.726562 336.398438 C 454.726562 329.820312 444.859375 329.820312 444.859375 336.398438 C 444.859375 342.980469 454.726562 342.980469 454.726562 336.398438 Z M 454.726562 336.398438 "/>
<path fill-rule="nonzero" fill="rgb(71.989638%, 71.989638%, 71.989638%)" fill-opacity="1" d="M 546.03125 389.785156 C 546.03125 383.207031 536.160156 383.207031 536.160156 389.785156 C 536.160156 396.367188 546.03125 396.367188 546.03125 389.785156 Z M 546.03125 389.785156 "/>
<path fill-rule="nonzero" fill="rgb(65.90547%, 65.90547%, 65.90547%)" fill-opacity="1" d="M 807.199219 320.171875 C 807.199219 313.59375 797.332031 313.59375 797.332031 320.171875 C 797.332031 326.753906 807.199219 326.753906 807.199219 320.171875 Z M 807.199219 320.171875 "/>
<path fill-rule="nonzero" fill="rgb(71.630669%, 71.630669%, 71.630669%)" fill-opacity="1" d="M 710.292969 357.398438 C 710.292969 350.816406 700.421875 350.816406 700.421875 357.398438 C 700.421875 363.976562 710.292969 363.976562 710.292969 357.398438 Z M 710.292969 357.398438 "/>
<path fill-rule="nonzero" fill="rgb(23.906279%, 23.906279%, 23.906279%)" fill-opacity="1" d="M 313.414062 183.570312 C 313.414062 176.988281 303.542969 176.988281 303.542969 183.570312 C 303.542969 190.148438 313.414062 190.148438 313.414062 183.570312 Z M 313.414062 183.570312 "/>
<path fill-rule="nonzero" fill="rgb(36.843103%, 36.843103%, 36.843103%)" fill-opacity="1" d="M 566.863281 136.988281 C 566.863281 130.410156 556.992188 130.410156 556.992188 136.988281 C 556.992188 143.570312 566.863281 143.570312 566.863281 136.988281 Z M 566.863281 136.988281 "/>
<path fill-rule="nonzero" fill="rgb(10%, 10%, 10%)" fill-opacity="1" d="M 366.496094 76.78125 C 366.496094 70.199219 356.625 70.199219 356.625 76.78125 C 356.625 83.359375 366.496094 83.359375 366.496094 76.78125 Z M 366.496094 76.78125 "/>
<path fill-rule="nonzero" fill="rgb(51.514369%, 51.514369%, 51.514369%)" fill-opacity="1" d="M 475.367188 407.691406 C 475.367188 401.109375 465.5 401.109375 465.5 407.691406 C 465.5 414.269531 475.367188 414.269531 475.367188 407.691406 Z M 475.367188 407.691406 "/>
<path fill-rule="nonzero" fill="rgb(32.170972%, 32.170972%, 32.170972%)" fill-opacity="1" d="M 390.523438 227.605469 C 390.523438 221.027344 380.652344 221.027344 380.652344 227.605469 C 380.652344 234.1875 390.523438 234.1875 390.523438 227.605469 Z M 390.523438 227.605469 "/>
<path fill-rule="nonzero" fill="rgb(19.09342%, 19.09342%, 19.09342%)" fill-opacity="1" d="M 389.042969 210.296875 C 389.042969 203.71875 379.175781 203.71875 379.175781 210.296875 C 379.175781 216.878906 389.042969 216.878906 389.042969 210.296875 Z M 389.042969 210.296875 "/>
<path fill-rule="nonzero" fill="rgb(71.79243%, 71.79243%, 71.79243%)" fill-opacity="1" d="M 561.089844 468.761719 C 561.089844 462.179688 551.21875 462.179688 551.21875 468.761719 C 551.21875 475.339844 561.089844 475.339844 561.089844 468.761719 Z M 561.089844 468.761719 "/>
<path fill-rule="nonzero" fill="rgb(32.452291%, 32.452291%, 32.452291%)" fill-opacity="1" d="M 466.265625 190.527344 C 466.265625 183.945312 456.394531 183.945312 456.394531 190.527344 C 456.394531 197.105469 466.265625 197.105469 466.265625 190.527344 Z M 466.265625 190.527344 "/>
<path fill-rule="nonzero" fill="rgb(60.740441%, 60.740441%, 60.740441%)" fill-opacity="1" d="M 628.503906 314.234375 C 628.503906 307.652344 618.632812 307.652344 618.632812 314.234375 C 618.632812 320.8125 628.503906 320.8125 628.503906 314.234375 Z M 628.503906 314.234375 "/>
<path fill-rule="nonzero" fill="rgb(58.794004%, 58.794004%, 58.794004%)" fill-opacity="1" d="M 741.378906 305.214844 C 741.378906 298.632812 731.511719 298.632812 731.511719 305.214844 C 731.511719 311.792969 741.378906 311.792969 741.378906 305.214844 Z M 741.378906 305.214844 "/>
<path fill-rule="nonzero" fill="rgb(64.274389%, 64.274389%, 64.274389%)" fill-opacity="1" d="M 851.570312 274.066406 C 851.570312 267.484375 841.703125 267.484375 841.703125 274.066406 C 841.703125 280.644531 851.570312 280.644531 851.570312 274.066406 Z M 851.570312 274.066406 "/>
<path fill-rule="nonzero" fill="rgb(24.007984%, 24.007984%, 24.007984%)" fill-opacity="1" d="M 503.761719 205.09375 C 503.761719 198.515625 493.890625 198.515625 493.890625 205.09375 C 493.890625 211.675781 503.761719 211.675781 503.761719 205.09375 Z M 503.761719 205.09375 "/>
<path fill-rule="nonzero" fill="rgb(41.87201%, 41.87201%, 41.87201%)" fill-opacity="1" d="M 447.546875 311.753906 C 447.546875 305.175781 437.675781 305.175781 437.675781 311.753906 C 437.675781 318.335938 447.546875 318.335938 447.546875 311.753906 Z M 447.546875 311.753906 "/>
<path fill-rule="nonzero" fill="rgb(52.866018%, 52.866018%, 52.866018%)" fill-opacity="1" d="M 591.324219 313.269531 C 591.324219 306.691406 581.453125 306.691406 581.453125 313.269531 C 581.453125 319.851562 591.324219 319.851562 591.324219 313.269531 Z M 591.324219 313.269531 "/>
<path fill-rule="nonzero" fill="rgb(66.862375%, 66.862375%, 66.862375%)" fill-opacity="1" d="M 591.480469 426.800781 C 591.480469 420.222656 581.613281 420.222656 581.613281 426.800781 C 581.613281 433.382812 591.480469 433.382812 591.480469 426.800781 Z M 591.480469 426.800781 "/>
<path fill-rule="nonzero" fill="rgb(60.030937%, 60.030937%, 60.030937%)" fill-opacity="1" d="M 658.550781 287.8125 C 658.550781 281.230469 648.683594 281.230469 648.683594 287.8125 C 648.683594 294.390625 658.550781 294.390625 658.550781 287.8125 Z M 658.550781 287.8125 "/>
<path fill-rule="nonzero" fill="rgb(26.42895%, 26.42895%, 26.42895%)" fill-opacity="1" d="M 388.476562 200.773438 C 388.476562 194.191406 378.605469 194.191406 378.605469 200.773438 C 378.605469 207.351562 388.476562 207.351562 388.476562 200.773438 Z M 388.476562 200.773438 "/>
<path fill-rule="nonzero" fill="rgb(37.781653%, 37.781653%, 37.781653%)" fill-opacity="1" d="M 386.199219 196.300781 C 386.199219 189.71875 376.328125 189.71875 376.328125 196.300781 C 376.328125 202.878906 386.199219 202.878906 386.199219 196.300781 Z M 386.199219 196.300781 "/>
<path fill-rule="nonzero" fill="rgb(53.30379%, 53.30379%, 53.30379%)" fill-opacity="1" d="M 515.191406 351.027344 C 515.191406 344.449219 505.324219 344.449219 505.324219 351.027344 C 505.324219 357.609375 515.191406 357.609375 515.191406 351.027344 Z M 515.191406 351.027344 "/>
<path fill-rule="nonzero" fill="rgb(69.945192%, 69.945192%, 69.945192%)" fill-opacity="1" d="M 771.625 335.445312 C 771.625 328.863281 761.753906 328.863281 761.753906 335.445312 C 761.753906 342.023438 771.625 342.023438 771.625 335.445312 Z M 771.625 335.445312 "/>
<path fill-rule="nonzero" fill="rgb(51.115227%, 51.115227%, 51.115227%)" fill-opacity="1" d="M 496.695312 324.894531 C 496.695312 318.3125 486.828125 318.3125 486.828125 324.894531 C 486.828125 331.472656 496.695312 331.472656 496.695312 324.894531 Z M 496.695312 324.894531 "/>
<path fill-rule="nonzero" fill="rgb(41.89657%, 41.89657%, 41.89657%)" fill-opacity="1" d="M 399.667969 291.800781 C 399.667969 285.222656 389.796875 285.222656 389.796875 291.800781 C 389.796875 298.382812 399.667969 298.382812 399.667969 291.800781 Z M 399.667969 291.800781 "/>
<path fill-rule="nonzero" fill="rgb(56.325483%, 56.325483%, 56.325483%)" fill-opacity="1" d="M 406.738281 375.613281 C 406.738281 369.035156 396.871094 369.035156 396.871094 375.613281 C 396.871094 382.195312 406.738281 382.195312 406.738281 375.613281 Z M 406.738281 375.613281 "/>
<path fill-rule="nonzero" fill="rgb(30.727893%, 30.727893%, 30.727893%)" fill-opacity="1" d="M 473.597656 139.558594 C 473.597656 132.980469 463.726562 132.980469 463.726562 139.558594 C 463.726562 146.140625 473.597656 146.140625 473.597656 139.558594 Z M 473.597656 139.558594 "/>
<path fill-rule="nonzero" fill="rgb(51.759547%, 51.759547%, 51.759547%)" fill-opacity="1" d="M 417.589844 392.464844 C 417.589844 385.886719 407.71875 385.886719 407.71875 392.464844 C 407.71875 399.046875 417.589844 399.046875 417.589844 392.464844 Z M 417.589844 392.464844 "/>
<path fill-rule="nonzero" fill="rgb(39.811063%, 39.811063%, 39.811063%)" fill-opacity="1" d="M 523.71875 184.140625 C 523.71875 177.558594 513.851562 177.558594 513.851562 184.140625 C 513.851562 190.71875 523.71875 190.71875 523.71875 184.140625 Z M 523.71875 184.140625 "/>
<path fill-rule="nonzero" fill="rgb(46.610275%, 46.610275%, 46.610275%)" fill-opacity="1" d="M 549.175781 221.886719 C 549.175781 215.304688 539.308594 215.304688 539.308594 221.886719 C 539.308594 228.464844 549.175781 228.464844 549.175781 221.886719 Z M 549.175781 221.886719 "/>
<path fill-rule="nonzero" fill="rgb(56.92265%, 56.92265%, 56.92265%)" fill-opacity="1" d="M 532.777344 244.328125 C 532.777344 237.746094 522.90625 237.746094 522.90625 244.328125 C 522.90625 250.90625 532.777344 250.90625 532.777344 244.328125 Z M 532.777344 244.328125 "/>
<path fill-rule="nonzero" fill="rgb(32.679403%, 32.679403%, 32.679403%)" fill-opacity="1" d="M 487.796875 132.140625 C 487.796875 125.558594 477.929688 125.558594 477.929688 132.140625 C 477.929688 138.71875 487.796875 138.71875 487.796875 132.140625 Z M 487.796875 132.140625 "/>
<path fill-rule="nonzero" fill="rgb(33.360752%, 33.360752%, 33.360752%)" fill-opacity="1" d="M 356.960938 240.1875 C 356.960938 233.609375 347.089844 233.609375 347.089844 240.1875 C 347.089844 246.769531 356.960938 246.769531 356.960938 240.1875 Z M 356.960938 240.1875 "/>
<path fill-rule="nonzero" fill="rgb(46.460602%, 46.460602%, 46.460602%)" fill-opacity="1" d="M 364.851562 324.394531 C 364.851562 317.816406 354.980469 317.816406 354.980469 324.394531 C 354.980469 330.976562 364.851562 330.976562 364.851562 324.394531 Z M 364.851562 324.394531 "/>
<path fill-rule="nonzero" fill="rgb(60.929358%, 60.929358%, 60.929358%)" fill-opacity="1" d="M 564.066406 381.636719 C 564.066406 375.058594 554.195312 375.058594 554.195312 381.636719 C 554.195312 388.21875 564.066406 388.21875 564.066406 381.636719 Z M 564.066406 381.636719 "/>
<path fill-rule="nonzero" fill="rgb(16.232599%, 16.232599%, 16.232599%)" fill-opacity="1" d="M 251.300781 160.605469 C 251.300781 154.027344 241.429688 154.027344 241.429688 160.605469 C 241.429688 167.1875 251.300781 167.1875 251.300781 160.605469 Z M 251.300781 160.605469 "/>
<path fill-rule="nonzero" fill="rgb(15.749386%, 15.749386%, 15.749386%)" fill-opacity="1" d="M 285.652344 148.128906 C 285.652344 141.546875 275.785156 141.546875 275.785156 148.128906 C 275.785156 154.707031 285.652344 154.707031 285.652344 148.128906 Z M 285.652344 148.128906 "/>
<path fill-rule="nonzero" fill="rgb(30.233067%, 30.233067%, 30.233067%)" fill-opacity="1" d="M 320.332031 195.832031 C 320.332031 189.253906 310.464844 189.253906 310.464844 195.832031 C 310.464844 202.414062 320.332031 202.414062 320.332031 195.832031 Z M 320.332031 195.832031 "/>
<path fill-rule="nonzero" fill="rgb(58.20235%, 58.20235%, 58.20235%)" fill-opacity="1" d="M 614.554688 360.179688 C 614.554688 353.601562 604.683594 353.601562 604.683594 360.179688 C 604.683594 366.761719 614.554688 366.761719 614.554688 360.179688 Z M 614.554688 360.179688 "/>
<path fill-rule="nonzero" fill="rgb(50.573593%, 50.573593%, 50.573593%)" fill-opacity="1" d="M 628.769531 303.332031 C 628.769531 296.753906 618.898438 296.753906 618.898438 303.332031 C 618.898438 309.914062 628.769531 309.914062 628.769531 303.332031 Z M 628.769531 303.332031 "/>
<path fill-rule="nonzero" fill="rgb(53.323013%, 53.323013%, 53.323013%)" fill-opacity="1" d="M 429.371094 299.253906 C 429.371094 292.671875 419.503906 292.671875 419.503906 299.253906 C 419.503906 305.832031 429.371094 305.832031 429.371094 299.253906 Z M 429.371094 299.253906 "/>
<path fill-rule="nonzero" fill="rgb(80.795836%, 80.795836%, 80.795836%)" fill-opacity="1" d="M 727.691406 342.636719 C 727.691406 336.058594 717.820312 336.058594 717.820312 342.636719 C 717.820312 349.21875 727.691406 349.21875 727.691406 342.636719 Z M 727.691406 342.636719 "/>
<path fill-rule="nonzero" fill="rgb(13.776366%, 13.776366%, 13.776366%)" fill-opacity="1" d="M 187.808594 66.703125 C 187.808594 60.125 177.9375 60.125 177.9375 66.703125 C 177.9375 73.285156 187.808594 73.285156 187.808594 66.703125 Z M 187.808594 66.703125 "/>
<path fill-rule="nonzero" fill="rgb(52.991807%, 52.991807%, 52.991807%)" fill-opacity="1" d="M 303.917969 495.972656 C 303.917969 489.394531 294.046875 489.394531 294.046875 495.972656 C 294.046875 502.554688 303.917969 502.554688 303.917969 495.972656 Z M 303.917969 495.972656 "/>
<path fill-rule="nonzero" fill="rgb(31.44424%, 31.44424%, 31.44424%)" fill-opacity="1" d="M 227.136719 317.382812 C 227.136719 310.800781 217.269531 310.800781 217.269531 317.382812 C 217.269531 323.960938 227.136719 323.960938 227.136719 317.382812 Z M 227.136719 317.382812 "/>
<path fill-rule="nonzero" fill="rgb(46.310371%, 46.310371%, 46.310371%)" fill-opacity="1" d="M 177.160156 465.261719 C 177.160156 458.683594 167.289062 458.683594 167.289062 465.261719 C 167.289062 471.84375 177.160156 471.84375 177.160156 465.261719 Z M 177.160156 465.261719 "/>
<path fill-rule="nonzero" fill="rgb(13.197429%, 13.197429%, 13.197429%)" fill-opacity="1" d="M 104.296875 213.6875 C 104.296875 207.109375 94.429688 207.109375 94.429688 213.6875 C 94.429688 220.265625 104.296875 220.265625 104.296875 213.6875 Z M 104.296875 213.6875 "/>
<path fill-rule="nonzero" fill="rgb(38.032523%, 38.032523%, 38.032523%)" fill-opacity="1" d="M 242.773438 359.273438 C 242.773438 352.691406 232.90625 352.691406 232.90625 359.273438 C 232.90625 365.851562 242.773438 365.851562 242.773438 359.273438 Z M 242.773438 359.273438 "/>
<path fill-rule="nonzero" fill="rgb(31.163567%, 31.163567%, 31.163567%)" fill-opacity="1" d="M 155.015625 341.199219 C 155.015625 334.621094 145.148438 334.621094 145.148438 341.199219 C 145.148438 347.78125 155.015625 347.78125 155.015625 341.199219 Z M 155.015625 341.199219 "/>
<path fill-rule="nonzero" fill="rgb(59.002733%, 59.002733%, 59.002733%)" fill-opacity="1" d="M 305.480469 411.609375 C 305.480469 405.027344 295.613281 405.027344 295.613281 411.609375 C 295.613281 418.1875 305.480469 418.1875 305.480469 411.609375 Z M 305.480469 411.609375 "/>
<path fill-rule="nonzero" fill="rgb(11.356803%, 11.356803%, 11.356803%)" fill-opacity="1" d="M 133.902344 224.527344 C 133.902344 217.949219 124.03125 217.949219 124.03125 224.527344 C 124.03125 231.109375 133.902344 231.109375 133.902344 224.527344 Z M 133.902344 224.527344 "/>
<path fill-rule="nonzero" fill="rgb(61.900657%, 61.900657%, 61.900657%)" fill-opacity="1" d="M 272.480469 518.046875 C 272.480469 511.464844 262.609375 511.464844 262.609375 518.046875 C 262.609375 524.625 272.480469 524.625 272.480469 518.046875 Z M 272.480469 518.046875 "/>
<path fill="none" stroke-width="1" stroke-linecap="butt" stroke-linejoin="miter" stroke="rgb(0%, 0%, 0%)" stroke-opacity="1" stroke-miterlimit="1.154701" d="M 115.9375 541.5 L 115.9375 546.5 "/>
<path fill="none" stroke-width="1" stroke-linecap="butt" stroke-linejoin="miter" stroke="rgb(0%, 0%, 0%)" stroke-opacity="1" stroke-miterlimit="1.154701" d="M 243.613281 541.5 L 243.613281 546.5 "/>
<path fill="none" stroke-width="1" stroke-linecap="butt" stroke-linejoin="miter" stroke="rgb(0%, 0%, 0%)" stroke-opacity="1" stroke-miterlimit="1.154701" d="M 371.289062 541.5 L 371.289062 546.5 "/>
<path fill="none" stroke-width="1" stroke-linecap="butt" stroke-linejoin="miter" stroke="rgb(0%, 0%, 0%)" stroke-opacity="1" stroke-miterlimit="1.154701" d="M 498.960938 541.5 L 498.960938 546.5 "/>
<path fill="none" stroke-width="1" stroke-linecap="butt" stroke-linejoin="miter" stroke="rgb(0%, 0%, 0%)" stroke-opacity="1" stroke-miterlimit="1.154701" d="M 626.636719 541.5 L 626.636719 546.5 "/>
<path fill="none" stroke-width="1" stroke-linecap="butt" stroke-linejoin="miter" stroke="rgb(0%, 0%, 0%)" stroke-opacity="1" stroke-miterlimit="1.154701" d="M 754.3125 541.5 L 754.3125 546.5 "/>
<path fill="none" stroke-width="1" stroke-linecap="butt" stroke-linejoin="miter" stroke="rgb(0%, 0%, 0%)" stroke-opacity="1" stroke-miterlimit="1.154701" d="M 881.984375 541.5 L 881.984375 546.5 "/>
<path fill="none" stroke-width="1" stroke-linecap="butt" stroke-linejoin="miter" stroke="rgb(0%, 0%, 0%)" stroke-opacity="1" stroke-miterlimit="1.154701" d="M 61.5 476.59375 L 56.5 476.59375 "/>
<path fill="none" stroke-width="1" stroke-linecap="butt" stroke-linejoin="miter" stroke="rgb(0%, 0%, 0%)" stroke-opacity="1" stroke-miterlimit="1.154701" d="M 61.5 308.949219 L 56.5 308.949219 "/>
<path fill="none" stroke-width="1" stroke-linecap="butt" stroke-linejoin="miter" stroke="rgb(0%, 0%, 0%)" stroke-opacity="1" stroke-miterlimit="1.154701" d="M 61.5 141.300781 L 56.5 141.300781 "/>
<path fill="none" stroke-width="1" stroke-linecap="butt" stroke-linejoin="miter" stroke="rgb(0%, 0%, 0%)" stroke-opacity="1" stroke-miterlimit="1.154701" d="M 61.5 541 L 884.5 541 "/>
<path fill="none" stroke-width="1" stroke-linecap="butt" stroke-linejoin="miter" stroke="rgb(0%, 0%, 0%)" stroke-opacity="1" stroke-miterlimit="1.154701" d="M 62 541.5 L 62 35.5 "/>
<path fill="none" stroke-width="1" stroke-linecap="butt" stroke-linejoin="miter" stroke="rgb(0%, 0%, 0%)" stroke-opacity="1" stroke-miterlimit="1.154701" d="M 61.5 36 L 884.5 36 "/>
<path fill="none" stroke-width="1" stroke-linecap="butt" stroke-linejoin="miter" stroke="rgb(0%, 0%, 0%)" stroke-opacity="1" stroke-miterlimit="1.154701" d="M 884 541.5 L 884 35.5 "/>
</svg>
