<?xml version="1.0" encoding="UTF-8"?>
<svg xmlns="http://www.w3.org/2000/svg" xmlns:xlink="http://www.w3.org/1999/xlink" width="900" height="600" viewBox="0 0 900 600">
<defs>
<g>
<g id="glyph-0-0-4f21523a">
<path d="M 7.46875 0 C 7.46875 0 1.125 0 1.125 0 C 1.125 0 1.125 -10.203125 1.125 -10.203125 C 1.125 -10.203125 2.421875 -10.203125 2.421875 -10.203125 C 2.421875 -10.203125 2.421875 -1.140625 2.421875 -1.140625 C 2.421875 -1.140625 7.46875 -1.140625 7.46875 -1.140625 C 7.46875 -1.140625 7.46875 0 7.46875 0 Z M 7.46875 0 "/>
</g>
<g id="glyph-0-1-4f21523a">
<path d="M 7.484375 -0.03125 C 7.109375 0.0625 6.9375 0.09375 6.6875 0.09375 C 6.125 0.09375 5.609375 -0.3125 5.484375 -0.875 C 4.84375 -0.1875 3.9375 0.203125 3 0.203125 C 1.515625 0.203125 0.59375 -0.578125 0.59375 -1.90625 C 0.59375 -2.796875 1.015625 -3.453125 1.875 -3.8125 C 2.328125 -3.984375 2.578125 -4.046875 4.234375 -4.25 C 5.15625 -4.375 5.453125 -4.578125 5.453125 -5.0625 C 5.453125 -5.0625 5.453125 -5.375 5.453125 -5.375 C 5.453125 -6.078125 4.859375 -6.46875 3.8125 -6.46875 C 2.71875 -6.46875 2.1875 -6.0625 2.09375 -5.171875 C 2.09375 -5.171875 0.90625 -5.171875 0.90625 -5.171875 C 0.984375 -6.859375 2.078125 -7.546875 3.84375 -7.546875 C 5.65625 -7.546875 6.609375 -6.84375 6.609375 -5.546875 C 6.609375 -5.546875 6.609375 -1.453125 6.609375 -1.453125 C 6.609375 -1.09375 6.828125 -0.875 7.234375 -0.875 C 7.3125 -0.875 7.359375 -0.875 7.484375 -0.90625 C 7.484375 -0.90625 7.484375 -0.03125 7.484375 -0.03125 Z M 5.453125 -2.53125 C 5.453125 -2.53125 5.453125 -3.625 5.453125 -3.625 C 5.046875 -3.4375 4.796875 -3.390625 3.5625 -3.21875 C 2.328125 -3.03125 1.8125 -2.703125 1.8125 -1.9375 C 1.8125 -1.140625 2.34375 -0.8125 3.25 -0.8125 C 4.375 -0.8125 5.453125 -1.484375 5.453125 -2.53125 Z M 5.453125 -2.53125 "/>
</g>
<g id="glyph-0-2-4f21523a">
<path d="M 3.5625 0 C 3.15625 0.0625 2.890625 0.09375 2.609375 0.09375 C 1.6875 0.09375 1.1875 -0.328125 1.1875 -1.0625 C 1.1875 -1.0625 1.1875 -6.390625 1.1875 -6.390625 C 1.1875 -6.390625 0.203125 -6.390625 0.203125 -6.390625 C 0.203125 -6.390625 0.203125 -7.34375 0.203125 -7.34375 C 0.203125 -7.34375 1.1875 -7.34375 1.1875 -7.34375 C 1.1875 -7.34375 1.1875 -9.359375 1.1875 -9.359375 C 1.1875 -9.359375 2.359375 -9.359375 2.359375 -9.359375 C 2.359375 -9.359375 2.359375 -7.34375 2.359375 -7.34375 C 2.359375 -7.34375 3.5625 -7.34375 3.5625 -7.34375 C 3.5625 -7.34375 3.5625 -6.390625 3.5625 -6.390625 C 3.5625 -6.390625 2.359375 -6.390625 2.359375 -6.390625 C 2.359375 -6.390625 2.359375 -1.578125 2.359375 -1.578125 C 2.359375 -1.0625 2.484375 -0.921875 3 -0.921875 C 3.21875 -0.921875 3.40625 -0.9375 3.5625 -0.984375 C 3.5625 -0.984375 3.5625 0 3.5625 0 Z M 3.5625 0 "/>
</g>
<g id="glyph-0-3-4f21523a">
<path d="M 7.1875 -3.328125 C 7.1875 -3.328125 1.78125 -3.328125 1.78125 -3.328125 C 1.8125 -1.65625 2.71875 -0.875 3.9375 -0.875 C 4.875 -0.875 5.53125 -1.265625 5.859375 -2.21875 C 5.859375 -2.21875 7.03125 -2.21875 7.03125 -2.21875 C 6.734375 -0.734375 5.578125 0.203125 3.890625 0.203125 C 1.828125 0.203125 0.5625 -1.21875 0.5625 -3.625 C 0.5625 -6.03125 1.875 -7.546875 3.921875 -7.546875 C 5.296875 -7.546875 6.40625 -6.8125 6.890625 -5.609375 C 7.09375 -5.0625 7.1875 -4.390625 7.1875 -3.328125 Z M 5.9375 -4.375 C 5.9375 -5.515625 5.046875 -6.46875 3.90625 -6.46875 C 2.734375 -6.46875 1.90625 -5.59375 1.8125 -4.28125 C 1.8125 -4.28125 5.921875 -4.28125 5.921875 -4.28125 C 5.9375 -4.3125 5.9375 -4.375 5.9375 -4.375 Z M 5.9375 -4.375 "/>
</g>
<g id="glyph-0-4-4f21523a">
<path d="M 6.8125 0 C 6.8125 0 5.65625 0 5.65625 0 C 5.65625 0 5.65625 -5.078125 5.65625 -5.078125 C 5.65625 -5.96875 5.0625 -6.53125 4.140625 -6.53125 C 2.953125 -6.53125 2.140625 -5.546875 2.140625 -4.046875 C 2.140625 -4.046875 2.140625 0 2.140625 0 C 2.140625 0 0.984375 0 0.984375 0 C 0.984375 0 0.984375 -7.34375 0.984375 -7.34375 C 0.984375 -7.34375 2.0625 -7.34375 2.0625 -7.34375 C 2.0625 -7.34375 2.0625 -6.109375 2.0625 -6.109375 C 2.703125 -7.125 3.40625 -7.546875 4.5 -7.546875 C 5.90625 -7.546875 6.8125 -6.765625 6.8125 -5.546875 C 6.8125 -5.546875 6.8125 0 6.8125 0 Z M 6.8125 0 "/>
</g>
<g id="glyph-0-5-4f21523a">
<path d="M 9.03125 -10.203125 C 9.03125 -10.203125 5.484375 0 5.484375 0 C 5.484375 0 4.09375 0 4.09375 0 C 4.09375 0 0.421875 -10.203125 0.421875 -10.203125 C 0.421875 -10.203125 1.8125 -10.203125 1.8125 -10.203125 C 1.8125 -10.203125 4.8125 -1.5625 4.8125 -1.5625 C 4.8125 -1.5625 7.640625 -10.203125 7.640625 -10.203125 C 7.640625 -10.203125 9.03125 -10.203125 9.03125 -10.203125 Z M 9.03125 -10.203125 "/>
</g>
<g id="glyph-0-6-4f21523a">
<path d="M 4.5 -6.3125 C 2.6875 -6.28125 2.140625 -5.453125 2.140625 -3.8125 C 2.140625 -3.8125 2.140625 0 2.140625 0 C 2.140625 0 0.984375 0 0.984375 0 C 0.984375 0 0.984375 -7.34375 0.984375 -7.34375 C 0.984375 -7.34375 2.046875 -7.34375 2.046875 -7.34375 C 2.046875 -7.34375 2.046875 -6 2.046875 -6 C 2.71875 -7.09375 3.296875 -7.546875 4.046875 -7.546875 C 4.203125 -7.546875 4.296875 -7.53125 4.5 -7.5 C 4.5 -7.5 4.5 -6.3125 4.5 -6.3125 Z M 4.5 -6.3125 "/>
</g>
<g id="glyph-0-7-4f21523a">
<path d="M 2.140625 0 C 2.140625 0 0.984375 0 0.984375 0 C 0.984375 0 0.984375 -7.34375 0.984375 -7.34375 C 0.984375 -7.34375 2.140625 -7.34375 2.140625 -7.34375 C 2.140625 -7.34375 2.140625 0 2.140625 0 Z M 2.296875 -8.4375 C 2.296875 -8.4375 0.84375 -8.4375 0.84375 -8.4375 C 0.84375 -8.4375 0.84375 -9.890625 0.84375 -9.890625 C 0.84375 -9.890625 2.296875 -9.890625 2.296875 -9.890625 C 2.296875 -9.890625 2.296875 -8.4375 2.296875 -8.4375 Z M 2.296875 -8.4375 "/>
</g>
<g id="glyph-0-8-4f21523a">
<path d="M 7.328125 -3.75 C 7.328125 -1.375 6.0625 0.203125 4.125 0.203125 C 3.109375 0.203125 2.359375 -0.203125 1.8125 -1.046875 C 1.8125 -1.046875 1.8125 0 1.8125 0 C 1.8125 0 0.75 0 0.75 0 C 0.75 0 0.75 -10.203125 0.75 -10.203125 C 0.75 -10.203125 1.921875 -10.203125 1.921875 -10.203125 C 1.921875 -10.203125 1.921875 -6.34375 1.921875 -6.34375 C 2.46875 -7.171875 3.171875 -7.546875 4.1875 -7.546875 C 6.125 -7.546875 7.328125 -6.125 7.328125 -3.75 Z M 6.109375 -3.6875 C 6.109375 -5.3125 5.265625 -6.453125 3.96875 -6.453125 C 2.734375 -6.515625 1.921875 -5.390625 1.921875 -3.671875 C 1.921875 -2 2.734375 -0.875 3.96875 -0.875 C 5.234375 -0.875 6.109375 -2.015625 6.109375 -3.6875 Z M 6.109375 -3.6875 "/>
</g>
<g id="glyph-0-9-4f21523a">
</g>
<g id="glyph-0-10-4f21523a">
<path d="M 4.859375 0 C 4.859375 0 3.625 0 3.625 0 C 3.625 0 3.625 -7.0625 3.625 -7.0625 C 3.625 -7.0625 1.421875 -7.0625 1.421875 -7.0625 C 1.421875 -7.0625 1.421875 -7.953125 1.421875 -7.953125 C 3.328125 -8.1875 3.609375 -8.40625 4.046875 -9.921875 C 4.046875 -9.921875 4.859375 -9.921875 4.859375 -9.921875 C 4.859375 -9.921875 4.859375 0 4.859375 0 Z M 4.859375 0 "/>
</g>
<g id="glyph-0-11-4f21523a">
<path d="M 7.09375 -4.78125 C 7.09375 -1.515625 5.953125 0.203125 3.84375 0.203125 C 1.71875 0.203125 0.609375 -1.515625 0.609375 -4.859375 C 0.609375 -8.1875 1.703125 -9.921875 3.84375 -9.921875 C 6 -9.921875 7.09375 -8.21875 7.09375 -4.78125 Z M 5.84375 -4.890625 C 5.84375 -7.546875 5.1875 -8.828125 3.84375 -8.828125 C 2.515625 -8.828125 1.859375 -7.5625 1.859375 -4.84375 C 1.859375 -2.125 2.515625 -0.8125 3.828125 -0.8125 C 5.1875 -0.8125 5.84375 -2.078125 5.84375 -4.890625 Z M 5.84375 -4.890625 "/>
</g>
<g id="glyph-0-12-4f21523a">
<path d="M 7.15625 -7.015625 C 7.15625 -5.796875 6.4375 -4.765625 5.046875 -4.015625 C 5.046875 -4.015625 3.65625 -3.265625 3.65625 -3.265625 C 2.4375 -2.546875 1.984375 -2.03125 1.859375 -1.21875 C 1.859375 -1.21875 7.078125 -1.21875 7.078125 -1.21875 C 7.078125 -1.21875 7.078125 0 7.078125 0 C 7.078125 0 0.46875 0 0.46875 0 C 0.59375 -2.1875 1.1875 -3.125 3.265625 -4.296875 C 3.265625 -4.296875 4.546875 -5.03125 4.546875 -5.03125 C 5.4375 -5.53125 5.890625 -6.203125 5.890625 -6.984375 C 5.890625 -8.046875 5.046875 -8.84375 3.9375 -8.84375 C 2.71875 -8.84375 2.03125 -8.140625 1.9375 -6.484375 C 1.9375 -6.484375 0.703125 -6.484375 0.703125 -6.484375 C 0.765625 -8.890625 1.953125 -9.921875 3.96875 -9.921875 C 5.859375 -9.921875 7.15625 -8.6875 7.15625 -7.015625 Z M 7.15625 -7.015625 "/>
</g>
<g id="glyph-0-13-4f21523a">
<path d="M 7.28125 -2.375 C 7.28125 -2.375 5.8125 -2.375 5.8125 -2.375 C 5.8125 -2.375 5.8125 0 5.8125 0 C 5.8125 0 4.578125 0 4.578125 0 C 4.578125 0 4.578125 -2.375 4.578125 -2.375 C 4.578125 -2.375 0.390625 -2.375 0.390625 -2.375 C 0.390625 -2.375 0.390625 -3.6875 0.390625 -3.6875 C 0.390625 -3.6875 4.90625 -9.921875 4.90625 -9.921875 C 4.90625 -9.921875 5.8125 -9.921875 5.8125 -9.921875 C 5.8125 -9.921875 5.8125 -3.484375 5.8125 -3.484375 C 5.8125 -3.484375 7.28125 -3.484375 7.28125 -3.484375 C 7.28125 -3.484375 7.28125 -2.375 7.28125 -2.375 Z M 4.578125 -3.484375 C 4.578125 -3.484375 4.578125 -7.828125 4.578125 -7.828125 C 4.578125 -7.828125 1.46875 -3.484375 1.46875 -3.484375 C 1.46875 -3.484375 4.578125 -3.484375 4.578125 -3.484375 Z M 4.578125 -3.484375 "/>
</g>
<g id="glyph-0-14-4f21523a">
<path d="M 7.21875 -3.03125 C 7.21875 -3.03125 0.953125 -3.03125 0.953125 -3.03125 C 0.953125 -3.03125 0.953125 -3.96875 0.953125 -3.96875 C 0.953125 -3.96875 7.21875 -3.96875 7.21875 -3.96875 C 7.21875 -3.96875 7.21875 -3.03125 7.21875 -3.03125 Z M 7.21875 -3.03125 "/>
</g>
<g id="glyph-1-0-4f21523a">
<path d="M 2.109375 0 C 2.109375 0 0.953125 0 0.953125 0 C 0.953125 0 0.953125 -10.203125 0.953125 -10.203125 C 0.953125 -10.203125 2.109375 -10.203125 2.109375 -10.203125 C 2.109375 -10.203125 2.109375 0 2.109375 0 Z M 2.109375 0 "/>
</g>
<g id="glyph-2-0-4f21523a">
<path d="M 0 -7.46875 C 0 -7.46875 0 -1.125 0 -1.125 C 0 -1.125 -10.203125 -1.125 -10.203125 -1.125 C -10.203125 -1.125 -10.203125 -2.421875 -10.203125 -2.421875 C -10.203125 -2.421875 -1.140625 -2.421875 -1.140625 -2.421875 C -1.140625 -2.421875 -1.140625 -7.46875 -1.140625 -7.46875 C -1.140625 -7.46875 0 -7.46875 0 -7.46875 Z M 0 -7.46875 "/>
</g>
<g id="glyph-2-1-4f21523a">
<path d="M -3.328125 -7.1875 C -3.328125 -7.1875 -3.328125 -1.78125 -3.328125 -1.78125 C -1.65625 -1.8125 -0.875 -2.71875 -0.875 -3.9375 C -0.875 -4.875 -1.265625 -5.53125 -2.21875 -5.859375 C -2.21875 -5.859375 -2.21875 -7.03125 -2.21875 -7.03125 C -0.734375 -6.734375 0.203125 -5.578125 0.203125 -3.890625 C 0.203125 -1.828125 -1.21875 -0.5625 -3.625 -0.5625 C -6.03125 -0.5625 -7.546875 -1.875 -7.546875 -3.921875 C -7.546875 -5.296875 -6.8125 -6.40625 -5.609375 -6.890625 C -5.0625 -7.09375 -4.390625 -7.1875 -3.328125 -7.1875 Z M -4.375 -5.9375 C -5.515625 -5.9375 -6.46875 -5.046875 -6.46875 -3.90625 C -6.46875 -2.734375 -5.59375 -1.90625 -4.28125 -1.8125 C -4.28125 -1.8125 -4.28125 -5.921875 -4.28125 -5.921875 C -4.3125 -5.9375 -4.375 -5.9375 -4.375 -5.9375 Z M -4.375 -5.9375 "/>
</g>
<g id="glyph-2-2-4f21523a">
</g>
<g id="glyph-2-3-4f21523a">
<path d="M -10.203125 -9.03125 C -10.203125 -9.03125 0 -5.484375 0 -5.484375 C 0 -5.484375 0 -4.09375 0 -4.09375 C 0 -4.09375 -10.203125 -0.421875 -10.203125 -0.421875 C -10.203125 -0.421875 -10.203125 -1.8125 -10.203125 -1.8125 C -10.203125 -1.8125 -1.5625 -4.8125 -1.5625 -4.8125 C -1.5625 -4.8125 -10.203125 -7.640625 -10.203125 -7.640625 C -10.203125 -7.640625 -10.203125 -9.03125 -10.203125 -9.03125 Z M -10.203125 -9.03125 "/>
</g>
<g id="glyph-2-4-4f21523a">
<path d="M 0 -2.140625 C 0 -2.140625 0 -0.984375 0 -0.984375 C 0 -0.984375 -7.34375 -0.984375 -7.34375 -0.984375 C -7.34375 -0.984375 -7.34375 -2.140625 -7.34375 -2.140625 C -7.34375 -2.140625 0 -2.140625 0 -2.140625 Z M -8.4375 -2.296875 C -8.4375 -2.296875 -8.4375 -0.84375 -8.4375 -0.84375 C -8.4375 -0.84375 -9.890625 -0.84375 -9.890625 -0.84375 C -9.890625 -0.84375 -9.890625 -2.296875 -9.890625 -2.296875 C -9.890625 -2.296875 -8.4375 -2.296875 -8.4375 -2.296875 Z M -8.4375 -2.296875 "/>
</g>
<g id="glyph-2-5-4f21523a">
<path d="M 0 -2.109375 C 0 -2.109375 0 -0.953125 0 -0.953125 C 0 -0.953125 -10.203125 -0.953125 -10.203125 -0.953125 C -10.203125 -0.953125 -10.203125 -2.109375 -10.203125 -2.109375 C -10.203125 -2.109375 0 -2.109375 0 -2.109375 Z M 0 -2.109375 "/>
</g>
<g id="glyph-3-0-4f21523a">
<path d="M -0.03125 -7.484375 C 0.0625 -7.109375 0.09375 -6.9375 0.09375 -6.6875 C 0.09375 -6.125 -0.3125 -5.609375 -0.875 -5.484375 C -0.1875 -4.84375 0.203125 -3.9375 0.203125 -3 C 0.203125 -1.515625 -0.578125 -0.59375 -1.90625 -0.59375 C -2.796875 -0.59375 -3.453125 -1.015625 -3.8125 -1.875 C -3.984375 -2.328125 -4.046875 -2.578125 -4.25 -4.234375 C -4.375 -5.15625 -4.578125 -5.453125 -5.0625 -5.453125 C -5.0625 -5.453125 -5.375 -5.453125 -5.375 -5.453125 C -6.078125 -5.453125 -6.46875 -4.859375 -6.46875 -3.8125 C -6.46875 -2.71875 -6.0625 -2.1875 -5.171875 -2.09375 C -5.171875 -2.09375 -5.171875 -0.90625 -5.171875 -0.90625 C -6.859375 -0.984375 -7.546875 -2.078125 -7.546875 -3.84375 C -7.546875 -5.65625 -6.84375 -6.609375 -5.546875 -6.609375 C -5.546875 -6.609375 -1.453125 -6.609375 -1.453125 -6.609375 C -1.09375 -6.609375 -0.875 -6.828125 -0.875 -7.234375 C -0.875 -7.3125 -0.875 -7.359375 -0.90625 -7.484375 C -0.90625 -7.484375 -0.03125 -7.484375 -0.03125 -7.484375 Z M -2.53125 -5.453125 C -2.53125 -5.453125 -3.625 -5.453125 -3.625 -5.453125 C -3.4375 -5.046875 -3.390625 -4.796875 -3.21875 -3.5625 C -3.03125 -2.328125 -2.703125 -1.8125 -1.9375 -1.8125 C -1.140625 -1.8125 -0.8125 -2.34375 -0.8125 -3.25 C -0.8125 -4.375 -1.484375 -5.453125 -2.53125 -5.453125 Z M -2.53125 -5.453125 "/>
</g>
<g id="glyph-4-0-4f21523a">
<path d="M 0 -3.5625 C 0.0625 -3.15625 0.09375 -2.890625 0.09375 -2.609375 C 0.09375 -1.6875 -0.328125 -1.1875 -1.0625 -1.1875 C -1.0625 -1.1875 -6.390625 -1.1875 -6.390625 -1.1875 C -6.390625 -1.1875 -6.390625 -0.203125 -6.390625 -0.203125 C -6.390625 -0.203125 -7.34375 -0.203125 -7.34375 -0.203125 C -7.34375 -0.203125 -7.34375 -1.1875 -7.34375 -1.1875 C -7.34375 -1.1875 -9.359375 -1.1875 -9.359375 -1.1875 C -9.359375 -1.1875 -9.359375 -2.359375 -9.359375 -2.359375 C -9.359375 -2.359375 -7.34375 -2.359375 -7.34375 -2.359375 C -7.34375 -2.359375 -7.34375 -3.5625 -7.34375 -3.5625 C -7.34375 -3.5625 -6.390625 -3.5625 -6.390625 -3.5625 C -6.390625 -3.5625 -6.390625 -2.359375 -6.390625 -2.359375 C -6.390625 -2.359375 -1.578125 -2.359375 -1.578125 -2.359375 C -1.0625 -2.359375 -0.921875 -2.484375 -0.921875 -3 C -0.921875 -3.21875 -0.9375 -3.40625 -0.984375 -3.5625 C -0.984375 -3.5625 0 -3.5625 0 -3.5625 Z M 0 -3.5625 "/>
</g>
<g id="glyph-4-1-4f21523a">
<path d="M -6.3125 -4.5 C -6.28125 -2.6875 -5.453125 -2.140625 -3.8125 -2.140625 C -3.8125 -2.140625 0 -2.140625 0 -2.140625 C 0 -2.140625 0 -0.984375 0 -0.984375 C 0 -0.984375 -7.34375 -0.984375 -7.34375 -0.984375 C -7.34375 -0.984375 -7.34375 -2.046875 -7.34375 -2.046875 C -7.34375 -2.046875 -6 -2.046875 -6 -2.046875 C -7.09375 -2.71875 -7.546875 -3.296875 -7.546875 -4.046875 C -7.546875 -4.203125 -7.53125 -4.296875 -7.5 -4.5 C -7.5 -4.5 -6.3125 -4.5 -6.3125 -4.5 Z M -6.3125 -4.5 "/>
</g>
<g id="glyph-4-2-4f21523a">
<path d="M -3.75 -7.328125 C -1.375 -7.328125 0.203125 -6.0625 0.203125 -4.125 C 0.203125 -3.109375 -0.203125 -2.359375 -1.046875 -1.8125 C -1.046875 -1.8125 0 -1.8125 0 -1.8125 C 0 -1.8125 0 -0.75 0 -0.75 C 0 -0.75 -10.203125 -0.75 -10.203125 -0.75 C -10.203125 -0.75 -10.203125 -1.921875 -10.203125 -1.921875 C -10.203125 -1.921875 -6.34375 -1.921875 -6.34375 -1.921875 C -7.171875 -2.46875 -7.546875 -3.171875 -7.546875 -4.1875 C -7.546875 -6.125 -6.125 -7.328125 -3.75 -7.328125 Z M -3.6875 -6.109375 C -5.3125 -6.109375 -6.453125 -5.265625 -6.453125 -3.96875 C -6.515625 -2.734375 -5.390625 -1.921875 -3.671875 -1.921875 C -2 -1.921875 -0.875 -2.734375 -0.875 -3.96875 C -0.875 -5.234375 -2.015625 -6.109375 -3.6875 -6.109375 Z M -3.6875 -6.109375 "/>
</g>
<g id="glyph-4-3-4f21523a">
<path d="M -7.015625 -7.15625 C -5.796875 -7.15625 -4.765625 -6.4375 -4.015625 -5.046875 C -4.015625 -5.046875 -3.265625 -3.65625 -3.265625 -3.65625 C -2.546875 -2.4375 -2.03125 -1.984375 -1.21875 -1.859375 C -1.21875 -1.859375 -1.21875 -7.078125 -1.21875 -7.078125 C -1.21875 -7.078125 0 -7.078125 0 -7.078125 C 0 -7.078125 0 -0.46875 0 -0.46875 C -2.1875 -0.59375 -3.125 -1.1875 -4.296875 -3.265625 C -4.296875 -3.265625 -5.03125 -4.546875 -5.03125 -4.546875 C -5.53125 -5.4375 -6.203125 -5.890625 -6.984375 -5.890625 C -8.046875 -5.890625 -8.84375 -5.046875 -8.84375 -3.9375 C -8.84375 -2.71875 -8.140625 -2.03125 -6.484375 -1.9375 C -6.484375 -1.9375 -6.484375 -0.703125 -6.484375 -0.703125 C -8.890625 -0.765625 -9.921875 -1.953125 -9.921875 -3.96875 C -9.921875 -5.859375 -8.6875 -7.15625 -7.015625 -7.15625 Z M -7.015625 -7.15625 "/>
</g>
<g id="glyph-5-0-4f21523a">
<path d="M 0 -6.8125 C 0 -6.8125 0 -5.65625 0 -5.65625 C 0 -5.65625 -5.078125 -5.65625 -5.078125 -5.65625 C -5.96875 -5.65625 -6.53125 -5.0625 -6.53125 -4.140625 C -6.53125 -2.953125 -5.546875 -2.140625 -4.046875 -2.140625 C -4.046875 -2.140625 0 -2.140625 0 -2.140625 C 0 -2.140625 0 -0.984375 0 -0.984375 C 0 -0.984375 -7.34375 -0.984375 -7.34375 -0.984375 C -7.34375 -0.984375 -7.34375 -2.0625 -7.34375 -2.0625 C -7.34375 -2.0625 -6.109375 -2.0625 -6.109375 -2.0625 C -7.125 -2.703125 -7.546875 -3.40625 -7.546875 -4.5 C -7.546875 -5.90625 -6.765625 -6.8125 -5.546875 -6.8125 C -5.546875 -6.8125 0 -6.8125 0 -6.8125 Z M 0 -6.8125 "/>
</g>
<g id="glyph-5-1-4f21523a">
<path d="M -0.03125 -7.484375 C 0.0625 -7.109375 0.09375 -6.9375 0.09375 -6.6875 C 0.09375 -6.125 -0.3125 -5.609375 -0.875 -5.484375 C -0.1875 -4.84375 0.203125 -3.9375 0.203125 -3 C 0.203125 -1.515625 -0.578125 -0.59375 -1.90625 -0.59375 C -2.796875 -0.59375 -3.453125 -1.015625 -3.8125 -1.875 C -3.984375 -2.328125 -4.046875 -2.578125 -4.25 -4.234375 C -4.375 -5.15625 -4.578125 -5.453125 -5.0625 -5.453125 C -5.0625 -5.453125 -5.375 -5.453125 -5.375 -5.453125 C -6.078125 -5.453125 -6.46875 -4.859375 -6.46875 -3.8125 C -6.46875 -2.71875 -6.0625 -2.1875 -5.171875 -2.09375 C -5.171875 -2.09375 -5.171875 -0.90625 -5.171875 -0.90625 C -6.859375 -0.984375 -7.546875 -2.078125 -7.546875 -3.84375 C -7.546875 -5.65625 -6.84375 -6.609375 -5.546875 -6.609375 C -5.546875 -6.609375 -1.453125 -6.609375 -1.453125 -6.609375 C -1.09375 -6.609375 -0.875 -6.828125 -0.875 -7.234375 C -0.875 -7.3125 -0.875 -7.359375 -0.90625 -7.484375 C -0.90625 -7.484375 -0.03125 -7.484375 -0.03125 -7.484375 Z M -2.53125 -5.453125 C -2.53125 -5.453125 -3.625 -5.453125 -3.625 -5.453125 C -3.4375 -5.046875 -3.390625 -4.796875 -3.21875 -3.5625 C -3.03125 -2.328125 -2.703125 -1.8125 -1.9375 -1.8125 C -1.140625 -1.8125 -0.8125 -2.34375 -0.8125 -3.25 C -0.8125 -4.375 -1.484375 -5.453125 -2.53125 -5.453125 Z M -2.53125 -5.453125 "/>
</g>
<g id="glyph-5-2-4f21523a">
</g>
<g id="glyph-6-0-4f21523a">
<path d="M -0.03125 -7.484375 C 0.0625 -7.109375 0.09375 -6.9375 0.09375 -6.6875 C 0.09375 -6.125 -0.3125 -5.609375 -0.875 -5.484375 C -0.1875 -4.84375 0.203125 -3.9375 0.203125 -3 C 0.203125 -1.515625 -0.578125 -0.59375 -1.90625 -0.59375 C -2.796875 -0.59375 -3.453125 -1.015625 -3.8125 -1.875 C -3.984375 -2.328125 -4.046875 -2.578125 -4.25 -4.234375 C -4.375 -5.15625 -4.578125 -5.453125 -5.0625 -5.453125 C -5.0625 -5.453125 -5.375 -5.453125 -5.375 -5.453125 C -6.078125 -5.453125 -6.46875 -4.859375 -6.46875 -3.8125 C -6.46875 -2.71875 -6.0625 -2.1875 -5.171875 -2.09375 C -5.171875 -2.09375 -5.171875 -0.90625 -5.171875 -0.90625 C -6.859375 -0.984375 -7.546875 -2.078125 -7.546875 -3.84375 C -7.546875 -5.65625 -6.84375 -6.609375 -5.546875 -6.609375 C -5.546875 -6.609375 -1.453125 -6.609375 -1.453125 -6.609375 C -1.09375 -6.609375 -0.875 -6.828125 -0.875 -7.234375 C -0.875 -7.3125 -0.875 -7.359375 -0.90625 -7.484375 C -0.90625 -7.484375 -0.03125 -7.484375 -0.03125 -7.484375 Z M -2.53125 -5.453125 C -2.53125 -5.453125 -3.625 -5.453125 -3.625 -5.453125 C -3.4375 -5.046875 -3.390625 -4.796875 -3.21875 -3.5625 C -3.03125 -2.328125 -2.703125 -1.8125 -1.9375 -1.8125 C -1.140625 -1.8125 -0.8125 -2.34375 -0.8125 -3.25 C -0.8125 -4.375 -1.484375 -5.453125 -2.53125 -5.453125 Z M -2.53125 -5.453125 "/>
</g>
<g id="glyph-7-0-4f21523a">
<path d="M 9.59375 -3.484375 C 9.46875 -1.140625 7.765625 0.171875 5.234375 0.171875 C 2.390625 0.171875 0.609375 -1.8125 0.609375 -5.09375 C 0.609375 -8.40625 2.40625 -10.375 5.296875 -10.375 C 7.59375 -10.375 9.359375 -9.09375 9.546875 -6.75 C 9.546875 -6.75 7.546875 -6.75 7.546875 -6.75 C 7.234375 -8.0625 6.5 -8.578125 5.359375 -8.578125 C 3.703125 -8.578125 2.71875 -7.328125 2.71875 -5.0625 C 2.71875 -2.84375 3.671875 -1.59375 5.296875 -1.59375 C 6.59375 -1.59375 7.421875 -2.1875 7.546875 -3.484375 C 7.546875 -3.484375 9.59375 -3.484375 9.59375 -3.484375 Z M 9.59375 -3.484375 "/>
</g>
<g id="glyph-7-1-4f21523a">
<path d="M 8.859375 -7.046875 C 8.859375 -4.96875 7.65625 -3.640625 5.78125 -3.640625 C 5.78125 -3.640625 3.15625 -3.640625 3.15625 -3.640625 C 3.15625 -3.640625 3.15625 0 3.15625 0 C 3.15625 0 1.0625 0 1.0625 0 C 1.0625 0 1.0625 -10.203125 1.0625 -10.203125 C 1.0625 -10.203125 5.578125 -10.203125 5.578125 -10.203125 C 7.703125 -10.203125 8.859375 -9.09375 8.859375 -7.046875 Z M 6.765625 -6.921875 C 6.765625 -7.96875 6.25 -8.453125 5.125 -8.453125 C 5.125 -8.453125 3.15625 -8.453125 3.15625 -8.453125 C 3.15625 -8.453125 3.15625 -5.390625 3.15625 -5.390625 C 3.15625 -5.390625 5.125 -5.390625 5.125 -5.390625 C 6.25 -5.390625 6.765625 -5.875 6.765625 -6.921875 Z M 6.765625 -6.921875 "/>
</g>
<g id="glyph-7-2-4f21523a">
<path d="M 8.109375 0 C 8.109375 0 1.125 0 1.125 0 C 1.125 0 1.125 -10.203125 1.125 -10.203125 C 1.125 -10.203125 3.21875 -10.203125 3.21875 -10.203125 C 3.21875 -10.203125 3.21875 -1.75 3.21875 -1.75 C 3.21875 -1.75 8.109375 -1.75 8.109375 -1.75 C 8.109375 -1.75 8.109375 0 8.109375 0 Z M 8.109375 0 "/>
</g>
<g id="glyph-7-3-4f21523a">
<path d="M 8.859375 -3.0625 C 8.859375 -1 7.3125 0.171875 4.671875 0.171875 C 2.078125 0.171875 0.453125 -1.015625 0.453125 -3.203125 C 0.453125 -3.203125 2.484375 -3.203125 2.484375 -3.203125 C 2.484375 -2.109375 3.359375 -1.515625 4.78125 -1.515625 C 6.0625 -1.515625 6.84375 -1.953125 6.84375 -2.8125 C 6.84375 -3.640625 6.328125 -3.9375 4.921875 -4.21875 C 4.921875 -4.21875 3.5 -4.5 3.5 -4.5 C 1.421875 -4.90625 0.625 -5.640625 0.625 -7.234375 C 0.625 -9.21875 2.046875 -10.375 4.5 -10.375 C 6.984375 -10.375 8.5 -9.25 8.5 -7.09375 C 8.5 -7.09375 6.53125 -7.09375 6.53125 -7.09375 C 6.53125 -8.140625 5.71875 -8.6875 4.390625 -8.6875 C 3.3125 -8.6875 2.625 -8.203125 2.625 -7.4375 C 2.625 -6.6875 3.0625 -6.390625 4.5625 -6.109375 C 4.5625 -6.109375 6.15625 -5.796875 6.15625 -5.796875 C 8.046875 -5.4375 8.859375 -4.671875 8.859375 -3.0625 Z M 8.859375 -3.0625 "/>
</g>
<g id="glyph-7-4-4f21523a">
<path d="M 4.171875 -2.890625 C 4.171875 -2.890625 0.359375 -2.890625 0.359375 -2.890625 C 0.359375 -2.890625 0.359375 -4.78125 0.359375 -4.78125 C 0.359375 -4.78125 4.171875 -4.78125 4.171875 -4.78125 C 4.171875 -4.78125 4.171875 -2.890625 4.171875 -2.890625 Z M 4.171875 -2.890625 "/>
</g>
<g id="glyph-7-5-4f21523a">
<path d="M 9.53125 -5.109375 C 9.53125 -3.53125 9.09375 -2.140625 8.28125 -1.1875 C 7.59375 -0.359375 6.625 0 5.0625 0 C 5.0625 0 1.078125 0 1.078125 0 C 1.078125 0 1.078125 -10.203125 1.078125 -10.203125 C 1.078125 -10.203125 5.0625 -10.203125 5.0625 -10.203125 C 6.640625 -10.203125 7.609375 -9.859375 8.28125 -9.03125 C 9.09375 -8.0625 9.53125 -6.671875 9.53125 -5.109375 Z M 7.4375 -5.09375 C 7.4375 -7.34375 6.65625 -8.453125 5.0625 -8.453125 C 5.0625 -8.453125 3.171875 -8.453125 3.171875 -8.453125 C 3.171875 -8.453125 3.171875 -1.75 3.171875 -1.75 C 3.171875 -1.75 5.0625 -1.75 5.0625 -1.75 C 6.65625 -1.75 7.4375 -2.859375 7.4375 -5.09375 Z M 7.4375 -5.09375 "/>
</g>
<g id="glyph-7-6-4f21523a">
<path d="M 9.84375 0 C 9.84375 0 7.6875 0 7.6875 0 C 7.6875 0 7.015625 -2.0625 7.015625 -2.0625 C 7.015625 -2.0625 3.1875 -2.0625 3.1875 -2.0625 C 3.1875 -2.0625 2.5 0 2.5 0 C 2.5 0 0.359375 0 0.359375 0 C 0.359375 0 3.984375 -10.203125 3.984375 -10.203125 C 3.984375 -10.203125 6.3125 -10.203125 6.3125 -10.203125 C 6.3125 -10.203125 9.84375 0 9.84375 0 Z M 6.4375 -3.8125 C 6.4375 -3.8125 5.109375 -7.796875 5.109375 -7.796875 C 5.109375 -7.796875 3.78125 -3.8125 3.78125 -3.8125 C 3.78125 -3.8125 6.4375 -3.8125 6.4375 -3.8125 Z M 6.4375 -3.8125 "/>
</g>
<g id="glyph-7-7-4f21523a">
</g>
<g id="glyph-7-8-4f21523a">
<path d="M 7.28125 -2.234375 C 7.28125 -0.71875 6.109375 0.125 3.96875 0.125 C 1.6875 0.125 0.46875 -0.734375 0.40625 -2.390625 C 0.40625 -2.390625 2.328125 -2.390625 2.328125 -2.390625 C 2.484375 -1.578125 2.96875 -1.40625 3.859375 -1.40625 C 4.78125 -1.40625 5.3125 -1.59375 5.3125 -2.0625 C 5.3125 -2.265625 5.15625 -2.421875 4.65625 -2.578125 C 4.65625 -2.578125 2.328125 -3.296875 2.328125 -3.296875 C 0.921875 -3.734375 0.671875 -4.234375 0.671875 -5.171875 C 0.671875 -6.71875 1.859375 -7.6875 3.78125 -7.6875 C 5.8125 -7.6875 7.046875 -6.71875 7.0625 -5.125 C 7.0625 -5.125 5.1875 -5.125 5.1875 -5.125 C 5.171875 -5.8125 4.703125 -6.140625 3.765625 -6.140625 C 3.078125 -6.140625 2.625 -5.859375 2.625 -5.453125 C 2.625 -5.140625 2.765625 -5.015625 3.3125 -4.859375 C 3.3125 -4.859375 5.796875 -4.140625 5.796875 -4.140625 C 6.796875 -3.84375 7.28125 -3.203125 7.28125 -2.34375 C 7.28125 -2.34375 7.28125 -2.234375 7.28125 -2.234375 Z M 7.28125 -2.234375 "/>
</g>
<g id="glyph-7-9-4f21523a">
<path d="M 7.3125 -2.625 C 7.125 -1.015625 5.859375 0.125 4.015625 0.125 C 1.78125 0.125 0.46875 -1.234375 0.46875 -3.71875 C 0.46875 -6.296875 1.796875 -7.6875 4.046875 -7.6875 C 5.9375 -7.6875 7.171875 -6.578125 7.3125 -4.734375 C 7.3125 -4.734375 5.4375 -4.734375 5.4375 -4.734375 C 5.203125 -5.71875 4.828125 -6.109375 4.03125 -6.109375 C 2.796875 -6.109375 2.4375 -5.109375 2.4375 -3.71875 C 2.4375 -2.25 3.03125 -1.453125 4.03125 -1.453125 C 4.78125 -1.453125 5.1875 -1.828125 5.4375 -2.625 C 5.4375 -2.625 7.3125 -2.625 7.3125 -2.625 Z M 7.3125 -2.625 "/>
</g>
<g id="glyph-7-10-4f21523a">
<path d="M 7.96875 -3.71875 C 7.96875 -1.296875 6.53125 0.125 4.234375 0.125 C 1.90625 0.125 0.484375 -1.28125 0.484375 -3.78125 C 0.484375 -6.265625 1.90625 -7.6875 4.21875 -7.6875 C 6.578125 -7.6875 7.96875 -6.28125 7.96875 -3.71875 Z M 6 -3.75 C 6 -5.234375 5.3125 -6.109375 4.234375 -6.109375 C 3.15625 -6.109375 2.453125 -5.21875 2.453125 -3.78125 C 2.453125 -2.34375 3.15625 -1.453125 4.234375 -1.453125 C 5.28125 -1.453125 6 -2.34375 6 -3.75 Z M 6 -3.75 "/>
</g>
<g id="glyph-7-11-4f21523a">
<path d="M 5.1875 -5.6875 C 4.90625 -5.71875 4.78125 -5.734375 4.5625 -5.734375 C 3.421875 -5.734375 2.84375 -5.171875 2.84375 -4.015625 C 2.84375 -4.015625 2.84375 0 2.84375 0 C 2.84375 0 0.875 0 0.875 0 C 0.875 0 0.875 -7.5625 0.875 -7.5625 C 0.875 -7.5625 2.84375 -7.5625 2.84375 -7.5625 C 2.84375 -7.5625 2.84375 -6.078125 2.84375 -6.078125 C 3.265625 -7.09375 4.046875 -7.6875 4.9375 -7.6875 C 5 -7.6875 5.0625 -7.6875 5.1875 -7.671875 C 5.1875 -7.671875 5.1875 -5.6875 5.1875 -5.6875 Z M 5.1875 -5.6875 "/>
</g>
<g id="glyph-7-12-4f21523a">
<path d="M 7.34375 -3.5 C 7.34375 -3.5 7.34375 -3.265625 7.34375 -3.265625 C 7.34375 -3.265625 2.265625 -3.265625 2.265625 -3.265625 C 2.328125 -1.796875 2.90625 -1.375 3.84375 -1.375 C 4.546875 -1.375 5.171875 -1.578125 5.328125 -2.125 C 5.328125 -2.125 7.265625 -2.125 7.265625 -2.125 C 6.828125 -0.640625 5.453125 0.125 3.765625 0.125 C 1.625 0.125 0.3125 -1.265625 0.3125 -3.6875 C 0.3125 -6.21875 1.640625 -7.6875 3.8125 -7.6875 C 6.03125 -7.6875 7.34375 -6.109375 7.34375 -3.5 Z M 5.3125 -4.5625 C 5.203125 -5.640625 4.625 -6.1875 3.78125 -6.1875 C 2.90625 -6.1875 2.421875 -5.609375 2.296875 -4.5625 C 2.296875 -4.5625 5.3125 -4.5625 5.3125 -4.5625 Z M 5.3125 -4.5625 "/>
</g>
<g id="glyph-7-13-4f21523a">
<path d="M 4.375 -6.109375 C 4.375 -6.109375 3.21875 -6.109375 3.21875 -6.109375 C 3.21875 -6.109375 3.21875 0 3.21875 0 C 3.21875 0 1.265625 0 1.265625 0 C 1.265625 0 1.265625 -6.109375 1.265625 -6.109375 C 1.265625 -6.109375 0.203125 -6.109375 0.203125 -6.109375 C 0.203125 -6.109375 0.203125 -7.40625 0.203125 -7.40625 C 0.203125 -7.40625 1.265625 -7.40625 1.265625 -7.40625 C 1.265625 -7.40625 1.265625 -8.3125 1.265625 -8.3125 C 1.265625 -9.59375 1.890625 -10.203125 3.1875 -10.203125 C 3.453125 -10.203125 3.953125 -10.1875 4.3125 -10.15625 C 4.3125 -10.15625 4.3125 -8.6875 4.3125 -8.6875 C 4.140625 -8.71875 3.921875 -8.734375 3.75 -8.734375 C 3.390625 -8.734375 3.21875 -8.546875 3.21875 -8.140625 C 3.21875 -8.140625 3.21875 -7.40625 3.21875 -7.40625 C 3.21875 -7.40625 4.375 -7.40625 4.375 -7.40625 C 4.375 -7.40625 4.375 -6.109375 4.375 -6.109375 Z M 4.375 -6.109375 "/>
</g>
<g id="glyph-7-14-4f21523a">
<path d="M 11.53125 0 C 11.53125 0 9.578125 0 9.578125 0 C 9.578125 0 9.578125 -5.046875 9.578125 -5.046875 C 9.578125 -5.640625 9.171875 -6.015625 8.515625 -6.015625 C 7.671875 -6.015625 7.171875 -5.453125 7.171875 -4.53125 C 7.171875 -4.53125 7.171875 0 7.171875 0 C 7.171875 0 5.203125 0 5.203125 0 C 5.203125 0 5.203125 -5.046875 5.203125 -5.046875 C 5.203125 -5.640625 4.796875 -6.015625 4.140625 -6.015625 C 3.296875 -6.015625 2.796875 -5.453125 2.796875 -4.53125 C 2.796875 -4.53125 2.796875 0 2.796875 0 C 2.796875 0 0.84375 0 0.84375 0 C 0.84375 0 0.84375 -7.5625 0.84375 -7.5625 C 0.84375 -7.5625 2.78125 -7.5625 2.78125 -7.5625 C 2.78125 -7.5625 2.78125 -6.625 2.78125 -6.625 C 3.4375 -7.390625 3.984375 -7.6875 4.859375 -7.6875 C 5.796875 -7.6875 6.546875 -7.28125 6.921875 -6.5625 C 7.5 -7.34375 8.171875 -7.6875 9.125 -7.6875 C 10.640625 -7.6875 11.53125 -6.8125 11.53125 -5.34375 C 11.53125 -5.34375 11.53125 0 11.53125 0 Z M 11.53125 0 "/>
</g>
<g id="glyph-7-15-4f21523a">
<path d="M 7.640625 0 C 7.640625 0 5.6875 0 5.6875 0 C 5.6875 0 5.6875 -4.65625 5.6875 -4.65625 C 5.6875 -5.5625 5.265625 -6.015625 4.421875 -6.015625 C 3.46875 -6.015625 2.84375 -5.4375 2.84375 -4.53125 C 2.84375 -4.53125 2.84375 0 2.84375 0 C 2.84375 0 0.875 0 0.875 0 C 0.875 0 0.875 -7.5625 0.875 -7.5625 C 0.875 -7.5625 2.84375 -7.5625 2.84375 -7.5625 C 2.84375 -7.5625 2.84375 -6.46875 2.84375 -6.46875 C 3.40625 -7.3125 4.09375 -7.6875 5.109375 -7.6875 C 6.71875 -7.6875 7.640625 -6.734375 7.640625 -5.0625 C 7.640625 -5.0625 7.640625 0 7.640625 0 Z M 7.640625 0 "/>
</g>
<g id="glyph-7-16-4f21523a">
<path d="M 2.890625 0 C 2.890625 0 0.9375 0 0.9375 0 C 0.9375 0 0.9375 -7.5625 0.9375 -7.5625 C 0.9375 -7.5625 2.890625 -7.5625 2.890625 -7.5625 C 2.890625 -7.5625 2.890625 0 2.890625 0 Z M 2.921875 -8.46875 C 2.921875 -8.46875 0.96875 -8.46875 0.96875 -8.46875 C 0.96875 -8.46875 0.96875 -10.4375 0.96875 -10.4375 C 0.96875 -10.4375 2.921875 -10.4375 2.921875 -10.4375 C 2.921875 -10.4375 2.921875 -8.46875 2.921875 -8.46875 Z M 2.921875 -8.46875 "/>
</g>
<g id="glyph-7-17-4f21523a">
<path d="M 7.5 -7.5625 C 7.5 -7.5625 4.90625 0 4.90625 0 C 4.90625 0 2.84375 0 2.84375 0 C 2.84375 0 0.203125 -7.5625 0.203125 -7.5625 C 0.203125 -7.5625 2.265625 -7.5625 2.265625 -7.5625 C 2.265625 -7.5625 3.90625 -2.03125 3.90625 -2.03125 C 3.90625 -2.03125 5.4375 -7.5625 5.4375 -7.5625 C 5.4375 -7.5625 7.5 -7.5625 7.5 -7.5625 Z M 7.5 -7.5625 "/>
</g>
<g id="glyph-7-18-4f21523a">
<path d="M 7.609375 3.046875 C 7.609375 3.046875 5.65625 3.046875 5.65625 3.046875 C 5.65625 3.046875 5.65625 -1.015625 5.65625 -1.015625 C 5.1875 -0.1875 4.5 0.125 3.546875 0.125 C 1.609375 0.125 0.390625 -1.515625 0.390625 -3.78125 C 0.390625 -6.09375 1.734375 -7.6875 3.5625 -7.6875 C 4.5 -7.6875 5.1875 -7.265625 5.65625 -6.4375 C 5.65625 -6.4375 5.65625 -7.5625 5.65625 -7.5625 C 5.65625 -7.5625 7.609375 -7.5625 7.609375 -7.5625 C 7.609375 -7.5625 7.609375 3.046875 7.609375 3.046875 Z M 5.65625 -3.734375 C 5.65625 -5.203125 5 -6.046875 4 -6.046875 C 3.03125 -6.046875 2.359375 -5.1875 2.359375 -3.78125 C 2.359375 -2.359375 3.03125 -1.515625 4 -1.515625 C 4.984375 -1.515625 5.65625 -2.359375 5.65625 -3.734375 Z M 5.65625 -3.734375 "/>
</g>
<g id="glyph-7-19-4f21523a">
<path d="M 7.578125 0 C 7.578125 0 5.609375 0 5.609375 0 C 5.609375 0 5.609375 -1 5.609375 -1 C 5.046875 -0.25 4.375 0.125 3.34375 0.125 C 1.734375 0.125 0.8125 -0.828125 0.8125 -2.484375 C 0.8125 -2.484375 0.8125 -7.5625 0.8125 -7.5625 C 0.8125 -7.5625 2.765625 -7.5625 2.765625 -7.5625 C 2.765625 -7.5625 2.765625 -2.890625 2.765625 -2.890625 C 2.765625 -1.984375 3.1875 -1.546875 4.03125 -1.546875 C 4.984375 -1.546875 5.609375 -2.125 5.609375 -3.03125 C 5.609375 -3.03125 5.609375 -7.5625 5.609375 -7.5625 C 5.609375 -7.5625 7.578125 -7.5625 7.578125 -7.5625 C 7.578125 -7.5625 7.578125 0 7.578125 0 Z M 7.578125 0 "/>
</g>
<g id="glyph-7-20-4f21523a">
<path d="M 7.53125 -7.5625 C 7.53125 -7.5625 4.421875 1.390625 4.421875 1.390625 C 3.90625 2.828125 3.21875 3.0625 1.90625 3.0625 C 1.671875 3.0625 1.5 3.046875 1.203125 3.015625 C 1.203125 3.015625 1.203125 1.546875 1.203125 1.546875 C 1.453125 1.609375 1.5625 1.625 1.71875 1.625 C 2.40625 1.625 2.9375 1.078125 2.9375 0.359375 C 2.9375 0.359375 2.9375 0.328125 2.9375 0.328125 C 2.9375 0.328125 0.125 -7.5625 0.125 -7.5625 C 0.125 -7.5625 2.28125 -7.5625 2.28125 -7.5625 C 2.28125 -7.5625 3.953125 -2.0625 3.953125 -2.0625 C 3.953125 -2.0625 5.515625 -7.5625 5.515625 -7.5625 C 5.515625 -7.5625 7.53125 -7.5625 7.53125 -7.5625 Z M 7.53125 -7.5625 "/>
</g>
<g id="glyph-7-21-4f21523a">
<path d="M 10.71875 -7.5625 C 10.71875 -7.5625 8.578125 0 8.578125 0 C 8.578125 0 6.546875 0 6.546875 0 C 6.546875 0 5.421875 -5.328125 5.421875 -5.328125 C 5.421875 -5.328125 4.21875 0 4.21875 0 C 4.21875 0 2.203125 0 2.203125 0 C 2.203125 0 0.0625 -7.5625 0.0625 -7.5625 C 0.0625 -7.5625 2.09375 -7.5625 2.09375 -7.5625 C 2.09375 -7.5625 3.296875 -2.265625 3.296875 -2.265625 C 3.296875 -2.265625 4.453125 -7.5625 4.453125 -7.5625 C 4.453125 -7.5625 6.40625 -7.5625 6.40625 -7.5625 C 6.40625 -7.5625 7.546875 -2.265625 7.546875 -2.265625 C 7.546875 -2.265625 8.6875 -7.5625 8.6875 -7.5625 C 8.6875 -7.5625 10.71875 -7.5625 10.71875 -7.5625 Z M 10.71875 -7.5625 "/>
</g>
<g id="glyph-7-22-4f21523a">
<path d="M 7.578125 0.25 C 7.578125 2.03125 6.265625 3.046875 3.96875 3.046875 C 1.90625 3.046875 0.65625 2.140625 0.625 0.90625 C 0.625 0.90625 2.65625 0.90625 2.65625 0.90625 C 2.8125 1.484375 3.296875 1.796875 4.046875 1.796875 C 5.03125 1.796875 5.71875 1.15625 5.71875 0.25 C 5.71875 0.25 5.71875 -0.875 5.71875 -0.875 C 4.984375 -0.140625 4.453125 0.125 3.5625 0.125 C 1.703125 0.125 0.46875 -1.34375 0.46875 -3.703125 C 0.46875 -6.03125 1.8125 -7.6875 3.609375 -7.6875 C 4.484375 -7.6875 5.125 -7.296875 5.71875 -6.390625 C 5.71875 -6.390625 5.71875 -7.5625 5.71875 -7.5625 C 5.71875 -7.5625 7.578125 -7.5625 7.578125 -7.5625 C 7.578125 -7.5625 7.578125 0.25 7.578125 0.25 Z M 5.734375 -3.71875 C 5.734375 -5.125 5.015625 -6.046875 4.03125 -6.046875 C 3.078125 -6.046875 2.4375 -5.15625 2.4375 -3.71875 C 2.4375 -2.359375 3.078125 -1.515625 4 -1.515625 C 5.03125 -1.515625 5.734375 -2.359375 5.734375 -3.71875 Z M 5.734375 -3.71875 "/>
</g>
<g id="glyph-7-23-4f21523a">
<path d="M 7.578125 0 C 7.578125 0 5.609375 0 5.609375 0 C 5.609375 0 5.609375 -4.625 5.609375 -4.625 C 5.609375 -5.640625 5.109375 -6.015625 4.40625 -6.015625 C 3.53125 -6.015625 2.890625 -5.40625 2.890625 -4.53125 C 2.890625 -4.53125 2.890625 0 2.890625 0 C 2.890625 0 0.9375 0 0.9375 0 C 0.9375 0 0.9375 -10.203125 0.9375 -10.203125 C 0.9375 -10.203125 2.890625 -10.203125 2.890625 -10.203125 C 2.890625 -10.203125 2.890625 -6.46875 2.890625 -6.46875 C 3.4375 -7.296875 4.140625 -7.6875 5.109375 -7.6875 C 6.53125 -7.6875 7.578125 -6.828125 7.578125 -5.0625 C 7.578125 -5.0625 7.578125 0 7.578125 0 Z M 7.578125 0 "/>
</g>
<g id="glyph-7-24-4f21523a">
<path d="M 4.21875 0 C 3.859375 0.015625 3.515625 0.0625 3.078125 0.0625 C 1.796875 0.0625 1.15625 -0.4375 1.15625 -1.625 C 1.15625 -1.625 1.15625 -6.109375 1.15625 -6.109375 C 1.15625 -6.109375 0.203125 -6.109375 0.203125 -6.109375 C 0.203125 -6.109375 0.203125 -7.40625 0.203125 -7.40625 C 0.203125 -7.40625 1.15625 -7.40625 1.15625 -7.40625 C 1.15625 -7.40625 1.15625 -9.4375 1.15625 -9.4375 C 1.15625 -9.4375 3.125 -9.4375 3.125 -9.4375 C 3.125 -9.4375 3.125 -7.40625 3.125 -7.40625 C 3.125 -7.40625 4.21875 -7.40625 4.21875 -7.40625 C 4.21875 -7.40625 4.21875 -6.109375 4.21875 -6.109375 C 4.21875 -6.109375 3.125 -6.109375 3.125 -6.109375 C 3.125 -6.109375 3.125 -2.15625 3.125 -2.15625 C 3.125 -1.484375 3.25 -1.328125 3.765625 -1.328125 C 3.90625 -1.328125 4.015625 -1.34375 4.21875 -1.375 C 4.21875 -1.375 4.21875 0 4.21875 0 Z M 4.21875 0 "/>
</g>
<g id="glyph-7-25-4f21523a">
<path d="M 7.625 0 C 7.625 0 5.671875 0 5.671875 0 C 5.671875 0 5.671875 -0.875 5.671875 -0.875 C 5.1875 -0.21875 4.515625 0.125 3.578125 0.125 C 1.578125 0.125 0.40625 -1.625 0.40625 -3.765625 C 0.40625 -6.046875 1.78125 -7.6875 3.578125 -7.6875 C 4.515625 -7.6875 5.1875 -7.34375 5.671875 -6.578125 C 5.671875 -6.578125 5.671875 -10.203125 5.671875 -10.203125 C 5.671875 -10.203125 7.625 -10.203125 7.625 -10.203125 C 7.625 -10.203125 7.625 0 7.625 0 Z M 5.671875 -3.734375 C 5.671875 -5.1875 5.015625 -6.046875 4.015625 -6.046875 C 3.03125 -6.046875 2.359375 -5.171875 2.359375 -3.765625 C 2.359375 -2.375 3.03125 -1.515625 4.015625 -1.515625 C 5 -1.515625 5.671875 -2.359375 5.671875 -3.734375 Z M 5.671875 -3.734375 "/>
</g>
<g id="glyph-7-26-4f21523a">
<path d="M 7.34375 0 C 7.34375 0 5.203125 0 5.203125 0 C 5.03125 -0.21875 4.984375 -0.5625 4.984375 -0.953125 C 4.296875 -0.234375 3.53125 0.125 2.6875 0.125 C 1.421875 0.125 0.390625 -0.578125 0.390625 -2.046875 C 0.390625 -3.421875 1.125 -4.0625 2.625 -4.328125 C 2.625 -4.328125 3.40625 -4.46875 3.40625 -4.46875 C 4.375 -4.640625 4.96875 -4.546875 4.96875 -5.34375 C 4.96875 -5.859375 4.59375 -6.109375 3.84375 -6.109375 C 2.875 -6.109375 2.546875 -5.859375 2.453125 -5.0625 C 2.453125 -5.0625 0.5625 -5.0625 0.5625 -5.0625 C 0.6875 -6.8125 1.75 -7.6875 3.796875 -7.6875 C 5.84375 -7.6875 6.890625 -6.90625 6.890625 -5.359375 C 6.890625 -5.359375 6.890625 -1.15625 6.890625 -1.15625 C 6.890625 -0.765625 6.984375 -0.5625 7.34375 -0.234375 C 7.34375 -0.234375 7.34375 0 7.34375 0 Z M 4.96875 -3.234375 C 4.96875 -3.234375 4.96875 -3.5625 4.96875 -3.5625 C 4.75 -3.453125 4.65625 -3.4375 4.140625 -3.328125 C 4.140625 -3.328125 3.46875 -3.203125 3.46875 -3.203125 C 2.65625 -3.046875 2.359375 -2.84375 2.359375 -2.265625 C 2.359375 -1.703125 2.765625 -1.453125 3.421875 -1.453125 C 4.40625 -1.453125 4.96875 -2.09375 4.96875 -3.234375 Z M 4.96875 -3.234375 "/>
</g>
<g id="glyph-7-27-4f21523a">
<path d="M 7.484375 0 C 7.484375 0 5.140625 0 5.140625 0 C 5.140625 0 3.859375 -2.359375 3.859375 -2.359375 C 3.859375 -2.359375 2.578125 0 2.578125 0 C 2.578125 0 0.21875 0 0.21875 0 C 0.21875 0 2.75 -3.8125 2.75 -3.8125 C 2.75 -3.8125 0.28125 -7.5625 0.28125 -7.5625 C 0.28125 -7.5625 2.625 -7.5625 2.625 -7.5625 C 2.625 -7.5625 3.859375 -5.28125 3.859375 -5.28125 C 3.859375 -5.28125 5.078125 -7.5625 5.078125 -7.5625 C 5.078125 -7.5625 7.4375 -7.5625 7.4375 -7.5625 C 7.4375 -7.5625 4.96875 -3.8125 4.96875 -3.8125 C 4.96875 -3.8125 7.484375 0 7.484375 0 Z M 7.484375 0 "/>
</g>
<g id="glyph-7-28-4f21523a">
<path d="M 2.890625 0 C 2.890625 0 0.9375 0 0.9375 0 C 0.9375 0 0.9375 -10.203125 0.9375 -10.203125 C 0.9375 -10.203125 2.890625 -10.203125 2.890625 -10.203125 C 2.890625 -10.203125 2.890625 0 2.890625 0 Z M 2.890625 0 "/>
</g>
<g id="glyph-7-29-4f21523a">
<path d="M 8.03125 -3.78125 C 8.03125 -1.484375 6.6875 0.125 4.875 0.125 C 3.921875 0.125 3.25 -0.171875 2.765625 -1.015625 C 2.765625 -1.015625 2.765625 3.046875 2.765625 3.046875 C 2.765625 3.046875 0.8125 3.046875 0.8125 3.046875 C 0.8125 3.046875 0.8125 -7.5625 0.8125 -7.5625 C 0.8125 -7.5625 2.765625 -7.5625 2.765625 -7.5625 C 2.765625 -7.5625 2.765625 -6.4375 2.765625 -6.4375 C 3.25 -7.28125 3.921875 -7.6875 4.875 -7.6875 C 6.84375 -7.6875 8.03125 -6.015625 8.03125 -3.78125 Z M 6.078125 -3.75 C 6.078125 -5.1875 5.421875 -6.046875 4.421875 -6.046875 C 3.4375 -6.046875 2.765625 -5.1875 2.765625 -3.78125 C 2.765625 -2.359375 3.4375 -1.515625 4.421875 -1.515625 C 5.390625 -1.515625 6.078125 -2.375 6.078125 -3.75 Z M 6.078125 -3.75 "/>
</g>
<g id="glyph-7-30-4f21523a">
<path d="M 8.046875 -3.6875 C 8.046875 -1.40625 6.671875 0.125 4.875 0.125 C 3.921875 0.125 3.265625 -0.21875 2.78125 -0.875 C 2.78125 -0.875 2.78125 0 2.78125 0 C 2.78125 0 0.828125 0 0.828125 0 C 0.828125 0 0.828125 -10.203125 0.828125 -10.203125 C 0.828125 -10.203125 2.78125 -10.203125 2.78125 -10.203125 C 2.78125 -10.203125 2.78125 -6.578125 2.78125 -6.578125 C 3.265625 -7.34375 3.9375 -7.6875 4.875 -7.6875 C 6.859375 -7.6875 8.046875 -5.828125 8.046875 -3.6875 Z M 6.09375 -3.765625 C 6.09375 -5.171875 5.40625 -6.046875 4.4375 -6.046875 C 3.453125 -6.046875 2.78125 -5.1875 2.78125 -3.8125 C 2.78125 -2.359375 3.4375 -1.515625 4.4375 -1.515625 C 5.40625 -1.515625 6.09375 -2.390625 6.09375 -3.765625 Z M 6.09375 -3.765625 "/>
</g>
<g id="glyph-8-0-4f21523a">
</g>
<g id="glyph-9-0-4f21523a">
<path d="M 7.34375 0 C 7.34375 0 5.203125 0 5.203125 0 C 5.03125 -0.21875 4.984375 -0.5625 4.984375 -0.953125 C 4.296875 -0.234375 3.53125 0.125 2.6875 0.125 C 1.421875 0.125 0.390625 -0.578125 0.390625 -2.046875 C 0.390625 -3.421875 1.125 -4.0625 2.625 -4.328125 C 2.625 -4.328125 3.40625 -4.46875 3.40625 -4.46875 C 4.375 -4.640625 4.96875 -4.546875 4.96875 -5.34375 C 4.96875 -5.859375 4.59375 -6.109375 3.84375 -6.109375 C 2.875 -6.109375 2.546875 -5.859375 2.453125 -5.0625 C 2.453125 -5.0625 0.5625 -5.0625 0.5625 -5.0625 C 0.6875 -6.8125 1.75 -7.6875 3.796875 -7.6875 C 5.84375 -7.6875 6.890625 -6.90625 6.890625 -5.359375 C 6.890625 -5.359375 6.890625 -1.15625 6.890625 -1.15625 C 6.890625 -0.765625 6.984375 -0.5625 7.34375 -0.234375 C 7.34375 -0.234375 7.34375 0 7.34375 0 Z M 4.96875 -3.234375 C 4.96875 -3.234375 4.96875 -3.5625 4.96875 -3.5625 C 4.75 -3.453125 4.65625 -3.4375 4.140625 -3.328125 C 4.140625 -3.328125 3.46875 -3.203125 3.46875 -3.203125 C 2.65625 -3.046875 2.359375 -2.84375 2.359375 -2.265625 C 2.359375 -1.703125 2.765625 -1.453125 3.421875 -1.453125 C 4.40625 -1.453125 4.96875 -2.09375 4.96875 -3.234375 Z M 4.96875 -3.234375 "/>
</g>
<g id="glyph-10-0-4f21523a">
<path d="M 2.890625 0 C 2.890625 0 0.9375 0 0.9375 0 C 0.9375 0 0.9375 -10.203125 0.9375 -10.203125 C 0.9375 -10.203125 2.890625 -10.203125 2.890625 -10.203125 C 2.890625 -10.203125 2.890625 0 2.890625 0 Z M 2.890625 0 "/>
</g>
<g id="glyph-11-0-4f21523a">
<path d="M 10.71875 -7.5625 C 10.71875 -7.5625 8.578125 0 8.578125 0 C 8.578125 0 6.546875 0 6.546875 0 C 6.546875 0 5.421875 -5.328125 5.421875 -5.328125 C 5.421875 -5.328125 4.21875 0 4.21875 0 C 4.21875 0 2.203125 0 2.203125 0 C 2.203125 0 0.0625 -7.5625 0.0625 -7.5625 C 0.0625 -7.5625 2.09375 -7.5625 2.09375 -7.5625 C 2.09375 -7.5625 3.296875 -2.265625 3.296875 -2.265625 C 3.296875 -2.265625 4.453125 -7.5625 4.453125 -7.5625 C 4.453125 -7.5625 6.40625 -7.5625 6.40625 -7.5625 C 6.40625 -7.5625 7.546875 -2.265625 7.546875 -2.265625 C 7.546875 -2.265625 8.6875 -7.5625 8.6875 -7.5625 C 8.6875 -7.5625 10.71875 -7.5625 10.71875 -7.5625 Z M 10.71875 -7.5625 "/>
</g>
</g>
</defs>
<rect x="-90" y="-60" width="1080" height="720" fill="rgb(100%, 100%, 100%)" fill-opacity="1"/>
<path fill-rule="nonzero" fill="rgb(100%, 100%, 100%)" fill-opacity="1" d="M 62 541 L 884 541 L 884 36 L 62 36 Z M 62 541 "/>
<path fill="none" stroke-width="1" stroke-linecap="butt" stroke-linejoin="miter" stroke="rgb(0%, 0%, 0%)" stroke-opacity="0.12" stroke-miterlimit="1.154701" d="M 320.304688 541 L 320.304688 36 "/>
<path fill="none" stroke-width="1" stroke-linecap="butt" stroke-linejoin="miter" stroke="rgb(0%, 0%, 0%)" stroke-opacity="0.12" stroke-miterlimit="1.154701" d="M 596.542969 541 L 596.542969 36 "/>
<path fill="none" stroke-width="1" stroke-linecap="butt" stroke-linejoin="miter" stroke="rgb(0%, 0%, 0%)" stroke-opacity="0.12" stroke-miterlimit="1.154701" d="M 872.78125 541 L 872.78125 36 "/>
<path fill="none" stroke-width="1" stroke-linecap="butt" stroke-linejoin="miter" stroke="rgb(0%, 0%, 0%)" stroke-opacity="0.12" stroke-miterlimit="1.154701" d="M 62 447.714844 L 884 447.714844 "/>
<path fill="none" stroke-width="1" stroke-linecap="butt" stroke-linejoin="miter" stroke="rgb(0%, 0%, 0%)" stroke-opacity="0.12" stroke-miterlimit="1.154701" d="M 62 292.113281 L 884 292.113281 "/>
<path fill="none" stroke-width="1" stroke-linecap="butt" stroke-linejoin="miter" stroke="rgb(0%, 0%, 0%)" stroke-opacity="0.12" stroke-miterlimit="1.154701" d="M 62 136.511719 L 884 136.511719 "/>
<g fill="rgb(0%, 0%, 0%)" fill-opacity="1">
<use xlink:href="#glyph-0-0-4f21523a" x="420.080016" y="581.567999"/>
</g>
<g fill="rgb(0%, 0%, 0%)" fill-opacity="1">
<use xlink:href="#glyph-0-1-4f21523a" x="427.864016" y="581.567999"/>
</g>
<g fill="rgb(0%, 0%, 0%)" fill-opacity="1">
<use xlink:href="#glyph-0-2-4f21523a" x="435.648017" y="581.567999"/>
</g>
<g fill="rgb(0%, 0%, 0%)" fill-opacity="1">
<use xlink:href="#glyph-0-3-4f21523a" x="439.540015" y="581.567999"/>
</g>
<g fill="rgb(0%, 0%, 0%)" fill-opacity="1">
<use xlink:href="#glyph-0-4-4f21523a" x="447.324016" y="581.567999"/>
</g>
<g fill="rgb(0%, 0%, 0%)" fill-opacity="1">
<use xlink:href="#glyph-0-2-4f21523a" x="455.108017" y="581.567999"/>
</g>
<g fill="rgb(0%, 0%, 0%)" fill-opacity="1">
<use xlink:href="#glyph-0-5-4f21523a" x="462.892013" y="581.567999"/>
</g>
<g fill="rgb(0%, 0%, 0%)" fill-opacity="1">
<use xlink:href="#glyph-0-1-4f21523a" x="472.230015" y="581.567999"/>
</g>
<g fill="rgb(0%, 0%, 0%)" fill-opacity="1">
<use xlink:href="#glyph-0-6-4f21523a" x="480.014015" y="581.567999"/>
</g>
<g fill="rgb(0%, 0%, 0%)" fill-opacity="1">
<use xlink:href="#glyph-0-7-4f21523a" x="484.676018" y="581.567999"/>
</g>
<g fill="rgb(0%, 0%, 0%)" fill-opacity="1">
<use xlink:href="#glyph-0-1-4f21523a" x="487.78402" y="581.567999"/>
</g>
<g fill="rgb(0%, 0%, 0%)" fill-opacity="1">
<use xlink:href="#glyph-0-8-4f21523a" x="495.568017" y="581.567999"/>
</g>
<g fill="rgb(0%, 0%, 0%)" fill-opacity="1">
<use xlink:href="#glyph-1-0-4f21523a" x="503.352013" y="581.567999"/>
</g>
<g fill="rgb(0%, 0%, 0%)" fill-opacity="1">
<use xlink:href="#glyph-0-3-4f21523a" x="506.460015" y="581.567999"/>
</g>
<g fill="rgb(0%, 0%, 0%)" fill-opacity="1">
<use xlink:href="#glyph-0-9-4f21523a" x="514.244012" y="581.567999"/>
</g>
<g fill="rgb(0%, 0%, 0%)" fill-opacity="1">
<use xlink:href="#glyph-0-10-4f21523a" x="518.13601" y="581.567999"/>
</g>
<g fill="rgb(0%, 0%, 0%)" fill-opacity="1">
<use xlink:href="#glyph-0-11-4f21523a" x="316.411719" y="562.257999"/>
</g>
<g fill="rgb(0%, 0%, 0%)" fill-opacity="1">
<use xlink:href="#glyph-0-12-4f21523a" x="592.650739" y="562.257999"/>
</g>
<g fill="rgb(0%, 0%, 0%)" fill-opacity="1">
<use xlink:href="#glyph-0-13-4f21523a" x="868.889759" y="562.257999"/>
</g>
<g fill="rgb(0%, 0%, 0%)" fill-opacity="1">
<use xlink:href="#glyph-2-0-4f21523a" x="27.987999" y="341.419984"/>
</g>
<g fill="rgb(0%, 0%, 0%)" fill-opacity="1">
<use xlink:href="#glyph-3-0-4f21523a" x="27.987999" y="333.635984"/>
</g>
<g fill="rgb(0%, 0%, 0%)" fill-opacity="1">
<use xlink:href="#glyph-4-0-4f21523a" x="27.988" y="325.851983"/>
</g>
<g fill="rgb(0%, 0%, 0%)" fill-opacity="1">
<use xlink:href="#glyph-2-1-4f21523a" x="27.988" y="321.959985"/>
</g>
<g fill="rgb(0%, 0%, 0%)" fill-opacity="1">
<use xlink:href="#glyph-5-0-4f21523a" x="27.988" y="314.175986"/>
</g>
<g fill="rgb(0%, 0%, 0%)" fill-opacity="1">
<use xlink:href="#glyph-4-0-4f21523a" x="27.988001" y="306.391985"/>
</g>
<g fill="rgb(0%, 0%, 0%)" fill-opacity="1">
<use xlink:href="#glyph-2-2-4f21523a" x="27.988001" y="302.499988"/>
</g>
<g fill="rgb(0%, 0%, 0%)" fill-opacity="1">
<use xlink:href="#glyph-2-3-4f21523a" x="27.988001" y="298.60799"/>
</g>
<g fill="rgb(0%, 0%, 0%)" fill-opacity="1">
<use xlink:href="#glyph-6-0-4f21523a" x="27.988002" y="289.269989"/>
</g>
<g fill="rgb(0%, 0%, 0%)" fill-opacity="1">
<use xlink:href="#glyph-4-1-4f21523a" x="27.988002" y="281.485989"/>
</g>
<g fill="rgb(0%, 0%, 0%)" fill-opacity="1">
<use xlink:href="#glyph-2-4-4f21523a" x="27.988003" y="276.823987"/>
</g>
<g fill="rgb(0%, 0%, 0%)" fill-opacity="1">
<use xlink:href="#glyph-5-1-4f21523a" x="27.988003" y="273.715985"/>
</g>
<g fill="rgb(0%, 0%, 0%)" fill-opacity="1">
<use xlink:href="#glyph-4-2-4f21523a" x="27.988003" y="265.931989"/>
</g>
<g fill="rgb(0%, 0%, 0%)" fill-opacity="1">
<use xlink:href="#glyph-2-5-4f21523a" x="27.988004" y="258.147992"/>
</g>
<g fill="rgb(0%, 0%, 0%)" fill-opacity="1">
<use xlink:href="#glyph-2-1-4f21523a" x="27.988004" y="255.039993"/>
</g>
<g fill="rgb(0%, 0%, 0%)" fill-opacity="1">
<use xlink:href="#glyph-5-2-4f21523a" x="27.988004" y="247.255996"/>
</g>
<g fill="rgb(0%, 0%, 0%)" fill-opacity="1">
<use xlink:href="#glyph-4-3-4f21523a" x="27.988004" y="243.363997"/>
</g>
<g fill="rgb(0%, 0%, 0%)" fill-opacity="1">
<use xlink:href="#glyph-0-14-4f21523a" x="36.040002" y="452.818817"/>
</g>
<g fill="rgb(0%, 0%, 0%)" fill-opacity="1">
<use xlink:href="#glyph-0-12-4f21523a" x="44.216002" y="452.818817"/>
</g>
<g fill="rgb(0%, 0%, 0%)" fill-opacity="1">
<use xlink:href="#glyph-0-11-4f21523a" x="44.216001" y="297.21719"/>
</g>
<g fill="rgb(0%, 0%, 0%)" fill-opacity="1">
<use xlink:href="#glyph-0-12-4f21523a" x="44.216001" y="141.615532"/>
</g>
<g fill="rgb(0%, 0%, 0%)" fill-opacity="1">
<use xlink:href="#glyph-7-0-4f21523a" x="93.704958" y="28.947986"/>
</g>
<g fill="rgb(0%, 0%, 0%)" fill-opacity="1">
<use xlink:href="#glyph-7-1-4f21523a" x="103.81296" y="28.947986"/>
</g>
<g fill="rgb(0%, 0%, 0%)" fill-opacity="1">
<use xlink:href="#glyph-7-1-4f21523a" x="113.150943" y="28.947986"/>
</g>
<g fill="rgb(0%, 0%, 0%)" fill-opacity="1">
<use xlink:href="#glyph-7-2-4f21523a" x="122.488956" y="28.947986"/>
</g>
<g fill="rgb(0%, 0%, 0%)" fill-opacity="1">
<use xlink:href="#glyph-7-3-4f21523a" x="131.042972" y="28.947986"/>
</g>
<g fill="rgb(0%, 0%, 0%)" fill-opacity="1">
<use xlink:href="#glyph-7-4-4f21523a" x="140.380954" y="28.947986"/>
</g>
<g fill="rgb(0%, 0%, 0%)" fill-opacity="1">
<use xlink:href="#glyph-7-5-4f21523a" x="145.042972" y="28.947986"/>
</g>
<g fill="rgb(0%, 0%, 0%)" fill-opacity="1">
<use xlink:href="#glyph-7-6-4f21523a" x="155.150944" y="28.947986"/>
</g>
<g fill="rgb(0%, 0%, 0%)" fill-opacity="1">
<use xlink:href="#glyph-7-7-4f21523a" x="165.258976" y="28.947986"/>
</g>
<g fill="rgb(0%, 0%, 0%)" fill-opacity="1">
<use xlink:href="#glyph-7-8-4f21523a" x="169.150944" y="28.947986"/>
</g>
<g fill="rgb(0%, 0%, 0%)" fill-opacity="1">
<use xlink:href="#glyph-7-9-4f21523a" x="176.934941" y="28.947986"/>
</g>
<g fill="rgb(0%, 0%, 0%)" fill-opacity="1">
<use xlink:href="#glyph-7-10-4f21523a" x="184.718938" y="28.947986"/>
</g>
<g fill="rgb(0%, 0%, 0%)" fill-opacity="1">
<use xlink:href="#glyph-7-11-4f21523a" x="193.272954" y="28.947986"/>
</g>
<g fill="rgb(0%, 0%, 0%)" fill-opacity="1">
<use xlink:href="#glyph-7-12-4f21523a" x="198.718938" y="28.947986"/>
</g>
<g fill="rgb(0%, 0%, 0%)" fill-opacity="1">
<use xlink:href="#glyph-7-8-4f21523a" x="206.502935" y="28.947986"/>
</g>
<g fill="rgb(0%, 0%, 0%)" fill-opacity="1">
<use xlink:href="#glyph-7-7-4f21523a" x="214.286931" y="28.947986"/>
</g>
<g fill="rgb(0%, 0%, 0%)" fill-opacity="1">
<use xlink:href="#glyph-7-13-4f21523a" x="218.178945" y="28.947986"/>
</g>
<g fill="rgb(0%, 0%, 0%)" fill-opacity="1">
<use xlink:href="#glyph-7-11-4f21523a" x="222.840948" y="28.947986"/>
</g>
<g fill="rgb(0%, 0%, 0%)" fill-opacity="1">
<use xlink:href="#glyph-7-10-4f21523a" x="228.286947" y="28.947986"/>
</g>
<g fill="rgb(0%, 0%, 0%)" fill-opacity="1">
<use xlink:href="#glyph-7-14-4f21523a" x="236.840948" y="28.947986"/>
</g>
<g fill="rgb(0%, 0%, 0%)" fill-opacity="1">
<use xlink:href="#glyph-8-0-4f21523a" x="249.286948" y="28.947986"/>
</g>
<g fill="rgb(0%, 0%, 0%)" fill-opacity="1">
<use xlink:href="#glyph-9-0-4f21523a" x="253.178946" y="28.947986"/>
</g>
<g fill="rgb(0%, 0%, 0%)" fill-opacity="1">
<use xlink:href="#glyph-7-15-4f21523a" x="260.962943" y="28.947986"/>
</g>
<g fill="rgb(0%, 0%, 0%)" fill-opacity="1">
<use xlink:href="#glyph-7-7-4f21523a" x="269.516944" y="28.947986"/>
</g>
<g fill="rgb(0%, 0%, 0%)" fill-opacity="1">
<use xlink:href="#glyph-7-16-4f21523a" x="273.408942" y="28.947986"/>
</g>
<g fill="rgb(0%, 0%, 0%)" fill-opacity="1">
<use xlink:href="#glyph-7-15-4f21523a" x="277.300941" y="28.947986"/>
</g>
<g fill="rgb(0%, 0%, 0%)" fill-opacity="1">
<use xlink:href="#glyph-7-17-4f21523a" x="285.854942" y="28.947986"/>
</g>
<g fill="rgb(0%, 0%, 0%)" fill-opacity="1">
<use xlink:href="#glyph-7-12-4f21523a" x="293.638938" y="28.947986"/>
</g>
<g fill="rgb(0%, 0%, 0%)" fill-opacity="1">
<use xlink:href="#glyph-7-11-4f21523a" x="301.422935" y="28.947986"/>
</g>
<g fill="rgb(0%, 0%, 0%)" fill-opacity="1">
<use xlink:href="#glyph-7-8-4f21523a" x="306.868934" y="28.947986"/>
</g>
<g fill="rgb(0%, 0%, 0%)" fill-opacity="1">
<use xlink:href="#glyph-7-12-4f21523a" x="314.652931" y="28.947986"/>
</g>
<g fill="rgb(0%, 0%, 0%)" fill-opacity="1">
<use xlink:href="#glyph-7-4-4f21523a" x="322.436928" y="28.947986"/>
</g>
<g fill="rgb(0%, 0%, 0%)" fill-opacity="1">
<use xlink:href="#glyph-7-13-4f21523a" x="327.098931" y="28.947986"/>
</g>
<g fill="rgb(0%, 0%, 0%)" fill-opacity="1">
<use xlink:href="#glyph-7-11-4f21523a" x="331.760933" y="28.947986"/>
</g>
<g fill="rgb(0%, 0%, 0%)" fill-opacity="1">
<use xlink:href="#glyph-7-12-4f21523a" x="337.206933" y="28.947986"/>
</g>
<g fill="rgb(0%, 0%, 0%)" fill-opacity="1">
<use xlink:href="#glyph-7-18-4f21523a" x="344.990929" y="28.947986"/>
</g>
<g fill="rgb(0%, 0%, 0%)" fill-opacity="1">
<use xlink:href="#glyph-7-19-4f21523a" x="353.54493" y="28.947986"/>
</g>
<g fill="rgb(0%, 0%, 0%)" fill-opacity="1">
<use xlink:href="#glyph-7-12-4f21523a" x="362.098916" y="28.947986"/>
</g>
<g fill="rgb(0%, 0%, 0%)" fill-opacity="1">
<use xlink:href="#glyph-7-15-4f21523a" x="369.882913" y="28.947986"/>
</g>
<g fill="rgb(0%, 0%, 0%)" fill-opacity="1">
<use xlink:href="#glyph-7-9-4f21523a" x="378.436899" y="28.947986"/>
</g>
<g fill="rgb(0%, 0%, 0%)" fill-opacity="1">
<use xlink:href="#glyph-7-20-4f21523a" x="386.220896" y="28.947986"/>
</g>
<g fill="rgb(0%, 0%, 0%)" fill-opacity="1">
<use xlink:href="#glyph-7-4-4f21523a" x="394.004892" y="28.947986"/>
</g>
<g fill="rgb(0%, 0%, 0%)" fill-opacity="1">
<use xlink:href="#glyph-7-21-4f21523a" x="398.66688" y="28.947986"/>
</g>
<g fill="rgb(0%, 0%, 0%)" fill-opacity="1">
<use xlink:href="#glyph-7-12-4f21523a" x="409.558878" y="28.947986"/>
</g>
<g fill="rgb(0%, 0%, 0%)" fill-opacity="1">
<use xlink:href="#glyph-7-16-4f21523a" x="417.342875" y="28.947986"/>
</g>
<g fill="rgb(0%, 0%, 0%)" fill-opacity="1">
<use xlink:href="#glyph-7-22-4f21523a" x="421.234873" y="28.947986"/>
</g>
<g fill="rgb(0%, 0%, 0%)" fill-opacity="1">
<use xlink:href="#glyph-7-23-4f21523a" x="429.788859" y="28.947986"/>
</g>
<g fill="rgb(0%, 0%, 0%)" fill-opacity="1">
<use xlink:href="#glyph-7-24-4f21523a" x="438.342845" y="28.947986"/>
</g>
<g fill="rgb(0%, 0%, 0%)" fill-opacity="1">
<use xlink:href="#glyph-7-12-4f21523a" x="443.004833" y="28.947986"/>
</g>
<g fill="rgb(0%, 0%, 0%)" fill-opacity="1">
<use xlink:href="#glyph-7-25-4f21523a" x="450.788829" y="28.947986"/>
</g>
<g fill="rgb(0%, 0%, 0%)" fill-opacity="1">
<use xlink:href="#glyph-7-7-4f21523a" x="459.342815" y="28.947986"/>
</g>
<g fill="rgb(0%, 0%, 0%)" fill-opacity="1">
<use xlink:href="#glyph-7-14-4f21523a" x="463.234813" y="28.947986"/>
</g>
<g fill="rgb(0%, 0%, 0%)" fill-opacity="1">
<use xlink:href="#glyph-7-10-4f21523a" x="475.680828" y="28.947986"/>
</g>
<g fill="rgb(0%, 0%, 0%)" fill-opacity="1">
<use xlink:href="#glyph-7-25-4f21523a" x="484.234814" y="28.947986"/>
</g>
<g fill="rgb(0%, 0%, 0%)" fill-opacity="1">
<use xlink:href="#glyph-7-12-4f21523a" x="492.7888" y="28.947986"/>
</g>
<g fill="rgb(0%, 0%, 0%)" fill-opacity="1">
<use xlink:href="#glyph-10-0-4f21523a" x="500.572797" y="28.947986"/>
</g>
<g fill="rgb(0%, 0%, 0%)" fill-opacity="1">
<use xlink:href="#glyph-7-7-4f21523a" x="504.464795" y="28.947986"/>
</g>
<g fill="rgb(0%, 0%, 0%)" fill-opacity="1">
<use xlink:href="#glyph-11-0-4f21523a" x="508.356793" y="28.947986"/>
</g>
<g fill="rgb(0%, 0%, 0%)" fill-opacity="1">
<use xlink:href="#glyph-7-16-4f21523a" x="519.248792" y="28.947986"/>
</g>
<g fill="rgb(0%, 0%, 0%)" fill-opacity="1">
<use xlink:href="#glyph-7-24-4f21523a" x="523.14079" y="28.947986"/>
</g>
<g fill="rgb(0%, 0%, 0%)" fill-opacity="1">
<use xlink:href="#glyph-7-23-4f21523a" x="527.802778" y="28.947986"/>
</g>
<g fill="rgb(0%, 0%, 0%)" fill-opacity="1">
<use xlink:href="#glyph-7-7-4f21523a" x="536.356763" y="28.947986"/>
</g>
<g fill="rgb(0%, 0%, 0%)" fill-opacity="1">
<use xlink:href="#glyph-7-26-4f21523a" x="540.248762" y="28.947986"/>
</g>
<g fill="rgb(0%, 0%, 0%)" fill-opacity="1">
<use xlink:href="#glyph-7-19-4f21523a" x="548.032759" y="28.947986"/>
</g>
<g fill="rgb(0%, 0%, 0%)" fill-opacity="1">
<use xlink:href="#glyph-7-27-4f21523a" x="556.586744" y="28.947986"/>
</g>
<g fill="rgb(0%, 0%, 0%)" fill-opacity="1">
<use xlink:href="#glyph-7-16-4f21523a" x="564.370741" y="28.947986"/>
</g>
<g fill="rgb(0%, 0%, 0%)" fill-opacity="1">
<use xlink:href="#glyph-7-28-4f21523a" x="568.26274" y="28.947986"/>
</g>
<g fill="rgb(0%, 0%, 0%)" fill-opacity="1">
<use xlink:href="#glyph-7-16-4f21523a" x="572.154738" y="28.947986"/>
</g>
<g fill="rgb(0%, 0%, 0%)" fill-opacity="1">
<use xlink:href="#glyph-7-26-4f21523a" x="576.046736" y="28.947986"/>
</g>
<g fill="rgb(0%, 0%, 0%)" fill-opacity="1">
<use xlink:href="#glyph-7-11-4f21523a" x="583.830733" y="28.947986"/>
</g>
<g fill="rgb(0%, 0%, 0%)" fill-opacity="1">
<use xlink:href="#glyph-7-20-4f21523a" x="589.276748" y="28.947986"/>
</g>
<g fill="rgb(0%, 0%, 0%)" fill-opacity="1">
<use xlink:href="#glyph-7-7-4f21523a" x="597.060744" y="28.947986"/>
</g>
<g fill="rgb(0%, 0%, 0%)" fill-opacity="1">
<use xlink:href="#glyph-7-11-4f21523a" x="600.952743" y="28.947986"/>
</g>
<g fill="rgb(0%, 0%, 0%)" fill-opacity="1">
<use xlink:href="#glyph-7-12-4f21523a" x="606.398757" y="28.947986"/>
</g>
<g fill="rgb(0%, 0%, 0%)" fill-opacity="1">
<use xlink:href="#glyph-7-8-4f21523a" x="614.182754" y="28.947986"/>
</g>
<g fill="rgb(0%, 0%, 0%)" fill-opacity="1">
<use xlink:href="#glyph-7-29-4f21523a" x="621.966751" y="28.947986"/>
</g>
<g fill="rgb(0%, 0%, 0%)" fill-opacity="1">
<use xlink:href="#glyph-7-10-4f21523a" x="630.520767" y="28.947986"/>
</g>
<g fill="rgb(0%, 0%, 0%)" fill-opacity="1">
<use xlink:href="#glyph-7-15-4f21523a" x="639.074784" y="28.947986"/>
</g>
<g fill="rgb(0%, 0%, 0%)" fill-opacity="1">
<use xlink:href="#glyph-7-8-4f21523a" x="647.6288" y="28.947986"/>
</g>
<g fill="rgb(0%, 0%, 0%)" fill-opacity="1">
<use xlink:href="#glyph-7-12-4f21523a" x="655.412797" y="28.947986"/>
</g>
<g fill="rgb(0%, 0%, 0%)" fill-opacity="1">
<use xlink:href="#glyph-7-8-4f21523a" x="663.196793" y="28.947986"/>
</g>
<g fill="rgb(0%, 0%, 0%)" fill-opacity="1">
<use xlink:href="#glyph-7-7-4f21523a" x="670.98079" y="28.947986"/>
</g>
<g fill="rgb(0%, 0%, 0%)" fill-opacity="1">
<use xlink:href="#glyph-7-8-4f21523a" x="674.872819" y="28.947986"/>
</g>
<g fill="rgb(0%, 0%, 0%)" fill-opacity="1">
<use xlink:href="#glyph-7-23-4f21523a" x="682.656816" y="28.947986"/>
</g>
<g fill="rgb(0%, 0%, 0%)" fill-opacity="1">
<use xlink:href="#glyph-7-26-4f21523a" x="691.210832" y="28.947986"/>
</g>
<g fill="rgb(0%, 0%, 0%)" fill-opacity="1">
<use xlink:href="#glyph-7-25-4f21523a" x="698.994829" y="28.947986"/>
</g>
<g fill="rgb(0%, 0%, 0%)" fill-opacity="1">
<use xlink:href="#glyph-7-12-4f21523a" x="707.548845" y="28.947986"/>
</g>
<g fill="rgb(0%, 0%, 0%)" fill-opacity="1">
<use xlink:href="#glyph-7-25-4f21523a" x="715.332842" y="28.947986"/>
</g>
<g fill="rgb(0%, 0%, 0%)" fill-opacity="1">
<use xlink:href="#glyph-7-7-4f21523a" x="723.886858" y="28.947986"/>
</g>
<g fill="rgb(0%, 0%, 0%)" fill-opacity="1">
<use xlink:href="#glyph-7-30-4f21523a" x="727.778887" y="28.947986"/>
</g>
<g fill="rgb(0%, 0%, 0%)" fill-opacity="1">
<use xlink:href="#glyph-7-20-4f21523a" x="736.332904" y="28.947986"/>
</g>
<g fill="rgb(0%, 0%, 0%)" fill-opacity="1">
<use xlink:href="#glyph-7-7-4f21523a" x="744.1169" y="28.947986"/>
</g>
<g fill="rgb(0%, 0%, 0%)" fill-opacity="1">
<use xlink:href="#glyph-7-26-4f21523a" x="748.008929" y="28.947986"/>
</g>
<g fill="rgb(0%, 0%, 0%)" fill-opacity="1">
<use xlink:href="#glyph-7-19-4f21523a" x="755.792926" y="28.947986"/>
</g>
<g fill="rgb(0%, 0%, 0%)" fill-opacity="1">
<use xlink:href="#glyph-7-27-4f21523a" x="764.346942" y="28.947986"/>
</g>
<g fill="rgb(0%, 0%, 0%)" fill-opacity="1">
<use xlink:href="#glyph-7-16-4f21523a" x="772.130939" y="28.947986"/>
</g>
<g fill="rgb(0%, 0%, 0%)" fill-opacity="1">
<use xlink:href="#glyph-7-28-4f21523a" x="776.022968" y="28.947986"/>
</g>
<g fill="rgb(0%, 0%, 0%)" fill-opacity="1">
<use xlink:href="#glyph-7-16-4f21523a" x="779.914997" y="28.947986"/>
</g>
<g fill="rgb(0%, 0%, 0%)" fill-opacity="1">
<use xlink:href="#glyph-7-26-4f21523a" x="783.807026" y="28.947986"/>
</g>
<g fill="rgb(0%, 0%, 0%)" fill-opacity="1">
<use xlink:href="#glyph-7-11-4f21523a" x="791.591023" y="28.947986"/>
</g>
<g fill="rgb(0%, 0%, 0%)" fill-opacity="1">
<use xlink:href="#glyph-7-20-4f21523a" x="797.037007" y="28.947986"/>
</g>
<g fill="rgb(0%, 0%, 0%)" fill-opacity="1">
<use xlink:href="#glyph-7-7-4f21523a" x="804.821003" y="28.947986"/>
</g>
<g fill="rgb(0%, 0%, 0%)" fill-opacity="1">
<use xlink:href="#glyph-7-17-4f21523a" x="808.713032" y="28.947986"/>
</g>
<g fill="rgb(0%, 0%, 0%)" fill-opacity="1">
<use xlink:href="#glyph-7-26-4f21523a" x="816.497029" y="28.947986"/>
</g>
<g fill="rgb(0%, 0%, 0%)" fill-opacity="1">
<use xlink:href="#glyph-7-28-4f21523a" x="824.281026" y="28.947986"/>
</g>
<g fill="rgb(0%, 0%, 0%)" fill-opacity="1">
<use xlink:href="#glyph-7-19-4f21523a" x="828.173055" y="28.947986"/>
</g>
<g fill="rgb(0%, 0%, 0%)" fill-opacity="1">
<use xlink:href="#glyph-7-12-4f21523a" x="836.727071" y="28.947986"/>
</g>
<g fill="rgb(0%, 0%, 0%)" fill-opacity="1">
<use xlink:href="#glyph-7-8-4f21523a" x="844.511068" y="28.947986"/>
</g>
<path fill-rule="nonzero" fill="rgb(77.810669%, 77.810669%, 77.810669%)" fill-opacity="1" d="M 645.65625 229.972656 C 645.65625 223.390625 635.785156 223.390625 635.785156 229.972656 C 635.785156 236.550781 645.65625 236.550781 645.65625 229.972656 Z M 645.65625 229.972656 "/>
<path fill-rule="nonzero" fill="rgb(72.566396%, 72.566396%, 72.566396%)" fill-opacity="1" d="M 527.132812 381.3125 C 527.132812 374.734375 517.261719 374.734375 517.261719 381.3125 C 517.261719 387.894531 527.132812 387.894531 527.132812 381.3125 Z M 527.132812 381.3125 "/>
<path fill-rule="nonzero" fill="rgb(35.328254%, 35.328254%, 35.328254%)" fill-opacity="1" d="M 606.980469 142.1875 C 606.980469 135.605469 597.109375 135.605469 597.109375 142.1875 C 597.109375 148.765625 606.980469 148.765625 606.980469 142.1875 Z M 606.980469 142.1875 "/>
<path fill-rule="nonzero" fill="rgb(70.57392%, 70.57392%, 70.57392%)" fill-opacity="1" d="M 427.199219 397.347656 C 427.199219 390.769531 417.328125 390.769531 417.328125 397.347656 C 417.328125 403.929688 427.199219 403.929688 427.199219 397.347656 Z M 427.199219 397.347656 "/>
<path fill-rule="nonzero" fill="rgb(42.140582%, 42.140582%, 42.140582%)" fill-opacity="1" d="M 520.28125 268.089844 C 520.28125 261.511719 510.410156 261.511719 510.410156 268.089844 C 510.410156 274.671875 520.28125 274.671875 520.28125 268.089844 Z M 520.28125 268.089844 "/>
<path fill-rule="nonzero" fill="rgb(31.86889%, 31.86889%, 31.86889%)" fill-opacity="1" d="M 471.9375 345.148438 C 471.9375 338.570312 462.066406 338.570312 462.066406 345.148438 C 462.066406 351.730469 471.9375 351.730469 471.9375 345.148438 Z M 471.9375 345.148438 "/>
<path fill-rule="nonzero" fill="rgb(54.423761%, 54.423761%, 54.423761%)" fill-opacity="1" d="M 628.589844 327.535156 C 628.589844 320.957031 618.71875 320.957031 618.71875 327.535156 C 618.71875 334.117188 628.589844 334.117188 628.589844 327.535156 Z M 628.589844 327.535156 "/>
<path fill-rule="nonzero" fill="rgb(53.751355%, 53.751355%, 53.751355%)" fill-opacity="1" d="M 487.507812 334.734375 C 487.507812 328.152344 477.636719 328.152344 477.636719 334.734375 C 477.636719 341.3125 487.507812 341.3125 487.507812 334.734375 Z M 487.507812 334.734375 "/>
<path fill-rule="nonzero" fill="rgb(70.637029%, 70.637029%, 70.637029%)" fill-opacity="1" d="M 563.488281 193.640625 C 563.488281 187.058594 553.617188 187.058594 553.617188 193.640625 C 553.617188 200.21875 563.488281 200.21875 563.488281 193.640625 Z M 563.488281 193.640625 "/>
<path fill-rule="nonzero" fill="rgb(25.552598%, 25.552598%, 25.552598%)" fill-opacity="1" d="M 316.847656 290.722656 C 316.847656 284.144531 306.980469 284.144531 306.980469 290.722656 C 306.980469 297.300781 316.847656 297.300781 316.847656 290.722656 Z M 316.847656 290.722656 "/>
<path fill-rule="nonzero" fill="rgb(66.936141%, 66.936141%, 66.936141%)" fill-opacity="1" d="M 555.453125 332.375 C 555.453125 325.796875 545.582031 325.796875 545.582031 332.375 C 545.582031 338.957031 555.453125 338.957031 555.453125 332.375 Z M 555.453125 332.375 "/>
<path fill-rule="nonzero" fill="rgb(54.213309%, 54.213309%, 54.213309%)" fill-opacity="1" d="M 495.425781 343.519531 C 495.425781 336.941406 485.554688 336.941406 485.554688 343.519531 C 485.554688 350.097656 495.425781 350.097656 495.425781 343.519531 Z M 495.425781 343.519531 "/>
<path fill-rule="nonzero" fill="rgb(27.200282%, 27.200282%, 27.200282%)" fill-opacity="1" d="M 296.59375 441.605469 C 296.59375 435.027344 286.726562 435.027344 286.726562 441.605469 C 286.726562 448.1875 296.59375 448.1875 296.59375 441.605469 Z M 296.59375 441.605469 "/>
<path fill-rule="nonzero" fill="rgb(47.345567%, 47.345567%, 47.345567%)" fill-opacity="1" d="M 851.570312 311.09375 C 851.570312 304.515625 841.703125 304.515625 841.703125 311.09375 C 841.703125 317.675781 851.570312 317.675781 851.570312 311.09375 Z M 851.570312 311.09375 "/>
<path fill-rule="nonzero" fill="rgb(17.216083%, 17.216083%, 17.216083%)" fill-opacity="1" d="M 322.152344 361.191406 C 322.152344 354.613281 312.28125 354.613281 312.28125 361.191406 C 312.28125 367.773438 322.152344 367.773438 322.152344 361.191406 Z M 322.152344 361.191406 "/>
<path fill-rule="nonzero" fill="rgb(66.546345%, 66.546345%, 66.546345%)" fill-opacity="1" d="M 620.84375 280.992188 C 620.84375 274.414062 610.972656 274.414062 610.972656 280.992188 C 610.972656 287.574219 620.84375 287.574219 620.84375 280.992188 Z M 620.84375 280.992188 "/>
<path fill-rule="nonzero" fill="rgb(58.994102%, 58.994102%, 58.994102%)" fill-opacity="1" d="M 594.730469 227.878906 C 594.730469 221.296875 584.859375 221.296875 584.859375 227.878906 C 584.859375 234.457031 594.730469 234.457031 594.730469 227.878906 Z M 594.730469 227.878906 "/>
<path fill-rule="nonzero" fill="rgb(39.842549%, 39.842549%, 39.842549%)" fill-opacity="1" d="M 287.023438 305.773438 C 287.023438 299.191406 277.15625 299.191406 277.15625 305.773438 C 277.15625 312.351562 287.023438 312.351562 287.023438 305.773438 Z M 287.023438 305.773438 "/>
<path fill-rule="nonzero" fill="rgb(54.867071%, 54.867071%, 54.867071%)" fill-opacity="1" d="M 695.230469 390.300781 C 695.230469 383.722656 685.363281 383.722656 685.363281 390.300781 C 685.363281 396.882812 695.230469 396.882812 695.230469 390.300781 Z M 695.230469 390.300781 "/>
<path fill-rule="nonzero" fill="rgb(62.483382%, 62.483382%, 62.483382%)" fill-opacity="1" d="M 606.441406 389.003906 C 606.441406 382.425781 596.570312 382.425781 596.570312 389.003906 C 596.570312 395.585938 606.441406 395.585938 606.441406 389.003906 Z M 606.441406 389.003906 "/>
<path fill-rule="nonzero" fill="rgb(49.511528%, 49.511528%, 49.511528%)" fill-opacity="1" d="M 468.488281 420.742188 C 468.488281 414.164062 458.617188 414.164062 458.617188 420.742188 C 458.617188 427.320312 468.488281 427.320312 468.488281 420.742188 Z M 468.488281 420.742188 "/>
<path fill-rule="nonzero" fill="rgb(78.323144%, 78.323144%, 78.323144%)" fill-opacity="1" d="M 589.527344 323.207031 C 589.527344 316.625 579.65625 316.625 579.65625 323.207031 C 579.65625 329.785156 589.527344 329.785156 589.527344 323.207031 Z M 589.527344 323.207031 "/>
<path fill-rule="nonzero" fill="rgb(70.005685%, 70.005685%, 70.005685%)" fill-opacity="1" d="M 673.910156 409.320312 C 673.910156 402.742188 664.042969 402.742188 664.042969 409.320312 C 664.042969 415.902344 673.910156 415.902344 673.910156 409.320312 Z M 673.910156 409.320312 "/>
<path fill-rule="nonzero" fill="rgb(24.384421%, 24.384421%, 24.384421%)" fill-opacity="1" d="M 572.9375 408.105469 C 572.9375 401.523438 563.066406 401.523438 563.066406 408.105469 C 563.066406 414.683594 572.9375 414.683594 572.9375 408.105469 Z M 572.9375 408.105469 "/>
<path fill-rule="nonzero" fill="rgb(43.677196%, 43.677196%, 43.677196%)" fill-opacity="1" d="M 457.871094 302.820312 C 457.871094 296.242188 448.003906 296.242188 448.003906 302.820312 C 448.003906 309.402344 457.871094 309.402344 457.871094 302.820312 Z M 457.871094 302.820312 "/>
<path fill-rule="nonzero" fill="rgb(68.605745%, 68.605745%, 68.605745%)" fill-opacity="1" d="M 540.421875 270.15625 C 540.421875 263.578125 530.554688 263.578125 530.554688 270.15625 C 530.554688 276.738281 540.421875 276.738281 540.421875 270.15625 Z M 540.421875 270.15625 "/>
<path fill-rule="nonzero" fill="rgb(48.819262%, 48.819262%, 48.819262%)" fill-opacity="1" d="M 774.902344 163.492188 C 774.902344 156.910156 765.03125 156.910156 765.03125 163.492188 C 765.03125 170.070312 774.902344 170.070312 774.902344 163.492188 Z M 774.902344 163.492188 "/>
<path fill-rule="nonzero" fill="rgb(54.897147%, 54.897147%, 54.897147%)" fill-opacity="1" d="M 540.140625 316.859375 C 540.140625 310.277344 530.269531 310.277344 530.269531 316.859375 C 530.269531 323.4375 540.140625 323.4375 540.140625 316.859375 Z M 540.140625 316.859375 "/>
<path fill-rule="nonzero" fill="rgb(32.120574%, 32.120574%, 32.120574%)" fill-opacity="1" d="M 407.582031 334.65625 C 407.582031 328.074219 397.714844 328.074219 397.714844 334.65625 C 397.714844 341.234375 407.582031 341.234375 407.582031 334.65625 Z M 407.582031 334.65625 "/>
<path fill-rule="nonzero" fill="rgb(89.999998%, 89.999998%, 89.999998%)" fill-opacity="1" d="M 662.125 338.519531 C 662.125 331.941406 652.257812 331.941406 652.257812 338.519531 C 652.257812 345.101562 662.125 345.101562 662.125 338.519531 Z M 662.125 338.519531 "/>
<path fill-rule="nonzero" fill="rgb(63.307238%, 63.307238%, 63.307238%)" fill-opacity="1" d="M 429.773438 285.988281 C 429.773438 279.410156 419.90625 279.410156 419.90625 285.988281 C 419.90625 292.570312 429.773438 292.570312 429.773438 285.988281 Z M 429.773438 285.988281 "/>
<path fill-rule="nonzero" fill="rgb(45.316333%, 45.316333%, 45.316333%)" fill-opacity="1" d="M 472.59375 337.742188 C 472.59375 331.164062 462.722656 331.164062 462.722656 337.742188 C 462.722656 344.324219 472.59375 344.324219 472.59375 337.742188 Z M 472.59375 337.742188 "/>
<path fill-rule="nonzero" fill="rgb(55.364096%, 55.364096%, 55.364096%)" fill-opacity="1" d="M 555.027344 373.121094 C 555.027344 366.542969 545.15625 366.542969 545.15625 373.121094 C 545.15625 379.703125 555.027344 379.703125 555.027344 373.121094 Z M 555.027344 373.121094 "/>
<path fill-rule="nonzero" fill="rgb(45.715871%, 45.715871%, 45.715871%)" fill-opacity="1" d="M 602.59375 292.34375 C 602.59375 285.761719 592.722656 285.761719 592.722656 292.34375 C 592.722656 298.921875 602.59375 298.921875 602.59375 292.34375 Z M 602.59375 292.34375 "/>
<path fill-rule="nonzero" fill="rgb(74.228621%, 74.228621%, 74.228621%)" fill-opacity="1" d="M 656.644531 297.820312 C 656.644531 291.242188 646.777344 291.242188 646.777344 297.820312 C 646.777344 304.402344 656.644531 304.402344 656.644531 297.820312 Z M 656.644531 297.820312 "/>
<path fill-rule="nonzero" fill="rgb(42.145461%, 42.145461%, 42.145461%)" fill-opacity="1" d="M 322.441406 389.3125 C 322.441406 382.734375 312.574219 382.734375 312.574219 389.3125 C 312.574219 395.894531 322.441406 395.894531 322.441406 389.3125 Z M 322.441406 389.3125 "/>
<path fill-rule="nonzero" fill="rgb(29.890397%, 29.890397%, 29.890397%)" fill-opacity="1" d="M 454.003906 269.722656 C 454.003906 263.144531 444.132812 263.144531 444.132812 269.722656 C 444.132812 276.304688 454.003906 276.304688 454.003906 269.722656 Z M 454.003906 269.722656 "/>
<path fill-rule="nonzero" fill="rgb(74.578905%, 74.578905%, 74.578905%)" fill-opacity="1" d="M 518.980469 291.15625 C 518.980469 284.574219 509.109375 284.574219 509.109375 291.15625 C 509.109375 297.734375 518.980469 297.734375 518.980469 291.15625 Z M 518.980469 291.15625 "/>
<path fill-rule="nonzero" fill="rgb(41.626355%, 41.626355%, 41.626355%)" fill-opacity="1" d="M 428.128906 281.164062 C 428.128906 274.585938 418.257812 274.585938 418.257812 281.164062 C 418.257812 287.746094 428.128906 287.746094 428.128906 281.164062 Z M 428.128906 281.164062 "/>
<path fill-rule="nonzero" fill="rgb(54.881662%, 54.881662%, 54.881662%)" fill-opacity="1" d="M 487.785156 386.746094 C 487.785156 380.164062 477.914062 380.164062 477.914062 386.746094 C 477.914062 393.324219 487.785156 393.324219 487.785156 386.746094 Z M 487.785156 386.746094 "/>
<path fill-rule="nonzero" fill="rgb(51.176929%, 51.176929%, 51.176929%)" fill-opacity="1" d="M 320.890625 315.953125 C 320.890625 309.371094 311.019531 309.371094 311.019531 315.953125 C 311.019531 322.53125 320.890625 322.53125 320.890625 315.953125 Z M 320.890625 315.953125 "/>
<path fill-rule="nonzero" fill="rgb(63.106155%, 63.106155%, 63.106155%)" fill-opacity="1" d="M 497.71875 396.113281 C 497.71875 389.535156 487.847656 389.535156 487.847656 396.113281 C 487.847656 402.695312 497.71875 402.695312 497.71875 396.113281 Z M 497.71875 396.113281 "/>
<path fill-rule="nonzero" fill="rgb(61.308384%, 61.308384%, 61.308384%)" fill-opacity="1" d="M 676.355469 58.953125 C 676.355469 52.375 666.484375 52.375 666.484375 58.953125 C 666.484375 65.535156 676.355469 65.535156 676.355469 58.953125 Z M 676.355469 58.953125 "/>
<path fill-rule="nonzero" fill="rgb(63.909012%, 63.909012%, 63.909012%)" fill-opacity="1" d="M 556.011719 250.398438 C 556.011719 243.816406 546.140625 243.816406 546.140625 250.398438 C 546.140625 256.976562 556.011719 256.976562 556.011719 250.398438 Z M 556.011719 250.398438 "/>
<path fill-rule="nonzero" fill="rgb(61.589658%, 61.589658%, 61.589658%)" fill-opacity="1" d="M 433.398438 223.5 C 433.398438 216.917969 423.527344 216.917969 423.527344 223.5 C 423.527344 230.078125 433.398438 230.078125 433.398438 223.5 Z M 433.398438 223.5 "/>
<path fill-rule="nonzero" fill="rgb(22.018073%, 22.018073%, 22.018073%)" fill-opacity="1" d="M 466.730469 402.816406 C 466.730469 396.234375 456.859375 396.234375 456.859375 402.816406 C 456.859375 409.394531 466.730469 409.394531 466.730469 402.816406 Z M 466.730469 402.816406 "/>
<path fill-rule="nonzero" fill="rgb(26.788414%, 26.788414%, 26.788414%)" fill-opacity="1" d="M 448.160156 244.40625 C 448.160156 237.824219 438.289062 237.824219 438.289062 244.40625 C 438.289062 250.984375 448.160156 250.984375 448.160156 244.40625 Z M 448.160156 244.40625 "/>
<path fill-rule="nonzero" fill="rgb(57.930422%, 57.930422%, 57.930422%)" fill-opacity="1" d="M 354.402344 432.757812 C 354.402344 426.175781 344.53125 426.175781 344.53125 432.757812 C 344.53125 439.335938 354.402344 439.335938 354.402344 432.757812 Z M 354.402344 432.757812 "/>
<path fill-rule="nonzero" fill="rgb(71.989638%, 71.989638%, 71.989638%)" fill-opacity="1" d="M 398.757812 436.371094 C 398.757812 429.792969 388.886719 429.792969 388.886719 436.371094 C 388.886719 442.953125 398.757812 442.953125 398.757812 436.371094 Z M 398.757812 436.371094 "/>
<path fill-rule="nonzero" fill="rgb(65.90547%, 65.90547%, 65.90547%)" fill-opacity="1" d="M 775.851562 217.550781 C 775.851562 210.972656 765.984375 210.972656 765.984375 217.550781 C 765.984375 224.128906 775.851562 224.128906 775.851562 217.550781 Z M 775.851562 217.550781 "/>
<path fill-rule="nonzero" fill="rgb(71.630669%, 71.630669%, 71.630669%)" fill-opacity="1" d="M 559.433594 444.417969 C 559.433594 437.839844 549.5625 437.839844 549.5625 444.417969 C 549.5625 451 559.433594 451 559.433594 444.417969 Z M 559.433594 444.417969 "/>
<path fill-rule="nonzero" fill="rgb(23.906279%, 23.906279%, 23.906279%)" fill-opacity="1" d="M 293.171875 300.058594 C 293.171875 293.480469 283.300781 293.480469 283.300781 300.058594 C 283.300781 306.640625 293.171875 306.640625 293.171875 300.058594 Z M 293.171875 300.058594 "/>
<path fill-rule="nonzero" fill="rgb(36.843103%, 36.843103%, 36.843103%)" fill-opacity="1" d="M 581.386719 158.203125 C 581.386719 151.621094 571.519531 151.621094 571.519531 158.203125 C 571.519531 164.78125 581.386719 164.78125 581.386719 158.203125 Z M 581.386719 158.203125 "/>
<path fill-rule="nonzero" fill="rgb(10%, 10%, 10%)" fill-opacity="1" d="M 392.289062 308.328125 C 392.289062 301.75 382.417969 301.75 382.417969 308.328125 C 382.417969 314.910156 392.289062 314.910156 392.289062 308.328125 Z M 392.289062 308.328125 "/>
<path fill-rule="nonzero" fill="rgb(51.514369%, 51.514369%, 51.514369%)" fill-opacity="1" d="M 356.925781 256.371094 C 356.925781 249.792969 347.054688 249.792969 347.054688 256.371094 C 347.054688 262.953125 356.925781 262.953125 356.925781 256.371094 Z M 356.925781 256.371094 "/>
<path fill-rule="nonzero" fill="rgb(32.170972%, 32.170972%, 32.170972%)" fill-opacity="1" d="M 378.785156 339.519531 C 378.785156 332.941406 368.914062 332.941406 368.914062 339.519531 C 368.914062 346.101562 378.785156 346.101562 378.785156 339.519531 Z M 378.785156 339.519531 "/>
<path fill-rule="nonzero" fill="rgb(19.09342%, 19.09342%, 19.09342%)" fill-opacity="1" d="M 338.472656 304.835938 C 338.472656 298.257812 328.601562 298.257812 328.601562 304.835938 C 328.601562 311.417969 338.472656 311.417969 338.472656 304.835938 Z M 338.472656 304.835938 "/>
<path fill-rule="nonzero" fill="rgb(71.79243%, 71.79243%, 71.79243%)" fill-opacity="1" d="M 456.460938 273.675781 C 456.460938 267.09375 446.589844 267.09375 446.589844 273.675781 C 446.589844 280.253906 456.460938 280.253906 456.460938 273.675781 Z M 456.460938 273.675781 "/>
<path fill-rule="nonzero" fill="rgb(32.452291%, 32.452291%, 32.452291%)" fill-opacity="1" d="M 452.984375 316.921875 C 452.984375 310.339844 443.113281 310.339844 443.113281 316.921875 C 443.113281 323.5 452.984375 323.5 452.984375 316.921875 Z M 452.984375 316.921875 "/>
<path fill-rule="nonzero" fill="rgb(60.740441%, 60.740441%, 60.740441%)" fill-opacity="1" d="M 561.171875 320.21875 C 561.171875 313.640625 551.300781 313.640625 551.300781 320.21875 C 551.300781 326.800781 561.171875 326.800781 561.171875 320.21875 Z M 561.171875 320.21875 "/>
<path fill-rule="nonzero" fill="rgb(58.794004%, 58.794004%, 58.794004%)" fill-opacity="1" d="M 636.648438 313.753906 C 636.648438 307.171875 626.78125 307.171875 626.78125 313.753906 C 626.78125 320.332031 636.648438 320.332031 636.648438 313.753906 Z M 636.648438 313.753906 "/>
<path fill-rule="nonzero" fill="rgb(64.274389%, 64.274389%, 64.274389%)" fill-opacity="1" d="M 758.808594 231.984375 C 758.808594 225.402344 748.9375 225.402344 748.9375 231.984375 C 748.9375 238.5625 758.808594 238.5625 758.808594 231.984375 Z M 758.808594 231.984375 "/>
<path fill-rule="nonzero" fill="rgb(24.007984%, 24.007984%, 24.007984%)" fill-opacity="1" d="M 505.34375 220.171875 C 505.34375 213.589844 495.472656 213.589844 495.472656 220.171875 C 495.472656 226.75 505.34375 226.75 505.34375 220.171875 Z M 505.34375 220.171875 "/>
<path fill-rule="nonzero" fill="rgb(41.87201%, 41.87201%, 41.87201%)" fill-opacity="1" d="M 408.738281 238.253906 C 408.738281 231.671875 398.871094 231.671875 398.871094 238.253906 C 398.871094 244.832031 408.738281 244.832031 408.738281 238.253906 Z M 408.738281 238.253906 "/>
<path fill-rule="nonzero" fill="rgb(52.866018%, 52.866018%, 52.866018%)" fill-opacity="1" d="M 478.382812 342.207031 C 478.382812 335.628906 468.515625 335.628906 468.515625 342.207031 C 468.515625 348.789062 478.382812 348.789062 478.382812 342.207031 Z M 478.382812 342.207031 "/>
<path fill-rule="nonzero" fill="rgb(66.862375%, 66.862375%, 66.862375%)" fill-opacity="1" d="M 487.847656 253.179688 C 487.847656 246.601562 477.980469 246.601562 477.980469 253.179688 C 477.980469 259.761719 487.847656 259.761719 487.847656 253.179688 Z M 487.847656 253.179688 "/>
<path fill-rule="nonzero" fill="rgb(60.030937%, 60.030937%, 60.030937%)" fill-opacity="1" d="M 609.132812 230.222656 C 609.132812 223.640625 599.261719 223.640625 599.261719 230.222656 C 599.261719 236.800781 609.132812 236.800781 609.132812 230.222656 Z M 609.132812 230.222656 "/>
<path fill-rule="nonzero" fill="rgb(26.42895%, 26.42895%, 26.42895%)" fill-opacity="1" d="M 394.03125 281.105469 C 394.03125 274.527344 384.160156 274.527344 384.160156 281.105469 C 384.160156 287.6875 394.03125 287.6875 394.03125 281.105469 Z M 394.03125 281.105469 "/>
<path fill-rule="nonzero" fill="rgb(37.781653%, 37.781653%, 37.781653%)" fill-opacity="1" d="M 275.320312 518.046875 C 275.320312 511.464844 265.449219 511.464844 265.449219 518.046875 C 265.449219 524.625 275.320312 524.625 275.320312 518.046875 Z M 275.320312 518.046875 "/>
<path fill-rule="nonzero" fill="rgb(53.30379%, 53.30379%, 53.30379%)" fill-opacity="1" d="M 461.9375 215.320312 C 461.9375 208.738281 452.066406 208.738281 452.066406 215.320312 C 452.066406 221.898438 461.9375 221.898438 461.9375 215.320312 Z M 461.9375 215.320312 "/>
<path fill-rule="nonzero" fill="rgb(69.945192%, 69.945192%, 69.945192%)" fill-opacity="1" d="M 707.492188 267.222656 C 707.492188 260.640625 697.621094 260.640625 697.621094 267.222656 C 697.621094 273.800781 707.492188 273.800781 707.492188 267.222656 Z M 707.492188 267.222656 "/>
<path fill-rule="nonzero" fill="rgb(51.115227%, 51.115227%, 51.115227%)" fill-opacity="1" d="M 451.925781 228.214844 C 451.925781 221.636719 442.054688 221.636719 442.054688 228.214844 C 442.054688 234.796875 451.925781 234.796875 451.925781 228.214844 Z M 451.925781 228.214844 "/>
<path fill-rule="nonzero" fill="rgb(41.89657%, 41.89657%, 41.89657%)" fill-opacity="1" d="M 428.40625 191.054688 C 428.40625 184.472656 418.535156 184.472656 418.535156 191.054688 C 418.535156 197.632812 428.40625 197.632812 428.40625 191.054688 Z M 428.40625 191.054688 "/>
<path fill-rule="nonzero" fill="rgb(56.325483%, 56.325483%, 56.325483%)" fill-opacity="1" d="M 315.167969 269.65625 C 315.167969 263.074219 305.300781 263.074219 305.300781 269.65625 C 305.300781 276.234375 315.167969 276.234375 315.167969 269.65625 Z M 315.167969 269.65625 "/>
<path fill-rule="nonzero" fill="rgb(30.727893%, 30.727893%, 30.727893%)" fill-opacity="1" d="M 462.914062 340.691406 C 462.914062 334.109375 453.046875 334.109375 453.046875 340.691406 C 453.046875 347.269531 462.914062 347.269531 462.914062 340.691406 Z M 462.914062 340.691406 "/>
<path fill-rule="nonzero" fill="rgb(51.759547%, 51.759547%, 51.759547%)" fill-opacity="1" d="M 334.5 323.195312 C 334.5 316.613281 324.628906 316.613281 324.628906 323.195312 C 324.628906 329.773438 334.5 329.773438 334.5 323.195312 Z M 334.5 323.195312 "/>
<path fill-rule="nonzero" fill="rgb(39.811063%, 39.811063%, 39.811063%)" fill-opacity="1" d="M 495.320312 410.011719 C 495.320312 403.433594 485.449219 403.433594 485.449219 410.011719 C 485.449219 416.589844 495.320312 416.589844 495.320312 410.011719 Z M 495.320312 410.011719 "/>
<path fill-rule="nonzero" fill="rgb(46.610275%, 46.610275%, 46.610275%)" fill-opacity="1" d="M 608.402344 258.417969 C 608.402344 251.835938 598.53125 251.835938 598.53125 258.417969 C 598.53125 264.996094 608.402344 264.996094 608.402344 258.417969 Z M 608.402344 258.417969 "/>
<path fill-rule="nonzero" fill="rgb(56.92265%, 56.92265%, 56.92265%)" fill-opacity="1" d="M 428.152344 415.0625 C 428.152344 408.484375 418.28125 408.484375 418.28125 415.0625 C 418.28125 421.644531 428.152344 421.644531 428.152344 415.0625 Z M 428.152344 415.0625 "/>
<path fill-rule="nonzero" fill="rgb(32.679403%, 32.679403%, 32.679403%)" fill-opacity="1" d="M 497.304688 376.59375 C 497.304688 370.015625 487.433594 370.015625 487.433594 376.59375 C 487.433594 383.175781 497.304688 383.175781 497.304688 376.59375 Z M 497.304688 376.59375 "/>
<path fill-rule="nonzero" fill="rgb(33.360752%, 33.360752%, 33.360752%)" fill-opacity="1" d="M 382.175781 172.511719 C 382.175781 165.933594 372.304688 165.933594 372.304688 172.511719 C 372.304688 179.09375 382.175781 179.09375 382.175781 172.511719 Z M 382.175781 172.511719 "/>
<path fill-rule="nonzero" fill="rgb(46.460602%, 46.460602%, 46.460602%)" fill-opacity="1" d="M 260.742188 386.246094 C 260.742188 379.664062 250.875 379.664062 250.875 386.246094 C 250.875 392.824219 260.742188 392.824219 260.742188 386.246094 Z M 260.742188 386.246094 "/>
<path fill-rule="nonzero" fill="rgb(60.929358%, 60.929358%, 60.929358%)" fill-opacity="1" d="M 434.925781 308.121094 C 434.925781 301.539062 425.058594 301.539062 425.058594 308.121094 C 425.058594 314.699219 434.925781 314.699219 434.925781 308.121094 Z M 434.925781 308.121094 "/>
<path fill-rule="nonzero" fill="rgb(16.232599%, 16.232599%, 16.232599%)" fill-opacity="1" d="M 246.148438 294.730469 C 246.148438 288.148438 236.277344 288.148438 236.277344 294.730469 C 236.277344 301.308594 246.148438 301.308594 246.148438 294.730469 Z M 246.148438 294.730469 "/>
<path fill-rule="nonzero" fill="rgb(15.749386%, 15.749386%, 15.749386%)" fill-opacity="1" d="M 341.890625 329.984375 C 341.890625 323.402344 332.019531 323.402344 332.019531 329.984375 C 332.019531 336.5625 341.890625 336.5625 341.890625 329.984375 Z M 341.890625 329.984375 "/>
<path fill-rule="nonzero" fill="rgb(30.233067%, 30.233067%, 30.233067%)" fill-opacity="1" d="M 354.351562 221.515625 C 354.351562 214.9375 344.480469 214.9375 344.480469 221.515625 C 344.480469 228.097656 354.351562 228.097656 354.351562 221.515625 Z M 354.351562 221.515625 "/>
<path fill-rule="nonzero" fill="rgb(58.20235%, 58.20235%, 58.20235%)" fill-opacity="1" d="M 519.625 255.417969 C 519.625 248.839844 509.753906 248.839844 509.753906 255.417969 C 509.753906 262 519.625 262 519.625 255.417969 Z M 519.625 255.417969 "/>
<path fill-rule="nonzero" fill="rgb(50.573593%, 50.573593%, 50.573593%)" fill-opacity="1" d="M 580.417969 244.152344 C 580.417969 237.570312 570.546875 237.570312 570.546875 244.152344 C 570.546875 250.730469 580.417969 250.730469 580.417969 244.152344 Z M 580.417969 244.152344 "/>
<path fill-rule="nonzero" fill="rgb(53.323013%, 53.323013%, 53.323013%)" fill-opacity="1" d="M 285.757812 449.628906 C 285.757812 443.046875 275.886719 443.046875 275.886719 449.628906 C 275.886719 456.207031 285.757812 456.207031 285.757812 449.628906 Z M 285.757812 449.628906 "/>
<path fill-rule="nonzero" fill="rgb(80.795836%, 80.795836%, 80.795836%)" fill-opacity="1" d="M 614.984375 343.675781 C 614.984375 337.09375 605.113281 337.09375 605.113281 343.675781 C 605.113281 350.253906 614.984375 350.253906 614.984375 343.675781 Z M 614.984375 343.675781 "/>
<path fill-rule="nonzero" fill="rgb(13.776366%, 13.776366%, 13.776366%)" fill-opacity="1" d="M 215.515625 354.683594 C 215.515625 348.101562 205.644531 348.101562 205.644531 354.683594 C 205.644531 361.261719 215.515625 361.261719 215.515625 354.683594 Z M 215.515625 354.683594 "/>
<path fill-rule="nonzero" fill="rgb(52.991807%, 52.991807%, 52.991807%)" fill-opacity="1" d="M 174.324219 270.964844 C 174.324219 264.382812 164.457031 264.382812 164.457031 270.964844 C 164.457031 277.542969 174.324219 277.542969 174.324219 270.964844 Z M 174.324219 270.964844 "/>
<path fill-rule="nonzero" fill="rgb(31.44424%, 31.44424%, 31.44424%)" fill-opacity="1" d="M 165.070312 277.453125 C 165.070312 270.871094 155.199219 270.871094 155.199219 277.453125 C 155.199219 284.03125 165.070312 284.03125 165.070312 277.453125 Z M 165.070312 277.453125 "/>
<path fill-rule="nonzero" fill="rgb(46.310371%, 46.310371%, 46.310371%)" fill-opacity="1" d="M 105.5 250.160156 C 105.5 243.578125 95.628906 243.578125 95.628906 250.160156 C 95.628906 256.738281 105.5 256.738281 105.5 250.160156 Z M 105.5 250.160156 "/>
<path fill-rule="nonzero" fill="rgb(13.197429%, 13.197429%, 13.197429%)" fill-opacity="1" d="M 159.894531 228.175781 C 159.894531 221.59375 150.023438 221.59375 150.023438 228.175781 C 150.023438 234.753906 159.894531 234.753906 159.894531 228.175781 Z M 159.894531 228.175781 "/>
<path fill-rule="nonzero" fill="rgb(38.032523%, 38.032523%, 38.032523%)" fill-opacity="1" d="M 171.996094 266.558594 C 171.996094 259.980469 162.125 259.980469 162.125 266.558594 C 162.125 273.140625 171.996094 273.140625 171.996094 266.558594 Z M 171.996094 266.558594 "/>
<path fill-rule="nonzero" fill="rgb(31.163567%, 31.163567%, 31.163567%)" fill-opacity="1" d="M 104.296875 311.640625 C 104.296875 305.0625 94.429688 305.0625 94.429688 311.640625 C 94.429688 318.222656 104.296875 318.222656 104.296875 311.640625 Z M 104.296875 311.640625 "/>
<path fill-rule="nonzero" fill="rgb(59.002733%, 59.002733%, 59.002733%)" fill-opacity="1" d="M 222.828125 337.148438 C 222.828125 330.570312 212.960938 330.570312 212.960938 337.148438 C 212.960938 343.730469 222.828125 343.730469 222.828125 337.148438 Z M 222.828125 337.148438 "/>
<path fill-rule="nonzero" fill="rgb(11.356803%, 11.356803%, 11.356803%)" fill-opacity="1" d="M 107.304688 260.761719 C 107.304688 254.183594 97.433594 254.183594 97.433594 260.761719 C 97.433594 267.34375 107.304688 267.34375 107.304688 260.761719 Z M 107.304688 260.761719 "/>
<path fill-rule="nonzero" fill="rgb(61.900657%, 61.900657%, 61.900657%)" fill-opacity="1" d="M 166.585938 204.832031 C 166.585938 198.253906 156.714844 198.253906 156.714844 204.832031 C 156.714844 211.414062 166.585938 211.414062 166.585938 204.832031 Z M 166.585938 204.832031 "/>
<path fill="none" stroke-width="1" stroke-linecap="butt" stroke-linejoin="miter" stroke="rgb(0%, 0%, 0%)" stroke-opacity="1" stroke-miterlimit="1.154701" d="M 320.304688 541.5 L 320.304688 546.5 "/>
<path fill="none" stroke-width="1" stroke-linecap="butt" stroke-linejoin="miter" stroke="rgb(0%, 0%, 0%)" stroke-opacity="1" stroke-miterlimit="1.154701" d="M 596.542969 541.5 L 596.542969 546.5 "/>
<path fill="none" stroke-width="1" stroke-linecap="butt" stroke-linejoin="miter" stroke="rgb(0%, 0%, 0%)" stroke-opacity="1" stroke-miterlimit="1.154701" d="M 872.78125 541.5 L 872.78125 546.5 "/>
<path fill="none" stroke-width="1" stroke-linecap="butt" stroke-linejoin="miter" stroke="rgb(0%, 0%, 0%)" stroke-opacity="1" stroke-miterlimit="1.154701" d="M 61.5 447.714844 L 56.5 447.714844 "/>
<path fill="none" stroke-width="1" stroke-linecap="butt" stroke-linejoin="miter" stroke="rgb(0%, 0%, 0%)" stroke-opacity="1" stroke-miterlimit="1.154701" d="M 61.5 292.113281 L 56.5 292.113281 "/>
<path fill="none" stroke-width="1" stroke-linecap="butt" stroke-linejoin="miter" stroke="rgb(0%, 0%, 0%)" stroke-opacity="1" stroke-miterlimit="1.154701" d="M 61.5 136.511719 L 56.5 136.511719 "/>
<path fill="none" stroke-width="1" stroke-linecap="butt" stroke-linejoin="miter" stroke="rgb(0%, 0%, 0%)" stroke-opacity="1" stroke-miterlimit="1.154701" d="M 61.5 541 L 884.5 541 "/>
<path fill="none" stroke-width="1" stroke-linecap="butt" stroke-linejoin="miter" stroke="rgb(0%, 0%, 0%)" stroke-opacity="1" stroke-miterlimit="1.154701" d="M 62 541.5 L 62 35.5 "/>
<path fill="none" stroke-width="1" stroke-linecap="butt" stroke-linejoin="miter" stroke="rgb(0%, 0%, 0%)" stroke-opacity="1" stroke-miterlimit="1.154701" d="M 61.5 36 L 884.5 36 "/>
<path fill="none" stroke-width="1" stroke-linecap="butt" stroke-linejoin="miter" stroke="rgb(0%, 0%, 0%)" stroke-opacity="1" stroke-miterlimit="1.154701" d="M 884 541.5 L 884 35.5 "/>
</svg>
