<?xml version="1.0" encoding="UTF-8"?>
<svg xmlns="http://www.w3.org/2000/svg" xmlns:xlink="http://www.w3.org/1999/xlink" width="900" height="600" viewBox="0 0 900 600">
<defs>
<g>
<g id="glyph-0-0-76f8480e">
<path d="M 8.640625 -7.203125 C 8.640625 -5.515625 7.46875 -4.328125 5.78125 -4.328125 C 5.78125 -4.328125 2.578125 -4.328125 2.578125 -4.328125 C 2.578125 -4.328125 2.578125 0 2.578125 0 C 2.578125 0 1.28125 0 1.28125 0 C 1.28125 0 1.28125 -10.203125 1.28125 -10.203125 C 1.28125 -10.203125 5.484375 -10.203125 5.484375 -10.203125 C 7.5 -10.203125 8.640625 -9.125 8.640625 -7.203125 Z M 7.28125 -7.265625 C 7.28125 -8.390625 6.53125 -9.0625 5.296875 -9.0625 C 5.296875 -9.0625 2.578125 -9.0625 2.578125 -9.0625 C 2.578125 -9.0625 2.578125 -5.46875 2.578125 -5.46875 C 2.578125 -5.46875 5.296875 -5.46875 5.296875 -5.46875 C 6.53125 -5.46875 7.28125 -6.140625 7.28125 -7.265625 Z M 7.28125 -7.265625 "/>
</g>
<g id="glyph-0-1-76f8480e">
<path d="M 4.5 -6.3125 C 2.6875 -6.28125 2.140625 -5.453125 2.140625 -3.8125 C 2.140625 -3.8125 2.140625 0 2.140625 0 C 2.140625 0 0.984375 0 0.984375 0 C 0.984375 0 0.984375 -7.34375 0.984375 -7.34375 C 0.984375 -7.34375 2.046875 -7.34375 2.046875 -7.34375 C 2.046875 -7.34375 2.046875 -6 2.046875 -6 C 2.71875 -7.09375 3.296875 -7.546875 4.046875 -7.546875 C 4.203125 -7.546875 4.296875 -7.53125 4.5 -7.5 C 4.5 -7.5 4.5 -6.3125 4.5 -6.3125 Z M 4.5 -6.3125 "/>
</g>
<g id="glyph-0-2-76f8480e">
<path d="M 2.140625 0 C 2.140625 0 0.984375 0 0.984375 0 C 0.984375 0 0.984375 -7.34375 0.984375 -7.34375 C 0.984375 -7.34375 2.140625 -7.34375 2.140625 -7.34375 C 2.140625 -7.34375 2.140625 0 2.140625 0 Z M 2.296875 -8.4375 C 2.296875 -8.4375 0.84375 -8.4375 0.84375 -8.4375 C 0.84375 -8.4375 0.84375 -9.890625 0.84375 -9.890625 C 0.84375 -9.890625 2.296875 -9.890625 2.296875 -9.890625 C 2.296875 -9.890625 2.296875 -8.4375 2.296875 -8.4375 Z M 2.296875 -8.4375 "/>
</g>
<g id="glyph-0-3-76f8480e">
<path d="M 6.8125 0 C 6.8125 0 5.65625 0 5.65625 0 C 5.65625 0 5.65625 -5.078125 5.65625 -5.078125 C 5.65625 -5.96875 5.0625 -6.53125 4.140625 -6.53125 C 2.953125 -6.53125 2.140625 -5.546875 2.140625 -4.046875 C 2.140625 -4.046875 2.140625 0 2.140625 0 C 2.140625 0 0.984375 0 0.984375 0 C 0.984375 0 0.984375 -7.34375 0.984375 -7.34375 C 0.984375 -7.34375 2.0625 -7.34375 2.0625 -7.34375 C 2.0625 -7.34375 2.0625 -6.109375 2.0625 -6.109375 C 2.703125 -7.125 3.40625 -7.546875 4.5 -7.546875 C 5.90625 -7.546875 6.8125 -6.765625 6.8125 -5.546875 C 6.8125 -5.546875 6.8125 0 6.8125 0 Z M 6.8125 0 "/>
</g>
<g id="glyph-0-4-76f8480e">
<path d="M 6.671875 -2.515625 C 6.53125 -0.84375 5.4375 0.203125 3.6875 0.203125 C 1.6875 0.203125 0.4375 -1.234375 0.4375 -3.59375 C 0.4375 -6.03125 1.71875 -7.546875 3.703125 -7.546875 C 5.328125 -7.546875 6.453125 -6.65625 6.59375 -4.875 C 6.59375 -4.875 5.421875 -4.875 5.421875 -4.875 C 5.28125 -5.890625 4.65625 -6.46875 3.6875 -6.46875 C 2.40625 -6.46875 1.65625 -5.4375 1.65625 -3.59375 C 1.65625 -1.859375 2.421875 -0.875 3.703125 -0.875 C 4.703125 -0.875 5.3125 -1.34375 5.5 -2.515625 C 5.5 -2.515625 6.671875 -2.515625 6.671875 -2.515625 Z M 6.671875 -2.515625 "/>
</g>
<g id="glyph-0-5-76f8480e">
<path d="M 7.328125 -3.59375 C 7.328125 -1.265625 6.078125 0.203125 4.1875 0.203125 C 3.234375 0.203125 2.546875 -0.125 1.9375 -0.875 C 1.9375 -0.875 1.9375 3.046875 1.9375 3.046875 C 1.9375 3.046875 0.765625 3.046875 0.765625 3.046875 C 0.765625 3.046875 0.765625 -7.34375 0.765625 -7.34375 C 0.765625 -7.34375 1.828125 -7.34375 1.828125 -7.34375 C 1.828125 -7.34375 1.828125 -6.234375 1.828125 -6.234375 C 2.375 -7.09375 3.171875 -7.546875 4.171875 -7.546875 C 6.125 -7.546875 7.328125 -6.0625 7.328125 -3.59375 Z M 6.109375 -3.625 C 6.109375 -5.375 5.265625 -6.453125 3.96875 -6.453125 C 2.75 -6.453125 1.9375 -5.328125 1.9375 -3.609375 C 1.9375 -1.890625 2.75 -0.875 3.96875 -0.875 C 5.25 -0.875 6.109375 -1.953125 6.109375 -3.625 Z M 6.109375 -3.625 "/>
</g>
<g id="glyph-0-6-76f8480e">
<path d="M 7.484375 -0.03125 C 7.109375 0.0625 6.9375 0.09375 6.6875 0.09375 C 6.125 0.09375 5.609375 -0.3125 5.484375 -0.875 C 4.84375 -0.1875 3.9375 0.203125 3 0.203125 C 1.515625 0.203125 0.59375 -0.578125 0.59375 -1.90625 C 0.59375 -2.796875 1.015625 -3.453125 1.875 -3.8125 C 2.328125 -3.984375 2.578125 -4.046875 4.234375 -4.25 C 5.15625 -4.375 5.453125 -4.578125 5.453125 -5.0625 C 5.453125 -5.0625 5.453125 -5.375 5.453125 -5.375 C 5.453125 -6.078125 4.859375 -6.46875 3.8125 -6.46875 C 2.71875 -6.46875 2.1875 -6.0625 2.09375 -5.171875 C 2.09375 -5.171875 0.90625 -5.171875 0.90625 -5.171875 C 0.984375 -6.859375 2.078125 -7.546875 3.84375 -7.546875 C 5.65625 -7.546875 6.609375 -6.84375 6.609375 -5.546875 C 6.609375 -5.546875 6.609375 -1.453125 6.609375 -1.453125 C 6.609375 -1.09375 6.828125 -0.875 7.234375 -0.875 C 7.3125 -0.875 7.359375 -0.875 7.484375 -0.90625 C 7.484375 -0.90625 7.484375 -0.03125 7.484375 -0.03125 Z M 5.453125 -2.53125 C 5.453125 -2.53125 5.453125 -3.625 5.453125 -3.625 C 5.046875 -3.4375 4.796875 -3.390625 3.5625 -3.21875 C 2.328125 -3.03125 1.8125 -2.703125 1.8125 -1.9375 C 1.8125 -1.140625 2.34375 -0.8125 3.25 -0.8125 C 4.375 -0.8125 5.453125 -1.484375 5.453125 -2.53125 Z M 5.453125 -2.53125 "/>
</g>
<g id="glyph-0-7-76f8480e">
<path d="M 2.109375 0 C 2.109375 0 0.953125 0 0.953125 0 C 0.953125 0 0.953125 -10.203125 0.953125 -10.203125 C 0.953125 -10.203125 2.109375 -10.203125 2.109375 -10.203125 C 2.109375 -10.203125 2.109375 0 2.109375 0 Z M 2.109375 0 "/>
</g>
<g id="glyph-0-8-76f8480e">
</g>
<g id="glyph-0-9-76f8480e">
<path d="M 9.484375 -3.71875 C 9.171875 -1.0625 7.765625 0.25 5.28125 0.25 C 2.28125 0.25 0.671875 -2 0.671875 -4.984375 C 0.671875 -7.96875 2.234375 -10.453125 5.328125 -10.453125 C 7.578125 -10.453125 8.859375 -9.28125 9.265625 -7.046875 C 9.265625 -7.046875 7.9375 -7.046875 7.9375 -7.046875 C 7.609375 -8.59375 6.78125 -9.3125 5.1875 -9.3125 C 3.203125 -9.3125 1.96875 -7.609375 1.96875 -5 C 1.96875 -2.453125 3.265625 -0.890625 5.296875 -0.890625 C 7.015625 -0.890625 7.828125 -1.796875 8.140625 -3.71875 C 8.140625 -3.71875 9.484375 -3.71875 9.484375 -3.71875 Z M 9.484375 -3.71875 "/>
</g>
<g id="glyph-0-10-76f8480e">
<path d="M 7.140625 -3.609375 C 7.140625 -1.203125 5.875 0.203125 3.828125 0.203125 C 1.734375 0.203125 0.5 -1.203125 0.5 -3.671875 C 0.5 -6.125 1.75 -7.546875 3.8125 -7.546875 C 5.921875 -7.546875 7.140625 -6.140625 7.140625 -3.609375 Z M 5.921875 -3.625 C 5.921875 -5.453125 5.140625 -6.46875 3.828125 -6.46875 C 2.515625 -6.46875 1.71875 -5.4375 1.71875 -3.671875 C 1.71875 -1.890625 2.515625 -0.875 3.828125 -0.875 C 5.109375 -0.875 5.921875 -1.90625 5.921875 -3.625 Z M 5.921875 -3.625 "/>
</g>
<g id="glyph-0-11-76f8480e">
<path d="M 10.640625 0 C 10.640625 0 9.484375 0 9.484375 0 C 9.484375 0 9.484375 -5.046875 9.484375 -5.046875 C 9.484375 -5.984375 8.984375 -6.53125 8.140625 -6.53125 C 7.1875 -6.53125 6.390625 -5.671875 6.390625 -4.609375 C 6.390625 -4.609375 6.390625 0 6.390625 0 C 6.390625 0 5.234375 0 5.234375 0 C 5.234375 0 5.234375 -5.046875 5.234375 -5.046875 C 5.234375 -5.984375 4.75 -6.53125 3.875 -6.53125 C 2.921875 -6.53125 2.15625 -5.671875 2.15625 -4.609375 C 2.15625 -4.609375 2.15625 0 2.15625 0 C 2.15625 0 1 0 1 0 C 1 0 1 -7.34375 1 -7.34375 C 1 -7.34375 2.0625 -7.34375 2.0625 -7.34375 C 2.0625 -7.34375 2.0625 -6.296875 2.0625 -6.296875 C 2.6875 -7.1875 3.328125 -7.546875 4.3125 -7.546875 C 5.265625 -7.546875 5.859375 -7.203125 6.28125 -6.421875 C 6.96875 -7.25 7.5625 -7.546875 8.546875 -7.546875 C 9.90625 -7.546875 10.640625 -6.8125 10.640625 -5.5 C 10.640625 -5.5 10.640625 0 10.640625 0 Z M 10.640625 0 "/>
</g>
<g id="glyph-0-12-76f8480e">
<path d="M 7.1875 -3.328125 C 7.1875 -3.328125 1.78125 -3.328125 1.78125 -3.328125 C 1.8125 -1.65625 2.71875 -0.875 3.9375 -0.875 C 4.875 -0.875 5.53125 -1.265625 5.859375 -2.21875 C 5.859375 -2.21875 7.03125 -2.21875 7.03125 -2.21875 C 6.734375 -0.734375 5.578125 0.203125 3.890625 0.203125 C 1.828125 0.203125 0.5625 -1.21875 0.5625 -3.625 C 0.5625 -6.03125 1.875 -7.546875 3.921875 -7.546875 C 5.296875 -7.546875 6.40625 -6.8125 6.890625 -5.609375 C 7.09375 -5.0625 7.1875 -4.390625 7.1875 -3.328125 Z M 5.9375 -4.375 C 5.9375 -5.515625 5.046875 -6.46875 3.90625 -6.46875 C 2.734375 -6.46875 1.90625 -5.59375 1.8125 -4.28125 C 1.8125 -4.28125 5.921875 -4.28125 5.921875 -4.28125 C 5.9375 -4.3125 5.9375 -4.375 5.9375 -4.375 Z M 5.9375 -4.375 "/>
</g>
<g id="glyph-0-13-76f8480e">
<path d="M 3.5625 0 C 3.15625 0.0625 2.890625 0.09375 2.609375 0.09375 C 1.6875 0.09375 1.1875 -0.328125 1.1875 -1.0625 C 1.1875 -1.0625 1.1875 -6.390625 1.1875 -6.390625 C 1.1875 -6.390625 0.203125 -6.390625 0.203125 -6.390625 C 0.203125 -6.390625 0.203125 -7.34375 0.203125 -7.34375 C 0.203125 -7.34375 1.1875 -7.34375 1.1875 -7.34375 C 1.1875 -7.34375 1.1875 -9.359375 1.1875 -9.359375 C 1.1875 -9.359375 2.359375 -9.359375 2.359375 -9.359375 C 2.359375 -9.359375 2.359375 -7.34375 2.359375 -7.34375 C 2.359375 -7.34375 3.5625 -7.34375 3.5625 -7.34375 C 3.5625 -7.34375 3.5625 -6.390625 3.5625 -6.390625 C 3.5625 -6.390625 2.359375 -6.390625 2.359375 -6.390625 C 2.359375 -6.390625 2.359375 -1.578125 2.359375 -1.578125 C 2.359375 -1.0625 2.484375 -0.921875 3 -0.921875 C 3.21875 -0.921875 3.40625 -0.9375 3.5625 -0.984375 C 3.5625 -0.984375 3.5625 0 3.5625 0 Z M 3.5625 0 "/>
</g>
<g id="glyph-0-14-76f8480e">
<path d="M 4.859375 0 C 4.859375 0 3.625 0 3.625 0 C 3.625 0 3.625 -7.0625 3.625 -7.0625 C 3.625 -7.0625 1.421875 -7.0625 1.421875 -7.0625 C 1.421875 -7.0625 1.421875 -7.953125 1.421875 -7.953125 C 3.328125 -8.1875 3.609375 -8.40625 4.046875 -9.921875 C 4.046875 -9.921875 4.859375 -9.921875 4.859375 -9.921875 C 4.859375 -9.921875 4.859375 0 4.859375 0 Z M 4.859375 0 "/>
</g>
<g id="glyph-0-15-76f8480e">
<path d="M 7.21875 -3.03125 C 7.21875 -3.03125 0.953125 -3.03125 0.953125 -3.03125 C 0.953125 -3.03125 0.953125 -3.96875 0.953125 -3.96875 C 0.953125 -3.96875 7.21875 -3.96875 7.21875 -3.96875 C 7.21875 -3.96875 7.21875 -3.03125 7.21875 -3.03125 Z M 7.21875 -3.03125 "/>
</g>
<g id="glyph-0-16-76f8480e">
<path d="M 7.1875 -3.296875 C 7.1875 -1.1875 5.78125 0.203125 3.78125 0.203125 C 2.015625 0.203125 0.890625 -0.578125 0.484375 -2.546875 C 0.484375 -2.546875 1.71875 -2.546875 1.71875 -2.546875 C 2.015625 -1.421875 2.671875 -0.875 3.75 -0.875 C 5.09375 -0.875 5.921875 -1.6875 5.921875 -3.125 C 5.921875 -4.59375 5.078125 -5.453125 3.75 -5.453125 C 2.984375 -5.453125 2.5 -5.203125 1.9375 -4.515625 C 1.9375 -4.515625 0.796875 -4.515625 0.796875 -4.515625 C 0.796875 -4.515625 1.546875 -9.71875 1.546875 -9.71875 C 1.546875 -9.71875 6.65625 -9.71875 6.65625 -9.71875 C 6.65625 -9.71875 6.65625 -8.5 6.65625 -8.5 C 6.65625 -8.5 2.53125 -8.5 2.53125 -8.5 C 2.53125 -8.5 2.140625 -5.9375 2.140625 -5.9375 C 2.71875 -6.359375 3.28125 -6.53125 3.96875 -6.53125 C 5.875 -6.53125 7.1875 -5.25 7.1875 -3.296875 Z M 7.1875 -3.296875 "/>
</g>
<g id="glyph-0-17-76f8480e">
<path d="M 7.09375 -4.78125 C 7.09375 -1.515625 5.953125 0.203125 3.84375 0.203125 C 1.71875 0.203125 0.609375 -1.515625 0.609375 -4.859375 C 0.609375 -8.1875 1.703125 -9.921875 3.84375 -9.921875 C 6 -9.921875 7.09375 -8.21875 7.09375 -4.78125 Z M 5.84375 -4.890625 C 5.84375 -7.546875 5.1875 -8.828125 3.84375 -8.828125 C 2.515625 -8.828125 1.859375 -7.5625 1.859375 -4.84375 C 1.859375 -2.125 2.515625 -0.8125 3.828125 -0.8125 C 5.1875 -0.8125 5.84375 -2.078125 5.84375 -4.890625 Z M 5.84375 -4.890625 "/>
</g>
<g id="glyph-1-0-76f8480e">
<path d="M 6.8125 0 C 6.8125 0 5.65625 0 5.65625 0 C 5.65625 0 5.65625 -5.078125 5.65625 -5.078125 C 5.65625 -5.96875 5.0625 -6.53125 4.140625 -6.53125 C 2.953125 -6.53125 2.140625 -5.546875 2.140625 -4.046875 C 2.140625 -4.046875 2.140625 0 2.140625 0 C 2.140625 0 0.984375 0 0.984375 0 C 0.984375 0 0.984375 -7.34375 0.984375 -7.34375 C 0.984375 -7.34375 2.0625 -7.34375 2.0625 -7.34375 C 2.0625 -7.34375 2.0625 -6.109375 2.0625 -6.109375 C 2.703125 -7.125 3.40625 -7.546875 4.5 -7.546875 C 5.90625 -7.546875 6.8125 -6.765625 6.8125 -5.546875 C 6.8125 -5.546875 6.8125 0 6.8125 0 Z M 6.8125 0 "/>
</g>
<g id="glyph-2-0-76f8480e">
<path d="M -7.203125 -8.640625 C -5.515625 -8.640625 -4.328125 -7.46875 -4.328125 -5.78125 C -4.328125 -5.78125 -4.328125 -2.578125 -4.328125 -2.578125 C -4.328125 -2.578125 0 -2.578125 0 -2.578125 C 0 -2.578125 0 -1.28125 0 -1.28125 C 0 -1.28125 -10.203125 -1.28125 -10.203125 -1.28125 C -10.203125 -1.28125 -10.203125 -5.484375 -10.203125 -5.484375 C -10.203125 -7.5 -9.125 -8.640625 -7.203125 -8.640625 Z M -7.265625 -7.28125 C -8.390625 -7.28125 -9.0625 -6.53125 -9.0625 -5.296875 C -9.0625 -5.296875 -9.0625 -2.578125 -9.0625 -2.578125 C -9.0625 -2.578125 -5.46875 -2.578125 -5.46875 -2.578125 C -5.46875 -2.578125 -5.46875 -5.296875 -5.46875 -5.296875 C -5.46875 -6.53125 -6.140625 -7.28125 -7.265625 -7.28125 Z M -7.265625 -7.28125 "/>
</g>
<g id="glyph-2-1-76f8480e">
<path d="M -0.03125 -7.484375 C 0.0625 -7.109375 0.09375 -6.9375 0.09375 -6.6875 C 0.09375 -6.125 -0.3125 -5.609375 -0.875 -5.484375 C -0.1875 -4.84375 0.203125 -3.9375 0.203125 -3 C 0.203125 -1.515625 -0.578125 -0.59375 -1.90625 -0.59375 C -2.796875 -0.59375 -3.453125 -1.015625 -3.8125 -1.875 C -3.984375 -2.328125 -4.046875 -2.578125 -4.25 -4.234375 C -4.375 -5.15625 -4.578125 -5.453125 -5.0625 -5.453125 C -5.0625 -5.453125 -5.375 -5.453125 -5.375 -5.453125 C -6.078125 -5.453125 -6.46875 -4.859375 -6.46875 -3.8125 C -6.46875 -2.71875 -6.0625 -2.1875 -5.171875 -2.09375 C -5.171875 -2.09375 -5.171875 -0.90625 -5.171875 -0.90625 C -6.859375 -0.984375 -7.546875 -2.078125 -7.546875 -3.84375 C -7.546875 -5.65625 -6.84375 -6.609375 -5.546875 -6.609375 C -5.546875 -6.609375 -1.453125 -6.609375 -1.453125 -6.609375 C -1.09375 -6.609375 -0.875 -6.828125 -0.875 -7.234375 C -0.875 -7.3125 -0.875 -7.359375 -0.90625 -7.484375 C -0.90625 -7.484375 -0.03125 -7.484375 -0.03125 -7.484375 Z M -2.53125 -5.453125 C -2.53125 -5.453125 -3.625 -5.453125 -3.625 -5.453125 C -3.4375 -5.046875 -3.390625 -4.796875 -3.21875 -3.5625 C -3.03125 -2.328125 -2.703125 -1.8125 -1.9375 -1.8125 C -1.140625 -1.8125 -0.8125 -2.34375 -0.8125 -3.25 C -0.8125 -4.375 -1.484375 -5.453125 -2.53125 -5.453125 Z M -2.53125 -5.453125 "/>
</g>
<g id="glyph-2-2-76f8480e">
<path d="M -3.609375 -7.140625 C -1.203125 -7.140625 0.203125 -5.875 0.203125 -3.828125 C 0.203125 -1.734375 -1.203125 -0.5 -3.671875 -0.5 C -6.125 -0.5 -7.546875 -1.75 -7.546875 -3.8125 C -7.546875 -5.921875 -6.140625 -7.140625 -3.609375 -7.140625 Z M -3.625 -5.921875 C -5.453125 -5.921875 -6.46875 -5.140625 -6.46875 -3.828125 C -6.46875 -2.515625 -5.4375 -1.71875 -3.671875 -1.71875 C -1.890625 -1.71875 -0.875 -2.515625 -0.875 -3.828125 C -0.875 -5.109375 -1.90625 -5.921875 -3.625 -5.921875 Z M -3.625 -5.921875 "/>
</g>
<g id="glyph-2-3-76f8480e">
<path d="M -3.59375 -7.328125 C -1.265625 -7.328125 0.203125 -6.078125 0.203125 -4.1875 C 0.203125 -3.234375 -0.125 -2.546875 -0.875 -1.9375 C -0.875 -1.9375 3.046875 -1.9375 3.046875 -1.9375 C 3.046875 -1.9375 3.046875 -0.765625 3.046875 -0.765625 C 3.046875 -0.765625 -7.34375 -0.765625 -7.34375 -0.765625 C -7.34375 -0.765625 -7.34375 -1.828125 -7.34375 -1.828125 C -7.34375 -1.828125 -6.234375 -1.828125 -6.234375 -1.828125 C -7.09375 -2.375 -7.546875 -3.171875 -7.546875 -4.171875 C -7.546875 -6.125 -6.0625 -7.328125 -3.59375 -7.328125 Z M -3.625 -6.109375 C -5.375 -6.109375 -6.453125 -5.265625 -6.453125 -3.96875 C -6.453125 -2.75 -5.328125 -1.9375 -3.609375 -1.9375 C -1.890625 -1.9375 -0.875 -2.75 -0.875 -3.96875 C -0.875 -5.25 -1.953125 -6.109375 -3.625 -6.109375 Z M -3.625 -6.109375 "/>
</g>
<g id="glyph-2-4-76f8480e">
<path d="M -3.328125 -7.1875 C -3.328125 -7.1875 -3.328125 -1.78125 -3.328125 -1.78125 C -1.65625 -1.8125 -0.875 -2.71875 -0.875 -3.9375 C -0.875 -4.875 -1.265625 -5.53125 -2.21875 -5.859375 C -2.21875 -5.859375 -2.21875 -7.03125 -2.21875 -7.03125 C -0.734375 -6.734375 0.203125 -5.578125 0.203125 -3.890625 C 0.203125 -1.828125 -1.21875 -0.5625 -3.625 -0.5625 C -6.03125 -0.5625 -7.546875 -1.875 -7.546875 -3.921875 C -7.546875 -5.296875 -6.8125 -6.40625 -5.609375 -6.890625 C -5.0625 -7.09375 -4.390625 -7.1875 -3.328125 -7.1875 Z M -4.375 -5.9375 C -5.515625 -5.9375 -6.46875 -5.046875 -6.46875 -3.90625 C -6.46875 -2.734375 -5.59375 -1.90625 -4.28125 -1.8125 C -4.28125 -1.8125 -4.28125 -5.921875 -4.28125 -5.921875 C -4.3125 -5.9375 -4.375 -5.9375 -4.375 -5.9375 Z M -4.375 -5.9375 "/>
</g>
<g id="glyph-2-5-76f8480e">
<path d="M 0 -3.5625 C 0.0625 -3.15625 0.09375 -2.890625 0.09375 -2.609375 C 0.09375 -1.6875 -0.328125 -1.1875 -1.0625 -1.1875 C -1.0625 -1.1875 -6.390625 -1.1875 -6.390625 -1.1875 C -6.390625 -1.1875 -6.390625 -0.203125 -6.390625 -0.203125 C -6.390625 -0.203125 -7.34375 -0.203125 -7.34375 -0.203125 C -7.34375 -0.203125 -7.34375 -1.1875 -7.34375 -1.1875 C -7.34375 -1.1875 -9.359375 -1.1875 -9.359375 -1.1875 C -9.359375 -1.1875 -9.359375 -2.359375 -9.359375 -2.359375 C -9.359375 -2.359375 -7.34375 -2.359375 -7.34375 -2.359375 C -7.34375 -2.359375 -7.34375 -3.5625 -7.34375 -3.5625 C -7.34375 -3.5625 -6.390625 -3.5625 -6.390625 -3.5625 C -6.390625 -3.5625 -6.390625 -2.359375 -6.390625 -2.359375 C -6.390625 -2.359375 -1.578125 -2.359375 -1.578125 -2.359375 C -1.0625 -2.359375 -0.921875 -2.484375 -0.921875 -3 C -0.921875 -3.21875 -0.9375 -3.40625 -0.984375 -3.5625 C -0.984375 -3.5625 0 -3.5625 0 -3.5625 Z M 0 -3.5625 "/>
</g>
<g id="glyph-2-6-76f8480e">
</g>
<g id="glyph-3-0-76f8480e">
<path d="M -6.3125 -4.5 C -6.28125 -2.6875 -5.453125 -2.140625 -3.8125 -2.140625 C -3.8125 -2.140625 0 -2.140625 0 -2.140625 C 0 -2.140625 0 -0.984375 0 -0.984375 C 0 -0.984375 -7.34375 -0.984375 -7.34375 -0.984375 C -7.34375 -0.984375 -7.34375 -2.046875 -7.34375 -2.046875 C -7.34375 -2.046875 -6 -2.046875 -6 -2.046875 C -7.09375 -2.71875 -7.546875 -3.296875 -7.546875 -4.046875 C -7.546875 -4.203125 -7.53125 -4.296875 -7.5 -4.5 C -7.5 -4.5 -6.3125 -4.5 -6.3125 -4.5 Z M -6.3125 -4.5 "/>
</g>
<g id="glyph-3-1-76f8480e">
<path d="M 0 -2.140625 C 0 -2.140625 0 -0.984375 0 -0.984375 C 0 -0.984375 -7.34375 -0.984375 -7.34375 -0.984375 C -7.34375 -0.984375 -7.34375 -2.140625 -7.34375 -2.140625 C -7.34375 -2.140625 0 -2.140625 0 -2.140625 Z M -8.4375 -2.296875 C -8.4375 -2.296875 -8.4375 -0.84375 -8.4375 -0.84375 C -8.4375 -0.84375 -9.890625 -0.84375 -9.890625 -0.84375 C -9.890625 -0.84375 -9.890625 -2.296875 -9.890625 -2.296875 C -9.890625 -2.296875 -8.4375 -2.296875 -8.4375 -2.296875 Z M -8.4375 -2.296875 "/>
</g>
<g id="glyph-3-2-76f8480e">
<path d="M -3.59375 -7.328125 C -1.265625 -7.328125 0.203125 -6.078125 0.203125 -4.1875 C 0.203125 -3.234375 -0.125 -2.546875 -0.875 -1.9375 C -0.875 -1.9375 3.046875 -1.9375 3.046875 -1.9375 C 3.046875 -1.9375 3.046875 -0.765625 3.046875 -0.765625 C 3.046875 -0.765625 -7.34375 -0.765625 -7.34375 -0.765625 C -7.34375 -0.765625 -7.34375 -1.828125 -7.34375 -1.828125 C -7.34375 -1.828125 -6.234375 -1.828125 -6.234375 -1.828125 C -7.09375 -2.375 -7.546875 -3.171875 -7.546875 -4.171875 C -7.546875 -6.125 -6.0625 -7.328125 -3.59375 -7.328125 Z M -3.625 -6.109375 C -5.375 -6.109375 -6.453125 -5.265625 -6.453125 -3.96875 C -6.453125 -2.75 -5.328125 -1.9375 -3.609375 -1.9375 C -1.890625 -1.9375 -0.875 -2.75 -0.875 -3.96875 C -0.875 -5.25 -1.953125 -6.109375 -3.625 -6.109375 Z M -3.625 -6.109375 "/>
</g>
<g id="glyph-3-3-76f8480e">
<path d="M 0 -2.109375 C 0 -2.109375 0 -0.953125 0 -0.953125 C 0 -0.953125 -10.203125 -0.953125 -10.203125 -0.953125 C -10.203125 -0.953125 -10.203125 -2.109375 -10.203125 -2.109375 C -10.203125 -2.109375 0 -2.109375 0 -2.109375 Z M 0 -2.109375 "/>
</g>
<g id="glyph-3-4-76f8480e">
</g>
<g id="glyph-3-5-76f8480e">
<path d="M 0 -10.640625 C 0 -10.640625 0 -9.484375 0 -9.484375 C 0 -9.484375 -5.046875 -9.484375 -5.046875 -9.484375 C -5.984375 -9.484375 -6.53125 -8.984375 -6.53125 -8.140625 C -6.53125 -7.1875 -5.671875 -6.390625 -4.609375 -6.390625 C -4.609375 -6.390625 0 -6.390625 0 -6.390625 C 0 -6.390625 0 -5.234375 0 -5.234375 C 0 -5.234375 -5.046875 -5.234375 -5.046875 -5.234375 C -5.984375 -5.234375 -6.53125 -4.75 -6.53125 -3.875 C -6.53125 -2.921875 -5.671875 -2.15625 -4.609375 -2.15625 C -4.609375 -2.15625 0 -2.15625 0 -2.15625 C 0 -2.15625 0 -1 0 -1 C 0 -1 -7.34375 -1 -7.34375 -1 C -7.34375 -1 -7.34375 -2.0625 -7.34375 -2.0625 C -7.34375 -2.0625 -6.296875 -2.0625 -6.296875 -2.0625 C -7.1875 -2.6875 -7.546875 -3.328125 -7.546875 -4.3125 C -7.546875 -5.265625 -7.203125 -5.859375 -6.421875 -6.28125 C -7.25 -6.96875 -7.546875 -7.5625 -7.546875 -8.546875 C -7.546875 -9.90625 -6.8125 -10.640625 -5.5 -10.640625 C -5.5 -10.640625 0 -10.640625 0 -10.640625 Z M 0 -10.640625 "/>
</g>
<g id="glyph-3-6-76f8480e">
<path d="M -3.609375 -7.140625 C -1.203125 -7.140625 0.203125 -5.875 0.203125 -3.828125 C 0.203125 -1.734375 -1.203125 -0.5 -3.671875 -0.5 C -6.125 -0.5 -7.546875 -1.75 -7.546875 -3.8125 C -7.546875 -5.921875 -6.140625 -7.140625 -3.609375 -7.140625 Z M -3.625 -5.921875 C -5.453125 -5.921875 -6.46875 -5.140625 -6.46875 -3.828125 C -6.46875 -2.515625 -5.4375 -1.71875 -3.671875 -1.71875 C -1.890625 -1.71875 -0.875 -2.515625 -0.875 -3.828125 C -0.875 -5.109375 -1.90625 -5.921875 -3.625 -5.921875 Z M -3.625 -5.921875 "/>
</g>
<g id="glyph-3-7-76f8480e">
<path d="M 0 -6.8125 C 0 -6.8125 0 -5.65625 0 -5.65625 C 0 -5.65625 -5.078125 -5.65625 -5.078125 -5.65625 C -5.96875 -5.65625 -6.53125 -5.0625 -6.53125 -4.140625 C -6.53125 -2.953125 -5.546875 -2.140625 -4.046875 -2.140625 C -4.046875 -2.140625 0 -2.140625 0 -2.140625 C 0 -2.140625 0 -0.984375 0 -0.984375 C 0 -0.984375 -7.34375 -0.984375 -7.34375 -0.984375 C -7.34375 -0.984375 -7.34375 -2.0625 -7.34375 -2.0625 C -7.34375 -2.0625 -6.109375 -2.0625 -6.109375 -2.0625 C -7.125 -2.703125 -7.546875 -3.40625 -7.546875 -4.5 C -7.546875 -5.90625 -6.765625 -6.8125 -5.546875 -6.8125 C -5.546875 -6.8125 0 -6.8125 0 -6.8125 Z M 0 -6.8125 "/>
</g>
<g id="glyph-4-0-76f8480e">
<path d="M 0 -6.8125 C 0 -6.8125 0 -5.65625 0 -5.65625 C 0 -5.65625 -5.078125 -5.65625 -5.078125 -5.65625 C -5.96875 -5.65625 -6.53125 -5.0625 -6.53125 -4.140625 C -6.53125 -2.953125 -5.546875 -2.140625 -4.046875 -2.140625 C -4.046875 -2.140625 0 -2.140625 0 -2.140625 C 0 -2.140625 0 -0.984375 0 -0.984375 C 0 -0.984375 -7.34375 -0.984375 -7.34375 -0.984375 C -7.34375 -0.984375 -7.34375 -2.0625 -7.34375 -2.0625 C -7.34375 -2.0625 -6.109375 -2.0625 -6.109375 -2.0625 C -7.125 -2.703125 -7.546875 -3.40625 -7.546875 -4.5 C -7.546875 -5.90625 -6.765625 -6.8125 -5.546875 -6.8125 C -5.546875 -6.8125 0 -6.8125 0 -6.8125 Z M 0 -6.8125 "/>
</g>
<g id="glyph-4-1-76f8480e">
<path d="M -3.71875 -9.484375 C -1.0625 -9.171875 0.25 -7.765625 0.25 -5.28125 C 0.25 -2.28125 -2 -0.671875 -4.984375 -0.671875 C -7.96875 -0.671875 -10.453125 -2.234375 -10.453125 -5.328125 C -10.453125 -7.578125 -9.28125 -8.859375 -7.046875 -9.265625 C -7.046875 -9.265625 -7.046875 -7.9375 -7.046875 -7.9375 C -8.59375 -7.609375 -9.3125 -6.78125 -9.3125 -5.1875 C -9.3125 -3.203125 -7.609375 -1.96875 -5 -1.96875 C -2.453125 -1.96875 -0.890625 -3.265625 -0.890625 -5.296875 C -0.890625 -7.015625 -1.796875 -7.828125 -3.71875 -8.140625 C -3.71875 -8.140625 -3.71875 -9.484375 -3.71875 -9.484375 Z M -3.71875 -9.484375 "/>
</g>
<g id="glyph-5-0-76f8480e">
<path d="M -2.515625 -6.671875 C -0.84375 -6.53125 0.203125 -5.4375 0.203125 -3.6875 C 0.203125 -1.6875 -1.234375 -0.4375 -3.59375 -0.4375 C -6.03125 -0.4375 -7.546875 -1.71875 -7.546875 -3.703125 C -7.546875 -5.328125 -6.65625 -6.453125 -4.875 -6.59375 C -4.875 -6.59375 -4.875 -5.421875 -4.875 -5.421875 C -5.890625 -5.28125 -6.46875 -4.65625 -6.46875 -3.6875 C -6.46875 -2.40625 -5.4375 -1.65625 -3.59375 -1.65625 C -1.859375 -1.65625 -0.875 -2.421875 -0.875 -3.703125 C -0.875 -4.703125 -1.34375 -5.3125 -2.515625 -5.5 C -2.515625 -5.5 -2.515625 -6.671875 -2.515625 -6.671875 Z M -2.515625 -6.671875 "/>
</g>
<g id="glyph-6-0-76f8480e">
<path d="M -7.015625 -7.15625 C -5.796875 -7.15625 -4.765625 -6.4375 -4.015625 -5.046875 C -4.015625 -5.046875 -3.265625 -3.65625 -3.265625 -3.65625 C -2.546875 -2.4375 -2.03125 -1.984375 -1.21875 -1.859375 C -1.21875 -1.859375 -1.21875 -7.078125 -1.21875 -7.078125 C -1.21875 -7.078125 0 -7.078125 0 -7.078125 C 0 -7.078125 0 -0.46875 0 -0.46875 C -2.1875 -0.59375 -3.125 -1.1875 -4.296875 -3.265625 C -4.296875 -3.265625 -5.03125 -4.546875 -5.03125 -4.546875 C -5.53125 -5.4375 -6.203125 -5.890625 -6.984375 -5.890625 C -8.046875 -5.890625 -8.84375 -5.046875 -8.84375 -3.9375 C -8.84375 -2.71875 -8.140625 -2.03125 -6.484375 -1.9375 C -6.484375 -1.9375 -6.484375 -0.703125 -6.484375 -0.703125 C -8.890625 -0.765625 -9.921875 -1.953125 -9.921875 -3.96875 C -9.921875 -5.859375 -8.6875 -7.15625 -7.015625 -7.15625 Z M -7.015625 -7.15625 "/>
</g>
<g id="glyph-7-0-76f8480e">
<path d="M 7.09375 -4.78125 C 7.09375 -1.515625 5.953125 0.203125 3.84375 0.203125 C 1.71875 0.203125 0.609375 -1.515625 0.609375 -4.859375 C 0.609375 -8.1875 1.703125 -9.921875 3.84375 -9.921875 C 6 -9.921875 7.09375 -8.21875 7.09375 -4.78125 Z M 5.84375 -4.890625 C 5.84375 -7.546875 5.1875 -8.828125 3.84375 -8.828125 C 2.515625 -8.828125 1.859375 -7.5625 1.859375 -4.84375 C 1.859375 -2.125 2.515625 -0.8125 3.828125 -0.8125 C 5.1875 -0.8125 5.84375 -2.078125 5.84375 -4.890625 Z M 5.84375 -4.890625 "/>
</g>
<g id="glyph-8-0-76f8480e">
<path d="M 8.859375 -7.046875 C 8.859375 -4.96875 7.65625 -3.640625 5.78125 -3.640625 C 5.78125 -3.640625 3.15625 -3.640625 3.15625 -3.640625 C 3.15625 -3.640625 3.15625 0 3.15625 0 C 3.15625 0 1.0625 0 1.0625 0 C 1.0625 0 1.0625 -10.203125 1.0625 -10.203125 C 1.0625 -10.203125 5.578125 -10.203125 5.578125 -10.203125 C 7.703125 -10.203125 8.859375 -9.09375 8.859375 -7.046875 Z M 6.765625 -6.921875 C 6.765625 -7.96875 6.25 -8.453125 5.125 -8.453125 C 5.125 -8.453125 3.15625 -8.453125 3.15625 -8.453125 C 3.15625 -8.453125 3.15625 -5.390625 3.15625 -5.390625 C 3.15625 -5.390625 5.125 -5.390625 5.125 -5.390625 C 6.25 -5.390625 6.765625 -5.875 6.765625 -6.921875 Z M 6.765625 -6.921875 "/>
</g>
<g id="glyph-8-1-76f8480e">
<path d="M 9.59375 -3.484375 C 9.46875 -1.140625 7.765625 0.171875 5.234375 0.171875 C 2.390625 0.171875 0.609375 -1.8125 0.609375 -5.09375 C 0.609375 -8.40625 2.40625 -10.375 5.296875 -10.375 C 7.59375 -10.375 9.359375 -9.09375 9.546875 -6.75 C 9.546875 -6.75 7.546875 -6.75 7.546875 -6.75 C 7.234375 -8.0625 6.5 -8.578125 5.359375 -8.578125 C 3.703125 -8.578125 2.71875 -7.328125 2.71875 -5.0625 C 2.71875 -2.84375 3.671875 -1.59375 5.296875 -1.59375 C 6.59375 -1.59375 7.421875 -2.1875 7.546875 -3.484375 C 7.546875 -3.484375 9.59375 -3.484375 9.59375 -3.484375 Z M 9.59375 -3.484375 "/>
</g>
<g id="glyph-8-2-76f8480e">
<path d="M 9.84375 0 C 9.84375 0 7.6875 0 7.6875 0 C 7.6875 0 7.015625 -2.0625 7.015625 -2.0625 C 7.015625 -2.0625 3.1875 -2.0625 3.1875 -2.0625 C 3.1875 -2.0625 2.5 0 2.5 0 C 2.5 0 0.359375 0 0.359375 0 C 0.359375 0 3.984375 -10.203125 3.984375 -10.203125 C 3.984375 -10.203125 6.3125 -10.203125 6.3125 -10.203125 C 6.3125 -10.203125 9.84375 0 9.84375 0 Z M 6.4375 -3.8125 C 6.4375 -3.8125 5.109375 -7.796875 5.109375 -7.796875 C 5.109375 -7.796875 3.78125 -3.8125 3.78125 -3.8125 C 3.78125 -3.8125 6.4375 -3.8125 6.4375 -3.8125 Z M 6.4375 -3.8125 "/>
</g>
<g id="glyph-8-3-76f8480e">
</g>
<g id="glyph-8-4-76f8480e">
<path d="M 8.859375 -3.0625 C 8.859375 -1 7.3125 0.171875 4.671875 0.171875 C 2.078125 0.171875 0.453125 -1.015625 0.453125 -3.203125 C 0.453125 -3.203125 2.484375 -3.203125 2.484375 -3.203125 C 2.484375 -2.109375 3.359375 -1.515625 4.78125 -1.515625 C 6.0625 -1.515625 6.84375 -1.953125 6.84375 -2.8125 C 6.84375 -3.640625 6.328125 -3.9375 4.921875 -4.21875 C 4.921875 -4.21875 3.5 -4.5 3.5 -4.5 C 1.421875 -4.90625 0.625 -5.640625 0.625 -7.234375 C 0.625 -9.21875 2.046875 -10.375 4.5 -10.375 C 6.984375 -10.375 8.5 -9.25 8.5 -7.09375 C 8.5 -7.09375 6.53125 -7.09375 6.53125 -7.09375 C 6.53125 -8.140625 5.71875 -8.6875 4.390625 -8.6875 C 3.3125 -8.6875 2.625 -8.203125 2.625 -7.4375 C 2.625 -6.6875 3.0625 -6.390625 4.5625 -6.109375 C 4.5625 -6.109375 6.15625 -5.796875 6.15625 -5.796875 C 8.046875 -5.4375 8.859375 -4.671875 8.859375 -3.0625 Z M 8.859375 -3.0625 "/>
</g>
<g id="glyph-8-5-76f8480e">
<path d="M 7.3125 -2.625 C 7.125 -1.015625 5.859375 0.125 4.015625 0.125 C 1.78125 0.125 0.46875 -1.234375 0.46875 -3.71875 C 0.46875 -6.296875 1.796875 -7.6875 4.046875 -7.6875 C 5.9375 -7.6875 7.171875 -6.578125 7.3125 -4.734375 C 7.3125 -4.734375 5.4375 -4.734375 5.4375 -4.734375 C 5.203125 -5.71875 4.828125 -6.109375 4.03125 -6.109375 C 2.796875 -6.109375 2.4375 -5.109375 2.4375 -3.71875 C 2.4375 -2.25 3.03125 -1.453125 4.03125 -1.453125 C 4.78125 -1.453125 5.1875 -1.828125 5.4375 -2.625 C 5.4375 -2.625 7.3125 -2.625 7.3125 -2.625 Z M 7.3125 -2.625 "/>
</g>
<g id="glyph-8-6-76f8480e">
<path d="M 7.96875 -3.71875 C 7.96875 -1.296875 6.53125 0.125 4.234375 0.125 C 1.90625 0.125 0.484375 -1.28125 0.484375 -3.78125 C 0.484375 -6.265625 1.90625 -7.6875 4.21875 -7.6875 C 6.578125 -7.6875 7.96875 -6.28125 7.96875 -3.71875 Z M 6 -3.75 C 6 -5.234375 5.3125 -6.109375 4.234375 -6.109375 C 3.15625 -6.109375 2.453125 -5.21875 2.453125 -3.78125 C 2.453125 -2.34375 3.15625 -1.453125 4.234375 -1.453125 C 5.28125 -1.453125 6 -2.34375 6 -3.75 Z M 6 -3.75 "/>
</g>
<g id="glyph-8-7-76f8480e">
<path d="M 5.1875 -5.6875 C 4.90625 -5.71875 4.78125 -5.734375 4.5625 -5.734375 C 3.421875 -5.734375 2.84375 -5.171875 2.84375 -4.015625 C 2.84375 -4.015625 2.84375 0 2.84375 0 C 2.84375 0 0.875 0 0.875 0 C 0.875 0 0.875 -7.5625 0.875 -7.5625 C 0.875 -7.5625 2.84375 -7.5625 2.84375 -7.5625 C 2.84375 -7.5625 2.84375 -6.078125 2.84375 -6.078125 C 3.265625 -7.09375 4.046875 -7.6875 4.9375 -7.6875 C 5 -7.6875 5.0625 -7.6875 5.1875 -7.671875 C 5.1875 -7.671875 5.1875 -5.6875 5.1875 -5.6875 Z M 5.1875 -5.6875 "/>
</g>
<g id="glyph-8-8-76f8480e">
<path d="M 7.34375 -3.5 C 7.34375 -3.5 7.34375 -3.265625 7.34375 -3.265625 C 7.34375 -3.265625 2.265625 -3.265625 2.265625 -3.265625 C 2.328125 -1.796875 2.90625 -1.375 3.84375 -1.375 C 4.546875 -1.375 5.171875 -1.578125 5.328125 -2.125 C 5.328125 -2.125 7.265625 -2.125 7.265625 -2.125 C 6.828125 -0.640625 5.453125 0.125 3.765625 0.125 C 1.625 0.125 0.3125 -1.265625 0.3125 -3.6875 C 0.3125 -6.21875 1.640625 -7.6875 3.8125 -7.6875 C 6.03125 -7.6875 7.34375 -6.109375 7.34375 -3.5 Z M 5.3125 -4.5625 C 5.203125 -5.640625 4.625 -6.1875 3.78125 -6.1875 C 2.90625 -6.1875 2.421875 -5.609375 2.296875 -4.5625 C 2.296875 -4.5625 5.3125 -4.5625 5.3125 -4.5625 Z M 5.3125 -4.5625 "/>
</g>
<g id="glyph-8-9-76f8480e">
<path d="M 7.28125 -2.234375 C 7.28125 -0.71875 6.109375 0.125 3.96875 0.125 C 1.6875 0.125 0.46875 -0.734375 0.40625 -2.390625 C 0.40625 -2.390625 2.328125 -2.390625 2.328125 -2.390625 C 2.484375 -1.578125 2.96875 -1.40625 3.859375 -1.40625 C 4.78125 -1.40625 5.3125 -1.59375 5.3125 -2.0625 C 5.3125 -2.265625 5.15625 -2.421875 4.65625 -2.578125 C 4.65625 -2.578125 2.328125 -3.296875 2.328125 -3.296875 C 0.921875 -3.734375 0.671875 -4.234375 0.671875 -5.171875 C 0.671875 -6.71875 1.859375 -7.6875 3.78125 -7.6875 C 5.8125 -7.6875 7.046875 -6.71875 7.0625 -5.125 C 7.0625 -5.125 5.1875 -5.125 5.1875 -5.125 C 5.171875 -5.8125 4.703125 -6.140625 3.765625 -6.140625 C 3.078125 -6.140625 2.625 -5.859375 2.625 -5.453125 C 2.625 -5.140625 2.765625 -5.015625 3.3125 -4.859375 C 3.3125 -4.859375 5.796875 -4.140625 5.796875 -4.140625 C 6.796875 -3.84375 7.28125 -3.203125 7.28125 -2.34375 C 7.28125 -2.34375 7.28125 -2.234375 7.28125 -2.234375 Z M 7.28125 -2.234375 "/>
</g>
<g id="glyph-9-0-76f8480e">
<path d="M 10.640625 0 C 10.640625 0 9.484375 0 9.484375 0 C 9.484375 0 9.484375 -5.046875 9.484375 -5.046875 C 9.484375 -5.984375 8.984375 -6.53125 8.140625 -6.53125 C 7.1875 -6.53125 6.390625 -5.671875 6.390625 -4.609375 C 6.390625 -4.609375 6.390625 0 6.390625 0 C 6.390625 0 5.234375 0 5.234375 0 C 5.234375 0 5.234375 -5.046875 5.234375 -5.046875 C 5.234375 -5.984375 4.75 -6.53125 3.875 -6.53125 C 2.921875 -6.53125 2.15625 -5.671875 2.15625 -4.609375 C 2.15625 -4.609375 2.15625 0 2.15625 0 C 2.15625 0 1 0 1 0 C 1 0 1 -7.34375 1 -7.34375 C 1 -7.34375 2.0625 -7.34375 2.0625 -7.34375 C 2.0625 -7.34375 2.0625 -6.296875 2.0625 -6.296875 C 2.6875 -7.1875 3.328125 -7.546875 4.3125 -7.546875 C 5.265625 -7.546875 5.859375 -7.203125 6.28125 -6.421875 C 6.96875 -7.25 7.5625 -7.546875 8.546875 -7.546875 C 9.90625 -7.546875 10.640625 -6.8125 10.640625 -5.5 C 10.640625 -5.5 10.640625 0 10.640625 0 Z M 10.640625 0 "/>
</g>
<g id="glyph-9-1-76f8480e">
<path d="M 7.484375 -0.03125 C 7.109375 0.0625 6.9375 0.09375 6.6875 0.09375 C 6.125 0.09375 5.609375 -0.3125 5.484375 -0.875 C 4.84375 -0.1875 3.9375 0.203125 3 0.203125 C 1.515625 0.203125 0.59375 -0.578125 0.59375 -1.90625 C 0.59375 -2.796875 1.015625 -3.453125 1.875 -3.8125 C 2.328125 -3.984375 2.578125 -4.046875 4.234375 -4.25 C 5.15625 -4.375 5.453125 -4.578125 5.453125 -5.0625 C 5.453125 -5.0625 5.453125 -5.375 5.453125 -5.375 C 5.453125 -6.078125 4.859375 -6.46875 3.8125 -6.46875 C 2.71875 -6.46875 2.1875 -6.0625 2.09375 -5.171875 C 2.09375 -5.171875 0.90625 -5.171875 0.90625 -5.171875 C 0.984375 -6.859375 2.078125 -7.546875 3.84375 -7.546875 C 5.65625 -7.546875 6.609375 -6.84375 6.609375 -5.546875 C 6.609375 -5.546875 6.609375 -1.453125 6.609375 -1.453125 C 6.609375 -1.09375 6.828125 -0.875 7.234375 -0.875 C 7.3125 -0.875 7.359375 -0.875 7.484375 -0.90625 C 7.484375 -0.90625 7.484375 -0.03125 7.484375 -0.03125 Z M 5.453125 -2.53125 C 5.453125 -2.53125 5.453125 -3.625 5.453125 -3.625 C 5.046875 -3.4375 4.796875 -3.390625 3.5625 -3.21875 C 2.328125 -3.03125 1.8125 -2.703125 1.8125 -1.9375 C 1.8125 -1.140625 2.34375 -0.8125 3.25 -0.8125 C 4.375 -0.8125 5.453125 -1.484375 5.453125 -2.53125 Z M 5.453125 -2.53125 "/>
</g>
<g id="glyph-9-2-76f8480e">
<path d="M 2.140625 1.53125 C 2.140625 2.515625 1.453125 3.046875 0.140625 3.046875 C -0.046875 3.046875 -0.109375 3.03125 -0.25 3.015625 C -0.25 3.015625 -0.25 2.015625 -0.25 2.015625 C -0.25 2.015625 0.03125 2.03125 0.03125 2.03125 C 0.734375 2.078125 0.984375 1.765625 0.984375 1.0625 C 0.984375 1.0625 0.984375 -7.34375 0.984375 -7.34375 C 0.984375 -7.34375 2.140625 -7.34375 2.140625 -7.34375 C 2.140625 -7.34375 2.140625 1.53125 2.140625 1.53125 Z M 2.296875 -8.4375 C 2.296875 -8.4375 0.84375 -8.4375 0.84375 -8.4375 C 0.84375 -8.4375 0.84375 -9.890625 0.84375 -9.890625 C 0.84375 -9.890625 2.296875 -9.890625 2.296875 -9.890625 C 2.296875 -9.890625 2.296875 -8.4375 2.296875 -8.4375 Z M 2.296875 -8.4375 "/>
</g>
<g id="glyph-9-3-76f8480e">
<path d="M 7.140625 -3.609375 C 7.140625 -1.203125 5.875 0.203125 3.828125 0.203125 C 1.734375 0.203125 0.5 -1.203125 0.5 -3.671875 C 0.5 -6.125 1.75 -7.546875 3.8125 -7.546875 C 5.921875 -7.546875 7.140625 -6.140625 7.140625 -3.609375 Z M 5.921875 -3.625 C 5.921875 -5.453125 5.140625 -6.46875 3.828125 -6.46875 C 2.515625 -6.46875 1.71875 -5.4375 1.71875 -3.671875 C 1.71875 -1.890625 2.515625 -0.875 3.828125 -0.875 C 5.109375 -0.875 5.921875 -1.90625 5.921875 -3.625 Z M 5.921875 -3.625 "/>
</g>
<g id="glyph-9-4-76f8480e">
<path d="M 4.5 -6.3125 C 2.6875 -6.28125 2.140625 -5.453125 2.140625 -3.8125 C 2.140625 -3.8125 2.140625 0 2.140625 0 C 2.140625 0 0.984375 0 0.984375 0 C 0.984375 0 0.984375 -7.34375 0.984375 -7.34375 C 0.984375 -7.34375 2.046875 -7.34375 2.046875 -7.34375 C 2.046875 -7.34375 2.046875 -6 2.046875 -6 C 2.71875 -7.09375 3.296875 -7.546875 4.046875 -7.546875 C 4.203125 -7.546875 4.296875 -7.53125 4.5 -7.5 C 4.5 -7.5 4.5 -6.3125 4.5 -6.3125 Z M 4.5 -6.3125 "/>
</g>
</g>
</defs>
<rect x="-90" y="-60" width="1080" height="720" fill="rgb(100%, 100%, 100%)" fill-opacity="1"/>
<path fill-rule="nonzero" fill="rgb(100%, 100%, 100%)" fill-opacity="1" d="M 62 541 L 884 541 L 884 36 L 62 36 Z M 62 541 "/>
<path fill="none" stroke-width="1" stroke-linecap="butt" stroke-linejoin="miter" stroke="rgb(0%, 0%, 0%)" stroke-opacity="0.12" stroke-miterlimit="1.154701" d="M 222.585938 541 L 222.585938 36 "/>
<path fill="none" stroke-width="1" stroke-linecap="butt" stroke-linejoin="miter" stroke="rgb(0%, 0%, 0%)" stroke-opacity="0.12" stroke-miterlimit="1.154701" d="M 463.453125 541 L 463.453125 36 "/>
<path fill="none" stroke-width="1" stroke-linecap="butt" stroke-linejoin="miter" stroke="rgb(0%, 0%, 0%)" stroke-opacity="0.12" stroke-miterlimit="1.154701" d="M 704.320312 541 L 704.320312 36 "/>
<path fill="none" stroke-width="1" stroke-linecap="butt" stroke-linejoin="miter" stroke="rgb(0%, 0%, 0%)" stroke-opacity="0.12" stroke-miterlimit="1.154701" d="M 62 413.746094 L 884 413.746094 "/>
<path fill="none" stroke-width="1" stroke-linecap="butt" stroke-linejoin="miter" stroke="rgb(0%, 0%, 0%)" stroke-opacity="0.12" stroke-miterlimit="1.154701" d="M 62 248.429688 L 884 248.429688 "/>
<path fill="none" stroke-width="1" stroke-linecap="butt" stroke-linejoin="miter" stroke="rgb(0%, 0%, 0%)" stroke-opacity="0.12" stroke-miterlimit="1.154701" d="M 62 83.113281 L 884 83.113281 "/>
<g fill="rgb(0%, 0%, 0%)" fill-opacity="1">
<use xlink:href="#glyph-0-0-76f8480e" x="402.195017" y="581.567999"/>
</g>
<g fill="rgb(0%, 0%, 0%)" fill-opacity="1">
<use xlink:href="#glyph-0-1-76f8480e" x="411.533019" y="581.567999"/>
</g>
<g fill="rgb(0%, 0%, 0%)" fill-opacity="1">
<use xlink:href="#glyph-0-2-76f8480e" x="416.195017" y="581.567999"/>
</g>
<g fill="rgb(0%, 0%, 0%)" fill-opacity="1">
<use xlink:href="#glyph-0-3-76f8480e" x="419.303019" y="581.567999"/>
</g>
<g fill="rgb(0%, 0%, 0%)" fill-opacity="1">
<use xlink:href="#glyph-0-4-76f8480e" x="427.087016" y="581.567999"/>
</g>
<g fill="rgb(0%, 0%, 0%)" fill-opacity="1">
<use xlink:href="#glyph-0-2-76f8480e" x="434.087016" y="581.567999"/>
</g>
<g fill="rgb(0%, 0%, 0%)" fill-opacity="1">
<use xlink:href="#glyph-0-5-76f8480e" x="437.195018" y="581.567999"/>
</g>
<g fill="rgb(0%, 0%, 0%)" fill-opacity="1">
<use xlink:href="#glyph-0-6-76f8480e" x="444.979018" y="581.567999"/>
</g>
<g fill="rgb(0%, 0%, 0%)" fill-opacity="1">
<use xlink:href="#glyph-0-7-76f8480e" x="452.763019" y="581.567999"/>
</g>
<g fill="rgb(0%, 0%, 0%)" fill-opacity="1">
<use xlink:href="#glyph-0-8-76f8480e" x="455.871021" y="581.567999"/>
</g>
<g fill="rgb(0%, 0%, 0%)" fill-opacity="1">
<use xlink:href="#glyph-0-9-76f8480e" x="459.763019" y="581.567999"/>
</g>
<g fill="rgb(0%, 0%, 0%)" fill-opacity="1">
<use xlink:href="#glyph-0-10-76f8480e" x="469.871021" y="581.567999"/>
</g>
<g fill="rgb(0%, 0%, 0%)" fill-opacity="1">
<use xlink:href="#glyph-0-11-76f8480e" x="477.655018" y="581.567999"/>
</g>
<g fill="rgb(0%, 0%, 0%)" fill-opacity="1">
<use xlink:href="#glyph-0-5-76f8480e" x="489.317021" y="581.567999"/>
</g>
<g fill="rgb(0%, 0%, 0%)" fill-opacity="1">
<use xlink:href="#glyph-0-10-76f8480e" x="497.101018" y="581.567999"/>
</g>
<g fill="rgb(0%, 0%, 0%)" fill-opacity="1">
<use xlink:href="#glyph-1-0-76f8480e" x="504.885014" y="581.567999"/>
</g>
<g fill="rgb(0%, 0%, 0%)" fill-opacity="1">
<use xlink:href="#glyph-0-12-76f8480e" x="512.669011" y="581.567999"/>
</g>
<g fill="rgb(0%, 0%, 0%)" fill-opacity="1">
<use xlink:href="#glyph-0-3-76f8480e" x="520.453008" y="581.567999"/>
</g>
<g fill="rgb(0%, 0%, 0%)" fill-opacity="1">
<use xlink:href="#glyph-0-13-76f8480e" x="528.237005" y="581.567999"/>
</g>
<g fill="rgb(0%, 0%, 0%)" fill-opacity="1">
<use xlink:href="#glyph-0-8-76f8480e" x="532.129011" y="581.567999"/>
</g>
<g fill="rgb(0%, 0%, 0%)" fill-opacity="1">
<use xlink:href="#glyph-0-14-76f8480e" x="536.021009" y="581.567999"/>
</g>
<g fill="rgb(0%, 0%, 0%)" fill-opacity="1">
<use xlink:href="#glyph-0-15-76f8480e" x="214.604356" y="562.257999"/>
</g>
<g fill="rgb(0%, 0%, 0%)" fill-opacity="1">
<use xlink:href="#glyph-0-16-76f8480e" x="222.780356" y="562.257999"/>
</g>
<g fill="rgb(0%, 0%, 0%)" fill-opacity="1">
<use xlink:href="#glyph-0-17-76f8480e" x="459.561228" y="562.257999"/>
</g>
<g fill="rgb(0%, 0%, 0%)" fill-opacity="1">
<use xlink:href="#glyph-0-16-76f8480e" x="700.4301" y="562.257999"/>
</g>
<g fill="rgb(0%, 0%, 0%)" fill-opacity="1">
<use xlink:href="#glyph-2-0-76f8480e" x="27.987997" y="359.304979"/>
</g>
<g fill="rgb(0%, 0%, 0%)" fill-opacity="1">
<use xlink:href="#glyph-3-0-76f8480e" x="27.987998" y="349.966982"/>
</g>
<g fill="rgb(0%, 0%, 0%)" fill-opacity="1">
<use xlink:href="#glyph-3-1-76f8480e" x="27.987998" y="345.304983"/>
</g>
<g fill="rgb(0%, 0%, 0%)" fill-opacity="1">
<use xlink:href="#glyph-4-0-76f8480e" x="27.987999" y="342.196981"/>
</g>
<g fill="rgb(0%, 0%, 0%)" fill-opacity="1">
<use xlink:href="#glyph-5-0-76f8480e" x="27.987999" y="334.412984"/>
</g>
<g fill="rgb(0%, 0%, 0%)" fill-opacity="1">
<use xlink:href="#glyph-3-1-76f8480e" x="27.987999" y="327.412984"/>
</g>
<g fill="rgb(0%, 0%, 0%)" fill-opacity="1">
<use xlink:href="#glyph-3-2-76f8480e" x="27.988" y="324.304982"/>
</g>
<g fill="rgb(0%, 0%, 0%)" fill-opacity="1">
<use xlink:href="#glyph-2-1-76f8480e" x="27.988" y="316.520984"/>
</g>
<g fill="rgb(0%, 0%, 0%)" fill-opacity="1">
<use xlink:href="#glyph-3-3-76f8480e" x="27.988001" y="308.736983"/>
</g>
<g fill="rgb(0%, 0%, 0%)" fill-opacity="1">
<use xlink:href="#glyph-3-4-76f8480e" x="27.988001" y="305.628981"/>
</g>
<g fill="rgb(0%, 0%, 0%)" fill-opacity="1">
<use xlink:href="#glyph-4-1-76f8480e" x="27.988001" y="301.736984"/>
</g>
<g fill="rgb(0%, 0%, 0%)" fill-opacity="1">
<use xlink:href="#glyph-2-2-76f8480e" x="27.988002" y="291.628982"/>
</g>
<g fill="rgb(0%, 0%, 0%)" fill-opacity="1">
<use xlink:href="#glyph-3-5-76f8480e" x="27.988002" y="283.844986"/>
</g>
<g fill="rgb(0%, 0%, 0%)" fill-opacity="1">
<use xlink:href="#glyph-2-3-76f8480e" x="27.988003" y="272.182985"/>
</g>
<g fill="rgb(0%, 0%, 0%)" fill-opacity="1">
<use xlink:href="#glyph-3-6-76f8480e" x="27.988003" y="264.398988"/>
</g>
<g fill="rgb(0%, 0%, 0%)" fill-opacity="1">
<use xlink:href="#glyph-4-0-76f8480e" x="27.988004" y="256.614991"/>
</g>
<g fill="rgb(0%, 0%, 0%)" fill-opacity="1">
<use xlink:href="#glyph-2-4-76f8480e" x="27.988004" y="248.830997"/>
</g>
<g fill="rgb(0%, 0%, 0%)" fill-opacity="1">
<use xlink:href="#glyph-3-7-76f8480e" x="27.988005" y="241.047"/>
</g>
<g fill="rgb(0%, 0%, 0%)" fill-opacity="1">
<use xlink:href="#glyph-2-5-76f8480e" x="27.988005" y="233.263003"/>
</g>
<g fill="rgb(0%, 0%, 0%)" fill-opacity="1">
<use xlink:href="#glyph-2-6-76f8480e" x="27.988005" y="229.370997"/>
</g>
<g fill="rgb(0%, 0%, 0%)" fill-opacity="1">
<use xlink:href="#glyph-6-0-76f8480e" x="27.988006" y="225.478999"/>
</g>
<g fill="rgb(0%, 0%, 0%)" fill-opacity="1">
<use xlink:href="#glyph-0-15-76f8480e" x="36.040002" y="418.848647"/>
</g>
<g fill="rgb(0%, 0%, 0%)" fill-opacity="1">
<use xlink:href="#glyph-0-16-76f8480e" x="44.216002" y="418.848647"/>
</g>
<g fill="rgb(0%, 0%, 0%)" fill-opacity="1">
<use xlink:href="#glyph-7-0-76f8480e" x="44.216001" y="253.532832"/>
</g>
<g fill="rgb(0%, 0%, 0%)" fill-opacity="1">
<use xlink:href="#glyph-0-16-76f8480e" x="44.216001" y="88.217001"/>
</g>
<g fill="rgb(0%, 0%, 0%)" fill-opacity="1">
<use xlink:href="#glyph-8-0-76f8480e" x="432.932014" y="28.947986"/>
</g>
<g fill="rgb(0%, 0%, 0%)" fill-opacity="1">
<use xlink:href="#glyph-8-1-76f8480e" x="442.270015" y="28.947986"/>
</g>
<g fill="rgb(0%, 0%, 0%)" fill-opacity="1">
<use xlink:href="#glyph-8-2-76f8480e" x="452.378013" y="28.947986"/>
</g>
<g fill="rgb(0%, 0%, 0%)" fill-opacity="1">
<use xlink:href="#glyph-8-3-76f8480e" x="462.486013" y="28.947986"/>
</g>
<g fill="rgb(0%, 0%, 0%)" fill-opacity="1">
<use xlink:href="#glyph-8-4-76f8480e" x="466.378013" y="28.947986"/>
</g>
<g fill="rgb(0%, 0%, 0%)" fill-opacity="1">
<use xlink:href="#glyph-8-5-76f8480e" x="475.716015" y="28.947986"/>
</g>
<g fill="rgb(0%, 0%, 0%)" fill-opacity="1">
<use xlink:href="#glyph-8-6-76f8480e" x="483.500016" y="28.947986"/>
</g>
<g fill="rgb(0%, 0%, 0%)" fill-opacity="1">
<use xlink:href="#glyph-8-7-76f8480e" x="492.054017" y="28.947986"/>
</g>
<g fill="rgb(0%, 0%, 0%)" fill-opacity="1">
<use xlink:href="#glyph-8-8-76f8480e" x="497.500016" y="28.947986"/>
</g>
<g fill="rgb(0%, 0%, 0%)" fill-opacity="1">
<use xlink:href="#glyph-8-9-76f8480e" x="505.284013" y="28.947986"/>
</g>
<path fill-rule="nonzero" fill="rgb(0%, 44.705883%, 69.803923%)" fill-opacity="1" d="M 255.988281 315.878906 C 255.988281 311.652344 249.644531 311.652344 249.644531 315.878906 C 249.644531 320.109375 255.988281 320.109375 255.988281 315.878906 Z M 255.988281 315.878906 "/>
<path fill-rule="nonzero" fill="rgb(0%, 44.705883%, 69.803923%)" fill-opacity="1" d="M 307.492188 306.8125 C 307.492188 302.582031 301.148438 302.582031 301.148438 306.8125 C 301.148438 311.042969 307.492188 311.042969 307.492188 306.8125 Z M 307.492188 306.8125 "/>
<path fill-rule="nonzero" fill="rgb(0%, 44.705883%, 69.803923%)" fill-opacity="1" d="M 550.109375 421.898438 C 550.109375 417.667969 543.765625 417.667969 543.765625 421.898438 C 543.765625 426.125 550.109375 426.125 550.109375 421.898438 Z M 550.109375 421.898438 "/>
<path fill-rule="nonzero" fill="rgb(0%, 44.705883%, 69.803923%)" fill-opacity="1" d="M 329.191406 141.996094 C 329.191406 137.765625 322.84375 137.765625 322.84375 141.996094 C 322.84375 146.226562 329.191406 146.226562 329.191406 141.996094 Z M 329.191406 141.996094 "/>
<path fill-rule="nonzero" fill="rgb(0%, 44.705883%, 69.803923%)" fill-opacity="1" d="M 461.921875 287.984375 C 461.921875 283.753906 455.578125 283.753906 455.578125 287.984375 C 455.578125 292.214844 461.921875 292.214844 461.921875 287.984375 Z M 461.921875 287.984375 "/>
<path fill-rule="nonzero" fill="rgb(0%, 44.705883%, 69.803923%)" fill-opacity="1" d="M 526.359375 242.855469 C 526.359375 238.625 520.011719 238.625 520.011719 242.855469 C 520.011719 247.085938 526.359375 247.085938 526.359375 242.855469 Z M 526.359375 242.855469 "/>
<path fill-rule="nonzero" fill="rgb(0%, 44.705883%, 69.803923%)" fill-opacity="1" d="M 438.160156 112.699219 C 438.160156 108.46875 431.816406 108.46875 431.816406 112.699219 C 431.816406 116.929688 438.160156 116.929688 438.160156 112.699219 Z M 438.160156 112.699219 "/>
<path fill-rule="nonzero" fill="rgb(0%, 44.705883%, 69.803923%)" fill-opacity="1" d="M 486.683594 178.394531 C 486.683594 174.164062 480.335938 174.164062 480.335938 178.394531 C 480.335938 182.625 486.683594 182.625 486.683594 178.394531 Z M 486.683594 178.394531 "/>
<path fill-rule="nonzero" fill="rgb(0%, 44.705883%, 69.803923%)" fill-opacity="1" d="M 293.941406 382.160156 C 293.941406 377.929688 287.597656 377.929688 287.597656 382.160156 C 287.597656 386.390625 293.941406 386.390625 293.941406 382.160156 Z M 293.941406 382.160156 "/>
<path fill-rule="nonzero" fill="rgb(0%, 44.705883%, 69.803923%)" fill-opacity="1" d="M 615.65625 267.609375 C 615.65625 263.382812 609.308594 263.382812 609.308594 267.609375 C 609.308594 271.839844 615.65625 271.839844 615.65625 267.609375 Z M 615.65625 267.609375 "/>
<path fill-rule="nonzero" fill="rgb(0%, 44.705883%, 69.803923%)" fill-opacity="1" d="M 349.371094 166.945312 C 349.371094 162.714844 343.027344 162.714844 343.027344 166.945312 C 343.027344 171.171875 349.371094 171.171875 349.371094 166.945312 Z M 349.371094 166.945312 "/>
<path fill-rule="nonzero" fill="rgb(0%, 44.705883%, 69.803923%)" fill-opacity="1" d="M 509.613281 237.445312 C 509.613281 233.214844 503.265625 233.214844 503.265625 237.445312 C 503.265625 241.671875 509.613281 241.671875 509.613281 237.445312 Z M 509.613281 237.445312 "/>
<path fill-rule="nonzero" fill="rgb(0%, 44.705883%, 69.803923%)" fill-opacity="1" d="M 645.695312 232.066406 C 645.695312 227.835938 639.351562 227.835938 639.351562 232.066406 C 639.351562 236.292969 645.695312 236.292969 645.695312 232.066406 Z M 645.695312 232.066406 "/>
<path fill-rule="nonzero" fill="rgb(0%, 44.705883%, 69.803923%)" fill-opacity="1" d="M 382.074219 342.925781 C 382.074219 338.695312 375.730469 338.695312 375.730469 342.925781 C 375.730469 347.152344 382.074219 347.152344 382.074219 342.925781 Z M 382.074219 342.925781 "/>
<path fill-rule="nonzero" fill="rgb(0%, 44.705883%, 69.803923%)" fill-opacity="1" d="M 715.363281 244.621094 C 715.363281 240.390625 709.019531 240.390625 709.019531 244.621094 C 709.019531 248.847656 715.363281 248.847656 715.363281 244.621094 Z M 715.363281 244.621094 "/>
<path fill-rule="nonzero" fill="rgb(0%, 44.705883%, 69.803923%)" fill-opacity="1" d="M 285.859375 237.914062 C 285.859375 233.683594 279.511719 233.683594 279.511719 237.914062 C 279.511719 242.144531 285.859375 242.144531 285.859375 237.914062 Z M 285.859375 237.914062 "/>
<path fill-rule="nonzero" fill="rgb(0%, 44.705883%, 69.803923%)" fill-opacity="1" d="M 346.933594 265.40625 C 346.933594 261.175781 340.585938 261.175781 340.585938 265.40625 C 340.585938 269.632812 346.933594 269.632812 346.933594 265.40625 Z M 346.933594 265.40625 "/>
<path fill-rule="nonzero" fill="rgb(0%, 44.705883%, 69.803923%)" fill-opacity="1" d="M 516.808594 229.023438 C 516.808594 224.792969 510.464844 224.792969 510.464844 229.023438 C 510.464844 233.253906 516.808594 233.253906 516.808594 229.023438 Z M 516.808594 229.023438 "/>
<path fill-rule="nonzero" fill="rgb(0%, 44.705883%, 69.803923%)" fill-opacity="1" d="M 387.875 218.722656 C 387.875 214.492188 381.53125 214.492188 381.53125 218.722656 C 381.53125 222.953125 387.875 222.953125 387.875 218.722656 Z M 387.875 218.722656 "/>
<path fill-rule="nonzero" fill="rgb(0%, 44.705883%, 69.803923%)" fill-opacity="1" d="M 365.265625 151.410156 C 365.265625 147.179688 358.921875 147.179688 358.921875 151.410156 C 358.921875 155.640625 365.265625 155.640625 365.265625 151.410156 Z M 365.265625 151.410156 "/>
<path fill-rule="nonzero" fill="rgb(0%, 44.705883%, 69.803923%)" fill-opacity="1" d="M 481.585938 204.621094 C 481.585938 200.390625 475.238281 200.390625 475.238281 204.621094 C 475.238281 208.851562 481.585938 208.851562 481.585938 204.621094 Z M 481.585938 204.621094 "/>
<path fill-rule="nonzero" fill="rgb(0%, 44.705883%, 69.803923%)" fill-opacity="1" d="M 275.71875 171.265625 C 275.71875 167.035156 269.375 167.035156 269.375 171.265625 C 269.375 175.496094 275.71875 175.496094 275.71875 171.265625 Z M 275.71875 171.265625 "/>
<path fill-rule="nonzero" fill="rgb(0%, 44.705883%, 69.803923%)" fill-opacity="1" d="M 314.164062 198 C 314.164062 193.773438 307.820312 193.773438 307.820312 198 C 307.820312 202.230469 314.164062 202.230469 314.164062 198 Z M 314.164062 198 "/>
<path fill-rule="nonzero" fill="rgb(0%, 44.705883%, 69.803923%)" fill-opacity="1" d="M 681.472656 77.4375 C 681.472656 73.207031 675.128906 73.207031 675.128906 77.4375 C 675.128906 81.667969 681.472656 81.667969 681.472656 77.4375 Z M 681.472656 77.4375 "/>
<path fill-rule="nonzero" fill="rgb(0%, 44.705883%, 69.803923%)" fill-opacity="1" d="M 429.679688 309.324219 C 429.679688 305.09375 423.335938 305.09375 423.335938 309.324219 C 423.335938 313.554688 429.679688 313.554688 429.679688 309.324219 Z M 429.679688 309.324219 "/>
<path fill-rule="nonzero" fill="rgb(0%, 44.705883%, 69.803923%)" fill-opacity="1" d="M 316.777344 278.4375 C 316.777344 274.207031 310.429688 274.207031 310.429688 278.4375 C 310.429688 282.667969 316.777344 282.667969 316.777344 278.4375 Z M 316.777344 278.4375 "/>
<path fill-rule="nonzero" fill="rgb(0%, 44.705883%, 69.803923%)" fill-opacity="1" d="M 388.59375 373.894531 C 388.59375 369.664062 382.25 369.664062 382.25 373.894531 C 382.25 378.125 388.59375 378.125 388.59375 373.894531 Z M 388.59375 373.894531 "/>
<path fill-rule="nonzero" fill="rgb(0%, 44.705883%, 69.803923%)" fill-opacity="1" d="M 415.515625 259.242188 C 415.515625 255.011719 409.167969 255.011719 409.167969 259.242188 C 409.167969 263.46875 415.515625 263.46875 415.515625 259.242188 Z M 415.515625 259.242188 "/>
<path fill-rule="nonzero" fill="rgb(0%, 44.705883%, 69.803923%)" fill-opacity="1" d="M 610.929688 256.738281 C 610.929688 252.511719 604.582031 252.511719 604.582031 256.738281 C 604.582031 260.96875 610.929688 260.96875 610.929688 256.738281 Z M 610.929688 256.738281 "/>
<path fill-rule="nonzero" fill="rgb(0%, 44.705883%, 69.803923%)" fill-opacity="1" d="M 102.535156 197.796875 C 102.535156 193.566406 96.191406 193.566406 96.191406 197.796875 C 96.191406 202.027344 102.535156 202.027344 102.535156 197.796875 Z M 102.535156 197.796875 "/>
<path fill-rule="nonzero" fill="rgb(0%, 44.705883%, 69.803923%)" fill-opacity="1" d="M 417.574219 217.925781 C 417.574219 213.699219 411.230469 213.699219 411.230469 217.925781 C 411.230469 222.15625 417.574219 222.15625 417.574219 217.925781 Z M 417.574219 217.925781 "/>
<path fill-rule="nonzero" fill="rgb(0%, 44.705883%, 69.803923%)" fill-opacity="1" d="M 427.644531 174.019531 C 427.644531 169.789062 421.300781 169.789062 421.300781 174.019531 C 421.300781 178.25 427.644531 178.25 427.644531 174.019531 Z M 427.644531 174.019531 "/>
<path fill-rule="nonzero" fill="rgb(0%, 44.705883%, 69.803923%)" fill-opacity="1" d="M 395.804688 192.378906 C 395.804688 188.148438 389.457031 188.148438 389.457031 192.378906 C 389.457031 196.609375 395.804688 196.609375 395.804688 192.378906 Z M 395.804688 192.378906 "/>
<path fill-rule="nonzero" fill="rgb(0%, 44.705883%, 69.803923%)" fill-opacity="1" d="M 487.878906 243.269531 C 487.878906 239.039062 481.53125 239.039062 481.53125 243.269531 C 481.53125 247.5 487.878906 247.5 487.878906 243.269531 Z M 487.878906 243.269531 "/>
<path fill-rule="nonzero" fill="rgb(0%, 44.705883%, 69.803923%)" fill-opacity="1" d="M 250.222656 208.308594 C 250.222656 204.078125 243.878906 204.078125 243.878906 208.308594 C 243.878906 212.539062 250.222656 212.539062 250.222656 208.308594 Z M 250.222656 208.308594 "/>
<path fill-rule="nonzero" fill="rgb(0%, 44.705883%, 69.803923%)" fill-opacity="1" d="M 521.585938 255.835938 C 521.585938 251.605469 515.242188 251.605469 515.242188 255.835938 C 515.242188 260.066406 521.585938 260.066406 521.585938 255.835938 Z M 521.585938 255.835938 "/>
<path fill-rule="nonzero" fill="rgb(0%, 44.705883%, 69.803923%)" fill-opacity="1" d="M 626.207031 241.300781 C 626.207031 237.070312 619.859375 237.070312 619.859375 241.300781 C 619.859375 245.527344 626.207031 245.527344 626.207031 241.300781 Z M 626.207031 241.300781 "/>
<path fill-rule="nonzero" fill="rgb(0%, 44.705883%, 69.803923%)" fill-opacity="1" d="M 206.644531 220.277344 C 206.644531 216.046875 200.300781 216.046875 200.300781 220.277344 C 200.300781 224.507812 206.644531 224.507812 206.644531 220.277344 Z M 206.644531 220.277344 "/>
<path fill-rule="nonzero" fill="rgb(0%, 44.705883%, 69.803923%)" fill-opacity="1" d="M 507.390625 349.046875 C 507.390625 344.816406 501.046875 344.816406 501.046875 349.046875 C 501.046875 353.277344 507.390625 353.277344 507.390625 349.046875 Z M 507.390625 349.046875 "/>
<path fill-rule="nonzero" fill="rgb(0%, 44.705883%, 69.803923%)" fill-opacity="1" d="M 490.269531 189.582031 C 490.269531 185.351562 483.921875 185.351562 483.921875 189.582031 C 483.921875 193.808594 490.269531 193.808594 490.269531 189.582031 Z M 490.269531 189.582031 "/>
<path fill-rule="nonzero" fill="rgb(0%, 44.705883%, 69.803923%)" fill-opacity="1" d="M 514.890625 285.398438 C 514.890625 281.171875 508.546875 281.171875 508.546875 285.398438 C 508.546875 289.628906 514.890625 289.628906 514.890625 285.398438 Z M 514.890625 285.398438 "/>
<path fill-rule="nonzero" fill="rgb(0%, 44.705883%, 69.803923%)" fill-opacity="1" d="M 406.332031 181.46875 C 406.332031 177.242188 399.984375 177.242188 399.984375 181.46875 C 399.984375 185.699219 406.332031 185.699219 406.332031 181.46875 Z M 406.332031 181.46875 "/>
<path fill-rule="nonzero" fill="rgb(0%, 44.705883%, 69.803923%)" fill-opacity="1" d="M 287.5 518.046875 C 287.5 513.816406 281.15625 513.816406 281.15625 518.046875 C 281.15625 522.277344 287.5 522.277344 287.5 518.046875 Z M 287.5 518.046875 "/>
<path fill-rule="nonzero" fill="rgb(0%, 44.705883%, 69.803923%)" fill-opacity="1" d="M 286.046875 205.132812 C 286.046875 200.902344 279.703125 200.902344 279.703125 205.132812 C 279.703125 209.363281 286.046875 209.363281 286.046875 205.132812 Z M 286.046875 205.132812 "/>
<path fill-rule="nonzero" fill="rgb(0%, 44.705883%, 69.803923%)" fill-opacity="1" d="M 375.171875 311.140625 C 375.171875 306.914062 368.824219 306.914062 368.824219 311.140625 C 368.824219 315.371094 375.171875 315.371094 375.171875 311.140625 Z M 375.171875 311.140625 "/>
<path fill-rule="nonzero" fill="rgb(0%, 44.705883%, 69.803923%)" fill-opacity="1" d="M 691.179688 185.535156 C 691.179688 181.304688 684.835938 181.304688 684.835938 185.535156 C 684.835938 189.765625 691.179688 189.765625 691.179688 185.535156 Z M 691.179688 185.535156 "/>
<path fill-rule="nonzero" fill="rgb(0%, 44.705883%, 69.803923%)" fill-opacity="1" d="M 645.699219 276.507812 C 645.699219 272.277344 639.351562 272.277344 639.351562 276.507812 C 639.351562 280.738281 645.699219 280.738281 645.699219 276.507812 Z M 645.699219 276.507812 "/>
<path fill-rule="nonzero" fill="rgb(0%, 44.705883%, 69.803923%)" fill-opacity="1" d="M 410.640625 216.75 C 410.640625 212.519531 404.296875 212.519531 404.296875 216.75 C 404.296875 220.980469 410.640625 220.980469 410.640625 216.75 Z M 410.640625 216.75 "/>
<path fill-rule="nonzero" fill="rgb(0%, 44.705883%, 69.803923%)" fill-opacity="1" d="M 298.410156 182.691406 C 298.410156 178.460938 292.0625 178.460938 292.0625 182.691406 C 292.0625 186.921875 298.410156 186.921875 298.410156 182.691406 Z M 298.410156 182.691406 "/>
<path fill-rule="nonzero" fill="rgb(0%, 44.705883%, 69.803923%)" fill-opacity="1" d="M 271.167969 270.757812 C 271.167969 266.527344 264.820312 266.527344 264.820312 270.757812 C 264.820312 274.988281 271.167969 274.988281 271.167969 270.757812 Z M 271.167969 270.757812 "/>
<path fill-rule="nonzero" fill="rgb(0%, 44.705883%, 69.803923%)" fill-opacity="1" d="M 255.699219 154.367188 C 255.699219 150.136719 249.355469 150.136719 249.355469 154.367188 C 249.355469 158.597656 255.699219 158.597656 255.699219 154.367188 Z M 255.699219 154.367188 "/>
<path fill-rule="nonzero" fill="rgb(0%, 44.705883%, 69.803923%)" fill-opacity="1" d="M 691.089844 253.832031 C 691.089844 249.605469 684.742188 249.605469 684.742188 253.832031 C 684.742188 258.0625 691.089844 258.0625 691.089844 253.832031 Z M 691.089844 253.832031 "/>
<path fill-rule="nonzero" fill="rgb(0%, 44.705883%, 69.803923%)" fill-opacity="1" d="M 591.902344 385.128906 C 591.902344 380.898438 585.558594 380.898438 585.558594 385.128906 C 585.558594 389.359375 591.902344 389.359375 591.902344 385.128906 Z M 591.902344 385.128906 "/>
<path fill-rule="nonzero" fill="rgb(0%, 44.705883%, 69.803923%)" fill-opacity="1" d="M 757.964844 273.539062 C 757.964844 269.308594 751.621094 269.308594 751.621094 273.539062 C 751.621094 277.769531 757.964844 277.769531 757.964844 273.539062 Z M 757.964844 273.539062 "/>
<path fill-rule="nonzero" fill="rgb(0%, 44.705883%, 69.803923%)" fill-opacity="1" d="M 395.078125 201.8125 C 395.078125 197.582031 388.734375 197.582031 388.734375 201.8125 C 388.734375 206.042969 395.078125 206.042969 395.078125 201.8125 Z M 395.078125 201.8125 "/>
<path fill-rule="nonzero" fill="rgb(0%, 44.705883%, 69.803923%)" fill-opacity="1" d="M 591.632812 225.332031 C 591.632812 221.105469 585.289062 221.105469 585.289062 225.332031 C 585.289062 229.5625 591.632812 229.5625 591.632812 225.332031 Z M 591.632812 225.332031 "/>
<path fill-rule="nonzero" fill="rgb(0%, 44.705883%, 69.803923%)" fill-opacity="1" d="M 636.605469 225.183594 C 636.605469 220.953125 630.261719 220.953125 630.261719 225.183594 C 630.261719 229.414062 636.605469 229.414062 636.605469 225.183594 Z M 636.605469 225.183594 "/>
<path fill-rule="nonzero" fill="rgb(0%, 44.705883%, 69.803923%)" fill-opacity="1" d="M 243.597656 384.632812 C 243.597656 380.402344 237.253906 380.402344 237.253906 384.632812 C 237.253906 388.863281 243.597656 388.863281 243.597656 384.632812 Z M 243.597656 384.632812 "/>
<path fill-rule="nonzero" fill="rgb(0%, 44.705883%, 69.803923%)" fill-opacity="1" d="M 582.902344 191.222656 C 582.902344 186.992188 576.558594 186.992188 576.558594 191.222656 C 576.558594 195.453125 582.902344 195.453125 582.902344 191.222656 Z M 582.902344 191.222656 "/>
<path fill-rule="nonzero" fill="rgb(0%, 44.705883%, 69.803923%)" fill-opacity="1" d="M 369.210938 211.738281 C 369.210938 207.507812 362.867188 207.507812 362.867188 211.738281 C 362.867188 215.964844 369.210938 215.964844 369.210938 211.738281 Z M 369.210938 211.738281 "/>
<path fill-rule="nonzero" fill="rgb(0%, 44.705883%, 69.803923%)" fill-opacity="1" d="M 319.398438 136.96875 C 319.398438 132.738281 313.054688 132.738281 313.054688 136.96875 C 313.054688 141.199219 319.398438 141.199219 319.398438 136.96875 Z M 319.398438 136.96875 "/>
<path fill-rule="nonzero" fill="rgb(0%, 44.705883%, 69.803923%)" fill-opacity="1" d="M 354.183594 164.792969 C 354.183594 160.5625 347.839844 160.5625 347.839844 164.792969 C 347.839844 169.023438 354.183594 169.023438 354.183594 164.792969 Z M 354.183594 164.792969 "/>
<path fill-rule="nonzero" fill="rgb(0%, 44.705883%, 69.803923%)" fill-opacity="1" d="M 565.765625 355.980469 C 565.765625 351.75 559.421875 351.75 559.421875 355.980469 C 559.421875 360.210938 565.765625 360.210938 565.765625 355.980469 Z M 565.765625 355.980469 "/>
<path fill-rule="nonzero" fill="rgb(0%, 44.705883%, 69.803923%)" fill-opacity="1" d="M 487.785156 264.734375 C 487.785156 260.503906 481.441406 260.503906 481.441406 264.734375 C 481.441406 268.964844 487.785156 268.964844 487.785156 264.734375 Z M 487.785156 264.734375 "/>
<path fill-rule="nonzero" fill="rgb(0%, 44.705883%, 69.803923%)" fill-opacity="1" d="M 420.394531 246.515625 C 420.394531 242.285156 414.050781 242.285156 414.050781 246.515625 C 414.050781 250.746094 420.394531 250.746094 420.394531 246.515625 Z M 420.394531 246.515625 "/>
<path fill-rule="nonzero" fill="rgb(0%, 44.705883%, 69.803923%)" fill-opacity="1" d="M 299.992188 220.707031 C 299.992188 216.476562 293.648438 216.476562 293.648438 220.707031 C 293.648438 224.9375 299.992188 224.9375 299.992188 220.707031 Z M 299.992188 220.707031 "/>
<path fill-rule="nonzero" fill="rgb(0%, 44.705883%, 69.803923%)" fill-opacity="1" d="M 392.886719 281.085938 C 392.886719 276.855469 386.542969 276.855469 386.542969 281.085938 C 386.542969 285.316406 392.886719 285.316406 392.886719 281.085938 Z M 392.886719 281.085938 "/>
<path fill-rule="nonzero" fill="rgb(0%, 44.705883%, 69.803923%)" fill-opacity="1" d="M 647.128906 278.707031 C 647.128906 274.476562 640.785156 274.476562 640.785156 278.707031 C 640.785156 282.9375 647.128906 282.9375 647.128906 278.707031 Z M 647.128906 278.707031 "/>
<path fill-rule="nonzero" fill="rgb(0%, 44.705883%, 69.803923%)" fill-opacity="1" d="M 594.273438 58.953125 C 594.273438 54.722656 587.929688 54.722656 587.929688 58.953125 C 587.929688 63.183594 594.273438 63.183594 594.273438 58.953125 Z M 594.273438 58.953125 "/>
<path fill-rule="nonzero" fill="rgb(0%, 44.705883%, 69.803923%)" fill-opacity="1" d="M 422.644531 326.953125 C 422.644531 322.722656 416.296875 322.722656 416.296875 326.953125 C 416.296875 331.183594 422.644531 331.183594 422.644531 326.953125 Z M 422.644531 326.953125 "/>
<path fill-rule="nonzero" fill="rgb(0%, 44.705883%, 69.803923%)" fill-opacity="1" d="M 279.90625 268.304688 C 279.90625 264.074219 273.5625 264.074219 273.5625 268.304688 C 273.5625 272.535156 279.90625 272.535156 279.90625 268.304688 Z M 279.90625 268.304688 "/>
<path fill-rule="nonzero" fill="rgb(0%, 44.705883%, 69.803923%)" fill-opacity="1" d="M 425.554688 362.125 C 425.554688 357.894531 419.210938 357.894531 419.210938 362.125 C 419.210938 366.355469 425.554688 366.355469 425.554688 362.125 Z M 425.554688 362.125 "/>
<path fill-rule="nonzero" fill="rgb(0%, 44.705883%, 69.803923%)" fill-opacity="1" d="M 521.398438 303.671875 C 521.398438 299.441406 515.050781 299.441406 515.050781 303.671875 C 515.050781 307.902344 521.398438 307.902344 521.398438 303.671875 Z M 521.398438 303.671875 "/>
<path fill-rule="nonzero" fill="rgb(0%, 44.705883%, 69.803923%)" fill-opacity="1" d="M 468.789062 279.453125 C 468.789062 275.222656 462.445312 275.222656 462.445312 279.453125 C 462.445312 283.683594 468.789062 283.683594 468.789062 279.453125 Z M 468.789062 279.453125 "/>
<path fill-rule="nonzero" fill="rgb(0%, 44.705883%, 69.803923%)" fill-opacity="1" d="M 639.195312 216.175781 C 639.195312 211.945312 632.851562 211.945312 632.851562 216.175781 C 632.851562 220.402344 639.195312 220.402344 639.195312 216.175781 Z M 639.195312 216.175781 "/>
<path fill-rule="nonzero" fill="rgb(0%, 44.705883%, 69.803923%)" fill-opacity="1" d="M 387.949219 242.9375 C 387.949219 238.707031 381.605469 238.707031 381.605469 242.9375 C 381.605469 247.167969 387.949219 247.167969 387.949219 242.9375 Z M 387.949219 242.9375 "/>
<path fill-rule="nonzero" fill="rgb(0%, 44.705883%, 69.803923%)" fill-opacity="1" d="M 510.75 230.28125 C 510.75 226.050781 504.402344 226.050781 504.402344 230.28125 C 504.402344 234.507812 510.75 234.507812 510.75 230.28125 Z M 510.75 230.28125 "/>
<path fill-rule="nonzero" fill="rgb(0%, 44.705883%, 69.803923%)" fill-opacity="1" d="M 445.417969 417.34375 C 445.417969 413.113281 439.074219 413.113281 439.074219 417.34375 C 439.074219 421.574219 445.417969 421.574219 445.417969 417.34375 Z M 445.417969 417.34375 "/>
<path fill-rule="nonzero" fill="rgb(0%, 44.705883%, 69.803923%)" fill-opacity="1" d="M 480.238281 127.097656 C 480.238281 122.867188 473.894531 122.867188 473.894531 127.097656 C 473.894531 131.324219 480.238281 131.324219 480.238281 127.097656 Z M 480.238281 127.097656 "/>
<path fill-rule="nonzero" fill="rgb(0%, 44.705883%, 69.803923%)" fill-opacity="1" d="M 617.828125 275.011719 C 617.828125 270.78125 611.484375 270.78125 611.484375 275.011719 C 611.484375 279.242188 617.828125 279.242188 617.828125 275.011719 Z M 617.828125 275.011719 "/>
<path fill-rule="nonzero" fill="rgb(0%, 44.705883%, 69.803923%)" fill-opacity="1" d="M 581.492188 257.882812 C 581.492188 253.652344 575.148438 253.652344 575.148438 257.882812 C 575.148438 262.109375 581.492188 262.109375 581.492188 257.882812 Z M 581.492188 257.882812 "/>
<path fill-rule="nonzero" fill="rgb(0%, 44.705883%, 69.803923%)" fill-opacity="1" d="M 524.273438 101.09375 C 524.273438 96.867188 517.929688 96.867188 517.929688 101.09375 C 517.929688 105.324219 524.273438 105.324219 524.273438 101.09375 Z M 524.273438 101.09375 "/>
<path fill-rule="nonzero" fill="rgb(0%, 44.705883%, 69.803923%)" fill-opacity="1" d="M 341.148438 214.859375 C 341.148438 210.628906 334.804688 210.628906 334.804688 214.859375 C 334.804688 219.089844 341.148438 219.089844 341.148438 214.859375 Z M 341.148438 214.859375 "/>
<path fill-rule="nonzero" fill="rgb(0%, 44.705883%, 69.803923%)" fill-opacity="1" d="M 761.609375 242.199219 C 761.609375 237.96875 755.265625 237.96875 755.265625 242.199219 C 755.265625 246.425781 761.609375 246.425781 761.609375 242.199219 Z M 761.609375 242.199219 "/>
<path fill-rule="nonzero" fill="rgb(0%, 44.705883%, 69.803923%)" fill-opacity="1" d="M 678.539062 369.074219 C 678.539062 364.84375 672.191406 364.84375 672.191406 369.074219 C 672.191406 373.304688 678.539062 373.304688 678.539062 369.074219 Z M 678.539062 369.074219 "/>
<path fill-rule="nonzero" fill="rgb(0%, 44.705883%, 69.803923%)" fill-opacity="1" d="M 663.902344 303.507812 C 663.902344 299.277344 657.558594 299.277344 657.558594 303.507812 C 657.558594 307.738281 663.902344 307.738281 663.902344 303.507812 Z M 663.902344 303.507812 "/>
<path fill-rule="nonzero" fill="rgb(0%, 44.705883%, 69.803923%)" fill-opacity="1" d="M 371.667969 327.824219 C 371.667969 323.59375 365.324219 323.59375 365.324219 327.824219 C 365.324219 332.054688 371.667969 332.054688 371.667969 327.824219 Z M 371.667969 327.824219 "/>
<path fill-rule="nonzero" fill="rgb(0%, 44.705883%, 69.803923%)" fill-opacity="1" d="M 419.273438 338.242188 C 419.273438 334.011719 412.929688 334.011719 412.929688 338.242188 C 412.929688 342.472656 419.273438 342.472656 419.273438 338.242188 Z M 419.273438 338.242188 "/>
<path fill-rule="nonzero" fill="rgb(0%, 44.705883%, 69.803923%)" fill-opacity="1" d="M 513.082031 107.046875 C 513.082031 102.816406 506.734375 102.816406 506.734375 107.046875 C 506.734375 111.277344 513.082031 111.277344 513.082031 107.046875 Z M 513.082031 107.046875 "/>
<path fill-rule="nonzero" fill="rgb(0%, 44.705883%, 69.803923%)" fill-opacity="1" d="M 276.5 192.167969 C 276.5 187.9375 270.15625 187.9375 270.15625 192.167969 C 270.15625 196.398438 276.5 196.398438 276.5 192.167969 Z M 276.5 192.167969 "/>
<path fill-rule="nonzero" fill="rgb(90.196079%, 62.352943%, 0%)" fill-opacity="1" d="M 849.808594 256.089844 C 849.808594 251.859375 843.464844 251.859375 843.464844 256.089844 C 843.464844 260.320312 849.808594 260.320312 849.808594 256.089844 Z M 849.808594 256.089844 "/>
<path fill-rule="nonzero" fill="rgb(90.196079%, 62.352943%, 0%)" fill-opacity="1" d="M 416.625 252.121094 C 416.625 247.894531 410.28125 247.894531 410.28125 252.121094 C 410.28125 256.351562 416.625 256.351562 416.625 252.121094 Z M 416.625 252.121094 "/>
<path fill-rule="nonzero" fill="rgb(90.196079%, 62.352943%, 0%)" fill-opacity="1" d="M 591.007812 255.523438 C 591.007812 251.292969 584.664062 251.292969 584.664062 255.523438 C 584.664062 259.753906 591.007812 259.753906 591.007812 255.523438 Z M 591.007812 255.523438 "/>
<path fill-rule="nonzero" fill="rgb(90.196079%, 62.352943%, 0%)" fill-opacity="1" d="M 453.132812 316.875 C 453.132812 312.648438 446.789062 312.648438 446.789062 316.875 C 446.789062 321.105469 453.132812 321.105469 453.132812 316.875 Z M 453.132812 316.875 "/>
<path fill-rule="nonzero" fill="rgb(90.196079%, 62.352943%, 0%)" fill-opacity="1" d="M 739.683594 240.972656 C 739.683594 236.742188 733.339844 236.742188 733.339844 240.972656 C 733.339844 245.203125 739.683594 245.203125 739.683594 240.972656 Z M 739.683594 240.972656 "/>
<path fill-rule="nonzero" fill="rgb(90.196079%, 62.352943%, 0%)" fill-opacity="1" d="M 554.859375 237.070312 C 554.859375 232.839844 548.511719 232.839844 548.511719 237.070312 C 548.511719 241.300781 554.859375 241.300781 554.859375 237.070312 Z M 554.859375 237.070312 "/>
<path fill-rule="nonzero" fill="rgb(90.196079%, 62.352943%, 0%)" fill-opacity="1" d="M 604.449219 254.554688 C 604.449219 250.324219 598.101562 250.324219 598.101562 254.554688 C 598.101562 258.78125 604.449219 258.78125 604.449219 254.554688 Z M 604.449219 254.554688 "/>
<path fill-rule="nonzero" fill="rgb(90.196079%, 62.352943%, 0%)" fill-opacity="1" d="M 430.953125 185.347656 C 430.953125 181.121094 424.609375 181.121094 424.609375 185.347656 C 424.609375 189.578125 430.953125 189.578125 430.953125 185.347656 Z M 430.953125 185.347656 "/>
<path fill-rule="nonzero" fill="rgb(90.196079%, 62.352943%, 0%)" fill-opacity="1" d="M 806.859375 248.34375 C 806.859375 244.113281 800.515625 244.113281 800.515625 248.34375 C 800.515625 252.574219 806.859375 252.574219 806.859375 248.34375 Z M 806.859375 248.34375 "/>
<path fill-rule="nonzero" fill="rgb(90.196079%, 62.352943%, 0%)" fill-opacity="1" d="M 380.929688 340.703125 C 380.929688 336.472656 374.585938 336.472656 374.585938 340.703125 C 374.585938 344.933594 380.929688 344.933594 380.929688 340.703125 Z M 380.929688 340.703125 "/>
<path fill-rule="nonzero" fill="rgb(100%, 100%, 100%)" fill-opacity="1" stroke-width="1" stroke-linecap="butt" stroke-linejoin="miter" stroke="rgb(0%, 0%, 0%)" stroke-opacity="1" stroke-miterlimit="2" d="M 806 97 L 878 97 L 878 42 L 806 42 Z M 806 97 "/>
<path fill="none" stroke-width="1" stroke-linecap="butt" stroke-linejoin="miter" stroke="rgb(0%, 0%, 0%)" stroke-opacity="1" stroke-miterlimit="1.154701" d="M 222.585938 541.5 L 222.585938 546.5 "/>
<path fill="none" stroke-width="1" stroke-linecap="butt" stroke-linejoin="miter" stroke="rgb(0%, 0%, 0%)" stroke-opacity="1" stroke-miterlimit="1.154701" d="M 463.453125 541.5 L 463.453125 546.5 "/>
<path fill="none" stroke-width="1" stroke-linecap="butt" stroke-linejoin="miter" stroke="rgb(0%, 0%, 0%)" stroke-opacity="1" stroke-miterlimit="1.154701" d="M 704.320312 541.5 L 704.320312 546.5 "/>
<path fill="none" stroke-width="1" stroke-linecap="butt" stroke-linejoin="miter" stroke="rgb(0%, 0%, 0%)" stroke-opacity="1" stroke-miterlimit="1.154701" d="M 61.5 413.746094 L 56.5 413.746094 "/>
<path fill="none" stroke-width="1" stroke-linecap="butt" stroke-linejoin="miter" stroke="rgb(0%, 0%, 0%)" stroke-opacity="1" stroke-miterlimit="1.154701" d="M 61.5 248.429688 L 56.5 248.429688 "/>
<path fill="none" stroke-width="1" stroke-linecap="butt" stroke-linejoin="miter" stroke="rgb(0%, 0%, 0%)" stroke-opacity="1" stroke-miterlimit="1.154701" d="M 61.5 83.113281 L 56.5 83.113281 "/>
<path fill-rule="nonzero" fill="rgb(0%, 44.705883%, 69.803923%)" fill-opacity="1" d="M 825.171875 58 C 825.171875 53.769531 818.828125 53.769531 818.828125 58 C 818.828125 62.230469 825.171875 62.230469 825.171875 58 Z M 825.171875 58 "/>
<path fill-rule="nonzero" fill="rgb(90.196079%, 62.352943%, 0%)" fill-opacity="1" d="M 825.171875 81 C 825.171875 76.769531 818.828125 76.769531 818.828125 81 C 818.828125 85.230469 825.171875 85.230469 825.171875 81 Z M 825.171875 81 "/>
<g fill="rgb(0%, 0%, 0%)" fill-opacity="1">
<use xlink:href="#glyph-9-0-76f8480e" x="837.00002" y="63.102987"/>
</g>
<g fill="rgb(0%, 0%, 0%)" fill-opacity="1">
<use xlink:href="#glyph-9-1-76f8480e" x="848.66202" y="63.102987"/>
</g>
<g fill="rgb(0%, 0%, 0%)" fill-opacity="1">
<use xlink:href="#glyph-9-2-76f8480e" x="856.44602" y="63.102987"/>
</g>
<g fill="rgb(0%, 0%, 0%)" fill-opacity="1">
<use xlink:href="#glyph-9-3-76f8480e" x="859.55402" y="63.102987"/>
</g>
<g fill="rgb(0%, 0%, 0%)" fill-opacity="1">
<use xlink:href="#glyph-9-4-76f8480e" x="867.33802" y="63.102987"/>
</g>
<g fill="rgb(0%, 0%, 0%)" fill-opacity="1">
<use xlink:href="#glyph-0-11-76f8480e" x="837.00002" y="86.102988"/>
</g>
<g fill="rgb(0%, 0%, 0%)" fill-opacity="1">
<use xlink:href="#glyph-0-2-76f8480e" x="848.66202" y="86.102988"/>
</g>
<g fill="rgb(0%, 0%, 0%)" fill-opacity="1">
<use xlink:href="#glyph-0-3-76f8480e" x="851.77002" y="86.102988"/>
</g>
<g fill="rgb(0%, 0%, 0%)" fill-opacity="1">
<use xlink:href="#glyph-0-10-76f8480e" x="859.55402" y="86.102988"/>
</g>
<g fill="rgb(0%, 0%, 0%)" fill-opacity="1">
<use xlink:href="#glyph-0-1-76f8480e" x="867.33802" y="86.102988"/>
</g>
<path fill="none" stroke-width="1" stroke-linecap="butt" stroke-linejoin="miter" stroke="rgb(0%, 0%, 0%)" stroke-opacity="1" stroke-miterlimit="1.154701" d="M 61.5 541 L 884.5 541 "/>
<path fill="none" stroke-width="1" stroke-linecap="butt" stroke-linejoin="miter" stroke="rgb(0%, 0%, 0%)" stroke-opacity="1" stroke-miterlimit="1.154701" d="M 62 541.5 L 62 35.5 "/>
<path fill="none" stroke-width="1" stroke-linecap="butt" stroke-linejoin="miter" stroke="rgb(0%, 0%, 0%)" stroke-opacity="1" stroke-miterlimit="1.154701" d="M 61.5 36 L 884.5 36 "/>
<path fill="none" stroke-width="1" stroke-linecap="butt" stroke-linejoin="miter" stroke="rgb(0%, 0%, 0%)" stroke-opacity="1" stroke-miterlimit="1.154701" d="M 884 541.5 L 884 35.5 "/>
</svg>
