<?xml version="1.0" encoding="UTF-8"?>
<svg xmlns="http://www.w3.org/2000/svg" xmlns:xlink="http://www.w3.org/1999/xlink" width="900" height="600" viewBox="0 0 900 600">
<defs>
<g>
<g id="glyph-0-0-f27aafba">
<path d="M 7.46875 0 C 7.46875 0 1.125 0 1.125 0 C 1.125 0 1.125 -10.203125 1.125 -10.203125 C 1.125 -10.203125 2.421875 -10.203125 2.421875 -10.203125 C 2.421875 -10.203125 2.421875 -1.140625 2.421875 -1.140625 C 2.421875 -1.140625 7.46875 -1.140625 7.46875 -1.140625 C 7.46875 -1.140625 7.46875 0 7.46875 0 Z M 7.46875 0 "/>
</g>
<g id="glyph-0-1-f27aafba">
<path d="M 7.484375 -0.03125 C 7.109375 0.0625 6.9375 0.09375 6.6875 0.09375 C 6.125 0.09375 5.609375 -0.3125 5.484375 -0.875 C 4.84375 -0.1875 3.9375 0.203125 3 0.203125 C 1.515625 0.203125 0.59375 -0.578125 0.59375 -1.90625 C 0.59375 -2.796875 1.015625 -3.453125 1.875 -3.8125 C 2.328125 -3.984375 2.578125 -4.046875 4.234375 -4.25 C 5.15625 -4.375 5.453125 -4.578125 5.453125 -5.0625 C 5.453125 -5.0625 5.453125 -5.375 5.453125 -5.375 C 5.453125 -6.078125 4.859375 -6.46875 3.8125 -6.46875 C 2.71875 -6.46875 2.1875 -6.0625 2.09375 -5.171875 C 2.09375 -5.171875 0.90625 -5.171875 0.90625 -5.171875 C 0.984375 -6.859375 2.078125 -7.546875 3.84375 -7.546875 C 5.65625 -7.546875 6.609375 -6.84375 6.609375 -5.546875 C 6.609375 -5.546875 6.609375 -1.453125 6.609375 -1.453125 C 6.609375 -1.09375 6.828125 -0.875 7.234375 -0.875 C 7.3125 -0.875 7.359375 -0.875 7.484375 -0.90625 C 7.484375 -0.90625 7.484375 -0.03125 7.484375 -0.03125 Z M 5.453125 -2.53125 C 5.453125 -2.53125 5.453125 -3.625 5.453125 -3.625 C 5.046875 -3.4375 4.796875 -3.390625 3.5625 -3.21875 C 2.328125 -3.03125 1.8125 -2.703125 1.8125 -1.9375 C 1.8125 -1.140625 2.34375 -0.8125 3.25 -0.8125 C 4.375 -0.8125 5.453125 -1.484375 5.453125 -2.53125 Z M 5.453125 -2.53125 "/>
</g>
<g id="glyph-0-2-f27aafba">
<path d="M 3.5625 0 C 3.15625 0.0625 2.890625 0.09375 2.609375 0.09375 C 1.6875 0.09375 1.1875 -0.328125 1.1875 -1.0625 C 1.1875 -1.0625 1.1875 -6.390625 1.1875 -6.390625 C 1.1875 -6.390625 0.203125 -6.390625 0.203125 -6.390625 C 0.203125 -6.390625 0.203125 -7.34375 0.203125 -7.34375 C 0.203125 -7.34375 1.1875 -7.34375 1.1875 -7.34375 C 1.1875 -7.34375 1.1875 -9.359375 1.1875 -9.359375 C 1.1875 -9.359375 2.359375 -9.359375 2.359375 -9.359375 C 2.359375 -9.359375 2.359375 -7.34375 2.359375 -7.34375 C 2.359375 -7.34375 3.5625 -7.34375 3.5625 -7.34375 C 3.5625 -7.34375 3.5625 -6.390625 3.5625 -6.390625 C 3.5625 -6.390625 2.359375 -6.390625 2.359375 -6.390625 C 2.359375 -6.390625 2.359375 -1.578125 2.359375 -1.578125 C 2.359375 -1.0625 2.484375 -0.921875 3 -0.921875 C 3.21875 -0.921875 3.40625 -0.9375 3.5625 -0.984375 C 3.5625 -0.984375 3.5625 0 3.5625 0 Z M 3.5625 0 "/>
</g>
<g id="glyph-0-3-f27aafba">
<path d="M 7.1875 -3.328125 C 7.1875 -3.328125 1.78125 -3.328125 1.78125 -3.328125 C 1.8125 -1.65625 2.71875 -0.875 3.9375 -0.875 C 4.875 -0.875 5.53125 -1.265625 5.859375 -2.21875 C 5.859375 -2.21875 7.03125 -2.21875 7.03125 -2.21875 C 6.734375 -0.734375 5.578125 0.203125 3.890625 0.203125 C 1.828125 0.203125 0.5625 -1.21875 0.5625 -3.625 C 0.5625 -6.03125 1.875 -7.546875 3.921875 -7.546875 C 5.296875 -7.546875 6.40625 -6.8125 6.890625 -5.609375 C 7.09375 -5.0625 7.1875 -4.390625 7.1875 -3.328125 Z M 5.9375 -4.375 C 5.9375 -5.515625 5.046875 -6.46875 3.90625 -6.46875 C 2.734375 -6.46875 1.90625 -5.59375 1.8125 -4.28125 C 1.8125 -4.28125 5.921875 -4.28125 5.921875 -4.28125 C 5.9375 -4.3125 5.9375 -4.375 5.9375 -4.375 Z M 5.9375 -4.375 "/>
</g>
<g id="glyph-0-4-f27aafba">
<path d="M 6.8125 0 C 6.8125 0 5.65625 0 5.65625 0 C 5.65625 0 5.65625 -5.078125 5.65625 -5.078125 C 5.65625 -5.96875 5.0625 -6.53125 4.140625 -6.53125 C 2.953125 -6.53125 2.140625 -5.546875 2.140625 -4.046875 C 2.140625 -4.046875 2.140625 0 2.140625 0 C 2.140625 0 0.984375 0 0.984375 0 C 0.984375 0 0.984375 -7.34375 0.984375 -7.34375 C 0.984375 -7.34375 2.0625 -7.34375 2.0625 -7.34375 C 2.0625 -7.34375 2.0625 -6.109375 2.0625 -6.109375 C 2.703125 -7.125 3.40625 -7.546875 4.5 -7.546875 C 5.90625 -7.546875 6.8125 -6.765625 6.8125 -5.546875 C 6.8125 -5.546875 6.8125 0 6.8125 0 Z M 6.8125 0 "/>
</g>
<g id="glyph-0-5-f27aafba">
<path d="M 9.03125 -10.203125 C 9.03125 -10.203125 5.484375 0 5.484375 0 C 5.484375 0 4.09375 0 4.09375 0 C 4.09375 0 0.421875 -10.203125 0.421875 -10.203125 C 0.421875 -10.203125 1.8125 -10.203125 1.8125 -10.203125 C 1.8125 -10.203125 4.8125 -1.5625 4.8125 -1.5625 C 4.8125 -1.5625 7.640625 -10.203125 7.640625 -10.203125 C 7.640625 -10.203125 9.03125 -10.203125 9.03125 -10.203125 Z M 9.03125 -10.203125 "/>
</g>
<g id="glyph-0-6-f27aafba">
<path d="M 4.5 -6.3125 C 2.6875 -6.28125 2.140625 -5.453125 2.140625 -3.8125 C 2.140625 -3.8125 2.140625 0 2.140625 0 C 2.140625 0 0.984375 0 0.984375 0 C 0.984375 0 0.984375 -7.34375 0.984375 -7.34375 C 0.984375 -7.34375 2.046875 -7.34375 2.046875 -7.34375 C 2.046875 -7.34375 2.046875 -6 2.046875 -6 C 2.71875 -7.09375 3.296875 -7.546875 4.046875 -7.546875 C 4.203125 -7.546875 4.296875 -7.53125 4.5 -7.5 C 4.5 -7.5 4.5 -6.3125 4.5 -6.3125 Z M 4.5 -6.3125 "/>
</g>
<g id="glyph-0-7-f27aafba">
<path d="M 2.140625 0 C 2.140625 0 0.984375 0 0.984375 0 C 0.984375 0 0.984375 -7.34375 0.984375 -7.34375 C 0.984375 -7.34375 2.140625 -7.34375 2.140625 -7.34375 C 2.140625 -7.34375 2.140625 0 2.140625 0 Z M 2.296875 -8.4375 C 2.296875 -8.4375 0.84375 -8.4375 0.84375 -8.4375 C 0.84375 -8.4375 0.84375 -9.890625 0.84375 -9.890625 C 0.84375 -9.890625 2.296875 -9.890625 2.296875 -9.890625 C 2.296875 -9.890625 2.296875 -8.4375 2.296875 -8.4375 Z M 2.296875 -8.4375 "/>
</g>
<g id="glyph-0-8-f27aafba">
<path d="M 7.328125 -3.75 C 7.328125 -1.375 6.0625 0.203125 4.125 0.203125 C 3.109375 0.203125 2.359375 -0.203125 1.8125 -1.046875 C 1.8125 -1.046875 1.8125 0 1.8125 0 C 1.8125 0 0.75 0 0.75 0 C 0.75 0 0.75 -10.203125 0.75 -10.203125 C 0.75 -10.203125 1.921875 -10.203125 1.921875 -10.203125 C 1.921875 -10.203125 1.921875 -6.34375 1.921875 -6.34375 C 2.46875 -7.171875 3.171875 -7.546875 4.1875 -7.546875 C 6.125 -7.546875 7.328125 -6.125 7.328125 -3.75 Z M 6.109375 -3.6875 C 6.109375 -5.3125 5.265625 -6.453125 3.96875 -6.453125 C 2.734375 -6.515625 1.921875 -5.390625 1.921875 -3.671875 C 1.921875 -2 2.734375 -0.875 3.96875 -0.875 C 5.234375 -0.875 6.109375 -2.015625 6.109375 -3.6875 Z M 6.109375 -3.6875 "/>
</g>
<g id="glyph-0-9-f27aafba">
</g>
<g id="glyph-0-10-f27aafba">
<path d="M 4.859375 0 C 4.859375 0 3.625 0 3.625 0 C 3.625 0 3.625 -7.0625 3.625 -7.0625 C 3.625 -7.0625 1.421875 -7.0625 1.421875 -7.0625 C 1.421875 -7.0625 1.421875 -7.953125 1.421875 -7.953125 C 3.328125 -8.1875 3.609375 -8.40625 4.046875 -9.921875 C 4.046875 -9.921875 4.859375 -9.921875 4.859375 -9.921875 C 4.859375 -9.921875 4.859375 0 4.859375 0 Z M 4.859375 0 "/>
</g>
<g id="glyph-0-11-f27aafba">
<path d="M 7.09375 -4.78125 C 7.09375 -1.515625 5.953125 0.203125 3.84375 0.203125 C 1.71875 0.203125 0.609375 -1.515625 0.609375 -4.859375 C 0.609375 -8.1875 1.703125 -9.921875 3.84375 -9.921875 C 6 -9.921875 7.09375 -8.21875 7.09375 -4.78125 Z M 5.84375 -4.890625 C 5.84375 -7.546875 5.1875 -8.828125 3.84375 -8.828125 C 2.515625 -8.828125 1.859375 -7.5625 1.859375 -4.84375 C 1.859375 -2.125 2.515625 -0.8125 3.828125 -0.8125 C 5.1875 -0.8125 5.84375 -2.078125 5.84375 -4.890625 Z M 5.84375 -4.890625 "/>
</g>
<g id="glyph-0-12-f27aafba">
<path d="M 7.15625 -7.015625 C 7.15625 -5.796875 6.4375 -4.765625 5.046875 -4.015625 C 5.046875 -4.015625 3.65625 -3.265625 3.65625 -3.265625 C 2.4375 -2.546875 1.984375 -2.03125 1.859375 -1.21875 C 1.859375 -1.21875 7.078125 -1.21875 7.078125 -1.21875 C 7.078125 -1.21875 7.078125 0 7.078125 0 C 7.078125 0 0.46875 0 0.46875 0 C 0.59375 -2.1875 1.1875 -3.125 3.265625 -4.296875 C 3.265625 -4.296875 4.546875 -5.03125 4.546875 -5.03125 C 5.4375 -5.53125 5.890625 -6.203125 5.890625 -6.984375 C 5.890625 -8.046875 5.046875 -8.84375 3.9375 -8.84375 C 2.71875 -8.84375 2.03125 -8.140625 1.9375 -6.484375 C 1.9375 -6.484375 0.703125 -6.484375 0.703125 -6.484375 C 0.765625 -8.890625 1.953125 -9.921875 3.96875 -9.921875 C 5.859375 -9.921875 7.15625 -8.6875 7.15625 -7.015625 Z M 7.15625 -7.015625 "/>
</g>
<g id="glyph-0-13-f27aafba">
<path d="M 7.28125 -2.375 C 7.28125 -2.375 5.8125 -2.375 5.8125 -2.375 C 5.8125 -2.375 5.8125 0 5.8125 0 C 5.8125 0 4.578125 0 4.578125 0 C 4.578125 0 4.578125 -2.375 4.578125 -2.375 C 4.578125 -2.375 0.390625 -2.375 0.390625 -2.375 C 0.390625 -2.375 0.390625 -3.6875 0.390625 -3.6875 C 0.390625 -3.6875 4.90625 -9.921875 4.90625 -9.921875 C 4.90625 -9.921875 5.8125 -9.921875 5.8125 -9.921875 C 5.8125 -9.921875 5.8125 -3.484375 5.8125 -3.484375 C 5.8125 -3.484375 7.28125 -3.484375 7.28125 -3.484375 C 7.28125 -3.484375 7.28125 -2.375 7.28125 -2.375 Z M 4.578125 -3.484375 C 4.578125 -3.484375 4.578125 -7.828125 4.578125 -7.828125 C 4.578125 -7.828125 1.46875 -3.484375 1.46875 -3.484375 C 1.46875 -3.484375 4.578125 -3.484375 4.578125 -3.484375 Z M 4.578125 -3.484375 "/>
</g>
<g id="glyph-0-14-f27aafba">
<path d="M 7.21875 -3.03125 C 7.21875 -3.03125 0.953125 -3.03125 0.953125 -3.03125 C 0.953125 -3.03125 0.953125 -3.96875 0.953125 -3.96875 C 0.953125 -3.96875 7.21875 -3.96875 7.21875 -3.96875 C 7.21875 -3.96875 7.21875 -3.03125 7.21875 -3.03125 Z M 7.21875 -3.03125 "/>
</g>
<g id="glyph-0-15-f27aafba">
<path d="M 10.640625 0 C 10.640625 0 9.484375 0 9.484375 0 C 9.484375 0 9.484375 -5.046875 9.484375 -5.046875 C 9.484375 -5.984375 8.984375 -6.53125 8.140625 -6.53125 C 7.1875 -6.53125 6.390625 -5.671875 6.390625 -4.609375 C 6.390625 -4.609375 6.390625 0 6.390625 0 C 6.390625 0 5.234375 0 5.234375 0 C 5.234375 0 5.234375 -5.046875 5.234375 -5.046875 C 5.234375 -5.984375 4.75 -6.53125 3.875 -6.53125 C 2.921875 -6.53125 2.15625 -5.671875 2.15625 -4.609375 C 2.15625 -4.609375 2.15625 0 2.15625 0 C 2.15625 0 1 0 1 0 C 1 0 1 -7.34375 1 -7.34375 C 1 -7.34375 2.0625 -7.34375 2.0625 -7.34375 C 2.0625 -7.34375 2.0625 -6.296875 2.0625 -6.296875 C 2.6875 -7.1875 3.328125 -7.546875 4.3125 -7.546875 C 5.265625 -7.546875 5.859375 -7.203125 6.28125 -6.421875 C 6.96875 -7.25 7.5625 -7.546875 8.546875 -7.546875 C 9.90625 -7.546875 10.640625 -6.8125 10.640625 -5.5 C 10.640625 -5.5 10.640625 0 10.640625 0 Z M 10.640625 0 "/>
</g>
<g id="glyph-0-16-f27aafba">
<path d="M 7.140625 -3.609375 C 7.140625 -1.203125 5.875 0.203125 3.828125 0.203125 C 1.734375 0.203125 0.5 -1.203125 0.5 -3.671875 C 0.5 -6.125 1.75 -7.546875 3.8125 -7.546875 C 5.921875 -7.546875 7.140625 -6.140625 7.140625 -3.609375 Z M 5.921875 -3.625 C 5.921875 -5.453125 5.140625 -6.46875 3.828125 -6.46875 C 2.515625 -6.46875 1.71875 -5.4375 1.71875 -3.671875 C 1.71875 -1.890625 2.515625 -0.875 3.828125 -0.875 C 5.109375 -0.875 5.921875 -1.90625 5.921875 -3.625 Z M 5.921875 -3.625 "/>
</g>
<g id="glyph-0-17-f27aafba">
<path d="M 7.328125 -3.59375 C 7.328125 -1.265625 6.078125 0.203125 4.1875 0.203125 C 3.234375 0.203125 2.546875 -0.125 1.9375 -0.875 C 1.9375 -0.875 1.9375 3.046875 1.9375 3.046875 C 1.9375 3.046875 0.765625 3.046875 0.765625 3.046875 C 0.765625 3.046875 0.765625 -7.34375 0.765625 -7.34375 C 0.765625 -7.34375 1.828125 -7.34375 1.828125 -7.34375 C 1.828125 -7.34375 1.828125 -6.234375 1.828125 -6.234375 C 2.375 -7.09375 3.171875 -7.546875 4.171875 -7.546875 C 6.125 -7.546875 7.328125 -6.0625 7.328125 -3.59375 Z M 6.109375 -3.625 C 6.109375 -5.375 5.265625 -6.453125 3.96875 -6.453125 C 2.75 -6.453125 1.9375 -5.328125 1.9375 -3.609375 C 1.9375 -1.890625 2.75 -0.875 3.96875 -0.875 C 5.25 -0.875 6.109375 -1.953125 6.109375 -3.625 Z M 6.109375 -3.625 "/>
</g>
<g id="glyph-0-18-f27aafba">
<path d="M 2.140625 1.53125 C 2.140625 2.515625 1.453125 3.046875 0.140625 3.046875 C -0.046875 3.046875 -0.109375 3.03125 -0.25 3.015625 C -0.25 3.015625 -0.25 2.015625 -0.25 2.015625 C -0.25 2.015625 0.03125 2.03125 0.03125 2.03125 C 0.734375 2.078125 0.984375 1.765625 0.984375 1.0625 C 0.984375 1.0625 0.984375 -7.34375 0.984375 -7.34375 C 0.984375 -7.34375 2.140625 -7.34375 2.140625 -7.34375 C 2.140625 -7.34375 2.140625 1.53125 2.140625 1.53125 Z M 2.296875 -8.4375 C 2.296875 -8.4375 0.84375 -8.4375 0.84375 -8.4375 C 0.84375 -8.4375 0.84375 -9.890625 0.84375 -9.890625 C 0.84375 -9.890625 2.296875 -9.890625 2.296875 -9.890625 C 2.296875 -9.890625 2.296875 -8.4375 2.296875 -8.4375 Z M 2.296875 -8.4375 "/>
</g>
<g id="glyph-0-19-f27aafba">
<path d="M 6.671875 -2.515625 C 6.53125 -0.84375 5.4375 0.203125 3.6875 0.203125 C 1.6875 0.203125 0.4375 -1.234375 0.4375 -3.59375 C 0.4375 -6.03125 1.71875 -7.546875 3.703125 -7.546875 C 5.328125 -7.546875 6.453125 -6.65625 6.59375 -4.875 C 6.59375 -4.875 5.421875 -4.875 5.421875 -4.875 C 5.28125 -5.890625 4.65625 -6.46875 3.6875 -6.46875 C 2.40625 -6.46875 1.65625 -5.4375 1.65625 -3.59375 C 1.65625 -1.859375 2.421875 -0.875 3.703125 -0.875 C 4.703125 -0.875 5.3125 -1.34375 5.5 -2.515625 C 5.5 -2.515625 6.671875 -2.515625 6.671875 -2.515625 Z M 6.671875 -2.515625 "/>
</g>
<g id="glyph-0-20-f27aafba">
<path d="M 6.9375 0 C 6.9375 0 5.890625 0 5.890625 0 C 5.890625 0 5.890625 -1.078125 5.890625 -1.078125 C 5.265625 -0.171875 4.5625 0.203125 3.5625 0.203125 C 1.578125 0.203125 0.359375 -1.265625 0.359375 -3.734375 C 0.359375 -6.078125 1.609375 -7.546875 3.515625 -7.546875 C 4.5 -7.546875 5.28125 -7.15625 5.765625 -6.40625 C 5.765625 -6.40625 5.765625 -10.203125 5.765625 -10.203125 C 5.765625 -10.203125 6.9375 -10.203125 6.9375 -10.203125 C 6.9375 -10.203125 6.9375 0 6.9375 0 Z M 5.765625 -3.640625 C 5.765625 -5.328125 4.96875 -6.453125 3.703125 -6.453125 C 2.4375 -6.453125 1.578125 -5.375 1.578125 -3.671875 C 1.578125 -1.953125 2.4375 -0.875 3.71875 -0.875 C 4.953125 -0.875 5.765625 -1.953125 5.765625 -3.640625 Z M 5.765625 -3.640625 "/>
</g>
<g id="glyph-1-0-f27aafba">
<path d="M 2.109375 0 C 2.109375 0 0.953125 0 0.953125 0 C 0.953125 0 0.953125 -10.203125 0.953125 -10.203125 C 0.953125 -10.203125 2.109375 -10.203125 2.109375 -10.203125 C 2.109375 -10.203125 2.109375 0 2.109375 0 Z M 2.109375 0 "/>
</g>
<g id="glyph-2-0-f27aafba">
<path d="M 0 -7.46875 C 0 -7.46875 0 -1.125 0 -1.125 C 0 -1.125 -10.203125 -1.125 -10.203125 -1.125 C -10.203125 -1.125 -10.203125 -2.421875 -10.203125 -2.421875 C -10.203125 -2.421875 -1.140625 -2.421875 -1.140625 -2.421875 C -1.140625 -2.421875 -1.140625 -7.46875 -1.140625 -7.46875 C -1.140625 -7.46875 0 -7.46875 0 -7.46875 Z M 0 -7.46875 "/>
</g>
<g id="glyph-2-1-f27aafba">
<path d="M -3.328125 -7.1875 C -3.328125 -7.1875 -3.328125 -1.78125 -3.328125 -1.78125 C -1.65625 -1.8125 -0.875 -2.71875 -0.875 -3.9375 C -0.875 -4.875 -1.265625 -5.53125 -2.21875 -5.859375 C -2.21875 -5.859375 -2.21875 -7.03125 -2.21875 -7.03125 C -0.734375 -6.734375 0.203125 -5.578125 0.203125 -3.890625 C 0.203125 -1.828125 -1.21875 -0.5625 -3.625 -0.5625 C -6.03125 -0.5625 -7.546875 -1.875 -7.546875 -3.921875 C -7.546875 -5.296875 -6.8125 -6.40625 -5.609375 -6.890625 C -5.0625 -7.09375 -4.390625 -7.1875 -3.328125 -7.1875 Z M -4.375 -5.9375 C -5.515625 -5.9375 -6.46875 -5.046875 -6.46875 -3.90625 C -6.46875 -2.734375 -5.59375 -1.90625 -4.28125 -1.8125 C -4.28125 -1.8125 -4.28125 -5.921875 -4.28125 -5.921875 C -4.3125 -5.9375 -4.375 -5.9375 -4.375 -5.9375 Z M -4.375 -5.9375 "/>
</g>
<g id="glyph-2-2-f27aafba">
</g>
<g id="glyph-2-3-f27aafba">
<path d="M -10.203125 -9.03125 C -10.203125 -9.03125 0 -5.484375 0 -5.484375 C 0 -5.484375 0 -4.09375 0 -4.09375 C 0 -4.09375 -10.203125 -0.421875 -10.203125 -0.421875 C -10.203125 -0.421875 -10.203125 -1.8125 -10.203125 -1.8125 C -10.203125 -1.8125 -1.5625 -4.8125 -1.5625 -4.8125 C -1.5625 -4.8125 -10.203125 -7.640625 -10.203125 -7.640625 C -10.203125 -7.640625 -10.203125 -9.03125 -10.203125 -9.03125 Z M -10.203125 -9.03125 "/>
</g>
<g id="glyph-2-4-f27aafba">
<path d="M 0 -2.140625 C 0 -2.140625 0 -0.984375 0 -0.984375 C 0 -0.984375 -7.34375 -0.984375 -7.34375 -0.984375 C -7.34375 -0.984375 -7.34375 -2.140625 -7.34375 -2.140625 C -7.34375 -2.140625 0 -2.140625 0 -2.140625 Z M -8.4375 -2.296875 C -8.4375 -2.296875 -8.4375 -0.84375 -8.4375 -0.84375 C -8.4375 -0.84375 -9.890625 -0.84375 -9.890625 -0.84375 C -9.890625 -0.84375 -9.890625 -2.296875 -9.890625 -2.296875 C -9.890625 -2.296875 -8.4375 -2.296875 -8.4375 -2.296875 Z M -8.4375 -2.296875 "/>
</g>
<g id="glyph-2-5-f27aafba">
<path d="M 0 -2.109375 C 0 -2.109375 0 -0.953125 0 -0.953125 C 0 -0.953125 -10.203125 -0.953125 -10.203125 -0.953125 C -10.203125 -0.953125 -10.203125 -2.109375 -10.203125 -2.109375 C -10.203125 -2.109375 0 -2.109375 0 -2.109375 Z M 0 -2.109375 "/>
</g>
<g id="glyph-3-0-f27aafba">
<path d="M -0.03125 -7.484375 C 0.0625 -7.109375 0.09375 -6.9375 0.09375 -6.6875 C 0.09375 -6.125 -0.3125 -5.609375 -0.875 -5.484375 C -0.1875 -4.84375 0.203125 -3.9375 0.203125 -3 C 0.203125 -1.515625 -0.578125 -0.59375 -1.90625 -0.59375 C -2.796875 -0.59375 -3.453125 -1.015625 -3.8125 -1.875 C -3.984375 -2.328125 -4.046875 -2.578125 -4.25 -4.234375 C -4.375 -5.15625 -4.578125 -5.453125 -5.0625 -5.453125 C -5.0625 -5.453125 -5.375 -5.453125 -5.375 -5.453125 C -6.078125 -5.453125 -6.46875 -4.859375 -6.46875 -3.8125 C -6.46875 -2.71875 -6.0625 -2.1875 -5.171875 -2.09375 C -5.171875 -2.09375 -5.171875 -0.90625 -5.171875 -0.90625 C -6.859375 -0.984375 -7.546875 -2.078125 -7.546875 -3.84375 C -7.546875 -5.65625 -6.84375 -6.609375 -5.546875 -6.609375 C -5.546875 -6.609375 -1.453125 -6.609375 -1.453125 -6.609375 C -1.09375 -6.609375 -0.875 -6.828125 -0.875 -7.234375 C -0.875 -7.3125 -0.875 -7.359375 -0.90625 -7.484375 C -0.90625 -7.484375 -0.03125 -7.484375 -0.03125 -7.484375 Z M -2.53125 -5.453125 C -2.53125 -5.453125 -3.625 -5.453125 -3.625 -5.453125 C -3.4375 -5.046875 -3.390625 -4.796875 -3.21875 -3.5625 C -3.03125 -2.328125 -2.703125 -1.8125 -1.9375 -1.8125 C -1.140625 -1.8125 -0.8125 -2.34375 -0.8125 -3.25 C -0.8125 -4.375 -1.484375 -5.453125 -2.53125 -5.453125 Z M -2.53125 -5.453125 "/>
</g>
<g id="glyph-4-0-f27aafba">
<path d="M 0 -3.5625 C 0.0625 -3.15625 0.09375 -2.890625 0.09375 -2.609375 C 0.09375 -1.6875 -0.328125 -1.1875 -1.0625 -1.1875 C -1.0625 -1.1875 -6.390625 -1.1875 -6.390625 -1.1875 C -6.390625 -1.1875 -6.390625 -0.203125 -6.390625 -0.203125 C -6.390625 -0.203125 -7.34375 -0.203125 -7.34375 -0.203125 C -7.34375 -0.203125 -7.34375 -1.1875 -7.34375 -1.1875 C -7.34375 -1.1875 -9.359375 -1.1875 -9.359375 -1.1875 C -9.359375 -1.1875 -9.359375 -2.359375 -9.359375 -2.359375 C -9.359375 -2.359375 -7.34375 -2.359375 -7.34375 -2.359375 C -7.34375 -2.359375 -7.34375 -3.5625 -7.34375 -3.5625 C -7.34375 -3.5625 -6.390625 -3.5625 -6.390625 -3.5625 C -6.390625 -3.5625 -6.390625 -2.359375 -6.390625 -2.359375 C -6.390625 -2.359375 -1.578125 -2.359375 -1.578125 -2.359375 C -1.0625 -2.359375 -0.921875 -2.484375 -0.921875 -3 C -0.921875 -3.21875 -0.9375 -3.40625 -0.984375 -3.5625 C -0.984375 -3.5625 0 -3.5625 0 -3.5625 Z M 0 -3.5625 "/>
</g>
<g id="glyph-4-1-f27aafba">
<path d="M -6.3125 -4.5 C -6.28125 -2.6875 -5.453125 -2.140625 -3.8125 -2.140625 C -3.8125 -2.140625 0 -2.140625 0 -2.140625 C 0 -2.140625 0 -0.984375 0 -0.984375 C 0 -0.984375 -7.34375 -0.984375 -7.34375 -0.984375 C -7.34375 -0.984375 -7.34375 -2.046875 -7.34375 -2.046875 C -7.34375 -2.046875 -6 -2.046875 -6 -2.046875 C -7.09375 -2.71875 -7.546875 -3.296875 -7.546875 -4.046875 C -7.546875 -4.203125 -7.53125 -4.296875 -7.5 -4.5 C -7.5 -4.5 -6.3125 -4.5 -6.3125 -4.5 Z M -6.3125 -4.5 "/>
</g>
<g id="glyph-4-2-f27aafba">
<path d="M -3.75 -7.328125 C -1.375 -7.328125 0.203125 -6.0625 0.203125 -4.125 C 0.203125 -3.109375 -0.203125 -2.359375 -1.046875 -1.8125 C -1.046875 -1.8125 0 -1.8125 0 -1.8125 C 0 -1.8125 0 -0.75 0 -0.75 C 0 -0.75 -10.203125 -0.75 -10.203125 -0.75 C -10.203125 -0.75 -10.203125 -1.921875 -10.203125 -1.921875 C -10.203125 -1.921875 -6.34375 -1.921875 -6.34375 -1.921875 C -7.171875 -2.46875 -7.546875 -3.171875 -7.546875 -4.1875 C -7.546875 -6.125 -6.125 -7.328125 -3.75 -7.328125 Z M -3.6875 -6.109375 C -5.3125 -6.109375 -6.453125 -5.265625 -6.453125 -3.96875 C -6.515625 -2.734375 -5.390625 -1.921875 -3.671875 -1.921875 C -2 -1.921875 -0.875 -2.734375 -0.875 -3.96875 C -0.875 -5.234375 -2.015625 -6.109375 -3.6875 -6.109375 Z M -3.6875 -6.109375 "/>
</g>
<g id="glyph-4-3-f27aafba">
<path d="M -7.015625 -7.15625 C -5.796875 -7.15625 -4.765625 -6.4375 -4.015625 -5.046875 C -4.015625 -5.046875 -3.265625 -3.65625 -3.265625 -3.65625 C -2.546875 -2.4375 -2.03125 -1.984375 -1.21875 -1.859375 C -1.21875 -1.859375 -1.21875 -7.078125 -1.21875 -7.078125 C -1.21875 -7.078125 0 -7.078125 0 -7.078125 C 0 -7.078125 0 -0.46875 0 -0.46875 C -2.1875 -0.59375 -3.125 -1.1875 -4.296875 -3.265625 C -4.296875 -3.265625 -5.03125 -4.546875 -5.03125 -4.546875 C -5.53125 -5.4375 -6.203125 -5.890625 -6.984375 -5.890625 C -8.046875 -5.890625 -8.84375 -5.046875 -8.84375 -3.9375 C -8.84375 -2.71875 -8.140625 -2.03125 -6.484375 -1.9375 C -6.484375 -1.9375 -6.484375 -0.703125 -6.484375 -0.703125 C -8.890625 -0.765625 -9.921875 -1.953125 -9.921875 -3.96875 C -9.921875 -5.859375 -8.6875 -7.15625 -7.015625 -7.15625 Z M -7.015625 -7.15625 "/>
</g>
<g id="glyph-5-0-f27aafba">
<path d="M 0 -6.8125 C 0 -6.8125 0 -5.65625 0 -5.65625 C 0 -5.65625 -5.078125 -5.65625 -5.078125 -5.65625 C -5.96875 -5.65625 -6.53125 -5.0625 -6.53125 -4.140625 C -6.53125 -2.953125 -5.546875 -2.140625 -4.046875 -2.140625 C -4.046875 -2.140625 0 -2.140625 0 -2.140625 C 0 -2.140625 0 -0.984375 0 -0.984375 C 0 -0.984375 -7.34375 -0.984375 -7.34375 -0.984375 C -7.34375 -0.984375 -7.34375 -2.0625 -7.34375 -2.0625 C -7.34375 -2.0625 -6.109375 -2.0625 -6.109375 -2.0625 C -7.125 -2.703125 -7.546875 -3.40625 -7.546875 -4.5 C -7.546875 -5.90625 -6.765625 -6.8125 -5.546875 -6.8125 C -5.546875 -6.8125 0 -6.8125 0 -6.8125 Z M 0 -6.8125 "/>
</g>
<g id="glyph-5-1-f27aafba">
<path d="M -0.03125 -7.484375 C 0.0625 -7.109375 0.09375 -6.9375 0.09375 -6.6875 C 0.09375 -6.125 -0.3125 -5.609375 -0.875 -5.484375 C -0.1875 -4.84375 0.203125 -3.9375 0.203125 -3 C 0.203125 -1.515625 -0.578125 -0.59375 -1.90625 -0.59375 C -2.796875 -0.59375 -3.453125 -1.015625 -3.8125 -1.875 C -3.984375 -2.328125 -4.046875 -2.578125 -4.25 -4.234375 C -4.375 -5.15625 -4.578125 -5.453125 -5.0625 -5.453125 C -5.0625 -5.453125 -5.375 -5.453125 -5.375 -5.453125 C -6.078125 -5.453125 -6.46875 -4.859375 -6.46875 -3.8125 C -6.46875 -2.71875 -6.0625 -2.1875 -5.171875 -2.09375 C -5.171875 -2.09375 -5.171875 -0.90625 -5.171875 -0.90625 C -6.859375 -0.984375 -7.546875 -2.078125 -7.546875 -3.84375 C -7.546875 -5.65625 -6.84375 -6.609375 -5.546875 -6.609375 C -5.546875 -6.609375 -1.453125 -6.609375 -1.453125 -6.609375 C -1.09375 -6.609375 -0.875 -6.828125 -0.875 -7.234375 C -0.875 -7.3125 -0.875 -7.359375 -0.90625 -7.484375 C -0.90625 -7.484375 -0.03125 -7.484375 -0.03125 -7.484375 Z M -2.53125 -5.453125 C -2.53125 -5.453125 -3.625 -5.453125 -3.625 -5.453125 C -3.4375 -5.046875 -3.390625 -4.796875 -3.21875 -3.5625 C -3.03125 -2.328125 -2.703125 -1.8125 -1.9375 -1.8125 C -1.140625 -1.8125 -0.8125 -2.34375 -0.8125 -3.25 C -0.8125 -4.375 -1.484375 -5.453125 -2.53125 -5.453125 Z M -2.53125 -5.453125 "/>
</g>
<g id="glyph-5-2-f27aafba">
</g>
<g id="glyph-6-0-f27aafba">
<path d="M -0.03125 -7.484375 C 0.0625 -7.109375 0.09375 -6.9375 0.09375 -6.6875 C 0.09375 -6.125 -0.3125 -5.609375 -0.875 -5.484375 C -0.1875 -4.84375 0.203125 -3.9375 0.203125 -3 C 0.203125 -1.515625 -0.578125 -0.59375 -1.90625 -0.59375 C -2.796875 -0.59375 -3.453125 -1.015625 -3.8125 -1.875 C -3.984375 -2.328125 -4.046875 -2.578125 -4.25 -4.234375 C -4.375 -5.15625 -4.578125 -5.453125 -5.0625 -5.453125 C -5.0625 -5.453125 -5.375 -5.453125 -5.375 -5.453125 C -6.078125 -5.453125 -6.46875 -4.859375 -6.46875 -3.8125 C -6.46875 -2.71875 -6.0625 -2.1875 -5.171875 -2.09375 C -5.171875 -2.09375 -5.171875 -0.90625 -5.171875 -0.90625 C -6.859375 -0.984375 -7.546875 -2.078125 -7.546875 -3.84375 C -7.546875 -5.65625 -6.84375 -6.609375 -5.546875 -6.609375 C -5.546875 -6.609375 -1.453125 -6.609375 -1.453125 -6.609375 C -1.09375 -6.609375 -0.875 -6.828125 -0.875 -7.234375 C -0.875 -7.3125 -0.875 -7.359375 -0.90625 -7.484375 C -0.90625 -7.484375 -0.03125 -7.484375 -0.03125 -7.484375 Z M -2.53125 -5.453125 C -2.53125 -5.453125 -3.625 -5.453125 -3.625 -5.453125 C -3.4375 -5.046875 -3.390625 -4.796875 -3.21875 -3.5625 C -3.03125 -2.328125 -2.703125 -1.8125 -1.9375 -1.8125 C -1.140625 -1.8125 -0.8125 -2.34375 -0.8125 -3.25 C -0.8125 -4.375 -1.484375 -5.453125 -2.53125 -5.453125 Z M -2.53125 -5.453125 "/>
</g>
<g id="glyph-7-0-f27aafba">
<path d="M 9.59375 -3.484375 C 9.46875 -1.140625 7.765625 0.171875 5.234375 0.171875 C 2.390625 0.171875 0.609375 -1.8125 0.609375 -5.09375 C 0.609375 -8.40625 2.40625 -10.375 5.296875 -10.375 C 7.59375 -10.375 9.359375 -9.09375 9.546875 -6.75 C 9.546875 -6.75 7.546875 -6.75 7.546875 -6.75 C 7.234375 -8.0625 6.5 -8.578125 5.359375 -8.578125 C 3.703125 -8.578125 2.71875 -7.328125 2.71875 -5.0625 C 2.71875 -2.84375 3.671875 -1.59375 5.296875 -1.59375 C 6.59375 -1.59375 7.421875 -2.1875 7.546875 -3.484375 C 7.546875 -3.484375 9.59375 -3.484375 9.59375 -3.484375 Z M 9.59375 -3.484375 "/>
</g>
<g id="glyph-7-1-f27aafba">
<path d="M 8.859375 -7.046875 C 8.859375 -4.96875 7.65625 -3.640625 5.78125 -3.640625 C 5.78125 -3.640625 3.15625 -3.640625 3.15625 -3.640625 C 3.15625 -3.640625 3.15625 0 3.15625 0 C 3.15625 0 1.0625 0 1.0625 0 C 1.0625 0 1.0625 -10.203125 1.0625 -10.203125 C 1.0625 -10.203125 5.578125 -10.203125 5.578125 -10.203125 C 7.703125 -10.203125 8.859375 -9.09375 8.859375 -7.046875 Z M 6.765625 -6.921875 C 6.765625 -7.96875 6.25 -8.453125 5.125 -8.453125 C 5.125 -8.453125 3.15625 -8.453125 3.15625 -8.453125 C 3.15625 -8.453125 3.15625 -5.390625 3.15625 -5.390625 C 3.15625 -5.390625 5.125 -5.390625 5.125 -5.390625 C 6.25 -5.390625 6.765625 -5.875 6.765625 -6.921875 Z M 6.765625 -6.921875 "/>
</g>
<g id="glyph-7-2-f27aafba">
<path d="M 8.109375 0 C 8.109375 0 1.125 0 1.125 0 C 1.125 0 1.125 -10.203125 1.125 -10.203125 C 1.125 -10.203125 3.21875 -10.203125 3.21875 -10.203125 C 3.21875 -10.203125 3.21875 -1.75 3.21875 -1.75 C 3.21875 -1.75 8.109375 -1.75 8.109375 -1.75 C 8.109375 -1.75 8.109375 0 8.109375 0 Z M 8.109375 0 "/>
</g>
<g id="glyph-7-3-f27aafba">
<path d="M 8.859375 -3.0625 C 8.859375 -1 7.3125 0.171875 4.671875 0.171875 C 2.078125 0.171875 0.453125 -1.015625 0.453125 -3.203125 C 0.453125 -3.203125 2.484375 -3.203125 2.484375 -3.203125 C 2.484375 -2.109375 3.359375 -1.515625 4.78125 -1.515625 C 6.0625 -1.515625 6.84375 -1.953125 6.84375 -2.8125 C 6.84375 -3.640625 6.328125 -3.9375 4.921875 -4.21875 C 4.921875 -4.21875 3.5 -4.5 3.5 -4.5 C 1.421875 -4.90625 0.625 -5.640625 0.625 -7.234375 C 0.625 -9.21875 2.046875 -10.375 4.5 -10.375 C 6.984375 -10.375 8.5 -9.25 8.5 -7.09375 C 8.5 -7.09375 6.53125 -7.09375 6.53125 -7.09375 C 6.53125 -8.140625 5.71875 -8.6875 4.390625 -8.6875 C 3.3125 -8.6875 2.625 -8.203125 2.625 -7.4375 C 2.625 -6.6875 3.0625 -6.390625 4.5625 -6.109375 C 4.5625 -6.109375 6.15625 -5.796875 6.15625 -5.796875 C 8.046875 -5.4375 8.859375 -4.671875 8.859375 -3.0625 Z M 8.859375 -3.0625 "/>
</g>
<g id="glyph-7-4-f27aafba">
<path d="M 4.171875 -2.890625 C 4.171875 -2.890625 0.359375 -2.890625 0.359375 -2.890625 C 0.359375 -2.890625 0.359375 -4.78125 0.359375 -4.78125 C 0.359375 -4.78125 4.171875 -4.78125 4.171875 -4.78125 C 4.171875 -4.78125 4.171875 -2.890625 4.171875 -2.890625 Z M 4.171875 -2.890625 "/>
</g>
<g id="glyph-7-5-f27aafba">
<path d="M 9.53125 -5.109375 C 9.53125 -3.53125 9.09375 -2.140625 8.28125 -1.1875 C 7.59375 -0.359375 6.625 0 5.0625 0 C 5.0625 0 1.078125 0 1.078125 0 C 1.078125 0 1.078125 -10.203125 1.078125 -10.203125 C 1.078125 -10.203125 5.0625 -10.203125 5.0625 -10.203125 C 6.640625 -10.203125 7.609375 -9.859375 8.28125 -9.03125 C 9.09375 -8.0625 9.53125 -6.671875 9.53125 -5.109375 Z M 7.4375 -5.09375 C 7.4375 -7.34375 6.65625 -8.453125 5.0625 -8.453125 C 5.0625 -8.453125 3.171875 -8.453125 3.171875 -8.453125 C 3.171875 -8.453125 3.171875 -1.75 3.171875 -1.75 C 3.171875 -1.75 5.0625 -1.75 5.0625 -1.75 C 6.65625 -1.75 7.4375 -2.859375 7.4375 -5.09375 Z M 7.4375 -5.09375 "/>
</g>
<g id="glyph-7-6-f27aafba">
<path d="M 9.84375 0 C 9.84375 0 7.6875 0 7.6875 0 C 7.6875 0 7.015625 -2.0625 7.015625 -2.0625 C 7.015625 -2.0625 3.1875 -2.0625 3.1875 -2.0625 C 3.1875 -2.0625 2.5 0 2.5 0 C 2.5 0 0.359375 0 0.359375 0 C 0.359375 0 3.984375 -10.203125 3.984375 -10.203125 C 3.984375 -10.203125 6.3125 -10.203125 6.3125 -10.203125 C 6.3125 -10.203125 9.84375 0 9.84375 0 Z M 6.4375 -3.8125 C 6.4375 -3.8125 5.109375 -7.796875 5.109375 -7.796875 C 5.109375 -7.796875 3.78125 -3.8125 3.78125 -3.8125 C 3.78125 -3.8125 6.4375 -3.8125 6.4375 -3.8125 Z M 6.4375 -3.8125 "/>
</g>
<g id="glyph-7-7-f27aafba">
</g>
<g id="glyph-7-8-f27aafba">
<path d="M 7.28125 -2.234375 C 7.28125 -0.71875 6.109375 0.125 3.96875 0.125 C 1.6875 0.125 0.46875 -0.734375 0.40625 -2.390625 C 0.40625 -2.390625 2.328125 -2.390625 2.328125 -2.390625 C 2.484375 -1.578125 2.96875 -1.40625 3.859375 -1.40625 C 4.78125 -1.40625 5.3125 -1.59375 5.3125 -2.0625 C 5.3125 -2.265625 5.15625 -2.421875 4.65625 -2.578125 C 4.65625 -2.578125 2.328125 -3.296875 2.328125 -3.296875 C 0.921875 -3.734375 0.671875 -4.234375 0.671875 -5.171875 C 0.671875 -6.71875 1.859375 -7.6875 3.78125 -7.6875 C 5.8125 -7.6875 7.046875 -6.71875 7.0625 -5.125 C 7.0625 -5.125 5.1875 -5.125 5.1875 -5.125 C 5.171875 -5.8125 4.703125 -6.140625 3.765625 -6.140625 C 3.078125 -6.140625 2.625 -5.859375 2.625 -5.453125 C 2.625 -5.140625 2.765625 -5.015625 3.3125 -4.859375 C 3.3125 -4.859375 5.796875 -4.140625 5.796875 -4.140625 C 6.796875 -3.84375 7.28125 -3.203125 7.28125 -2.34375 C 7.28125 -2.34375 7.28125 -2.234375 7.28125 -2.234375 Z M 7.28125 -2.234375 "/>
</g>
<g id="glyph-7-9-f27aafba">
<path d="M 7.3125 -2.625 C 7.125 -1.015625 5.859375 0.125 4.015625 0.125 C 1.78125 0.125 0.46875 -1.234375 0.46875 -3.71875 C 0.46875 -6.296875 1.796875 -7.6875 4.046875 -7.6875 C 5.9375 -7.6875 7.171875 -6.578125 7.3125 -4.734375 C 7.3125 -4.734375 5.4375 -4.734375 5.4375 -4.734375 C 5.203125 -5.71875 4.828125 -6.109375 4.03125 -6.109375 C 2.796875 -6.109375 2.4375 -5.109375 2.4375 -3.71875 C 2.4375 -2.25 3.03125 -1.453125 4.03125 -1.453125 C 4.78125 -1.453125 5.1875 -1.828125 5.4375 -2.625 C 5.4375 -2.625 7.3125 -2.625 7.3125 -2.625 Z M 7.3125 -2.625 "/>
</g>
<g id="glyph-7-10-f27aafba">
<path d="M 7.96875 -3.71875 C 7.96875 -1.296875 6.53125 0.125 4.234375 0.125 C 1.90625 0.125 0.484375 -1.28125 0.484375 -3.78125 C 0.484375 -6.265625 1.90625 -7.6875 4.21875 -7.6875 C 6.578125 -7.6875 7.96875 -6.28125 7.96875 -3.71875 Z M 6 -3.75 C 6 -5.234375 5.3125 -6.109375 4.234375 -6.109375 C 3.15625 -6.109375 2.453125 -5.21875 2.453125 -3.78125 C 2.453125 -2.34375 3.15625 -1.453125 4.234375 -1.453125 C 5.28125 -1.453125 6 -2.34375 6 -3.75 Z M 6 -3.75 "/>
</g>
<g id="glyph-7-11-f27aafba">
<path d="M 5.1875 -5.6875 C 4.90625 -5.71875 4.78125 -5.734375 4.5625 -5.734375 C 3.421875 -5.734375 2.84375 -5.171875 2.84375 -4.015625 C 2.84375 -4.015625 2.84375 0 2.84375 0 C 2.84375 0 0.875 0 0.875 0 C 0.875 0 0.875 -7.5625 0.875 -7.5625 C 0.875 -7.5625 2.84375 -7.5625 2.84375 -7.5625 C 2.84375 -7.5625 2.84375 -6.078125 2.84375 -6.078125 C 3.265625 -7.09375 4.046875 -7.6875 4.9375 -7.6875 C 5 -7.6875 5.0625 -7.6875 5.1875 -7.671875 C 5.1875 -7.671875 5.1875 -5.6875 5.1875 -5.6875 Z M 5.1875 -5.6875 "/>
</g>
<g id="glyph-7-12-f27aafba">
<path d="M 7.34375 -3.5 C 7.34375 -3.5 7.34375 -3.265625 7.34375 -3.265625 C 7.34375 -3.265625 2.265625 -3.265625 2.265625 -3.265625 C 2.328125 -1.796875 2.90625 -1.375 3.84375 -1.375 C 4.546875 -1.375 5.171875 -1.578125 5.328125 -2.125 C 5.328125 -2.125 7.265625 -2.125 7.265625 -2.125 C 6.828125 -0.640625 5.453125 0.125 3.765625 0.125 C 1.625 0.125 0.3125 -1.265625 0.3125 -3.6875 C 0.3125 -6.21875 1.640625 -7.6875 3.8125 -7.6875 C 6.03125 -7.6875 7.34375 -6.109375 7.34375 -3.5 Z M 5.3125 -4.5625 C 5.203125 -5.640625 4.625 -6.1875 3.78125 -6.1875 C 2.90625 -6.1875 2.421875 -5.609375 2.296875 -4.5625 C 2.296875 -4.5625 5.3125 -4.5625 5.3125 -4.5625 Z M 5.3125 -4.5625 "/>
</g>
<g id="glyph-8-0-f27aafba">
<path d="M 10.640625 0 C 10.640625 0 9.484375 0 9.484375 0 C 9.484375 0 9.484375 -5.046875 9.484375 -5.046875 C 9.484375 -5.984375 8.984375 -6.53125 8.140625 -6.53125 C 7.1875 -6.53125 6.390625 -5.671875 6.390625 -4.609375 C 6.390625 -4.609375 6.390625 0 6.390625 0 C 6.390625 0 5.234375 0 5.234375 0 C 5.234375 0 5.234375 -5.046875 5.234375 -5.046875 C 5.234375 -5.984375 4.75 -6.53125 3.875 -6.53125 C 2.921875 -6.53125 2.15625 -5.671875 2.15625 -4.609375 C 2.15625 -4.609375 2.15625 0 2.15625 0 C 2.15625 0 1 0 1 0 C 1 0 1 -7.34375 1 -7.34375 C 1 -7.34375 2.0625 -7.34375 2.0625 -7.34375 C 2.0625 -7.34375 2.0625 -6.296875 2.0625 -6.296875 C 2.6875 -7.1875 3.328125 -7.546875 4.3125 -7.546875 C 5.265625 -7.546875 5.859375 -7.203125 6.28125 -6.421875 C 6.96875 -7.25 7.5625 -7.546875 8.546875 -7.546875 C 9.90625 -7.546875 10.640625 -6.8125 10.640625 -5.5 C 10.640625 -5.5 10.640625 0 10.640625 0 Z M 10.640625 0 "/>
</g>
<g id="glyph-8-1-f27aafba">
<path d="M 7.484375 -0.03125 C 7.109375 0.0625 6.9375 0.09375 6.6875 0.09375 C 6.125 0.09375 5.609375 -0.3125 5.484375 -0.875 C 4.84375 -0.1875 3.9375 0.203125 3 0.203125 C 1.515625 0.203125 0.59375 -0.578125 0.59375 -1.90625 C 0.59375 -2.796875 1.015625 -3.453125 1.875 -3.8125 C 2.328125 -3.984375 2.578125 -4.046875 4.234375 -4.25 C 5.15625 -4.375 5.453125 -4.578125 5.453125 -5.0625 C 5.453125 -5.0625 5.453125 -5.375 5.453125 -5.375 C 5.453125 -6.078125 4.859375 -6.46875 3.8125 -6.46875 C 2.71875 -6.46875 2.1875 -6.0625 2.09375 -5.171875 C 2.09375 -5.171875 0.90625 -5.171875 0.90625 -5.171875 C 0.984375 -6.859375 2.078125 -7.546875 3.84375 -7.546875 C 5.65625 -7.546875 6.609375 -6.84375 6.609375 -5.546875 C 6.609375 -5.546875 6.609375 -1.453125 6.609375 -1.453125 C 6.609375 -1.09375 6.828125 -0.875 7.234375 -0.875 C 7.3125 -0.875 7.359375 -0.875 7.484375 -0.90625 C 7.484375 -0.90625 7.484375 -0.03125 7.484375 -0.03125 Z M 5.453125 -2.53125 C 5.453125 -2.53125 5.453125 -3.625 5.453125 -3.625 C 5.046875 -3.4375 4.796875 -3.390625 3.5625 -3.21875 C 2.328125 -3.03125 1.8125 -2.703125 1.8125 -1.9375 C 1.8125 -1.140625 2.34375 -0.8125 3.25 -0.8125 C 4.375 -0.8125 5.453125 -1.484375 5.453125 -2.53125 Z M 5.453125 -2.53125 "/>
</g>
<g id="glyph-8-2-f27aafba">
<path d="M 2.140625 1.53125 C 2.140625 2.515625 1.453125 3.046875 0.140625 3.046875 C -0.046875 3.046875 -0.109375 3.03125 -0.25 3.015625 C -0.25 3.015625 -0.25 2.015625 -0.25 2.015625 C -0.25 2.015625 0.03125 2.03125 0.03125 2.03125 C 0.734375 2.078125 0.984375 1.765625 0.984375 1.0625 C 0.984375 1.0625 0.984375 -7.34375 0.984375 -7.34375 C 0.984375 -7.34375 2.140625 -7.34375 2.140625 -7.34375 C 2.140625 -7.34375 2.140625 1.53125 2.140625 1.53125 Z M 2.296875 -8.4375 C 2.296875 -8.4375 0.84375 -8.4375 0.84375 -8.4375 C 0.84375 -8.4375 0.84375 -9.890625 0.84375 -9.890625 C 0.84375 -9.890625 2.296875 -9.890625 2.296875 -9.890625 C 2.296875 -9.890625 2.296875 -8.4375 2.296875 -8.4375 Z M 2.296875 -8.4375 "/>
</g>
<g id="glyph-8-3-f27aafba">
<path d="M 7.140625 -3.609375 C 7.140625 -1.203125 5.875 0.203125 3.828125 0.203125 C 1.734375 0.203125 0.5 -1.203125 0.5 -3.671875 C 0.5 -6.125 1.75 -7.546875 3.8125 -7.546875 C 5.921875 -7.546875 7.140625 -6.140625 7.140625 -3.609375 Z M 5.921875 -3.625 C 5.921875 -5.453125 5.140625 -6.46875 3.828125 -6.46875 C 2.515625 -6.46875 1.71875 -5.4375 1.71875 -3.671875 C 1.71875 -1.890625 2.515625 -0.875 3.828125 -0.875 C 5.109375 -0.875 5.921875 -1.90625 5.921875 -3.625 Z M 5.921875 -3.625 "/>
</g>
<g id="glyph-8-4-f27aafba">
<path d="M 4.5 -6.3125 C 2.6875 -6.28125 2.140625 -5.453125 2.140625 -3.8125 C 2.140625 -3.8125 2.140625 0 2.140625 0 C 2.140625 0 0.984375 0 0.984375 0 C 0.984375 0 0.984375 -7.34375 0.984375 -7.34375 C 0.984375 -7.34375 2.046875 -7.34375 2.046875 -7.34375 C 2.046875 -7.34375 2.046875 -6 2.046875 -6 C 2.71875 -7.09375 3.296875 -7.546875 4.046875 -7.546875 C 4.203125 -7.546875 4.296875 -7.53125 4.5 -7.5 C 4.5 -7.5 4.5 -6.3125 4.5 -6.3125 Z M 4.5 -6.3125 "/>
</g>
</g>
</defs>
<rect x="-90" y="-60" width="1080" height="720" fill="rgb(100%, 100%, 100%)" fill-opacity="1"/>
<path fill-rule="nonzero" fill="rgb(100%, 100%, 100%)" fill-opacity="1" d="M 62 541 L 884 541 L 884 36 L 62 36 Z M 62 541 "/>
<path fill="none" stroke-width="1" stroke-linecap="butt" stroke-linejoin="miter" stroke="rgb(0%, 0%, 0%)" stroke-opacity="0.12" stroke-miterlimit="1.154701" d="M 333.054688 541 L 333.054688 36 "/>
<path fill="none" stroke-width="1" stroke-linecap="butt" stroke-linejoin="miter" stroke="rgb(0%, 0%, 0%)" stroke-opacity="0.12" stroke-miterlimit="1.154701" d="M 605.449219 541 L 605.449219 36 "/>
<path fill="none" stroke-width="1" stroke-linecap="butt" stroke-linejoin="miter" stroke="rgb(0%, 0%, 0%)" stroke-opacity="0.12" stroke-miterlimit="1.154701" d="M 877.839844 541 L 877.839844 36 "/>
<path fill="none" stroke-width="1" stroke-linecap="butt" stroke-linejoin="miter" stroke="rgb(0%, 0%, 0%)" stroke-opacity="0.12" stroke-miterlimit="1.154701" d="M 62 480.585938 L 884 480.585938 "/>
<path fill="none" stroke-width="1" stroke-linecap="butt" stroke-linejoin="miter" stroke="rgb(0%, 0%, 0%)" stroke-opacity="0.12" stroke-miterlimit="1.154701" d="M 62 378.882812 L 884 378.882812 "/>
<path fill="none" stroke-width="1" stroke-linecap="butt" stroke-linejoin="miter" stroke="rgb(0%, 0%, 0%)" stroke-opacity="0.12" stroke-miterlimit="1.154701" d="M 62 277.183594 L 884 277.183594 "/>
<path fill="none" stroke-width="1" stroke-linecap="butt" stroke-linejoin="miter" stroke="rgb(0%, 0%, 0%)" stroke-opacity="0.12" stroke-miterlimit="1.154701" d="M 62 175.480469 L 884 175.480469 "/>
<path fill="none" stroke-width="1" stroke-linecap="butt" stroke-linejoin="miter" stroke="rgb(0%, 0%, 0%)" stroke-opacity="0.12" stroke-miterlimit="1.154701" d="M 62 73.777344 L 884 73.777344 "/>
<g fill="rgb(0%, 0%, 0%)" fill-opacity="1">
<use xlink:href="#glyph-0-0-f27aafba" x="420.080016" y="581.567999"/>
</g>
<g fill="rgb(0%, 0%, 0%)" fill-opacity="1">
<use xlink:href="#glyph-0-1-f27aafba" x="427.864016" y="581.567999"/>
</g>
<g fill="rgb(0%, 0%, 0%)" fill-opacity="1">
<use xlink:href="#glyph-0-2-f27aafba" x="435.648017" y="581.567999"/>
</g>
<g fill="rgb(0%, 0%, 0%)" fill-opacity="1">
<use xlink:href="#glyph-0-3-f27aafba" x="439.540015" y="581.567999"/>
</g>
<g fill="rgb(0%, 0%, 0%)" fill-opacity="1">
<use xlink:href="#glyph-0-4-f27aafba" x="447.324016" y="581.567999"/>
</g>
<g fill="rgb(0%, 0%, 0%)" fill-opacity="1">
<use xlink:href="#glyph-0-2-f27aafba" x="455.108017" y="581.567999"/>
</g>
<g fill="rgb(0%, 0%, 0%)" fill-opacity="1">
<use xlink:href="#glyph-0-5-f27aafba" x="462.892013" y="581.567999"/>
</g>
<g fill="rgb(0%, 0%, 0%)" fill-opacity="1">
<use xlink:href="#glyph-0-1-f27aafba" x="472.230015" y="581.567999"/>
</g>
<g fill="rgb(0%, 0%, 0%)" fill-opacity="1">
<use xlink:href="#glyph-0-6-f27aafba" x="480.014015" y="581.567999"/>
</g>
<g fill="rgb(0%, 0%, 0%)" fill-opacity="1">
<use xlink:href="#glyph-0-7-f27aafba" x="484.676018" y="581.567999"/>
</g>
<g fill="rgb(0%, 0%, 0%)" fill-opacity="1">
<use xlink:href="#glyph-0-1-f27aafba" x="487.78402" y="581.567999"/>
</g>
<g fill="rgb(0%, 0%, 0%)" fill-opacity="1">
<use xlink:href="#glyph-0-8-f27aafba" x="495.568017" y="581.567999"/>
</g>
<g fill="rgb(0%, 0%, 0%)" fill-opacity="1">
<use xlink:href="#glyph-1-0-f27aafba" x="503.352013" y="581.567999"/>
</g>
<g fill="rgb(0%, 0%, 0%)" fill-opacity="1">
<use xlink:href="#glyph-0-3-f27aafba" x="506.460015" y="581.567999"/>
</g>
<g fill="rgb(0%, 0%, 0%)" fill-opacity="1">
<use xlink:href="#glyph-0-9-f27aafba" x="514.244012" y="581.567999"/>
</g>
<g fill="rgb(0%, 0%, 0%)" fill-opacity="1">
<use xlink:href="#glyph-0-10-f27aafba" x="518.13601" y="581.567999"/>
</g>
<g fill="rgb(0%, 0%, 0%)" fill-opacity="1">
<use xlink:href="#glyph-0-11-f27aafba" x="329.163855" y="562.257999"/>
</g>
<g fill="rgb(0%, 0%, 0%)" fill-opacity="1">
<use xlink:href="#glyph-0-12-f27aafba" x="601.555402" y="562.257999"/>
</g>
<g fill="rgb(0%, 0%, 0%)" fill-opacity="1">
<use xlink:href="#glyph-0-13-f27aafba" x="873.946949" y="562.257999"/>
</g>
<g fill="rgb(0%, 0%, 0%)" fill-opacity="1">
<use xlink:href="#glyph-2-0-f27aafba" x="27.987999" y="341.419984"/>
</g>
<g fill="rgb(0%, 0%, 0%)" fill-opacity="1">
<use xlink:href="#glyph-3-0-f27aafba" x="27.987999" y="333.635984"/>
</g>
<g fill="rgb(0%, 0%, 0%)" fill-opacity="1">
<use xlink:href="#glyph-4-0-f27aafba" x="27.988" y="325.851983"/>
</g>
<g fill="rgb(0%, 0%, 0%)" fill-opacity="1">
<use xlink:href="#glyph-2-1-f27aafba" x="27.988" y="321.959985"/>
</g>
<g fill="rgb(0%, 0%, 0%)" fill-opacity="1">
<use xlink:href="#glyph-5-0-f27aafba" x="27.988" y="314.175986"/>
</g>
<g fill="rgb(0%, 0%, 0%)" fill-opacity="1">
<use xlink:href="#glyph-4-0-f27aafba" x="27.988001" y="306.391985"/>
</g>
<g fill="rgb(0%, 0%, 0%)" fill-opacity="1">
<use xlink:href="#glyph-2-2-f27aafba" x="27.988001" y="302.499988"/>
</g>
<g fill="rgb(0%, 0%, 0%)" fill-opacity="1">
<use xlink:href="#glyph-2-3-f27aafba" x="27.988001" y="298.60799"/>
</g>
<g fill="rgb(0%, 0%, 0%)" fill-opacity="1">
<use xlink:href="#glyph-6-0-f27aafba" x="27.988002" y="289.269989"/>
</g>
<g fill="rgb(0%, 0%, 0%)" fill-opacity="1">
<use xlink:href="#glyph-4-1-f27aafba" x="27.988002" y="281.485989"/>
</g>
<g fill="rgb(0%, 0%, 0%)" fill-opacity="1">
<use xlink:href="#glyph-2-4-f27aafba" x="27.988003" y="276.823987"/>
</g>
<g fill="rgb(0%, 0%, 0%)" fill-opacity="1">
<use xlink:href="#glyph-5-1-f27aafba" x="27.988003" y="273.715985"/>
</g>
<g fill="rgb(0%, 0%, 0%)" fill-opacity="1">
<use xlink:href="#glyph-4-2-f27aafba" x="27.988003" y="265.931989"/>
</g>
<g fill="rgb(0%, 0%, 0%)" fill-opacity="1">
<use xlink:href="#glyph-2-5-f27aafba" x="27.988004" y="258.147992"/>
</g>
<g fill="rgb(0%, 0%, 0%)" fill-opacity="1">
<use xlink:href="#glyph-2-1-f27aafba" x="27.988004" y="255.039993"/>
</g>
<g fill="rgb(0%, 0%, 0%)" fill-opacity="1">
<use xlink:href="#glyph-5-2-f27aafba" x="27.988004" y="247.255996"/>
</g>
<g fill="rgb(0%, 0%, 0%)" fill-opacity="1">
<use xlink:href="#glyph-4-3-f27aafba" x="27.988004" y="243.363997"/>
</g>
<g fill="rgb(0%, 0%, 0%)" fill-opacity="1">
<use xlink:href="#glyph-0-14-f27aafba" x="36.040002" y="485.690362"/>
</g>
<g fill="rgb(0%, 0%, 0%)" fill-opacity="1">
<use xlink:href="#glyph-0-12-f27aafba" x="44.216002" y="485.690362"/>
</g>
<g fill="rgb(0%, 0%, 0%)" fill-opacity="1">
<use xlink:href="#glyph-0-14-f27aafba" x="36.040002" y="383.987516"/>
</g>
<g fill="rgb(0%, 0%, 0%)" fill-opacity="1">
<use xlink:href="#glyph-0-10-f27aafba" x="44.216002" y="383.987516"/>
</g>
<g fill="rgb(0%, 0%, 0%)" fill-opacity="1">
<use xlink:href="#glyph-0-11-f27aafba" x="44.216001" y="282.284664"/>
</g>
<g fill="rgb(0%, 0%, 0%)" fill-opacity="1">
<use xlink:href="#glyph-0-10-f27aafba" x="44.216001" y="180.581811"/>
</g>
<g fill="rgb(0%, 0%, 0%)" fill-opacity="1">
<use xlink:href="#glyph-0-12-f27aafba" x="44.216001" y="78.878927"/>
</g>
<g fill="rgb(0%, 0%, 0%)" fill-opacity="1">
<use xlink:href="#glyph-7-0-f27aafba" x="412.709017" y="28.947986"/>
</g>
<g fill="rgb(0%, 0%, 0%)" fill-opacity="1">
<use xlink:href="#glyph-7-1-f27aafba" x="422.817019" y="28.947986"/>
</g>
<g fill="rgb(0%, 0%, 0%)" fill-opacity="1">
<use xlink:href="#glyph-7-1-f27aafba" x="432.155017" y="28.947986"/>
</g>
<g fill="rgb(0%, 0%, 0%)" fill-opacity="1">
<use xlink:href="#glyph-7-2-f27aafba" x="441.493018" y="28.947986"/>
</g>
<g fill="rgb(0%, 0%, 0%)" fill-opacity="1">
<use xlink:href="#glyph-7-3-f27aafba" x="450.047019" y="28.947986"/>
</g>
<g fill="rgb(0%, 0%, 0%)" fill-opacity="1">
<use xlink:href="#glyph-7-4-f27aafba" x="459.385021" y="28.947986"/>
</g>
<g fill="rgb(0%, 0%, 0%)" fill-opacity="1">
<use xlink:href="#glyph-7-5-f27aafba" x="464.04702" y="28.947986"/>
</g>
<g fill="rgb(0%, 0%, 0%)" fill-opacity="1">
<use xlink:href="#glyph-7-6-f27aafba" x="474.155018" y="28.947986"/>
</g>
<g fill="rgb(0%, 0%, 0%)" fill-opacity="1">
<use xlink:href="#glyph-7-7-f27aafba" x="484.26302" y="28.947986"/>
</g>
<g fill="rgb(0%, 0%, 0%)" fill-opacity="1">
<use xlink:href="#glyph-7-8-f27aafba" x="488.155018" y="28.947986"/>
</g>
<g fill="rgb(0%, 0%, 0%)" fill-opacity="1">
<use xlink:href="#glyph-7-9-f27aafba" x="495.939015" y="28.947986"/>
</g>
<g fill="rgb(0%, 0%, 0%)" fill-opacity="1">
<use xlink:href="#glyph-7-10-f27aafba" x="503.723012" y="28.947986"/>
</g>
<g fill="rgb(0%, 0%, 0%)" fill-opacity="1">
<use xlink:href="#glyph-7-11-f27aafba" x="512.277013" y="28.947986"/>
</g>
<g fill="rgb(0%, 0%, 0%)" fill-opacity="1">
<use xlink:href="#glyph-7-12-f27aafba" x="517.723012" y="28.947986"/>
</g>
<g fill="rgb(0%, 0%, 0%)" fill-opacity="1">
<use xlink:href="#glyph-7-8-f27aafba" x="525.507009" y="28.947986"/>
</g>
<path fill-rule="nonzero" fill="rgb(0%, 44.705883%, 69.803923%)" fill-opacity="1" d="M 638.246094 213.046875 C 638.246094 206.464844 628.378906 206.464844 628.378906 213.046875 C 628.378906 219.625 638.246094 219.625 638.246094 213.046875 Z M 638.246094 213.046875 "/>
<path fill-rule="nonzero" fill="rgb(0%, 44.705883%, 69.803923%)" fill-opacity="1" d="M 542.058594 369.964844 C 542.058594 363.386719 532.1875 363.386719 532.1875 369.964844 C 532.1875 376.546875 542.058594 376.546875 542.058594 369.964844 Z M 542.058594 369.964844 "/>
<path fill-rule="nonzero" fill="rgb(0%, 44.705883%, 69.803923%)" fill-opacity="1" d="M 509.273438 435.046875 C 509.273438 428.464844 499.402344 428.464844 499.402344 435.046875 C 499.402344 441.625 509.273438 441.625 509.273438 435.046875 Z M 509.273438 435.046875 "/>
<path fill-rule="nonzero" fill="rgb(0%, 44.705883%, 69.803923%)" fill-opacity="1" d="M 456.089844 367.871094 C 456.089844 361.289062 446.222656 361.289062 446.222656 367.871094 C 446.222656 374.449219 456.089844 374.449219 456.089844 367.871094 Z M 456.089844 367.871094 "/>
<path fill-rule="nonzero" fill="rgb(0%, 44.705883%, 69.803923%)" fill-opacity="1" d="M 553.523438 312.035156 C 553.523438 305.453125 543.65625 305.453125 543.65625 312.035156 C 543.65625 318.613281 553.523438 318.613281 553.523438 312.035156 Z M 553.523438 312.035156 "/>
<path fill-rule="nonzero" fill="rgb(0%, 44.705883%, 69.803923%)" fill-opacity="1" d="M 479.476562 294.9375 C 479.476562 288.359375 469.609375 288.359375 469.609375 294.9375 C 469.609375 301.519531 479.476562 301.519531 479.476562 294.9375 Z M 479.476562 294.9375 "/>
<path fill-rule="nonzero" fill="rgb(0%, 44.705883%, 69.803923%)" fill-opacity="1" d="M 630.8125 168.496094 C 630.8125 161.914062 620.941406 161.914062 620.941406 168.496094 C 620.941406 175.074219 630.8125 175.074219 630.8125 168.496094 Z M 630.8125 168.496094 "/>
<path fill-rule="nonzero" fill="rgb(0%, 44.705883%, 69.803923%)" fill-opacity="1" d="M 500.871094 279.96875 C 500.871094 273.390625 491 273.390625 491 279.96875 C 491 286.550781 500.871094 286.550781 500.871094 279.96875 Z M 500.871094 279.96875 "/>
<path fill-rule="nonzero" fill="rgb(0%, 44.705883%, 69.803923%)" fill-opacity="1" d="M 552.292969 162.828125 C 552.292969 156.246094 542.425781 156.246094 542.425781 162.828125 C 542.425781 169.40625 552.292969 169.40625 552.292969 162.828125 Z M 552.292969 162.828125 "/>
<path fill-rule="nonzero" fill="rgb(0%, 44.705883%, 69.803923%)" fill-opacity="1" d="M 368.628906 283.21875 C 368.628906 276.636719 358.757812 276.636719 358.757812 283.21875 C 358.757812 289.796875 368.628906 289.796875 368.628906 283.21875 Z M 368.628906 283.21875 "/>
<path fill-rule="nonzero" fill="rgb(0%, 44.705883%, 69.803923%)" fill-opacity="1" d="M 550.5 249.558594 C 550.5 242.976562 540.628906 242.976562 540.628906 249.558594 C 540.628906 256.136719 550.5 256.136719 550.5 249.558594 Z M 550.5 249.558594 "/>
<path fill-rule="nonzero" fill="rgb(0%, 44.705883%, 69.803923%)" fill-opacity="1" d="M 476.363281 309.1875 C 476.363281 302.605469 466.492188 302.605469 466.492188 309.1875 C 466.492188 315.765625 476.363281 315.765625 476.363281 309.1875 Z M 476.363281 309.1875 "/>
<path fill-rule="nonzero" fill="rgb(0%, 44.705883%, 69.803923%)" fill-opacity="1" d="M 388.683594 364.839844 C 388.683594 358.261719 378.8125 358.261719 378.8125 364.839844 C 378.8125 371.421875 388.683594 371.421875 388.683594 364.839844 Z M 388.683594 364.839844 "/>
<path fill-rule="nonzero" fill="rgb(0%, 44.705883%, 69.803923%)" fill-opacity="1" d="M 851.570312 327.921875 C 851.570312 321.34375 841.703125 321.34375 841.703125 327.921875 C 841.703125 334.503906 851.570312 334.503906 851.570312 327.921875 Z M 851.570312 327.921875 "/>
<path fill-rule="nonzero" fill="rgb(0%, 44.705883%, 69.803923%)" fill-opacity="1" d="M 347.804688 456.492188 C 347.804688 449.910156 337.933594 449.910156 337.933594 456.492188 C 337.933594 463.070312 347.804688 463.070312 347.804688 456.492188 Z M 347.804688 456.492188 "/>
<path fill-rule="nonzero" fill="rgb(0%, 44.705883%, 69.803923%)" fill-opacity="1" d="M 544.925781 255.703125 C 544.925781 249.121094 535.058594 249.121094 535.058594 255.703125 C 535.058594 262.28125 544.925781 262.28125 544.925781 255.703125 Z M 544.925781 255.703125 "/>
<path fill-rule="nonzero" fill="rgb(0%, 44.705883%, 69.803923%)" fill-opacity="1" d="M 493.125 262.167969 C 493.125 255.589844 483.253906 255.589844 483.253906 262.167969 C 483.253906 268.75 493.125 268.75 493.125 262.167969 Z M 493.125 262.167969 "/>
<path fill-rule="nonzero" fill="rgb(0%, 44.705883%, 69.803923%)" fill-opacity="1" d="M 325.894531 321.523438 C 325.894531 314.941406 316.027344 314.941406 316.027344 321.523438 C 316.027344 328.101562 325.894531 328.101562 325.894531 321.523438 Z M 325.894531 321.523438 "/>
<path fill-rule="nonzero" fill="rgb(0%, 44.705883%, 69.803923%)" fill-opacity="1" d="M 740.210938 241.15625 C 740.210938 234.578125 730.339844 234.578125 730.339844 241.15625 C 730.339844 247.738281 740.210938 247.738281 740.210938 241.15625 Z M 740.210938 241.15625 "/>
<path fill-rule="nonzero" fill="rgb(0%, 44.705883%, 69.803923%)" fill-opacity="1" d="M 632.183594 383.214844 C 632.183594 376.632812 622.316406 376.632812 622.316406 383.214844 C 622.316406 389.792969 632.183594 389.792969 632.183594 383.214844 Z M 632.183594 383.214844 "/>
<path fill-rule="nonzero" fill="rgb(0%, 44.705883%, 69.803923%)" fill-opacity="1" d="M 500.425781 379.488281 C 500.425781 372.910156 490.554688 372.910156 490.554688 379.488281 C 490.554688 386.070312 500.425781 386.070312 500.425781 379.488281 Z M 500.425781 379.488281 "/>
<path fill-rule="nonzero" fill="rgb(0%, 44.705883%, 69.803923%)" fill-opacity="1" d="M 592.175781 265.804688 C 592.175781 259.226562 582.308594 259.226562 582.308594 265.804688 C 582.308594 272.386719 592.175781 272.386719 592.175781 265.804688 Z M 592.175781 265.804688 "/>
<path fill-rule="nonzero" fill="rgb(0%, 44.705883%, 69.803923%)" fill-opacity="1" d="M 704.746094 281.847656 C 704.746094 275.265625 694.878906 275.265625 694.878906 281.847656 C 694.878906 288.425781 704.746094 288.425781 704.746094 281.847656 Z M 704.746094 281.847656 "/>
<path fill-rule="nonzero" fill="rgb(0%, 44.705883%, 69.803923%)" fill-opacity="1" d="M 527.238281 518.046875 C 527.238281 511.464844 517.367188 511.464844 517.367188 518.046875 C 517.367188 524.625 527.238281 524.625 527.238281 518.046875 Z M 527.238281 518.046875 "/>
<path fill-rule="nonzero" fill="rgb(0%, 44.705883%, 69.803923%)" fill-opacity="1" d="M 442.300781 326.65625 C 442.300781 320.078125 432.433594 320.078125 432.433594 326.65625 C 432.433594 333.238281 442.300781 333.238281 442.300781 326.65625 Z M 442.300781 326.65625 "/>
<path fill-rule="nonzero" fill="rgb(0%, 44.705883%, 69.803923%)" fill-opacity="1" d="M 592.5625 90.578125 C 592.5625 84 582.691406 84 582.691406 90.578125 C 582.691406 97.160156 592.5625 97.160156 592.5625 90.578125 Z M 592.5625 90.578125 "/>
<path fill-rule="nonzero" fill="rgb(0%, 44.705883%, 69.803923%)" fill-opacity="1" d="M 608.957031 406.136719 C 608.957031 399.554688 599.085938 399.554688 599.085938 406.136719 C 599.085938 412.714844 608.957031 412.714844 608.957031 406.136719 Z M 608.957031 406.136719 "/>
<path fill-rule="nonzero" fill="rgb(0%, 44.705883%, 69.803923%)" fill-opacity="1" d="M 568.566406 258.957031 C 568.566406 252.375 558.695312 252.375 558.695312 258.957031 C 558.695312 265.535156 568.566406 265.535156 568.566406 258.957031 Z M 568.566406 258.957031 "/>
<path fill-rule="nonzero" fill="rgb(0%, 44.705883%, 69.803923%)" fill-opacity="1" d="M 408.371094 387.398438 C 408.371094 380.820312 398.5 380.820312 398.5 387.398438 C 398.5 393.980469 408.371094 393.980469 408.371094 387.398438 Z M 408.371094 387.398438 "/>
<path fill-rule="nonzero" fill="rgb(0%, 44.705883%, 69.803923%)" fill-opacity="1" d="M 677.332031 174.96875 C 677.332031 168.386719 667.464844 168.386719 667.464844 174.96875 C 667.464844 181.546875 677.332031 181.546875 677.332031 174.96875 Z M 677.332031 174.96875 "/>
<path fill-rule="nonzero" fill="rgb(0%, 44.705883%, 69.803923%)" fill-opacity="1" d="M 409.863281 358.441406 C 409.863281 351.859375 399.996094 351.859375 399.996094 358.441406 C 399.996094 365.019531 409.863281 365.019531 409.863281 358.441406 Z M 409.863281 358.441406 "/>
<path fill-rule="nonzero" fill="rgb(0%, 44.705883%, 69.803923%)" fill-opacity="1" d="M 457.644531 378.859375 C 457.644531 372.28125 447.777344 372.28125 447.777344 378.859375 C 447.777344 385.441406 457.644531 385.441406 457.644531 378.859375 Z M 457.644531 378.859375 "/>
<path fill-rule="nonzero" fill="rgb(0%, 44.705883%, 69.803923%)" fill-opacity="1" d="M 579.847656 329.015625 C 579.847656 322.4375 569.980469 322.4375 569.980469 329.015625 C 569.980469 335.597656 579.847656 335.597656 579.847656 329.015625 Z M 579.847656 329.015625 "/>
<path fill-rule="nonzero" fill="rgb(0%, 44.705883%, 69.803923%)" fill-opacity="1" d="M 562.683594 310.664062 C 562.683594 304.082031 552.8125 304.082031 552.8125 310.664062 C 552.8125 317.242188 562.683594 317.242188 562.683594 310.664062 Z M 562.683594 310.664062 "/>
<path fill-rule="nonzero" fill="rgb(0%, 44.705883%, 69.803923%)" fill-opacity="1" d="M 662.761719 197.574219 C 662.761719 190.996094 652.894531 190.996094 652.894531 197.574219 C 652.894531 204.15625 662.761719 204.15625 662.761719 197.574219 Z M 662.761719 197.574219 "/>
<path fill-rule="nonzero" fill="rgb(0%, 44.705883%, 69.803923%)" fill-opacity="1" d="M 420.054688 247.753906 C 420.054688 241.171875 410.1875 241.171875 410.1875 247.753906 C 410.1875 254.332031 420.054688 254.332031 420.054688 247.753906 Z M 420.054688 247.753906 "/>
<path fill-rule="nonzero" fill="rgb(0%, 44.705883%, 69.803923%)" fill-opacity="1" d="M 421.859375 403.164062 C 421.859375 396.585938 411.992188 396.585938 411.992188 403.164062 C 411.992188 409.746094 421.859375 409.746094 421.859375 403.164062 Z M 421.859375 403.164062 "/>
<path fill-rule="nonzero" fill="rgb(0%, 44.705883%, 69.803923%)" fill-opacity="1" d="M 536.449219 175.179688 C 536.449219 168.597656 526.578125 168.597656 526.578125 175.179688 C 526.578125 181.757812 536.449219 181.757812 536.449219 175.179688 Z M 536.449219 175.179688 "/>
<path fill-rule="nonzero" fill="rgb(0%, 44.705883%, 69.803923%)" fill-opacity="1" d="M 586.777344 58.953125 C 586.777344 52.375 576.90625 52.375 576.90625 58.953125 C 576.90625 65.535156 586.777344 65.535156 586.777344 58.953125 Z M 586.777344 58.953125 "/>
<path fill-rule="nonzero" fill="rgb(0%, 44.705883%, 69.803923%)" fill-opacity="1" d="M 521.117188 328.863281 C 521.117188 322.28125 511.246094 322.28125 511.246094 328.863281 C 511.246094 335.441406 521.117188 335.441406 521.117188 328.863281 Z M 521.117188 328.863281 "/>
<path fill-rule="nonzero" fill="rgb(0%, 44.705883%, 69.803923%)" fill-opacity="1" d="M 330.074219 259.527344 C 330.074219 252.949219 320.203125 252.949219 320.203125 259.527344 C 320.203125 266.109375 330.074219 266.109375 330.074219 259.527344 Z M 330.074219 259.527344 "/>
<path fill-rule="nonzero" fill="rgb(0%, 44.705883%, 69.803923%)" fill-opacity="1" d="M 575.351562 228.980469 C 575.351562 222.402344 565.484375 222.402344 565.484375 228.980469 C 565.484375 235.5625 575.351562 235.5625 575.351562 228.980469 Z M 575.351562 228.980469 "/>
<path fill-rule="nonzero" fill="rgb(0%, 44.705883%, 69.803923%)" fill-opacity="1" d="M 547.027344 233.078125 C 547.027344 226.496094 537.160156 226.496094 537.160156 233.078125 C 537.160156 239.65625 547.027344 239.65625 547.027344 233.078125 Z M 547.027344 233.078125 "/>
<path fill-rule="nonzero" fill="rgb(0%, 44.705883%, 69.803923%)" fill-opacity="1" d="M 525.253906 159.992188 C 525.253906 153.414062 515.382812 153.414062 515.382812 159.992188 C 515.382812 166.570312 525.253906 166.570312 525.253906 159.992188 Z M 525.253906 159.992188 "/>
<path fill-rule="nonzero" fill="rgb(0%, 44.705883%, 69.803923%)" fill-opacity="1" d="M 393.21875 230.617188 C 393.21875 224.039062 383.351562 224.039062 383.351562 230.617188 C 383.351562 237.199219 393.21875 237.199219 393.21875 230.617188 Z M 393.21875 230.617188 "/>
<path fill-rule="nonzero" fill="rgb(0%, 44.705883%, 69.803923%)" fill-opacity="1" d="M 494.121094 464.207031 C 494.121094 457.625 484.25 457.625 484.25 464.207031 C 484.25 470.785156 494.121094 470.785156 494.121094 464.207031 Z M 494.121094 464.207031 "/>
<path fill-rule="nonzero" fill="rgb(0%, 44.705883%, 69.803923%)" fill-opacity="1" d="M 399.941406 386.394531 C 399.941406 379.8125 390.070312 379.8125 390.070312 386.394531 C 390.070312 392.972656 399.941406 392.972656 399.941406 386.394531 Z M 399.941406 386.394531 "/>
<path fill-rule="nonzero" fill="rgb(0%, 44.705883%, 69.803923%)" fill-opacity="1" d="M 462.734375 168.898438 C 462.734375 162.316406 452.863281 162.316406 452.863281 168.898438 C 452.863281 175.476562 462.734375 175.476562 462.734375 168.898438 Z M 462.734375 168.898438 "/>
<path fill-rule="nonzero" fill="rgb(0%, 44.705883%, 69.803923%)" fill-opacity="1" d="M 521.5 273.394531 C 521.5 266.816406 511.628906 266.816406 511.628906 273.394531 C 511.628906 279.976562 521.5 279.976562 521.5 273.394531 Z M 521.5 273.394531 "/>
<path fill-rule="nonzero" fill="rgb(0%, 44.705883%, 69.803923%)" fill-opacity="1" d="M 665.296875 300.335938 C 665.296875 293.753906 655.429688 293.753906 655.429688 300.335938 C 655.429688 306.914062 665.296875 306.914062 665.296875 300.335938 Z M 665.296875 300.335938 "/>
<path fill-rule="nonzero" fill="rgb(0%, 44.705883%, 69.803923%)" fill-opacity="1" d="M 637.007812 173.238281 C 637.007812 166.660156 627.136719 166.660156 627.136719 173.238281 C 627.136719 179.820312 637.007812 179.820312 637.007812 173.238281 Z M 637.007812 173.238281 "/>
<path fill-rule="nonzero" fill="rgb(0%, 44.705883%, 69.803923%)" fill-opacity="1" d="M 345.355469 297.742188 C 345.355469 291.160156 335.484375 291.160156 335.484375 297.742188 C 335.484375 304.320312 345.355469 304.320312 345.355469 297.742188 Z M 345.355469 297.742188 "/>
<path fill-rule="nonzero" fill="rgb(0%, 44.705883%, 69.803923%)" fill-opacity="1" d="M 622.335938 146.738281 C 622.335938 140.160156 612.46875 140.160156 612.46875 146.738281 C 612.46875 153.320312 622.335938 153.320312 622.335938 146.738281 Z M 622.335938 146.738281 "/>
<path fill-rule="nonzero" fill="rgb(0%, 44.705883%, 69.803923%)" fill-opacity="1" d="M 437.34375 341.375 C 437.34375 334.796875 427.472656 334.796875 427.472656 341.375 C 427.472656 347.957031 437.34375 347.957031 437.34375 341.375 Z M 437.34375 341.375 "/>
<path fill-rule="nonzero" fill="rgb(0%, 44.705883%, 69.803923%)" fill-opacity="1" d="M 305.441406 257.707031 C 305.441406 251.128906 295.570312 251.128906 295.570312 257.707031 C 295.570312 264.289062 305.441406 264.289062 305.441406 257.707031 Z M 305.441406 257.707031 "/>
<path fill-rule="nonzero" fill="rgb(0%, 44.705883%, 69.803923%)" fill-opacity="1" d="M 361.605469 448.390625 C 361.605469 441.8125 351.734375 441.8125 351.734375 448.390625 C 351.734375 454.972656 361.605469 454.972656 361.605469 448.390625 Z M 361.605469 448.390625 "/>
<path fill-rule="nonzero" fill="rgb(0%, 44.705883%, 69.803923%)" fill-opacity="1" d="M 355.941406 339.699219 C 355.941406 333.121094 346.074219 333.121094 346.074219 339.699219 C 346.074219 346.28125 355.941406 346.28125 355.941406 339.699219 Z M 355.941406 339.699219 "/>
<path fill-rule="nonzero" fill="rgb(0%, 44.705883%, 69.803923%)" fill-opacity="1" d="M 466.105469 262.515625 C 466.105469 255.9375 456.234375 255.9375 456.234375 262.515625 C 456.234375 269.097656 466.105469 269.097656 466.105469 262.515625 Z M 466.105469 262.515625 "/>
<path fill-rule="nonzero" fill="rgb(0%, 44.705883%, 69.803923%)" fill-opacity="1" d="M 434.363281 241.710938 C 434.363281 235.128906 424.492188 235.128906 424.492188 241.710938 C 424.492188 248.289062 434.363281 248.289062 434.363281 241.710938 Z M 434.363281 241.710938 "/>
<path fill-rule="nonzero" fill="rgb(0%, 44.705883%, 69.803923%)" fill-opacity="1" d="M 540.574219 392.675781 C 540.574219 386.09375 530.707031 386.09375 530.707031 392.675781 C 530.707031 399.253906 540.574219 399.253906 540.574219 392.675781 Z M 540.574219 392.675781 "/>
<path fill-rule="nonzero" fill="rgb(0%, 44.705883%, 69.803923%)" fill-opacity="1" d="M 608.984375 360.824219 C 608.984375 354.242188 599.113281 354.242188 599.113281 360.824219 C 599.113281 367.402344 608.984375 367.402344 608.984375 360.824219 Z M 608.984375 360.824219 "/>
<path fill-rule="nonzero" fill="rgb(0%, 44.705883%, 69.803923%)" fill-opacity="1" d="M 709.730469 201.972656 C 709.730469 195.390625 699.863281 195.390625 699.863281 201.972656 C 699.863281 208.550781 709.730469 208.550781 709.730469 201.972656 Z M 709.730469 201.972656 "/>
<path fill-rule="nonzero" fill="rgb(0%, 44.705883%, 69.803923%)" fill-opacity="1" d="M 498.230469 293.511719 C 498.230469 286.929688 488.359375 286.929688 488.359375 293.511719 C 488.359375 300.089844 498.230469 300.089844 498.230469 293.511719 Z M 498.230469 293.511719 "/>
<path fill-rule="nonzero" fill="rgb(0%, 44.705883%, 69.803923%)" fill-opacity="1" d="M 388.164062 247.855469 C 388.164062 241.277344 378.292969 241.277344 378.292969 247.855469 C 378.292969 254.4375 388.164062 254.4375 388.164062 247.855469 Z M 388.164062 247.855469 "/>
<path fill-rule="nonzero" fill="rgb(0%, 44.705883%, 69.803923%)" fill-opacity="1" d="M 516.621094 314.378906 C 516.621094 307.800781 506.75 307.800781 506.75 314.378906 C 506.75 320.960938 516.621094 320.960938 516.621094 314.378906 Z M 516.621094 314.378906 "/>
<path fill-rule="nonzero" fill="rgb(0%, 44.705883%, 69.803923%)" fill-opacity="1" d="M 466.847656 257.859375 C 466.847656 251.28125 456.980469 251.28125 456.980469 257.859375 C 456.980469 264.441406 466.847656 264.441406 466.847656 257.859375 Z M 466.847656 257.859375 "/>
<path fill-rule="nonzero" fill="rgb(0%, 44.705883%, 69.803923%)" fill-opacity="1" d="M 606.617188 219.777344 C 606.617188 213.195312 596.746094 213.195312 596.746094 219.777344 C 596.746094 226.355469 606.617188 226.355469 606.617188 219.777344 Z M 606.617188 219.777344 "/>
<path fill-rule="nonzero" fill="rgb(0%, 44.705883%, 69.803923%)" fill-opacity="1" d="M 394.230469 365.996094 C 394.230469 359.414062 384.359375 359.414062 384.359375 365.996094 C 384.359375 372.574219 394.230469 372.574219 394.230469 365.996094 Z M 394.230469 365.996094 "/>
<path fill-rule="nonzero" fill="rgb(0%, 44.705883%, 69.803923%)" fill-opacity="1" d="M 438.039062 439.628906 C 438.039062 433.046875 428.167969 433.046875 428.167969 439.628906 C 428.167969 446.207031 438.039062 446.207031 438.039062 439.628906 Z M 438.039062 439.628906 "/>
<path fill-rule="nonzero" fill="rgb(0%, 44.705883%, 69.803923%)" fill-opacity="1" d="M 452.660156 254.136719 C 452.660156 247.554688 442.789062 247.554688 442.789062 254.136719 C 442.789062 260.714844 452.660156 260.714844 452.660156 254.136719 Z M 452.660156 254.136719 "/>
<path fill-rule="nonzero" fill="rgb(0%, 44.705883%, 69.803923%)" fill-opacity="1" d="M 652.835938 234.125 C 652.835938 227.546875 642.96875 227.546875 642.96875 234.125 C 642.96875 240.707031 652.835938 240.707031 652.835938 234.125 Z M 652.835938 234.125 "/>
<path fill-rule="nonzero" fill="rgb(0%, 44.705883%, 69.803923%)" fill-opacity="1" d="M 449.734375 220.828125 C 449.734375 214.25 439.863281 214.25 439.863281 220.828125 C 439.863281 227.410156 449.734375 227.410156 449.734375 220.828125 Z M 449.734375 220.828125 "/>
<path fill-rule="nonzero" fill="rgb(0%, 44.705883%, 69.803923%)" fill-opacity="1" d="M 312.886719 404.246094 C 312.886719 397.667969 303.015625 397.667969 303.015625 404.246094 C 303.015625 410.828125 312.886719 410.828125 312.886719 404.246094 Z M 312.886719 404.246094 "/>
<path fill-rule="nonzero" fill="rgb(0%, 44.705883%, 69.803923%)" fill-opacity="1" d="M 315.136719 254.203125 C 315.136719 247.621094 305.265625 247.621094 305.265625 254.203125 C 305.265625 260.78125 315.136719 260.78125 315.136719 254.203125 Z M 315.136719 254.203125 "/>
<path fill-rule="nonzero" fill="rgb(0%, 44.705883%, 69.803923%)" fill-opacity="1" d="M 503.179688 312.851562 C 503.179688 306.273438 493.308594 306.273438 493.308594 312.851562 C 493.308594 319.433594 503.179688 319.433594 503.179688 312.851562 Z M 503.179688 312.851562 "/>
<path fill-rule="nonzero" fill="rgb(0%, 44.705883%, 69.803923%)" fill-opacity="1" d="M 318.207031 264.261719 C 318.207031 257.683594 308.335938 257.683594 308.335938 264.261719 C 308.335938 270.839844 318.207031 270.839844 318.207031 264.261719 Z M 318.207031 264.261719 "/>
<path fill-rule="nonzero" fill="rgb(0%, 44.705883%, 69.803923%)" fill-opacity="1" d="M 558.351562 313.664062 C 558.351562 307.085938 548.480469 307.085938 548.480469 313.664062 C 548.480469 320.246094 558.351562 320.246094 558.351562 313.664062 Z M 558.351562 313.664062 "/>
<path fill-rule="nonzero" fill="rgb(0%, 44.705883%, 69.803923%)" fill-opacity="1" d="M 568.660156 415.679688 C 568.660156 409.101562 558.792969 409.101562 558.792969 415.679688 C 558.792969 422.261719 568.660156 422.261719 568.660156 415.679688 Z M 568.660156 415.679688 "/>
<path fill-rule="nonzero" fill="rgb(0%, 44.705883%, 69.803923%)" fill-opacity="1" d="M 501.414062 208.953125 C 501.414062 202.375 491.542969 202.375 491.542969 208.953125 C 491.542969 215.535156 501.414062 215.535156 501.414062 208.953125 Z M 501.414062 208.953125 "/>
<path fill-rule="nonzero" fill="rgb(0%, 44.705883%, 69.803923%)" fill-opacity="1" d="M 502.445312 356.5 C 502.445312 349.921875 492.574219 349.921875 492.574219 356.5 C 492.574219 363.082031 502.445312 363.082031 502.445312 356.5 Z M 502.445312 356.5 "/>
<path fill-rule="nonzero" fill="rgb(0%, 44.705883%, 69.803923%)" fill-opacity="1" d="M 349.011719 352.703125 C 349.011719 346.125 339.140625 346.125 339.140625 352.703125 C 339.140625 359.285156 349.011719 359.285156 349.011719 352.703125 Z M 349.011719 352.703125 "/>
<path fill-rule="nonzero" fill="rgb(0%, 44.705883%, 69.803923%)" fill-opacity="1" d="M 324.492188 316.019531 C 324.492188 309.4375 314.621094 309.4375 314.621094 316.019531 C 314.621094 322.597656 324.492188 322.597656 324.492188 316.019531 Z M 324.492188 316.019531 "/>
<path fill-rule="nonzero" fill="rgb(0%, 44.705883%, 69.803923%)" fill-opacity="1" d="M 458.820312 74.015625 C 458.820312 67.4375 448.949219 67.4375 448.949219 74.015625 C 448.949219 80.597656 458.820312 80.597656 458.820312 74.015625 Z M 458.820312 74.015625 "/>
<path fill-rule="nonzero" fill="rgb(0%, 44.705883%, 69.803923%)" fill-opacity="1" d="M 314.921875 426.101562 C 314.921875 419.523438 305.054688 419.523438 305.054688 426.101562 C 305.054688 432.683594 314.921875 432.683594 314.921875 426.101562 Z M 314.921875 426.101562 "/>
<path fill-rule="nonzero" fill="rgb(0%, 44.705883%, 69.803923%)" fill-opacity="1" d="M 358.011719 344.414062 C 358.011719 337.835938 348.144531 337.835938 348.144531 344.414062 C 348.144531 350.996094 358.011719 350.996094 358.011719 344.414062 Z M 358.011719 344.414062 "/>
<path fill-rule="nonzero" fill="rgb(0%, 44.705883%, 69.803923%)" fill-opacity="1" d="M 313.191406 314.273438 C 313.191406 307.695312 303.320312 307.695312 303.320312 314.273438 C 303.320312 320.855469 313.191406 320.855469 313.191406 314.273438 Z M 313.191406 314.273438 "/>
<path fill-rule="nonzero" fill="rgb(0%, 44.705883%, 69.803923%)" fill-opacity="1" d="M 517.347656 230.210938 C 517.347656 223.632812 507.476562 223.632812 507.476562 230.210938 C 507.476562 236.792969 517.347656 236.792969 517.347656 230.210938 Z M 517.347656 230.210938 "/>
<path fill-rule="nonzero" fill="rgb(0%, 44.705883%, 69.803923%)" fill-opacity="1" d="M 553.996094 335.070312 C 553.996094 328.488281 544.125 328.488281 544.125 335.070312 C 544.125 341.648438 553.996094 341.648438 553.996094 335.070312 Z M 553.996094 335.070312 "/>
<path fill-rule="nonzero" fill="rgb(0%, 44.705883%, 69.803923%)" fill-opacity="1" d="M 381.992188 287.078125 C 381.992188 280.5 372.121094 280.5 372.121094 287.078125 C 372.121094 293.660156 381.992188 293.660156 381.992188 287.078125 Z M 381.992188 287.078125 "/>
<path fill-rule="nonzero" fill="rgb(90.196079%, 62.352943%, 0%)" fill-opacity="1" d="M 300.699219 397.929688 C 300.699219 391.351562 290.828125 391.351562 290.828125 397.929688 C 290.828125 404.511719 300.699219 404.511719 300.699219 397.929688 Z M 300.699219 397.929688 "/>
<path fill-rule="nonzero" fill="rgb(90.196079%, 62.352943%, 0%)" fill-opacity="1" d="M 216.207031 116.214844 C 216.207031 109.632812 206.335938 109.632812 206.335938 116.214844 C 206.335938 122.792969 216.207031 122.792969 216.207031 116.214844 Z M 216.207031 116.214844 "/>
<path fill-rule="nonzero" fill="rgb(90.196079%, 62.352943%, 0%)" fill-opacity="1" d="M 211.3125 271.410156 C 211.3125 264.828125 201.441406 264.828125 201.441406 271.410156 C 201.441406 277.988281 211.3125 277.988281 211.3125 271.410156 Z M 211.3125 271.410156 "/>
<path fill-rule="nonzero" fill="rgb(90.196079%, 62.352943%, 0%)" fill-opacity="1" d="M 104.296875 193.457031 C 104.296875 186.878906 94.429688 186.878906 94.429688 193.457031 C 94.429688 200.039062 104.296875 200.039062 104.296875 193.457031 Z M 104.296875 193.457031 "/>
<path fill-rule="nonzero" fill="rgb(90.196079%, 62.352943%, 0%)" fill-opacity="1" d="M 120.605469 370.867188 C 120.605469 364.289062 110.734375 364.289062 110.734375 370.867188 C 110.734375 377.449219 120.605469 377.449219 120.605469 370.867188 Z M 120.605469 370.867188 "/>
<path fill-rule="nonzero" fill="rgb(90.196079%, 62.352943%, 0%)" fill-opacity="1" d="M 197.074219 208.773438 C 197.074219 202.191406 187.207031 202.191406 187.207031 208.773438 C 187.207031 215.351562 197.074219 215.351562 197.074219 208.773438 Z M 197.074219 208.773438 "/>
<path fill-rule="nonzero" fill="rgb(90.196079%, 62.352943%, 0%)" fill-opacity="1" d="M 156.921875 179.84375 C 156.921875 173.265625 147.050781 173.265625 147.050781 179.84375 C 147.050781 186.425781 156.921875 186.425781 156.921875 179.84375 Z M 156.921875 179.84375 "/>
<path fill-rule="nonzero" fill="rgb(90.196079%, 62.352943%, 0%)" fill-opacity="1" d="M 181.394531 397.234375 C 181.394531 390.65625 171.523438 390.65625 171.523438 397.234375 C 171.523438 403.816406 181.394531 403.816406 181.394531 397.234375 Z M 181.394531 397.234375 "/>
<path fill-rule="nonzero" fill="rgb(90.196079%, 62.352943%, 0%)" fill-opacity="1" d="M 133.785156 207.546875 C 133.785156 200.96875 123.914062 200.96875 123.914062 207.546875 C 123.914062 214.128906 133.785156 214.128906 133.785156 207.546875 Z M 133.785156 207.546875 "/>
<path fill-rule="nonzero" fill="rgb(0%, 61.960787%, 45.09804%)" fill-opacity="1" d="M 184.15625 110.492188 C 184.15625 103.914062 174.285156 103.914062 174.285156 110.492188 C 174.285156 117.074219 184.15625 117.074219 184.15625 110.492188 Z M 184.15625 110.492188 "/>
<path fill-rule="nonzero" fill="rgb(80.000001%, 47.450981%, 65.490198%)" fill-opacity="1" d="M 623.644531 210.382812 C 623.644531 203.804688 613.773438 203.804688 613.773438 210.382812 C 613.773438 216.964844 623.644531 216.964844 623.644531 210.382812 Z M 623.644531 210.382812 "/>
<path fill-rule="nonzero" fill="rgb(100%, 100%, 100%)" fill-opacity="1" stroke-width="1" stroke-linecap="butt" stroke-linejoin="miter" stroke="rgb(0%, 0%, 0%)" stroke-opacity="1" stroke-miterlimit="2" d="M 745 143 L 878 143 L 878 42 L 745 42 Z M 745 143 "/>
<path fill="none" stroke-width="1" stroke-linecap="butt" stroke-linejoin="miter" stroke="rgb(0%, 0%, 0%)" stroke-opacity="1" stroke-miterlimit="1.154701" d="M 333.054688 541.5 L 333.054688 546.5 "/>
<path fill="none" stroke-width="1" stroke-linecap="butt" stroke-linejoin="miter" stroke="rgb(0%, 0%, 0%)" stroke-opacity="1" stroke-miterlimit="1.154701" d="M 605.449219 541.5 L 605.449219 546.5 "/>
<path fill="none" stroke-width="1" stroke-linecap="butt" stroke-linejoin="miter" stroke="rgb(0%, 0%, 0%)" stroke-opacity="1" stroke-miterlimit="1.154701" d="M 877.839844 541.5 L 877.839844 546.5 "/>
<path fill="none" stroke-width="1" stroke-linecap="butt" stroke-linejoin="miter" stroke="rgb(0%, 0%, 0%)" stroke-opacity="1" stroke-miterlimit="1.154701" d="M 61.5 480.585938 L 56.5 480.585938 "/>
<path fill="none" stroke-width="1" stroke-linecap="butt" stroke-linejoin="miter" stroke="rgb(0%, 0%, 0%)" stroke-opacity="1" stroke-miterlimit="1.154701" d="M 61.5 378.882812 L 56.5 378.882812 "/>
<path fill="none" stroke-width="1" stroke-linecap="butt" stroke-linejoin="miter" stroke="rgb(0%, 0%, 0%)" stroke-opacity="1" stroke-miterlimit="1.154701" d="M 61.5 277.183594 L 56.5 277.183594 "/>
<path fill="none" stroke-width="1" stroke-linecap="butt" stroke-linejoin="miter" stroke="rgb(0%, 0%, 0%)" stroke-opacity="1" stroke-miterlimit="1.154701" d="M 61.5 175.480469 L 56.5 175.480469 "/>
<path fill="none" stroke-width="1" stroke-linecap="butt" stroke-linejoin="miter" stroke="rgb(0%, 0%, 0%)" stroke-opacity="1" stroke-miterlimit="1.154701" d="M 61.5 73.777344 L 56.5 73.777344 "/>
<path fill-rule="nonzero" fill="rgb(0%, 44.705883%, 69.803923%)" fill-opacity="1" d="M 765.699219 58 C 765.699219 51.421875 755.828125 51.421875 755.828125 58 C 755.828125 64.578125 765.699219 64.578125 765.699219 58 Z M 765.699219 58 "/>
<path fill-rule="nonzero" fill="rgb(90.196079%, 62.352943%, 0%)" fill-opacity="1" d="M 765.699219 81 C 765.699219 74.421875 755.828125 74.421875 755.828125 81 C 755.828125 87.578125 765.699219 87.578125 765.699219 81 Z M 765.699219 81 "/>
<path fill-rule="nonzero" fill="rgb(0%, 61.960787%, 45.09804%)" fill-opacity="1" d="M 765.699219 104 C 765.699219 97.421875 755.828125 97.421875 755.828125 104 C 755.828125 110.578125 765.699219 110.578125 765.699219 104 Z M 765.699219 104 "/>
<path fill-rule="nonzero" fill="rgb(80.000001%, 47.450981%, 65.490198%)" fill-opacity="1" d="M 765.699219 127 C 765.699219 120.421875 755.828125 120.421875 755.828125 127 C 755.828125 133.578125 765.699219 133.578125 765.699219 127 Z M 765.699219 127 "/>
<g fill="rgb(0%, 0%, 0%)" fill-opacity="1">
<use xlink:href="#glyph-8-0-f27aafba" x="775.763019" y="63.102987"/>
</g>
<g fill="rgb(0%, 0%, 0%)" fill-opacity="1">
<use xlink:href="#glyph-8-1-f27aafba" x="787.425019" y="63.102987"/>
</g>
<g fill="rgb(0%, 0%, 0%)" fill-opacity="1">
<use xlink:href="#glyph-8-2-f27aafba" x="795.209019" y="63.102987"/>
</g>
<g fill="rgb(0%, 0%, 0%)" fill-opacity="1">
<use xlink:href="#glyph-8-3-f27aafba" x="798.317019" y="63.102987"/>
</g>
<g fill="rgb(0%, 0%, 0%)" fill-opacity="1">
<use xlink:href="#glyph-8-4-f27aafba" x="806.101019" y="63.102987"/>
</g>
<g fill="rgb(0%, 0%, 0%)" fill-opacity="1">
<use xlink:href="#glyph-0-15-f27aafba" x="775.763019" y="86.102988"/>
</g>
<g fill="rgb(0%, 0%, 0%)" fill-opacity="1">
<use xlink:href="#glyph-0-7-f27aafba" x="787.425019" y="86.102988"/>
</g>
<g fill="rgb(0%, 0%, 0%)" fill-opacity="1">
<use xlink:href="#glyph-0-4-f27aafba" x="790.533019" y="86.102988"/>
</g>
<g fill="rgb(0%, 0%, 0%)" fill-opacity="1">
<use xlink:href="#glyph-0-16-f27aafba" x="798.317019" y="86.102988"/>
</g>
<g fill="rgb(0%, 0%, 0%)" fill-opacity="1">
<use xlink:href="#glyph-0-6-f27aafba" x="806.101019" y="86.102988"/>
</g>
<g fill="rgb(0%, 0%, 0%)" fill-opacity="1">
<use xlink:href="#glyph-0-17-f27aafba" x="775.763019" y="109.102988"/>
</g>
<g fill="rgb(0%, 0%, 0%)" fill-opacity="1">
<use xlink:href="#glyph-0-6-f27aafba" x="783.54702" y="109.102988"/>
</g>
<g fill="rgb(0%, 0%, 0%)" fill-opacity="1">
<use xlink:href="#glyph-0-16-f27aafba" x="788.209019" y="109.102988"/>
</g>
<g fill="rgb(0%, 0%, 0%)" fill-opacity="1">
<use xlink:href="#glyph-0-18-f27aafba" x="795.993019" y="109.102988"/>
</g>
<g fill="rgb(0%, 0%, 0%)" fill-opacity="1">
<use xlink:href="#glyph-0-3-f27aafba" x="799.101019" y="109.102988"/>
</g>
<g fill="rgb(0%, 0%, 0%)" fill-opacity="1">
<use xlink:href="#glyph-0-19-f27aafba" x="806.88502" y="109.102988"/>
</g>
<g fill="rgb(0%, 0%, 0%)" fill-opacity="1">
<use xlink:href="#glyph-0-2-f27aafba" x="813.885022" y="109.102988"/>
</g>
<g fill="rgb(0%, 0%, 0%)" fill-opacity="1">
<use xlink:href="#glyph-0-3-f27aafba" x="817.77702" y="109.102988"/>
</g>
<g fill="rgb(0%, 0%, 0%)" fill-opacity="1">
<use xlink:href="#glyph-0-20-f27aafba" x="825.561021" y="109.102988"/>
</g>
<g fill="rgb(0%, 0%, 0%)" fill-opacity="1">
<use xlink:href="#glyph-0-9-f27aafba" x="833.345021" y="109.102988"/>
</g>
<g fill="rgb(0%, 0%, 0%)" fill-opacity="1">
<use xlink:href="#glyph-0-15-f27aafba" x="837.23702" y="109.102988"/>
</g>
<g fill="rgb(0%, 0%, 0%)" fill-opacity="1">
<use xlink:href="#glyph-0-7-f27aafba" x="848.899023" y="109.102988"/>
</g>
<g fill="rgb(0%, 0%, 0%)" fill-opacity="1">
<use xlink:href="#glyph-0-4-f27aafba" x="852.007024" y="109.102988"/>
</g>
<g fill="rgb(0%, 0%, 0%)" fill-opacity="1">
<use xlink:href="#glyph-0-16-f27aafba" x="859.791021" y="109.102988"/>
</g>
<g fill="rgb(0%, 0%, 0%)" fill-opacity="1">
<use xlink:href="#glyph-0-6-f27aafba" x="867.575018" y="109.102988"/>
</g>
<g fill="rgb(0%, 0%, 0%)" fill-opacity="1">
<use xlink:href="#glyph-0-17-f27aafba" x="775.763019" y="132.102989"/>
</g>
<g fill="rgb(0%, 0%, 0%)" fill-opacity="1">
<use xlink:href="#glyph-0-6-f27aafba" x="783.54702" y="132.102989"/>
</g>
<g fill="rgb(0%, 0%, 0%)" fill-opacity="1">
<use xlink:href="#glyph-0-16-f27aafba" x="788.209019" y="132.102989"/>
</g>
<g fill="rgb(0%, 0%, 0%)" fill-opacity="1">
<use xlink:href="#glyph-0-18-f27aafba" x="795.993019" y="132.102989"/>
</g>
<g fill="rgb(0%, 0%, 0%)" fill-opacity="1">
<use xlink:href="#glyph-0-3-f27aafba" x="799.101019" y="132.102989"/>
</g>
<g fill="rgb(0%, 0%, 0%)" fill-opacity="1">
<use xlink:href="#glyph-0-19-f27aafba" x="806.88502" y="132.102989"/>
</g>
<g fill="rgb(0%, 0%, 0%)" fill-opacity="1">
<use xlink:href="#glyph-0-2-f27aafba" x="813.885022" y="132.102989"/>
</g>
<g fill="rgb(0%, 0%, 0%)" fill-opacity="1">
<use xlink:href="#glyph-0-3-f27aafba" x="817.77702" y="132.102989"/>
</g>
<g fill="rgb(0%, 0%, 0%)" fill-opacity="1">
<use xlink:href="#glyph-0-20-f27aafba" x="825.561021" y="132.102989"/>
</g>
<g fill="rgb(0%, 0%, 0%)" fill-opacity="1">
<use xlink:href="#glyph-0-9-f27aafba" x="833.345021" y="132.102989"/>
</g>
<g fill="rgb(0%, 0%, 0%)" fill-opacity="1">
<use xlink:href="#glyph-0-15-f27aafba" x="837.23702" y="132.102989"/>
</g>
<g fill="rgb(0%, 0%, 0%)" fill-opacity="1">
<use xlink:href="#glyph-0-1-f27aafba" x="848.899023" y="132.102989"/>
</g>
<g fill="rgb(0%, 0%, 0%)" fill-opacity="1">
<use xlink:href="#glyph-0-18-f27aafba" x="856.683019" y="132.102989"/>
</g>
<g fill="rgb(0%, 0%, 0%)" fill-opacity="1">
<use xlink:href="#glyph-0-16-f27aafba" x="859.791021" y="132.102989"/>
</g>
<g fill="rgb(0%, 0%, 0%)" fill-opacity="1">
<use xlink:href="#glyph-0-6-f27aafba" x="867.575018" y="132.102989"/>
</g>
<path fill="none" stroke-width="1" stroke-linecap="butt" stroke-linejoin="miter" stroke="rgb(0%, 0%, 0%)" stroke-opacity="1" stroke-miterlimit="1.154701" d="M 61.5 541 L 884.5 541 "/>
<path fill="none" stroke-width="1" stroke-linecap="butt" stroke-linejoin="miter" stroke="rgb(0%, 0%, 0%)" stroke-opacity="1" stroke-miterlimit="1.154701" d="M 62 541.5 L 62 35.5 "/>
<path fill="none" stroke-width="1" stroke-linecap="butt" stroke-linejoin="miter" stroke="rgb(0%, 0%, 0%)" stroke-opacity="1" stroke-miterlimit="1.154701" d="M 61.5 36 L 884.5 36 "/>
<path fill="none" stroke-width="1" stroke-linecap="butt" stroke-linejoin="miter" stroke="rgb(0%, 0%, 0%)" stroke-opacity="1" stroke-miterlimit="1.154701" d="M 884 541.5 L 884 35.5 "/>
</svg>
